<svg id="Ebene_1" data-name="Ebene 1" xmlns="http://www.w3.org/2000/svg" viewBox="0 0 165 86"><defs><style>.cls-1{fill:#e6e6e6;}</style></defs><path class="cls-1" d="M147.08,60.22H144v3.05h3.05Zm-.66-1,.78-8.07V47.37h-3.3V51.1l.8,8.07Zm-5.86,4.1V51.75h-3.05v4.86a12,12,0,0,1-.23,3.11,2.19,2.19,0,0,1-.84,1.06,2.44,2.44,0,0,1-1.4.43,1.93,1.93,0,0,1-1.13-.32,1.69,1.69,0,0,1-.61-.87,14.85,14.85,0,0,1-.17-3V51.75h-3V59a6.34,6.34,0,0,0,.41,2.55A3,3,0,0,0,131.83,63a4.24,4.24,0,0,0,2.08.51,4.62,4.62,0,0,0,2.17-.54,4.37,4.37,0,0,0,1.65-1.45v1.73ZM124.1,58.34a6,6,0,0,1-.12,1.49,1.87,1.87,0,0,1-.72,1,2.64,2.64,0,0,1-1.57.54,1.69,1.69,0,0,1-1.22-.47,1.48,1.48,0,0,1-.47-1.1,1.27,1.27,0,0,1,.59-1.08,5.64,5.64,0,0,1,1.66-.53,18.77,18.77,0,0,0,1.85-.46Zm-3.33-4.2a2.17,2.17,0,0,1,1.26-.32,2.59,2.59,0,0,1,1.64.38,1.56,1.56,0,0,1,.43,1.25v.3a16.77,16.77,0,0,1-3,.75,10.19,10.19,0,0,0-2.42.71,3,3,0,0,0-1.3,1.17,3.44,3.44,0,0,0,.55,4.18,4,4,0,0,0,2.81,1,4.8,4.8,0,0,0,1.89-.38A5.64,5.64,0,0,0,124.34,62c0,.06.06.18.11.36.12.39.21.69.29.9h3a6.6,6.6,0,0,1-.55-1.55,12.08,12.08,0,0,1-.15-2.24l0-3.55a6.3,6.3,0,0,0-.41-2.73,3,3,0,0,0-1.4-1.22,7.17,7.17,0,0,0-3-.49,5.81,5.81,0,0,0-3.38.81,4.26,4.26,0,0,0-1.61,2.47l2.77.5a2.23,2.23,0,0,1,.74-1.13m-6.32-6.77h-3v15.9h3Zm-16.69,0v15.9h3V57.5a6.83,6.83,0,0,1,.27-2.2,2.19,2.19,0,0,1,.88-1.11,2.55,2.55,0,0,1,1.35-.37,2,2,0,0,1,1.1.29,1.48,1.48,0,0,1,.61.78,8.62,8.62,0,0,1,.18,2.29v6.09h3V56.51a12.5,12.5,0,0,0-.15-2.28,3.64,3.64,0,0,0-.59-1.35,3.12,3.12,0,0,0-1.27-1,4.56,4.56,0,0,0-5.42,1.34V47.37Zm-4.23,5a5.59,5.59,0,0,0-3.35-.91,5.33,5.33,0,0,0-4.07,1.59,6.18,6.18,0,0,0-1.51,4.44,6.17,6.17,0,0,0,1.5,4.41,5.29,5.29,0,0,0,4,1.6,5.47,5.47,0,0,0,3.54-1.06,5.24,5.24,0,0,0,1.79-3.11l-3-.51a2.94,2.94,0,0,1-.78,1.7,2,2,0,0,1-1.42.49,2.28,2.28,0,0,1-1.85-.84,4.67,4.67,0,0,1-.69-2.9,4.07,4.07,0,0,1,.68-2.63,2.29,2.29,0,0,1,1.82-.78,2.09,2.09,0,0,1,1.39.45,2.19,2.19,0,0,1,.69,1.36l3-.54a5,5,0,0,0-1.78-2.76M73.71,62.57a6.41,6.41,0,0,0,3.72,1,5.86,5.86,0,0,0,3.92-1.14,3.49,3.49,0,0,0,1.32-2.72,2.84,2.84,0,0,0-1-2.27,8.49,8.49,0,0,0-3.4-1.35,11.74,11.74,0,0,1-2.85-.86.68.68,0,0,1-.3-.55.7.7,0,0,1,.35-.62,3.32,3.32,0,0,1,1.72-.34,2.53,2.53,0,0,1,1.47.36,1.82,1.82,0,0,1,.7,1l2.87-.53a4,4,0,0,0-1.58-2.28,6.43,6.43,0,0,0-3.51-.77,5.53,5.53,0,0,0-3.67,1A3.19,3.19,0,0,0,72.34,55a3,3,0,0,0,1.37,2.59,16.2,16.2,0,0,0,4.67,1.48,2.58,2.58,0,0,1,1,.4.84.84,0,0,1,.21.58,1,1,0,0,1-.4.81,3,3,0,0,1-1.78.44,2.62,2.62,0,0,1-1.66-.47,2.2,2.2,0,0,1-.8-1.35l-3,.47a4.38,4.38,0,0,0,1.79,2.59m-20.9-15.2v15.9h3V57.5a6.78,6.78,0,0,1,.28-2.2A2.12,2.12,0,0,1,57,54.19a2.59,2.59,0,0,1,1.36-.37,2,2,0,0,1,1.1.29,1.53,1.53,0,0,1,.61.78,8.79,8.79,0,0,1,.17,2.29v6.09h3V56.51a11.47,11.47,0,0,0-.16-2.28,3.62,3.62,0,0,0-.58-1.35,3.15,3.15,0,0,0-1.28-1,4.44,4.44,0,0,0-1.89-.39,4.51,4.51,0,0,0-3.53,1.73V47.37Zm-4.24,5a5.56,5.56,0,0,0-3.34-.91,5.37,5.37,0,0,0-4.08,1.59,6.22,6.22,0,0,0-1.5,4.44,6.17,6.17,0,0,0,1.5,4.41,5.27,5.27,0,0,0,4,1.6,5.48,5.48,0,0,0,3.55-1.06,5.29,5.29,0,0,0,1.79-3.11l-3-.51a3.07,3.07,0,0,1-.78,1.7,2.06,2.06,0,0,1-1.42.49,2.26,2.26,0,0,1-1.85-.84,4.67,4.67,0,0,1-.69-2.9,4,4,0,0,1,.68-2.63,2.27,2.27,0,0,1,1.81-.78,2.07,2.07,0,0,1,1.39.45,2.19,2.19,0,0,1,.69,1.36l3-.54a5,5,0,0,0-1.79-2.76m-11.52-.65H34V63.27h3Zm0-4.38H34v2.82h3Zm-14.6,2.69a14.58,14.58,0,0,1,2.63.15,3.06,3.06,0,0,1,1.49.75,3.67,3.67,0,0,1,.91,1.54,9.37,9.37,0,0,1,.33,2.83,10.2,10.2,0,0,1-.33,2.91,3.52,3.52,0,0,1-.84,1.54,2.93,2.93,0,0,1-1.29.66,8.94,8.94,0,0,1-2,.15H21V50.06ZM17.8,63.27h6a9.86,9.86,0,0,0,2.84-.34,5.61,5.61,0,0,0,2.25-1.27,6.84,6.84,0,0,0,1.7-2.81,10.26,10.26,0,0,0,.49-3.38,11.57,11.57,0,0,0-.52-3.75,6.77,6.77,0,0,0-1.52-2.58,5.24,5.24,0,0,0-2.39-1.46,11.49,11.49,0,0,0-3-.31H17.8Z"/><path class="cls-1" d="M109.9,28.27a2.26,2.26,0,0,1,1.8-.85,2.34,2.34,0,0,1,1.87.87,4,4,0,0,1,.74,2.66,3.8,3.8,0,0,1-.77,2.58,2.45,2.45,0,0,1-1.89.87,2.19,2.19,0,0,1-1.75-.85,4.15,4.15,0,0,1-.71-2.68,4,4,0,0,1,.71-2.6M106.46,38a3.14,3.14,0,0,0,1.22,2.54,6.62,6.62,0,0,0,4.15,1,8.45,8.45,0,0,0,2.57-.33,4.08,4.08,0,0,0,1.62-.9,3.76,3.76,0,0,0,.94-1.58,10.42,10.42,0,0,0,.34-3V25.35h-2.85V27a4.23,4.23,0,0,0-3.53-1.88,4.49,4.49,0,0,0-3.46,1.53A6.35,6.35,0,0,0,106.07,31a6.65,6.65,0,0,0,1.06,3.86,4.24,4.24,0,0,0,3.67,2A4.14,4.14,0,0,0,114.25,35v1.68a4.76,4.76,0,0,1-.14,1.4,1.5,1.5,0,0,1-.61.77,3.5,3.5,0,0,1-1.79.36,2.25,2.25,0,0,1-1.36-.33,1.19,1.19,0,0,1-.4-.83l-3.48-.43c0,.15,0,.27,0,.37m-9.94-7.87a2.8,2.8,0,0,1,.64-2,2.14,2.14,0,0,1,1.65-.73,2.08,2.08,0,0,1,1.58.69,2.9,2.9,0,0,1,.68,2Zm3.64,4.34a1.84,1.84,0,0,1-1.2.39,2.32,2.32,0,0,1-1.76-.75A3.09,3.09,0,0,1,96.47,32h7.63q.06-3.51-1.42-5.2a5.12,5.12,0,0,0-4.06-1.7,4.93,4.93,0,0,0-3.78,1.62,6.36,6.36,0,0,0-1.49,4.49,6.62,6.62,0,0,0,1.13,4,5.17,5.17,0,0,0,4.45,2,5.45,5.45,0,0,0,3.16-.88,5,5,0,0,0,1.85-2.54l-3-.51a2.41,2.41,0,0,1-.74,1.26M82,36.87l2-7.41,2,7.41h2.93l3.69-11.52h-3l-2.2,7.55-1.92-7.55H82.5l-2,7.55-2.16-7.55h-3L79,36.87ZM66.89,30.12a2.8,2.8,0,0,1,.63-2,2.15,2.15,0,0,1,1.65-.73,2.12,2.12,0,0,1,1.59.69,2.94,2.94,0,0,1,.68,2Zm3.64,4.34a1.89,1.89,0,0,1-1.21.39,2.3,2.3,0,0,1-1.75-.75A3.1,3.1,0,0,1,66.83,32h7.63c.05-2.34-.43-4.07-1.42-5.2A5.11,5.11,0,0,0,69,25.09a4.9,4.9,0,0,0-3.78,1.62,6.36,6.36,0,0,0-1.5,4.49,6.56,6.56,0,0,0,1.14,4,5.14,5.14,0,0,0,4.44,2,5.43,5.43,0,0,0,3.16-.88,5,5,0,0,0,1.85-2.54l-3-.51a2.4,2.4,0,0,1-.73,1.26M54.21,29.94a10.46,10.46,0,0,1,2.84.23,1.93,1.93,0,0,1,1,.72,2,2,0,0,1,.35,1.22A2,2,0,0,1,58,33.46a2,2,0,0,1-1.16.63,13.77,13.77,0,0,1-2.2.1h-3V29.94Zm-.75-6.32c1.51,0,2.42,0,2.74.05a1.84,1.84,0,0,1,1.21.56,1.76,1.76,0,0,1,.41,1.2,1.66,1.66,0,0,1-.48,1.24,2.15,2.15,0,0,1-1.29.57c-.3,0-1.08.05-2.33.05h-2.1V23.62ZM48.41,36.87h5.41c2,0,3.33,0,3.87-.11A4.6,4.6,0,0,0,59.84,36a4.14,4.14,0,0,0,1.37-1.63,4.72,4.72,0,0,0,.51-2.11,3.84,3.84,0,0,0-.78-2.4,4.19,4.19,0,0,0-2.23-1.44A3.76,3.76,0,0,0,60.34,27a3.7,3.7,0,0,0,.6-2.05,3.53,3.53,0,0,0-.49-1.85,3.92,3.92,0,0,0-1.22-1.33,4.11,4.11,0,0,0-1.66-.66A18.86,18.86,0,0,0,54.76,21H48.41Z"/></svg>