<svg id="Ebene_1" data-name="Ebene 1" xmlns="http://www.w3.org/2000/svg" viewBox="0 0 165 86"><defs><style>.cls-1{opacity:0.9;}.cls-2{fill:#e6e6e6;}</style></defs><g class="cls-1"><rect class="cls-2" x="29.47" y="63.8" width="106.08" height="5.66"/><path class="cls-2" d="M99.22,16.55,97.38,22.2h10.46l1.86-5.65Zm26.09,8.58H112.87L102.66,56.18H113.5l1.1-4.9h9l1.11,4.9h10.85Zm-6.22,6.34,2.63,11.63h-5.26ZM58.23,25.13H68.76L74.38,44,80,25.13H90.53L80.32,56.18l-11.91,0Zm38.21,0L86.24,56.18H96.76l10.2-31Zm-44.34,0H39.66L29.45,56.18H40.29l1.1-4.9h9l1.11,4.9H62.32Zm-6.22,6.34L48.51,43.1H43.25Z"/></g></svg>