<svg id="Ebene_1" data-name="Ebene 1" xmlns="http://www.w3.org/2000/svg" viewBox="0 0 165 86"><defs><style>.cls-1{opacity:0.9;}.cls-2{fill:#e6e6e6;}</style></defs><g class="cls-1"><path class="cls-2" d="M122.7,43A40.2,40.2,0,1,1,82.5,2.8,40.2,40.2,0,0,1,122.7,43M82.5,0a43,43,0,1,0,43,43,43,43,0,0,0-43-43"/><path class="cls-2" d="M82.5,67.08A24.1,24.1,0,0,1,58.42,43H57A25.48,25.48,0,0,0,82.5,68.48m0-51v1.4A24.1,24.1,0,0,1,106.58,43H108A25.48,25.48,0,0,0,82.5,17.52"/><path class="cls-2" d="M103.09,24.85c.58.63,1.42,1.63,1.9,2.24l8.69-5.48c-.43-.57-1.12-1.43-1.64-2l-5.51,3.62-.37.32.27-.41,2.44-4.82-1.72-1.71L102.29,19l-.41.28.33-.38,3.64-5.47c-.64-.54-1.26-1-2-1.64l-5.52,8.63c.7.54,1.62,1.32,2.21,1.86l5.19-2.68.34-.24-.25.33Z"/><path class="cls-2" d="M83.35,13.92l2.38-5.29.15-.47,0,.49.25,7.06c.84.08,1.7.2,2.55.34L88.24,5.58c-1.19-.13-2.37-.22-3.55-.27l-2.34,5.77-.08.43-.09-.43L79.84,5.31c-1.18.05-2.36.14-3.55.27l-.38,10.47c.84-.14,1.7-.26,2.54-.34l.25-7.06,0-.49.15.47,2.37,5.29Z"/><path class="cls-2" d="M57.34,23.28l3.75-3.91a3.67,3.67,0,0,1,.85-.73,1,1,0,0,1,1,0,.87.87,0,0,1,.38.93,2.69,2.69,0,0,1-.73,1.13l-3.74,4Zm-2.9-2.73a44.55,44.55,0,0,1,3.8-4.12,2,2,0,0,1,.78-.49.91.91,0,0,1,1.1.7A1.64,1.64,0,0,1,59.57,18c-.79.88-3.69,3.9-3.69,3.9Zm9.68,1.71c1.38-1.44,2.16-3.1.78-4.69a2.68,2.68,0,0,0-3-.62l-.11,0,0-.09a2.5,2.5,0,0,0-.87-2.62A2.59,2.59,0,0,0,59,13.75c-1.29.13-2.28,1-5,4-.81.9-2,2.33-2.71,3.25l7.42,7c2.46-2.71,3.46-3.71,5.4-5.74"/><path class="cls-2" d="M82.5,17.52V43H57A25.47,25.47,0,0,1,82.5,17.52"/><path class="cls-2" d="M108,43A25.47,25.47,0,0,1,82.5,68.48V43Z"/></g></svg>