<svg id="Ebene_1" data-name="Ebene 1" xmlns="http://www.w3.org/2000/svg" viewBox="0 0 165 86"><defs><style>.cls-1{opacity:0.9;}.cls-2{fill:#e6e6e6;}</style></defs><g class="cls-1"><path class="cls-2" d="M95.86,79.18l1.37,3.71a42.53,42.53,0,0,0,16.49-11l-2.9-2.68a38.58,38.58,0,0,1-15,10"/><path class="cls-2" d="M82.5,81.55A38.85,38.85,0,0,1,72,80.11L71,83.92a42.84,42.84,0,0,0,23.09,0L93,80.1A38.55,38.55,0,0,1,82.5,81.55"/><path class="cls-2" d="M54.2,69.17l-2.91,2.68a42.48,42.48,0,0,0,16.5,11l1.37-3.7a38.67,38.67,0,0,1-15-10"/><path class="cls-2" d="M82.5.5A42.5,42.5,0,0,0,49.13,69.32l3.1-2.45a38.55,38.55,0,1,1,60.56,0l3.1,2.45A42.5,42.5,0,0,0,82.5.5"/><polygon class="cls-2" points="74.07 33.34 66.41 28.9 66.43 57.22 74.07 52.78 74.07 33.34"/><path class="cls-2" d="M61.43,20.51l12.64,7.3V13.2l15.36,8.86v5.79l-10.36-6v8.82l10.36,6v5.52l-10.36-6V49.9L103.6,36l-10-5.69V24.49L113.39,36l-12.57,7.21,12.56,7.34L83.31,67.87V62.09L103.6,50.5,96,45.93,79.07,55.67V70.32l-5,2.89V58.57L61.4,65.87Zm21.07,57A34.55,34.55,0,1,0,48,43,34.55,34.55,0,0,0,82.5,77.55"/></g></svg>