<svg id="Ebene_1" data-name="Ebene 1" xmlns="http://www.w3.org/2000/svg" viewBox="0 0 165 86"><defs><style>.cls-1,.cls-2{fill:#aaa;}.cls-2{isolation:isolate;}</style></defs><path class="cls-1" d="M30.52,7.28H32l1.73,5.26h0l1.73-5.26H37v6.61H35.85v-5h0a8.31,8.31,0,0,1-.37,1.36l-1.28,3.6h-1L32,10.29a8.28,8.28,0,0,1-.38-1.43h0v5H30.52Z"/><path class="cls-1" d="M38.41,7.28h1.13v6.61H38.41Z"/><path class="cls-1" d="M42.54,8.26h-2v-1H45.7v1h-2v5.56H42.54Z"/><path class="cls-1" d="M45.92,10.51c0-2.1,1.21-3.38,2.86-3.38a2.47,2.47,0,0,1,2.56,2.11l-1.06.3c-.3-1-.75-1.36-1.5-1.36s-1.73.45-1.73,2.33S48,13,48.86,13a1.44,1.44,0,0,0,1.5-1.42v-.08H49.08v-.9h2.41v3.3h-.91v-1h0A1.82,1.82,0,0,1,48.78,14C46.9,14,45.92,12.54,45.92,10.51Z"/><path class="cls-1" d="M52.84,7.28H54v5.56h3v1.05H52.84Z"/><path class="cls-1" d="M58,7.28h1.13v6.61H58Z"/><path class="cls-1" d="M60.5,7.28h4.29v1H61.63V10H64v.9H61.63v1.95h3.31v1.05H60.5Z"/><path class="cls-1" d="M65.91,7.28h1.88c2,0,3.39,1,3.39,3.31s-1.36,3.3-3.39,3.3H65.91Zm2,5.56c1.5,0,2.18-.67,2.18-2.33s-.68-2.25-2.26-2.25H67v4.58Z"/><path class="cls-1" d="M74.56,7.28h1.12v6.61H74.56Z"/><path class="cls-1" d="M77.11,7.28h1.5l1.73,5.26h0l1.73-5.26h1.5v6.61h-1v-5h0a8.31,8.31,0,0,1-.37,1.36l-1.36,3.6h-1l-1.28-3.6a9.49,9.49,0,0,1-.38-1.36h0v5h-1Z"/><path class="cls-2" d="M30.52,68V17.65h33v7.44l.15-.22a9.9,9.9,0,0,1,1.8-2.56,11.58,11.58,0,0,1,2.33-1.88,17.87,17.87,0,0,1,2.56-1.35,19.43,19.43,0,0,1,3.53-1c.83-.15,1.65-.3,2.48-.37a10.46,10.46,0,0,1,1.58-.08.28.28,0,0,0,.22-.07h39.38l.9.07a19.7,19.7,0,0,1,2,.23c.83.15,1.73.3,2.56.52a14.51,14.51,0,0,1,6.24,3.31,11,11,0,0,1,1.2,1.35,9.71,9.71,0,0,1,1.58,2.86,12.38,12.38,0,0,1,.75,2.7c.07.61.15,1.21.22,1.73a20.18,20.18,0,0,1-.07,3,12.33,12.33,0,0,1-.53,2.4,8.72,8.72,0,0,1-2.78,4.14,10.18,10.18,0,0,1-4,2c-.08,0-.15.07-.23.15.08.07.15.15.23.15a13.76,13.76,0,0,1,2.55.9,10.41,10.41,0,0,1,5.42,6,11.71,11.71,0,0,1,.6,2.33l.22,1.8a15.31,15.31,0,0,1-.15,3.24,13.2,13.2,0,0,1-.52,2.33,11.47,11.47,0,0,1-1.66,3.45,12.88,12.88,0,0,1-5,4c-.75.3-1.58.6-2.33.9a15.13,15.13,0,0,1-3.68.67,18.7,18.7,0,0,1-2.1.15H97V58.38c-.37.76-.75,1.58-1.13,2.33A9.75,9.75,0,0,1,94.17,63L92.82,64.4a8.87,8.87,0,0,1-1,.82c-.6.38-1.28.75-1.88,1.06s-1.43.6-2.18.9a9.88,9.88,0,0,1-2.55.6A11.47,11.47,0,0,1,83,68H30.52ZM63,37h0A20.94,20.94,0,0,1,62.31,34c-.08-.68-.15-1.43-.23-2.11V30.2a4,4,0,0,1,.15-1c.08-.3.08-.61.15-.91H43.07V37H63v4.36a8.38,8.38,0,0,1-.37,2.7A5.07,5.07,0,0,1,61,46.36a7.36,7.36,0,0,1-2.48,1.13,10.65,10.65,0,0,1-2.17.22H43.07v9.62H82a1.48,1.48,0,0,0,.82-.22,3.92,3.92,0,0,0,1.51-1.81,3.8,3.8,0,0,0,.15-2,3.48,3.48,0,0,0-1-2A7.17,7.17,0,0,0,81,49.74c-1.13-.45-2.18-.82-3.31-1.2-.75-.3-1.5-.53-2.25-.75a33,33,0,0,1-3.38-1.35c-.9-.46-1.81-1-2.71-1.51a17.53,17.53,0,0,1-2.63-2c-.45-.45-.9-.9-1.35-1.42A11,11,0,0,1,63.74,39c-.23-.68-.46-1.36-.76-2Zm33.9,10.67V43a7.12,7.12,0,0,1,.52-2.78,5.13,5.13,0,0,1,2.11-2.26,8.46,8.46,0,0,1,3.83-.9h12.1a8.73,8.73,0,0,0,1.35-.07,3.57,3.57,0,0,0,3.08-3.54,6.4,6.4,0,0,0-.22-2.4,3.76,3.76,0,0,0-2-2.26,5.36,5.36,0,0,0-2.18-.37H76.81A2.75,2.75,0,0,0,75.46,30a3.58,3.58,0,0,0-.15,1.8,4.14,4.14,0,0,0,.52,1.65,5.42,5.42,0,0,0,2.11,1.81,21,21,0,0,0,3.53,1.43l3.61,1.12a16.58,16.58,0,0,1,3.23,1.28c.75.38,1.5.75,2.25,1.2a11.48,11.48,0,0,1,2.63,2c.53.52,1.06,1.05,1.51,1.57a14,14,0,0,1,1.43,2.11A10.79,10.79,0,0,0,96.88,47.64Zm12.47,9.69h7.29a6.84,6.84,0,0,0,2.18-.3,3.22,3.22,0,0,0,1.65-1.2,4.73,4.73,0,0,0,.91-2.86,5.77,5.77,0,0,0-.23-2.25,3.73,3.73,0,0,0-1.43-2.11,5,5,0,0,0-2.93-.9h-7.51ZM30.52,72.21H32.1c.15,0,.22,0,.22.23.38,1.35.75,2.7,1,4.06a3.78,3.78,0,0,1,.23.52,6.8,6.8,0,0,1,.23-.75c.15-.6.3-1.13.45-1.65.22-.75.37-1.51.6-2.26a.16.16,0,0,1,.15-.15h1.65v6.54H35.4l.15-5.26h0l-1.42,5.26h-1c-.08,0-.08-.07-.15-.15-.3-1.28-.68-2.48-1-3.76-.15-.45-.22-.9-.37-1.35l.15,5.26H30.52Zm82.29,6.54-.9-4.58-1,4.51H109.5l-1.35-6.54h1.13c.07,0,.07.07.15.07.07.45.15.9.22,1.28s.15.9.23,1.28c.15.67.22,1.35.37,2.1a.08.08,0,0,0,.08.08c.07-.3.15-.6.22-.83l.23-1.28c.15-.82.3-1.65.53-2.48.07-.22.15-.3.37-.3h.83l1,4.89h.08l.9-4.89h1.27l-.22,1.2c-.23,1.13-.53,2.26-.75,3.39-.15.6-.23,1.12-.38,1.72-.07.31-.07.31-.45.31ZM82.22,73.94l-1.13.45a5.36,5.36,0,0,0-.52-.75A1.57,1.57,0,0,0,79,73.19a1.66,1.66,0,0,0-1.2,1.13,3.53,3.53,0,0,0,0,2.18,1.79,1.79,0,0,0,2,1.2,1.52,1.52,0,0,0,1.27-1.35V76.2H79.44V75.14h2.71v3.53H81.09v-.45a2.7,2.7,0,0,1-.82.45,2.8,2.8,0,0,1-2.93-.52,3.33,3.33,0,0,1-1.13-2.48,4,4,0,0,1,.53-2.26A2.88,2.88,0,0,1,79.07,72a3,3,0,0,1,2.25.67A4.36,4.36,0,0,1,82.22,73.94Zm8.42-1.73v6.54h-1c-.08,0-.08-.08-.15-.15l-1.73-2.78-1-1.58v4.51H85.6V72.21h1.06c.07,0,.07.08.15.08l1.8,2.93,1,1.5h.07l-.15-4.51ZM75.08,78.75h-1c-.08,0-.15-.07-.23-.15-.38-.6-.68-1.13-1-1.73l-1.58-2.55c0-.08-.07-.08-.07-.15v4.51H70.05V72.14h1c.08,0,.16.15.23.22l2.41,3.76c.15.23.22.38.37.6l-.15-4.58h1.2Zm50.8-2.63,1.43,2.63H126c-.08,0-.08-.07-.15-.15l-1.2-2.25h-1.13v2.4h-1.2V72.21h2.63a2.11,2.11,0,0,1,1.88.9,2,2,0,0,1-.15,2.48,2.59,2.59,0,0,1-.76.53Zm-2.32-.83a10.83,10.83,0,0,0,1.5-.07.83.83,0,0,0,.82-.83.92.92,0,0,0-.67-1h0a11.47,11.47,0,0,0-1.65-.08Zm-74.4,3.46H47.88c-.08,0-.15-.07-.23-.15-.37-.68-.67-1.28-1-1.95-.15-.23-.22-.38-.53-.3h-.75v2.4h-1.2V72.21h2.63a2.19,2.19,0,0,1,1.73.75,2.1,2.1,0,0,1-.23,2.86c-.07.07-.22.15-.3.22l-.22.08ZM45.4,75.29h1.13c.15,0,.3,0,.37-.07a.75.75,0,0,0,.6-.38,1,1,0,0,0-.15-1.35c-.07-.08-.15-.08-.3-.15a13.66,13.66,0,0,0-1.8-.15Zm10.9,3.46V72.21h4.58v1.05H57.5v1.58h3.15v1H57.5v1.73h3.68v1.13Zm40.2-3.91v1H93.34v1.73H97v1.13H92.14V72.21H96.8v1.13H93.34v1.58Zm24.88,3.91h-4.89V72.21h4.66v1.13h-3.46v1.58h3.16v1h-3.16V77.7h3.69Zm8.19-6.54v3l1-1.2L132,72.36a.46.46,0,0,1,.45-.22h1.21l-2.18,2.48,2.25,4.06h-1.35c-.08,0-.08-.08-.15-.16l-1.58-2.85-.08-.08-.67.83h0c-.38.23-.3.6-.3,1v1.2h-1.21V72.14ZM51.26,78.75h-1.2V72.21h1.2v3l.45-.53,1.88-2.1a1,1,0,0,1,.3-.3.27.27,0,0,1,.23-.08h1.27l-.52.6-1.43,1.66c-.08.07-.15.15-.08.37.46.75.91,1.58,1.36,2.41l.9,1.5H54.27c-.08,0-.08-.07-.15-.07l-1.58-2.79-.15-.22c-.3.37-.68.75-1,1.13a.28.28,0,0,0-.07.22A12.53,12.53,0,0,0,51.26,78.75Zm53.06-1.13h3.38v1.06h-5v-1c0-.15.23-.3.38-.45l2-2.56c.37-.45.75-1,1.2-1.43H103V72.14h4.81v1c0,.23-.23.38-.38.53l-2.33,3Zm-62.75-.15H39.24a.16.16,0,0,0-.15.15h0c-.08.38-.23.75-.3,1.13H37.43l.38-1.2L39,74c.23-.61.38-1.13.6-1.73,0-.08.08-.08.15-.15H41l2.25,6.53h-1.2c-.07,0-.07-.07-.15-.15-.15-.3-.22-.67-.37-1Zm-1.21-4.06-.9,3h1.81Zm24.2,5.34H63.28V73.34h-1.8V72.21h4.81v1.13h-1.8v5.41Zm34.65,0V73.34H97.4V72.21h4.81v1.13h-1.8v5.41Zm-30.74,0H67.34V72.21h1.13Z"/></svg>