<?xml version="1.0" encoding="utf-8"?>
<!-- Generator: Adobe Illustrator 24.2.1, SVG Export Plug-In . SVG Version: 6.00 Build 0)  -->
<svg version="1.1" id="Ebene_1" xmlns="http://www.w3.org/2000/svg" xmlns:xlink="http://www.w3.org/1999/xlink" x="0px" y="0px"
	 viewBox="0 0 165 86" style="enable-background:new 0 0 165 86;" xml:space="preserve">
<style type="text/css">
	.st0{fill:#E6E6E6;}
</style>
<g id="Ebene_2_1_">
	<g id="Ebene_1-2">
		<path class="st0" d="M83.5,0.5c9.7,0.2,19.7,4.2,28,12.4c8.5,8.4,12.4,18.8,12.5,30.7c-0.1,7.2-2,14.3-5.6,20.5
			c-1.1,2.1-2.5,4-4,5.8c-8.9,10.2-20,15.6-33.5,15.5c-11.2,0-21.9-4.6-29.6-12.7C43.8,65.2,39.4,55.1,39,44.5
			c-0.1-4.5,0.5-9.1,1.7-13.5c2.6-8.8,7.9-16.5,15.3-22.1c3.6-2.7,7.7-4.9,12-6.3C73,1,78.3,0.3,83.5,0.5z M81.5,14.8
			c-15.5,0-28,12.5-28,28c0,15.5,12.5,28,28,28c15.4,0,28-12.5,28-27.9C109.5,27.4,97,14.8,81.5,14.8C81.5,14.8,81.5,14.8,81.5,14.8
			z M58.7,16.1l0.2,0.1l4.3,2.8c0.1,0.1,0.3,0.1,0.4,0c0,0,0,0,0,0c0.2-0.2,0.4-0.4,0.7-0.6c0.2-0.1,0.2-0.3,0.1-0.5c0,0,0,0,0,0
			c-1-2.6-2-5.3-3.1-7.9c-0.1-0.1,0-0.3,0.1-0.4c0.2-0.1,0.3-0.3,0.5-0.4c0.2-0.1,0.1-0.2,0-0.3c-0.3-0.4-0.6-0.7-0.9-1.1
			c-0.1-0.1-0.2-0.2-0.3,0c-0.8,0.7-1.7,1.4-2.5,2.1c-0.1,0.1-0.1,0.1,0,0.2c0.3,0.3,0.5,0.6,0.8,0.9c0.1,0.1,0.2,0.3,0.3,0.4
			c0.1,0,0.3-0.2,0.4-0.2h0.1l1.5,3.5l-0.3-0.2l-4.5-2.8c-0.1-0.1-0.2-0.1-0.3,0c0,0,0,0,0,0c-0.2,0.2-0.4,0.4-0.6,0.5
			c-0.1,0.1-0.2,0.3-0.1,0.4c0,0,0,0,0,0c0.5,1.3,1,2.6,1.5,3.9c0.2,0.4,0.3,0.8,0.5,1.2l0,0l-3.2-2.1c0.2-0.1,0.3-0.3,0.5-0.4
			c0.1-0.1,0.1-0.1,0-0.2c-0.3-0.4-0.7-0.8-1-1.2c-0.1-0.1-0.1-0.1-0.2,0l-3.2,2.6c-0.1,0.1-0.1,0.1,0,0.2c0.3,0.4,0.7,0.8,1,1.2
			c0.1,0.1,0.1,0.1,0.2,0l0.6-0.5c0.1-0.1,0.3-0.1,0.5,0c0.5,0.4,1,0.7,1.5,1l5.5,3.6c0.1,0.1,0.2,0.1,0.3,0c0,0,0,0,0,0
			c0.2-0.2,0.4-0.4,0.7-0.6c0.1-0.1,0.1-0.2,0.1-0.3c0,0,0,0,0,0c-0.3-0.7-0.5-1.4-0.8-2L58.7,16.1z M122,38.9l-0.2-0.7
			c-0.3-1.1-0.6-2.2-0.8-3.3c0-0.1-0.1-0.2-0.2-0.1l-1.5,0.4c-0.1,0-0.2,0.1-0.1,0.2s0.1,0.5,0.2,0.8s0,0.2-0.1,0.2l-1.8,0.5
			c-0.1,0-0.2,0-0.2-0.1c-0.2-1-0.5-2-0.7-2.9c0-0.1,0-0.2,0.1-0.2c0.6-0.1,1.2-0.3,1.8-0.5c0.2,0,0.2,0,0.2,0.2s0.1,0.5,0.2,0.7
			s0.1,0.2,0.2,0.1l1.4-0.4c0.1,0,0.2-0.1,0.1-0.2c-0.3-1.3-0.7-2.6-1-4c0-0.1-0.1-0.2-0.2-0.1l-1.5,0.4c-0.1,0-0.1,0.1-0.1,0.2
			s0.1,0.4,0.1,0.5s0,0.2-0.1,0.2l-2,0.5l-4.1,1c-0.1,0-0.2,0.1-0.3-0.1s-0.1-0.4-0.1-0.6s-0.1-0.2-0.2-0.1l-1.5,0.4
			c-0.1,0-0.2,0.1-0.1,0.2c0.3,1.3,0.7,2.6,1,4c0,0.1,0.1,0.2,0.2,0.1l1.4-0.3c0.2,0,0.2-0.1,0.2-0.2s-0.1-0.5-0.2-0.8
			s0-0.2,0.1-0.2l2.2-0.5c0.1,0,0.2,0,0.2,0.1c0.2,1,0.5,2,0.7,3c0,0.1,0,0.2-0.1,0.2l-2.2,0.5c-0.1,0-0.2,0-0.2-0.1
			s-0.1-0.5-0.2-0.7s-0.1-0.2-0.2-0.1l-1.4,0.3c-0.2,0-0.2,0.1-0.2,0.2c0.3,1.3,0.7,2.6,1,4c0,0.1,0.1,0.2,0.2,0.1l1.5-0.4
			c0.1,0,0.1-0.1,0.1-0.2s-0.1-0.4-0.2-0.6s0-0.2,0.1-0.2c0.4-0.1,0.8-0.2,1.2-0.3l4.9-1.2c0.2,0,0.2,0,0.3,0.2s0.1,0.4,0.1,0.6
			s0,0.2,0.2,0.1l1.5-0.4C122,39.1,122.1,39,122,38.9z M81.4,74.9c0,0,0.1,0,0.1-0.1l0.2-1.5c0-0.1,0-0.2-0.1-0.2L80,72.8l-2.3-0.3
			c-0.2,0-0.2,0-0.3,0.2c-0.1,0.5-0.1,1-0.2,1.4c0,0.2,0,0.2,0.1,0.2s0.5,0.1,0.8,0.1s0.2,0,0.2,0.2c-0.1,0.6-0.2,1.3-0.3,1.9
			c0,0.1-0.1,0.1-0.2,0.1l-3-0.5c-0.2,0-0.2-0.1-0.1-0.2c0.1-0.6,0.2-1.2,0.3-1.8c0-0.2,0.1-0.2,0.2-0.2l0.7,0.1
			c0.1,0,0.2,0,0.2-0.1c0.1-0.5,0.2-1,0.2-1.4c0-0.2,0-0.3-0.2-0.3c-0.1,0-0.3,0-0.4-0.1l-3.5-0.6c-0.1,0-0.2,0-0.2,0.1
			c-0.1,0.5-0.2,1-0.2,1.5c0,0.1,0,0.2,0.1,0.2s0.4,0.1,0.5,0.1s0.2,0.1,0.2,0.3c-0.3,2-0.7,4-1,6.1c0,0.2-0.1,0.3-0.3,0.2
			s-0.3,0-0.4-0.1s-0.2,0-0.3,0.2c-0.1,0.5-0.1,1-0.2,1.4c0,0.2,0.1,0.2,0.2,0.2c1.3,0.2,2.6,0.4,3.9,0.7c0.2,0,0.2,0,0.2-0.2
			c0.1-0.5,0.2-0.9,0.2-1.4c0-0.2,0-0.2-0.2-0.2c-0.2,0-0.5-0.1-0.8-0.1c-0.1,0-0.1-0.1-0.1-0.2c0.1-0.8,0.2-1.5,0.4-2.3
			c0-0.1,0-0.2,0.2-0.1l3,0.5c0.1,0,0.2,0.1,0.2,0.2c-0.1,0.7-0.3,1.5-0.4,2.2c0,0.2-0.1,0.2-0.2,0.1l-0.7-0.1c-0.2,0-0.2,0-0.3,0.2
			c0,0.4-0.1,0.9-0.2,1.3c-0.1,0.3,0,0.3,0.2,0.3c0.6,0.1,1.1,0.2,1.7,0.3c0.7,0.1,1.4,0.2,2.1,0.4c0.2,0,0.3,0,0.3-0.2
			c0-0.4,0.1-0.8,0.2-1.1s0.1-0.4-0.3-0.5h-0.3c-0.1,0-0.2,0-0.1-0.2c0.1-0.3,0.1-0.7,0.2-1c0.3-1.7,0.6-3.4,0.8-5.2
			c0-0.2,0.1-0.2,0.3-0.2C81.1,74.9,81.3,74.9,81.4,74.9L81.4,74.9z M73.7,6.7c-0.7-1-1.3-1.9-2-2.9c-0.1-0.1-0.2-0.1-0.3,0L70,4.3
			l-5.8,2C64,6.4,64,6.4,64.1,6.6c0.1,0.2,0.2,0.6,0.3,1c0.2,0.6,0.2,0.6,0.8,0.4c0.3-0.1,0.3-0.2,0.4,0.2l0.2,0.4
			c0.6,1.8,1.2,3.6,1.9,5.4c0.1,0.2,0,0.2-0.1,0.3s-0.3,0.1-0.5,0.2s-0.2,0.1-0.1,0.3c0.2,0.4,0.3,0.9,0.5,1.4
			c0,0.2,0.1,0.2,0.3,0.1l7.9-2.8c0.1,0,0.2-0.1,0.2-0.2c-0.3-1.3-0.5-2.6-0.8-3.9c0-0.2-0.1-0.2-0.2-0.1c-0.4,0.2-0.9,0.3-1.3,0.5
			C73.1,9.7,73,9.8,73,9.9c0.1,0.6,0.1,1.1,0.1,1.7c0,0.4-0.1,0.7-0.5,0.8c-0.8,0.2-1.6,0.6-2.5,0.8c-0.2,0.1-0.2,0-0.2-0.1
			c-0.2-0.5-0.4-1.1-0.6-1.6c-0.1-0.2-0.3-0.5-0.2-0.6s0.4-0.2,0.6-0.3c0.2-0.1,0.4-0.2,0.5-0.1c0.1,0.1,0.2,0.3,0.2,0.5
			s0.1,0.1,0.2,0.1l1.4-0.5c0.1,0,0.1-0.1,0.1-0.2c-0.3-0.9-0.7-1.9-1-2.8c0-0.1-0.1-0.2-0.2-0.1c-0.3,0.1-0.7,0.2-1,0.3
			c-0.2,0.1-0.4,0.1-0.5,0.2c-0.1,0.1,0.1,0.3,0.1,0.5s0,0.2-0.1,0.2S69,9,68.7,9.1c-0.3,0.1-0.2,0-0.3-0.1
			c-0.2-0.6-0.4-1.2-0.6-1.8c-0.1-0.1,0-0.2,0.1-0.2L70,6.2c0.5-0.2,1,0,1.4,0.3c0.2,0.2,0.3,0.4,0.5,0.6c0,0.1,0.1,0.1,0.2,0.1
			L73.7,6.7z M54.4,26.3c0,0.1,0,0.1-0.1,0.2c-0.5,0.8-0.9,1.6-1.3,2.5c-0.1,0.1-0.1,0.1-0.2,0c-0.7-0.4-1.3-0.7-2-1.1
			c-0.1-0.1-0.1-0.1-0.1-0.3s0.2-0.3,0.2-0.5c0.1-0.1,0.1-0.4,0.3-0.5c0.1-0.1,0.3,0.1,0.5,0.2c0.2,0.1,0.2,0.1,0.2,0
			c0.2-0.5,0.5-0.9,0.7-1.4c0.1-0.1,0-0.1-0.1-0.2L50,23.9c-0.1-0.1-0.2,0-0.2,0.1c-0.2,0.3-0.3,0.6-0.5,0.9
			c-0.2,0.3-0.3,0.4-0.3,0.5s0.3,0.2,0.5,0.3s0.1,0.1,0.1,0.2l-0.5,0.9C49,27,49,27,48.9,27c-0.6-0.3-1.1-0.6-1.7-0.9
			c-0.1,0-0.1-0.1-0.1-0.2c0.4-0.7,0.8-1.5,1.2-2.2c0.2-0.3,0.6-0.5,1-0.5c0.3,0,0.6,0.1,0.9,0.1c0.1,0,0.2,0,0.3-0.1
			c0.2-0.5,0.5-0.9,0.7-1.4c0.1-0.1,0-0.1-0.1-0.2L48,20.9c-0.1,0-0.2,0-0.3,0.1c0,0,0,0,0,0c-0.1,0.3-0.3,0.6-0.4,0.8L44,27.7
			c-0.1,0.2-0.1,0.3,0.1,0.4c0.3,0.1,0.5,0.3,0.8,0.4c0.2,0.1,0.4,0.3,0.6,0.3s0.2-0.4,0.3-0.5s0.2-0.2,0.3-0.1
			c1.7,0.9,3.3,1.8,5,2.7c0.2,0.1,0.5,0.2,0.6,0.4c0.1,0.2-0.2,0.4-0.3,0.6c-0.1,0.2-0.1,0.2,0.1,0.2c0.4,0.2,0.9,0.5,1.3,0.7
			c0.2,0.1,0.2,0.1,0.3-0.1c1.3-2.4,2.7-4.9,4-7.3c0.1-0.1,0-0.2-0.1-0.2c-1.1-0.8-2.1-1.5-3.2-2.3c-0.2-0.1-0.2-0.1-0.3,0.1
			c-0.2,0.4-0.4,0.8-0.7,1.2c-0.1,0.1-0.1,0.2,0.1,0.3c0.5,0.4,0.9,0.8,1.2,1.2C54.3,25.9,54.4,26.1,54.4,26.3z M84.8,2.9l-0.2,0
			c-1.1-0.4-2.3-0.5-3.4-0.3c-1.8,0.3-3.3,1.5-3.9,3.2c-0.4,1.2-0.5,2.6-0.2,3.8c0.3,1.5,1.4,2.7,2.8,3.2c0.7,0.3,1.5,0.4,2.2,0.4
			c0.8,0.1,1.5,0.1,2.3,0c0.5-0.2,1-0.2,1.5-0.2c0.2,0,0.3-0.1,0.3-0.3c0-0.9,0.1-1.7,0.1-2.6c0-0.2,0.1-0.2,0.2-0.2
			c0.2,0,0.4,0,0.6,0c0.1,0,0.2,0,0.2-0.1c0-0.5,0-1.1,0.1-1.6c0-0.1,0-0.2-0.2-0.2l-4.1-0.1c-0.1,0-0.1,0-0.1,0.1
			c0,0.5,0,1.1,0,1.6c0,0.1,0,0.2,0.2,0.2h0.7c0.1,0,0.1,0,0.2,0.1c0.1,0.5-0.2,1-0.7,1.2c-1.3,0.5-2.8-0.1-3.4-1.3
			c-0.8-1.4-0.6-3.2,0.5-4.4c0.4-0.6,1.1-1,1.9-1c0.5,0,0.9,0.1,1.3,0.3c0.8,0.4,1.2,1.2,1.1,2c0,0.2,0,0.3,0.2,0.3
			c0.5,0,1,0,1.5,0.1c0.2,0,0.2,0,0.2-0.2c0.1-1.3,0.1-2.7,0.2-4c0-0.2,0-0.2-0.2-0.2c-0.4,0-0.9,0-1.3-0.1
			C84.8,2.4,84.8,2.5,84.8,2.9z M104.5,12.3c0-1.5-0.7-2.8-1.9-3.7c-1.3-1-2.8-1.7-4.3-2.6c-0.1-0.1-0.1,0-0.2,0.1
			c-0.2,0.3-0.4,0.6-0.5,0.9s-0.3,0.4-0.3,0.5c0,0.2,0.3,0.2,0.5,0.4C98,7.9,98,8,97.9,8.1l-1.5,2.6c-0.6,0.9-1.1,1.8-1.6,2.7
			c-0.1,0.1-0.2,0.2-0.3,0.1c-0.1-0.1-0.3-0.2-0.4-0.2c-0.1-0.1-0.2-0.1-0.3,0.1c-0.2,0.4-0.5,0.8-0.7,1.2c-0.1,0.1-0.1,0.2,0.1,0.3
			l3.6,2.2c1,0.6,2.1,0.8,3.2,0.7C102.6,17.3,104.6,15,104.5,12.3z M52.2,36.9c0-0.3,0-0.5,0-0.8c-0.2-1.4-1.4-2.5-2.9-2.7
			c-0.8-0.1-1.6,0.2-2.2,0.7c-0.1,0.1-0.2,0.1-0.3,0c-0.8-0.8-2.1-0.9-3.1-0.5c-0.9,0.5-1.6,1.4-1.7,2.4c-0.2,1.4-0.4,2.8-0.6,4.2
			c0,0.2,0.1,0.2,0.2,0.2l0.9,0.1c0.2,0,0.5,0.2,0.7,0.1s0.1-0.4,0.1-0.7c0-0.2,0.1-0.2,0.3-0.2l3.8,0.5l2.4,0.3
			c0.2,0,0.2,0.1,0.2,0.2s0,0.3-0.1,0.5c-0.1,0.2,0,0.2,0.1,0.2c0.5,0.1,1,0.1,1.5,0.2c0.1,0,0.2,0,0.2-0.2c0.1-0.9,0.3-1.9,0.4-2.8
			C52.1,38.3,52.1,37.6,52.2,36.9z M60.4,65.3c0.2-0.5,0.1-1-0.1-1.5c-0.7-1.3-2.2-2.1-3.7-2c-1.1,0.1-2,0.9-2.2,1.9
			c-0.1,0.5,0,1.1,0.1,1.6c0.2,0.8,0.7,1.5,1,2.3c0.2,0.4,0.3,0.8,0.4,1.2c0.1,0.5-0.3,1.3-0.9,1.1c-1-0.3-1.7-1-2-2
			c-0.2-0.6,0-1.3,0.5-1.6c0.1-0.1,0.3-0.2,0.4-0.3s0.1-0.1,0-0.2c-0.4-0.4-0.7-0.8-1.1-1.2c-0.1-0.1-0.1-0.1-0.2,0l-2.9,2.7
			c-0.1,0.1-0.1,0.2,0,0.2c0.3,0.4,0.7,0.7,1,1.1c0.1,0.1,0.2,0.1,0.3,0c0.1-0.1,0.4-0.4,0.7-0.6c-0.1,0.5-0.1,1,0.2,1.5
			c0.5,1,1.3,1.8,2.2,2.3c0.4,0.2,0.8,0.4,1.2,0.4c0.8,0,1.5-0.3,2-0.8c0.8-0.7,1.2-1.7,1-2.8c-0.2-0.8-0.4-1.5-0.8-2.1
			c-0.3-0.5-0.5-1-0.7-1.6c-0.1-0.3,0-0.7,0.4-0.8c0.1,0,0.2-0.1,0.3,0c0.2,0,0.4,0.1,0.5,0.1c0.5,0.2,0.8,0.6,1,1.1
			c0.3,0.6,0.2,1.3-0.3,1.7c-0.1,0.1-0.1,0.1,0,0.2l1.1,1.2c0.1,0.1,0.1,0.1,0.2,0l2.4-2.2c0.1-0.1,0.1-0.1,0-0.2
			c-0.4-0.4-0.7-0.8-1-1.2c-0.1-0.1-0.2-0.1-0.2,0S60.6,65.1,60.4,65.3z M108.1,72.3c0.1,0,0.3,0,0.4,0c1.4-0.2,2.6-1.1,3.3-2.3
			c0.5-0.7,0.6-1.7,0.3-2.5c-0.2-0.7-0.6-1.3-1.1-1.8c-0.9-1.1-1.9-2.1-2.9-3.2c-0.1-0.2-0.1-0.2,0-0.3s0.3-0.3,0.5-0.5
			s0.1-0.1,0-0.2c-0.3-0.3-0.7-0.7-1-1.1c-0.1-0.1-0.1-0.1-0.2,0l-2.6,2.4c-0.1,0.1-0.1,0.2,0,0.2l1,1c0.1,0.1,0.2,0.1,0.3,0
			s0.3-0.3,0.5-0.5s0.2-0.1,0.3,0c0.7,0.8,1.4,1.5,2.2,2.3c0.4,0.4,0.8,0.9,1.1,1.3c0.3,0.4,0.4,0.8,0.3,1.3
			c-0.1,0.6-0.6,1.2-1.2,1.5c-0.4,0.2-0.8,0.3-1.2,0.1c-0.5-0.2-0.9-0.4-1.2-0.8c-1-1.1-2-2.1-3-3.2c-0.1-0.1-0.1-0.1,0-0.2l0.5-0.5
			c0.1-0.1,0.2-0.2,0-0.3c-0.3-0.3-0.6-0.6-0.9-0.9c-0.3-0.3-0.2-0.2-0.4,0l-2.8,2.6c-0.1,0.1-0.2,0.1-0.1,0.3
			c0.3,0.4,0.7,0.7,1,1.1c0.1,0.1,0.1,0.1,0.2,0s0.3-0.3,0.5-0.4s0.2-0.1,0.2,0c0.5,0.6,1,1.1,1.5,1.7s1.1,1.2,1.7,1.8
			C106.1,71.8,107.1,72.2,108.1,72.3L108.1,72.3z M101.3,75.3c-0.1,0.1-0.2,0.1-0.3,0.2c-0.2,0.1-0.2,0.2-0.1,0.3
			c0.2,0.4,0.5,0.8,0.7,1.2c0.1,0.1,0.1,0.1,0.3,0.1l3.4-1.9c0.1-0.1,0.1-0.1,0.1-0.2c-0.2-0.4-0.5-0.9-0.7-1.3
			c-0.1-0.1-0.1-0.1-0.2-0.1s-0.4,0.2-0.6,0.3c-0.1,0.1-0.4,0.1-0.5,0c-0.8-0.7-1.7-1.3-2.5-1.9l-4.4-3.4c-0.1-0.1-0.2-0.1-0.3,0
			c-0.2,0.2-0.5,0.3-0.7,0.4c-0.2,0.1-0.2,0.2-0.2,0.5c0.2,1.4,0.3,2.9,0.5,4.3c0.2,1.4,0.3,2.9,0.6,4.3c0,0.1,0,0.2-0.1,0.2
			s-0.4,0.2-0.7,0.4c-0.2,0.1-0.2,0.1-0.1,0.3c0.2,0.4,0.5,0.8,0.7,1.3c0.1,0.1,0.1,0.1,0.3,0.1c1-0.5,1.9-1.1,2.9-1.6
			c0.1-0.1,0.1-0.1,0.1-0.3c-0.2-0.3-0.4-0.7-0.6-1c-0.2-0.3-0.2-0.3-0.5-0.2c-0.1,0-0.1,0.1-0.2,0l-0.2-0.9c0-0.1,0-0.2,0.1-0.2
			l2.3-1.3c0.1-0.1,0.2-0.1,0.3,0L101.3,75.3z M116.9,24.7c-0.1-0.8-0.4-1.6-0.9-2.3c-0.8-1.4-2.4-2.3-4-2.2
			c-1.3,0.1-2.6,0.5-3.6,1.4c-1.9,1.4-2.5,4-1.4,6.1c0.7,1.7,2.5,2.7,4.3,2.3c0.2,0,0.2-0.1,0.2-0.2c-0.1-0.4-0.3-0.8-0.4-1.2
			c-0.1-0.3-0.1-0.5-0.5-0.4c-0.1,0-0.2,0-0.3,0c-1.5-0.3-2.7-1.8-1.4-3.5c0.8-1.1,2.1-1.9,3.5-2c1.1-0.2,2.1,0.4,2.3,1.5
			c0.1,0.4,0.2,0.7,0.1,1.1c-0.1,0.5-0.5,1-1,1.1c-0.1,0-0.2,0.1-0.1,0.2c0.2,0.4,0.5,0.9,0.7,1.3c0.1,0.1,0.1,0.1,0.2,0.1
			c1.1-0.6,2.2-1.2,3.3-1.7c0.1-0.1,0.2-0.1,0.1-0.3c-0.2-0.3-0.3-0.6-0.5-1c-0.1-0.1-0.1-0.4-0.2-0.4S117.1,24.7,116.9,24.7z
			 M68.4,70.3c-0.3-0.4-0.8-0.8-1.3-1.1c-1.2-0.8-2.8-1-4.2-0.5c-1.2,0.5-2.2,1.4-2.8,2.6c-0.7,1.2-0.9,2.6-0.6,3.9
			c0.4,1.7,1.6,3,3.3,3.4c1.4,0.5,3,0.1,4-1c0.1-0.1,0.1-0.2,0-0.3c-0.4-0.3-0.8-0.6-1.2-0.9c-0.1-0.1-0.2-0.1-0.3,0
			c-0.2,0.2-0.5,0.3-0.8,0.4c-1.1,0.4-2.3-0.2-2.6-1.3c-0.1-0.3-0.1-0.6-0.1-0.8c0-1.4,0.7-2.7,1.7-3.7c0.8-0.8,2-0.8,2.8-0.1
			c0.8,0.5,1,1.5,0.5,2.2c0,0,0,0,0,0v0.1c-0.1,0.1,0,0.2,0.1,0.2l1.4,0.7c0.1,0.1,0.2,0,0.2-0.1c0.6-1.1,1.1-2.2,1.7-3.3
			c0.1-0.1,0-0.2-0.1-0.2c-0.4-0.2-0.8-0.4-1.1-0.6s-0.3-0.2-0.5,0.2L68.4,70.3z M92,78.5v0.2c0,0.6-0.4,1.1-1,1.2l-2.4,0.5
			c-0.2,0-0.2,0-0.3-0.2c-0.1-0.6-0.3-1.2-0.4-1.8c-0.3-1.4-0.7-2.8-1-4.2c0-0.2,0-0.2,0.2-0.2s0.5-0.1,0.7-0.2s0.2-0.1,0.1-0.2
			c-0.1-0.5-0.2-1-0.3-1.5c0-0.1-0.1-0.2-0.2-0.1c-1.3,0.3-2.6,0.6-3.9,0.9c-0.2,0-0.2,0.1-0.2,0.2c0.1,0.5,0.2,1,0.3,1.4
			c0,0.2,0.1,0.2,0.2,0.1l0.7-0.2c0.1,0,0.2,0,0.2,0.1c0.1,0.4,0.2,0.8,0.3,1.2l1.1,4.9c0,0.2,0,0.2-0.2,0.2c-0.2,0-0.4,0.1-0.7,0.2
			c-0.2,0-0.2,0.1-0.2,0.3c0.1,0.5,0.2,0.9,0.3,1.4c0,0.2,0.1,0.2,0.2,0.2l8-1.8c0.2,0,0.2-0.1,0.2-0.3c-0.1-1.2-0.2-2.3-0.3-3.5
			c0-0.1,0-0.2-0.2-0.1l-1.5,0.3c-0.1,0-0.2,0.1-0.2,0.2C92,77.9,92,78.3,92,78.5z M107.9,14.8l-0.2,0.2l-1.8,1.8
			c-0.9,0.9-1.8,1.7-2.7,2.6c-0.1,0.1-0.2,0.1-0.3,0s-0.2-0.2-0.3-0.4c-0.1-0.1-0.2-0.1-0.3,0l-1,1c-0.1,0.1-0.1,0.1,0,0.2l0.6,0.6
			l2.2,2.2c0.1,0.1,0.2,0.1,0.3,0c0.3-0.3,0.7-0.7,1-1c0.1-0.1,0.1-0.1,0-0.2s-0.2-0.3-0.4-0.4s-0.1-0.2,0-0.3
			c0.8-0.8,1.6-1.6,2.4-2.3l2.1-2.1c0.1-0.1,0.2-0.1,0.2,0s0.3,0.2,0.4,0.4s0.2,0.1,0.3,0c0.3-0.3,0.7-0.7,1-1
			c0.1-0.1,0.1-0.2,0-0.3l-2.7-2.8c-0.1-0.1-0.1-0.1-0.2,0l-1.1,1.1c-0.1,0.1-0.1,0.1,0,0.2s0.3,0.3,0.4,0.4
			C107.9,14.7,107.9,14.8,107.9,14.8z"/>
		<path class="st0" d="M76.6,43.7c-0.2,0.6-0.3,1.2-0.4,1.8c-0.1,0.7-0.3,1.3-0.4,2c-0.1,0.4-0.2,0.8-0.2,1.2c0.2,0,0.2-0.1,0.3-0.2
			l0.7-0.7c0.2-0.2,0.2-0.4,0.2-0.5s0.2-0.6,0.3-0.9c0.2-0.5,0.4-1,0.6-1.5l0.5-0.9c0.3-0.5,0.8-0.7,1.4-0.7
			c0.4,0.1,0.6,0.5,0.6,0.9c0,0.6-0.2,1.1-0.6,1.6c-0.2,0.3-0.3,0.5-0.5,0.8c-0.2,0.2-0.3,0.4-0.5,0.6c-0.3,0.4-0.6,0.7-1,1
			c-0.1,0.2-0.2,0.4-0.2,0.7c-0.1,0.7,0,1.4,0.3,2.1c0.1,0.2,0.2,0.2,0.3,0c0.1-0.2,0.4-0.5,0.6-0.7c0.4-0.5,0.7-1,1-1.4
			c0.3-0.5,0.6-1,0.9-1.6c0.1-0.2,0.1-0.4,0.2-0.6c0.1-0.7,0.3-1.3,0.5-2c0.2-0.6,0.4-1.2,0.6-1.9c0.2-0.4,0.3-0.8,0.5-1.3
			s0.4-0.8,0.6-1.2c0.3-0.8,0.8-1.5,1.2-2.2c0.2-0.4,0.4-0.7,0.8-1c0.2-0.1,0.5-0.2,0.6-0.1s0.2,0.3,0.2,0.5c0,0.1,0,0.2-0.1,0.4
			c-0.2,0.5-0.3,0.9-0.5,1.4c-0.2,0.5-0.4,1-0.6,1.5c-0.3,0.7-0.5,1.4-0.8,2s-0.6,1.5-1,2.3c-0.4,0.7-0.7,1.7-1,2.4
			c-0.1,0.2-0.1,0.5-0.1,0.7c0,0.5,0,1,0.1,1.5c0,0.1,0,0.1,0.1,0.2s0.1-0.1,0.1-0.1c0.2-0.3,0.4-0.5,0.6-0.8
			c0.3-0.3,0.5-0.7,0.8-1.1c0.2-0.3,0.4-0.5,0.7-0.6c0.2-0.1,0.3,0.1,0.5,0.2c0.1,0.1,0.2,0.3,0.1,0.4c-0.1,0.3-0.2,0.7-0.4,1
			c0,0.1,0,0.2,0,0.3c0.2-0.2,0.3-0.3,0.5-0.4l0.7-0.7c0.2-0.3,0.6-0.3,0.9-0.1c0.2,0.2,0.3,0.5,0.1,0.7c0,0.1-0.1,0.1,0,0.2
			s0.1,0,0.2,0l0.8-0.6c0.4-0.3,0.7-0.1,1,0.3c0,0.1,0.1,0.1,0.2,0.1c0.5,0,0.9,0.1,1.4,0c0.2,0,0.5,0,0.6,0.2
			c0.1,0.1,0,0.4-0.2,0.5c-0.4,0.3-0.9,0.4-1.4,0.4c-0.2,0-0.5,0-0.7,0c-0.2,0-0.4-0.1-0.6-0.2c-0.1-0.1-0.2-0.1-0.3,0
			c-0.2,0.2-0.5,0.3-0.7,0.5c-0.5,0.2-0.8,0.3-1.2-0.2c-0.2-0.2-0.3-0.1-0.4,0c-0.2,0.2-0.4,0.4-0.7,0.5c-0.4,0.2-0.8,0.1-1-0.3
			C83,50,83,50,82.8,50.1c-0.2,0.3-0.5,0.6-0.8,0.9c-0.3,0.3-0.7,0.3-1,0c0,0-0.1-0.1-0.1-0.1c-0.2-0.3-0.3-0.7-0.3-1.1
			c-0.1-0.1-0.1-0.3-0.1-0.4c-0.1,0.1-0.2,0.3-0.3,0.4c-0.3,0.4-0.5,0.9-0.9,1.3c-0.2,0.3-0.5,0.6-0.8,0.9c-0.4,0.2-0.9,0.2-1.2-0.1
			c-0.4-0.5-0.7-1-0.7-1.7c0-0.2,0-0.5,0-0.7s0-0.2-0.1-0.1s-0.4,0.3-0.6,0.5c0,0-0.1,0.1-0.2,0.1c-0.1,0.1-0.2,0.2-0.2,0.3
			c0,0.3-0.1,0.7-0.1,1c0,0.2-0.2,0.4-0.4,0.5c-0.2,0-0.5-0.2-0.6-0.4c-0.1-0.3-0.1-0.7-0.1-1c0.1-0.3,0-0.5-0.2-0.7
			c-0.1-0.2-0.1-0.5,0.2-0.6c0,0,0,0,0.1,0c0.1,0,0.1-0.1,0.1-0.2c0-0.4,0-0.7,0-1.1c0-0.6-0.1-1.2-0.2-1.8
			c-0.1-0.6-0.3-1.2-0.6-1.7c-0.2-0.4-0.5-0.9-0.8-1.2c-0.4-0.4-0.8-0.8-1.2-1.1c-0.3-0.2-0.6-0.3-0.9-0.5S70.3,41,70,40.9
			c-0.5-0.3-1.1-0.5-1.6-0.8s-1.1-0.6-1.7-1c-0.4-0.2-0.7-0.5-1.1-0.8c-0.5-0.4-1-0.8-1.5-1.3c-0.7-0.7-0.8-1.8-0.3-2.6
			c0.5-0.7,1.1-1.3,1.9-1.5c1.3-0.5,2.6-0.9,3.9-1.3c0.9-0.3,1.8-0.5,2.8-0.7c1.2-0.3,2.5-0.5,3.7-0.8c1.6-0.3,3.2-0.5,4.8-0.8
			s3-0.4,4.6-0.6c1.6-0.2,3-0.3,4.5-0.4c1.3-0.1,2.6-0.2,3.8-0.2s2.6-0.1,3.8,0c0.5,0,1.1,0.1,1.6,0.2c0.1,0,0.3,0.1,0.4,0.2
			c0.1,0.1,0.1,0.2-0.1,0.3c-0.2,0.1-0.4,0.1-0.6,0c-0.7-0.1-1.5-0.1-2.2-0.1c-0.8,0-1.7,0-2.6,0c-1.3,0.1-2.6,0.1-3.9,0.2
			c-1,0.1-2,0.2-3.1,0.3c-0.6,0-1.2,0.1-1.7,0.2c-0.3,0.1-0.6,0-0.9,0c-0.5,0.1-1,0.1-1.5,0.2L81.5,30c-0.8,0.1-1.7,0.2-2.5,0.4
			s-1.6,0.3-2.4,0.4c-3.3,0.6-6.5,1.5-9.6,2.8c-0.6,0.2-1.1,0.5-1.6,0.8c-0.4,0.2-0.7,0.6-0.8,1c-0.1,0.4,0,0.8,0.3,1.1
			c0.5,0.5,1.1,1,1.8,1.5c0.5,0.3,0.9,0.6,1.4,0.9c0.6,0.3,1.2,0.6,1.8,0.9c0.5,0.2,0.9,0.5,1.3,0.7c0.7,0.4,1.3,0.8,1.9,1.2
			c0.3,0.2,0.5,0.4,0.7,0.7c0.4,0.4,0.7,0.9,1,1.4c0.2,0.4,0.3,0.8,0.5,1.2c0,0,0,0.1,0.1,0.1c0.1,0,0-0.1,0-0.1
			c0.1-0.6,0.2-1.1,0.3-1.7c0.1-0.2,0.1-0.5,0.2-0.7c0.1-0.3,0.2-0.6,0.4-0.8c0.1-0.1,0.3-0.2,0.5-0.1c0.1,0.1,0.2,0.3,0.2,0.5
			c-0.1,0.5-0.2,0.9-0.2,1.4c0,0,0,0.1,0.1,0.1c0,0,0,0-0.1-0.1l0,0L76.6,43.7z"/>
		<path class="st0" d="M64.6,56.1c0,0.5,0,1,0,1.6c0,0.1,0,0.2-0.2,0.2c-0.2,0-0.1-0.1-0.1-0.2v-1.9c0-0.1-0.1-0.2,0.1-0.2
			c0.2,0,0.3-0.1,0.4,0.1c0.2,0.5,0.5,1,0.7,1.5c0,0.1,0.1,0.1,0.1,0.1c0-0.5,0-1.1,0-1.6c0-0.2,0.1-0.2,0.2-0.2
			c0.1,0,0.1,0,0.1,0.1v2.1c0,0.1,0,0.1-0.1,0.1c-0.1,0-0.3,0.1-0.4-0.1c-0.2-0.5-0.5-1-0.7-1.5C64.7,56.2,64.6,56.2,64.6,56.1
			L64.6,56.1z"/>
		<path class="st0" d="M98.3,56.8c0.1,0.1,0.1,0.1,0.2,0.2c0.2,0.3,0.3,0.6,0.4,0.9c-0.2,0.1-0.4,0-0.5-0.2
			c-0.1-0.2-0.1-0.3-0.2-0.5c0-0.1-0.1-0.2-0.2-0.2c-0.1-0.1-0.2-0.1-0.3-0.1c-0.1,0,0,0.2,0,0.2s0,0.4,0,0.6s0,0.2-0.2,0.2
			s-0.2,0-0.2-0.2c0-0.7,0-1.3,0-2c0-0.1,0-0.2,0.2-0.2s0.5,0,0.7,0c0.2,0,0.5,0.2,0.5,0.5c0.1,0.3-0.1,0.6-0.3,0.7L98.3,56.8z
			 M97.6,56.2c0,0.4,0,0.4,0.4,0.4c0.4-0.1,0.4-0.2,0.3-0.4c0-0.2-0.2-0.3-0.6-0.3C97.4,55.9,97.7,56.1,97.6,56.2
			C97.6,56.3,97.6,56.2,97.6,56.2z"/>
		<path class="st0" d="M76.3,56.8c0.2,0.3,0.5,0.7,0.6,1.1c-0.2,0.1-0.4,0-0.5-0.2c-0.1-0.2-0.2-0.3-0.2-0.5c0-0.1-0.1-0.2-0.2-0.2
			c-0.1,0-0.2,0-0.3,0c-0.1,0,0,0.2,0,0.2c0,0.2,0,0.4,0,0.7s-0.1,0.2-0.2,0.2s-0.2,0-0.2-0.2v-2c0-0.1,0-0.2,0.2-0.2
			c0.2,0,0.5,0,0.8,0c0.3,0.1,0.5,0.2,0.5,0.5c0.1,0.3-0.1,0.6-0.3,0.7L76.3,56.8z M75.7,56.2v0.3c0,0.1,0,0.1,0.1,0.1
			c0.1,0,0.3,0,0.4-0.1c0.2-0.1,0.3-0.2,0.2-0.4c0-0.2-0.2-0.3-0.3-0.3C75.7,55.8,75.7,55.8,75.7,56.2z"/>
		<path class="st0" d="M83.9,56.5c0-0.2,0-0.5,0-0.7s0.1-0.2,0.2-0.2s0.2,0,0.2,0.2c0,0.5,0,0.9,0,1.4c0,0.5-0.4,0.9-0.8,0.9
			c-0.2,0-0.3,0-0.4-0.1c-0.2-0.1-0.3-0.3-0.3-0.5c0-0.6,0-1.2,0-1.7c0-0.2,0.1-0.1,0.2-0.1s0.1,0,0.1,0.1c0,0.5,0,1,0,1.5
			c0,0.3,0.2,0.5,0.4,0.5c0.1,0,0.2,0,0.2,0c0.2-0.1,0.3-0.2,0.3-0.4L83.9,56.5L83.9,56.5z"/>
		<path class="st0" d="M71.6,56.5c0-0.2,0-0.5,0-0.7s0-0.2,0.2-0.2s0.2,0.1,0.2,0.2c0,0.5,0,1,0,1.4c0,0.3,0.2,0.5,0.4,0.5
			c0.1,0,0.2,0,0.2,0c0.3-0.1,0.3-0.3,0.3-0.5c0-0.5,0-0.9,0-1.4c0-0.1,0-0.2,0.2-0.2s0.2,0.1,0.2,0.2v1.3c0,0.5-0.4,0.9-0.8,0.9
			c-0.1,0-0.2,0-0.3-0.1c-0.3-0.1-0.5-0.4-0.4-0.7C71.6,56.9,71.6,56.7,71.6,56.5z"/>
		<path class="st0" d="M79.7,55.5c0.2,0,0.4,0,0.5,0s0.1,0,0.1,0.1s0,0.1-0.1,0.1h-0.7c-0.1,0-0.2,0-0.2,0.2c0,0.6,0,0.6,0.5,0.6
			h0.3c0.1,0,0.2,0,0.2,0.1s0,0.1-0.1,0.1h-0.7c-0.1,0-0.2,0-0.2,0.2c0,0.7,0,0.7,0.6,0.7h0.3c0.1,0,0.2,0,0.2,0.1s0,0.1-0.1,0.1
			c-0.4,0-0.7,0-1.1,0c-0.1,0-0.1,0-0.1-0.2v-2.1c0-0.1,0-0.2,0.2-0.1S79.6,55.5,79.7,55.5z"/>
		<path class="st0" d="M68.8,55.5c0.2,0,0.3,0,0.5,0s0.1,0,0.1,0.1s0,0.1-0.1,0.1h-0.7c-0.1,0-0.1,0-0.1,0s0,0.4,0,0.6
			s0.1,0.1,0.1,0.1h0.7c0.1,0,0.1,0,0.1,0.1s0,0.1-0.1,0.1h-0.6c-0.1,0-0.2,0-0.2,0.2s-0.1,0.5,0,0.6c0.1,0.1,0.4,0,0.6,0h0.2
			c0.1,0,0.1,0,0.1,0.1s0,0.1-0.1,0.1c-0.4,0-0.7,0-1.1,0c-0.1,0-0.1,0-0.1-0.2c0-0.7,0-1.4,0-2c0-0.1,0-0.2,0.2-0.1
			S68.6,55.5,68.8,55.5z"/>
		<path class="st0" d="M86.6,42.9c-0.3-0.1-0.5-0.2-0.7-0.4c-0.1-0.1-0.2-0.2-0.2-0.4c-0.1-0.3,0.1-0.5,0.4-0.6
			c0.4-0.1,0.5-0.1,0.7,0.3c0,0.1,0.1,0.1,0.2,0.1c0.2,0.1,0.3,0.3,0.4,0.5c0,0.2-0.1,0.4-0.2,0.5C86.8,42.9,86.7,42.9,86.6,42.9z"
			/>
		<path class="st0" d="M93.7,56.7c0-0.3,0-0.6,0-1c0-0.1,0-0.2,0.2-0.2c0.3,0,0.7,0,1,0c0.1,0,0.2,0,0.2,0.1s-0.1,0.2-0.2,0.2h-0.6
			c0,0-0.1,0-0.1,0c0,0,0,0.4-0.1,0.6s0.1,0.1,0.2,0.1h0.7c0.1,0,0.1,0,0.1,0.1s-0.1,0.1-0.1,0.1h-0.7c-0.1,0-0.2,0-0.2,0.2
			c0,0.7,0,0.7,0.6,0.7h0.3c0.1,0,0.1,0,0.1,0.2s0,0.1-0.1,0.1c-0.3,0-0.7,0-1,0c-0.2,0-0.2-0.1-0.2-0.2
			C93.7,57.4,93.7,57,93.7,56.7z"/>
		<path class="st0" d="M89.9,56.7c0-0.3,0-0.7,0-1c0-0.1,0-0.2,0.2-0.2s0.2,0,0.2,0.2c0,0.1,0,0.4,0,0.7s0,0.2,0.2,0.2H91
			c0.1,0,0.2,0,0.2-0.2c0-0.2,0-0.5,0-0.7s0-0.2,0.2-0.2c0.2,0,0.2,0,0.2,0.2c0,0.7,0,1.3,0,2c0,0.1,0,0.2-0.2,0.2s-0.2-0.1-0.2-0.2
			c0-0.1,0-0.5,0-0.7s0-0.2-0.2-0.2h-0.7c-0.1,0-0.2,0-0.2,0.2c0,0.2,0,0.5,0,0.8s-0.1,0.2-0.2,0.2c-0.1,0-0.2,0-0.2-0.2
			C89.9,57.4,89.9,57.1,89.9,56.7z"/>
		<path class="st0" d="M86.9,56.9c0-0.3,0-0.5,0-0.8s-0.1-0.2-0.2-0.2h-0.3c-0.1,0-0.2,0-0.2-0.2s0.1-0.1,0.2-0.1h1.4
			c0.1,0,0.2,0,0.2,0.1c0,0.1,0,0.2-0.2,0.2s-0.4-0.1-0.5,0s0,0.3,0,0.5v1.3c0,0.1,0,0.2-0.2,0.2s-0.2,0-0.2-0.2
			C86.9,57.5,86.9,57.1,86.9,56.9z"/>
		<path class="st0" d="M98.6,16.3c-0.6,0-1.1-0.2-1.6-0.5c-0.2-0.1-0.5-0.2-0.5-0.4s0.2-0.4,0.3-0.5c1-1.6,1.9-3.2,2.9-4.8
			c0.1-0.1,0.1-0.2,0.3-0.1c0.4,0.2,0.8,0.5,1.2,0.9c0.6,0.6,0.8,1.5,0.6,2.4c-0.2,1.2-0.9,2.2-1.9,2.8C99.5,16.2,99,16.3,98.6,16.3
			z"/>
		<path class="st0" d="M51,37.4c0,0.3-0.1,0.7-0.2,1.1c0,0.1-0.1,0.1-0.1,0.1l-2.2-0.3c-0.1,0-0.2,0-0.1-0.2c0.1-0.3,0.1-0.7,0.2-1
			c0.1-0.6,0.7-1,1.3-1C50.4,36.1,51,36.7,51,37.4z"/>
		<path class="st0" d="M46.6,37.2c0,0.1-0.1,0.4-0.1,0.7c0,0.2,0,0.1-0.1,0.1l-1.9-0.3c-0.1,0-0.2-0.1-0.1-0.2s0.1-0.5,0.1-0.7
			c0.1-0.5,0.6-0.9,1.2-0.8C46.2,36.1,46.6,36.6,46.6,37.2z"/>
		<path class="st0" d="M97,73.5l-0.3-2.1c0.1,0,0.1,0,0.1,0.1c0.5,0.4,0.9,0.7,1.4,1.1c0.2,0.1,0.1,0.2,0,0.3L97,73.5z"/>
	</g>
</g>
</svg>
