<svg id="Ebene_1" data-name="Ebene 1" xmlns="http://www.w3.org/2000/svg" viewBox="0 0 165 86"><defs><style>.cls-1{opacity:0.9;}.cls-2{fill:#e6e6e6;}</style></defs><g class="cls-1"><path class="cls-2" d="M128.67,40.74h11.48V52.21H128.67Zm-34.41,0h11.47V52.21H94.26ZM59.84,52.21V40.74H71.31V52.21Zm-35-11.47H36.33V52.21H24.85Z"/><path class="cls-2" d="M70.74,14.67H25.42l-.57,20,3,.52q.84-8.84,4.64-13.11c2.66-3,6.33-4.54,11-4.68V59.21c0,3.66-.51,6-1.58,7.12-.9.93-2.44,1.5-4.6,1.72-.64,0-1.73.08-3.27.08v3.2h28v-3.2c-1.55,0-2.64,0-3.28-.08a7.36,7.36,0,0,1-4.6-1.72c-1.07-1.09-1.58-3.46-1.58-7.12V17.39c4.72.14,8.39,1.69,11.06,4.68s4.07,7.22,4.63,13.11l3-.52Z"/></g></svg>