<svg id="Ebene_1" data-name="Ebene 1" xmlns="http://www.w3.org/2000/svg" viewBox="0 0 165 86"><defs><style>.cls-1{fill:#e6e6e6;}</style></defs><path class="cls-1" d="M77.67,38.91c.23.27,2.8,2.22,3.9,3.05h0c.21.14.2-.12.2-.12l.34-37.23a4.87,4.87,0,0,0-.47.41,2.59,2.59,0,0,0-.41.4c0,.41-3.73,31.49-3.77,32.48a1.39,1.39,0,0,0,.21,1M82.58,2.79A40.17,40.17,0,1,0,111,14.56,40.06,40.06,0,0,0,82.58,2.79M122,42.93v.14c0,1.2-.07,2.4-.17,3.58a39.24,39.24,0,0,1-16.13,28.26,38.88,38.88,0,0,1-23,7.55h-.07A39.46,39.46,0,0,1,43,43.12V42a39.77,39.77,0,0,1,7.32-22c.66-.9,1.36-1.78,2.1-2.63a40,40,0,0,1,8.89-7.77A39.22,39.22,0,0,1,82.58,3.51h.13A39.53,39.53,0,0,1,122,42.92M84.1,5.6h0a5,5,0,0,0-1.57-1.21h0l-.07,0h0L82.2,41.89h0v.19a.26.26,0,0,1-.08.21.33.33,0,0,1-.24,0l-3.11-1.61a12,12,0,0,0-1.64-.83L49.34,60.65a3.58,3.58,0,0,0-.21,1.12l31.63-18.7.18-.1s.27-.14.1-.3c-1.1-.77-3.94-2.77-3.89-2.82l.22.13c.42.3,1.29.82,1.29.82l2.78,1.78h0l.14.09a.25.25,0,0,1,.13.18.25.25,0,0,1-.14.2l-.11.07-.06,0h0l-32.3,19v.13a3.63,3.63,0,0,0,1.8.84c.13.21.87,1.36,1.87,2.65a41,41,0,0,0,3.26,3.71A37.13,37.13,0,0,0,81.24,80.38c-.65,0-1.29,0-1.93-.06A38.76,38.76,0,0,1,46.93,59.11c0-.09-.13-.21-.21-.2A40.19,40.19,0,0,0,54.9,70.76l0,0A39.17,39.17,0,0,0,82.71,82.13h0a39.32,39.32,0,0,0,27.47-11.51l0,0a38.56,38.56,0,0,0,11.29-24v-.16c0-.18,0-.39,0-.58s0-.3,0-.46a1.19,1.19,0,0,0-.2-.6,11.54,11.54,0,0,1-.81-1.61,12.58,12.58,0,0,1-.8-3A37.42,37.42,0,0,0,84.1,5.6m29.62,57.61a39.39,39.39,0,0,1-4.94,6.06,37.17,37.17,0,0,1-52.56,0A40.3,40.3,0,0,1,53,65.59c-.69-.9-1.26-1.73-1.58-2.22a.16.16,0,0,1,0-.24l0,0L82.29,50.72a.43.43,0,0,1,.41,0L113.63,63a.17.17,0,0,1,.1.23v0m.52-.28h0L82.5,50.38,51,63h0a4,4,0,0,1-1.46-.92L81.84,43.67a.38.38,0,0,1,.3-.06.19.19,0,0,1,.09.16c0,1.06.12,3.84.2,5.26a6.63,6.63,0,0,0,.07,1h0a6.63,6.63,0,0,0,.08-1c.07-1.41.16-4.16.2-5.24a.23.23,0,0,1,.08-.19c.06,0,.23,0,.33.08L115.8,62.32a3.47,3.47,0,0,1-1.55.6m1.65-.79-32.36-19-.09-.06,0,0-.07,0,0,0h0l0,0h0a.06.06,0,0,1,0-.06.22.22,0,0,1,.08-.13l3.1-1.91,0,0C87.3,40.35,88,40,88,40s-4,2.79-4,2.79a.09.09,0,0,0,0,.13h0A.14.14,0,0,0,84,43l31.61,18.7a2.19,2.19,0,0,0,0-1c-1.85-1.38-26.54-20-27.58-20.76a15.3,15.3,0,0,0-1.73.82l-3,1.51h0l0,0-.1,0-.14,0a.11.11,0,0,1-.11,0s0,0,0,0h0a.26.26,0,0,1-.05-.12L82.61,5.77v-1a3.55,3.55,0,0,1,1.5.9L88.8,39a.34.34,0,0,0,.1.27l26.79,21a3.47,3.47,0,0,1,.21,1.8m-.23-2.35a.17.17,0,0,1-.23,0L89.07,39.11A.35.35,0,0,1,89,39L84.39,6.09V6a.17.17,0,0,1,.18-.15,37.2,37.2,0,0,1,31.1,53.9M82.5.51A42.49,42.49,0,1,0,112.55,13,42.48,42.48,0,0,0,82.5.51m29.86,72.35a42.23,42.23,0,0,1-72-26.9c0-.68,0-1.06,0-1.06a9.74,9.74,0,0,1,1.2-3.75c.08-.14.14-.25.2-.34h0a2.57,2.57,0,0,0,.32-1s0-.24,0-.36c.06-.56.1-.89.18-1.58a40.64,40.64,0,0,1,3.35-11.83,41.18,41.18,0,0,1,7.72-11.25,40.18,40.18,0,0,1,6.57-5.5A40.31,40.31,0,0,1,82.55,2.48a40.46,40.46,0,0,1,39.57,32c.07,0,0-.27,0-.45-2.49-13-10.23-23.56-21.25-29.12a42.26,42.26,0,0,1,11.48,67.92M75.93,39.4h0a.46.46,0,0,0,.18-.31L80.92,5.6a37.46,37.46,0,0,0-31.6,54.72ZM45.33,43A37.17,37.17,0,0,1,80.43,5.89.16.16,0,0,1,80.6,6v0l-4.73,33a.19.19,0,0,1-.09.15L49.57,59.81a.17.17,0,0,1-.24,0h0a37,37,0,0,1-4-16.79"/></svg>