<svg id="Ebene_1" data-name="Ebene 1" xmlns="http://www.w3.org/2000/svg" viewBox="0 0 165 86"><defs><style>.cls-1{opacity:0.9;}.cls-2{fill:#e6e6e6;}</style></defs><g class="cls-1"><path class="cls-2" d="M18.87,26.4a8.42,8.42,0,0,0-5.06-1.46H10.76c-5,0-8.25,3.13-8.25,7.86V46.43c0,4.71,3.23,7.85,8.25,7.85h2.4c5,0,8.25-3.15,8.25-7.85V37.6c0-.31-.13-.45-.45-.45H11.82c-.31,0-.44.14-.44.45v4.32c0,.31.13.44.44.44h3a.39.39,0,0,1,.44.45v3.25a3.11,3.11,0,0,1-3.14,3.19h-.42a3.18,3.18,0,0,1-3.2-3.19V33.16A3.18,3.18,0,0,1,11.68,30h1.93c1.29,0,2.13.89,2.88,2.27.26.49.36.75.62.75a.49.49,0,0,0,.22,0L21.23,31a.42.42,0,0,0,.27-.35,7.49,7.49,0,0,0-2.63-4.29"/><path class="cls-2" d="M89.43,25.63h-15c-.31,0-.45.13-.45.44V53.14c0,.31.14.45.45.45H89.6c.32,0,.45-.14.45-.45V48.88a.39.39,0,0,0-.45-.44H80.37c-.32,0-.45-.13-.45-.44V42.25c0-.31.13-.44.45-.44h7.16c.31,0,.44-.13.44-.45V37.1c0-.31-.13-.45-.44-.45H80.37c-.32,0-.45-.12-.45-.43v-5c0-.32.13-.45.45-.45h9.06c.31,0,.45-.13.45-.44V26.07a.4.4,0,0,0-.45-.44"/><path class="cls-2" d="M155,26.24c.18-.36.06-.61-.39-.61h-5.2a.64.64,0,0,0-.65.44l-3.41,7.37a.42.42,0,0,1-.81,0L141,26.07a.65.65,0,0,0-.67-.44h-5.45c-.43,0-.58.29-.39.67l6.63,13-6.76,13.58c-.2.4,0,.67.4.67h5.14a.68.68,0,0,0,.7-.45l3.66-8a.42.42,0,0,1,.81,0l3.41,8a.71.71,0,0,0,.7.45h5.55c.45,0,.57-.28.4-.62l-6.7-13.61Z"/><path class="cls-2" d="M117.64,25.63c-.31,0-.44.13-.44.44V53.14c0,.31.13.45.44.45H131a.7.7,0,0,0,.7-.4l2.15-4.33a.28.28,0,0,0-.27-.42h-9.92c-.3,0-.44-.13-.44-.45V42.26c0-.31.14-.44.44-.44h7.19a.4.4,0,0,0,.43-.42V37.08a.43.43,0,0,0-.43-.43h-7.19c-.3,0-.44-.13-.44-.44v-5c0-.31.13-.44.44-.44h10a.28.28,0,0,0,.28-.43L131.65,26a.64.64,0,0,0-.66-.4Z"/><path class="cls-2" d="M93.3,36.66c-.29,0-.41.12-.41.4V41.4c0,.28.12.41.41.41h4.58c.29,0,.41-.13.41-.41V37.06c0-.28-.12-.4-.41-.4Z"/><path class="cls-2" d="M98,25.63c-.31,0-.44.13-.44.44v4.39c0,.31.13.45.44.45h4.66c.31,0,.45.13.45.44V53.14c0,.31.13.45.45.45h5.1c.31,0,.55-.14.55-.45V31.35c0-.31.13-.44.45-.44h4.66c.32,0,.45-.14.45-.45V26.07a.4.4,0,0,0-.45-.44Z"/><path class="cls-2" d="M34.25,24.94c-5,0-8.25,3.15-8.25,7.86V46.43c0,4.7,3.24,7.85,8.25,7.85h2.69c5,0,8.24-3.15,8.24-7.85V32.8c0-4.71-3.28-7.86-8.24-7.86Zm5,21a3.13,3.13,0,0,1-3.16,3.2h-.89A3.18,3.18,0,0,1,32,45.93V33.29a3.18,3.18,0,0,1,3.19-3.2h.89a3.13,3.13,0,0,1,3.16,3.2Z"/><path class="cls-2" d="M65.07,41.85a8,8,0,0,0,4.29-7v-1c0-5.05-3.39-8.19-8.44-8.19H50.67c-.3,0-.44.13-.44.44V53.14c0,.31.14.45.44.45h5.1c.32,0,.44-.14.44-.45V43.28c0-.31.13-.45.45-.45h2.13a.51.51,0,0,1,.56.39l4,10a.54.54,0,0,0,.52.4h5.86a.39.39,0,0,0,.39-.58Zm-1.75-7.08A3.32,3.32,0,0,1,60,38H56.66c-.32,0-.45-.14-.45-.44V31c0-.31.13-.44.45-.44H60a3.35,3.35,0,0,1,3.32,3.19Z"/><path class="cls-2" d="M159.29,26.06a2.65,2.65,0,1,0,2.62,2.65,2.64,2.64,0,0,0-2.62-2.65m0-.52a3.17,3.17,0,1,1-3.2,3.17,3.18,3.18,0,0,1,3.2-3.17"/><path class="cls-2" d="M160.66,30.39h-.58a.07.07,0,0,1-.08-.05l-.51-1.21a.09.09,0,0,0-.09-.06h-.54s-.06,0-.06.05v1.21s0,.06-.05.06h-.51a.05.05,0,0,1-.06-.06V27.05a.05.05,0,0,1,.06-.06h1.38a.93.93,0,0,1,1,1v.18a.93.93,0,0,1-.54.81l.62,1.34s0,.07-.05.07M160,28a.4.4,0,0,0-.39-.39h-.76s-.06,0-.06.05v.84s0,.05.06.05h.76a.39.39,0,0,0,.39-.38Z"/><path class="cls-2" d="M148,62.13a2.1,2.1,0,0,1-.39.54,1.42,1.42,0,0,1-1.07.38h-.25a1.42,1.42,0,0,1-1.55-1.47V59.06a1.42,1.42,0,0,1,1.55-1.47h.25a1.61,1.61,0,0,1,.87.22,1.69,1.69,0,0,1,.58.69c0,.08,0,.12,0,.14l-.64.32c-.06,0-.1,0-.13-.05a.72.72,0,0,0-.64-.44h-.25a.59.59,0,0,0-.6.59v2.52a.6.6,0,0,0,.6.6h.25a.72.72,0,0,0,.64-.47c0-.07.09-.07.15,0l.62.31a.11.11,0,0,1,.05.15"/><path class="cls-2" d="M152.6,59c0,.37.38.55,1,.81.89.4,1.33.89,1.33,1.72a1.57,1.57,0,0,1-1.66,1.54h-.15a1.73,1.73,0,0,1-1.18-.39,1.25,1.25,0,0,1-.37-.55.08.08,0,0,1,0-.12l.67-.33a.1.1,0,0,1,.13,0,.86.86,0,0,0,.71.48h.15a.7.7,0,0,0,.67-.63c0-.41-.33-.63-.87-.89-.92-.44-1.39-.81-1.39-1.64a1.4,1.4,0,0,1,1.56-1.43h.12a1.57,1.57,0,0,1,1,.27,1.53,1.53,0,0,1,.52.64c0,.07,0,.11,0,.14l-.63.31c-.08,0-.12,0-.15,0a.73.73,0,0,0-.65-.44h-.12c-.33,0-.6.16-.6.51"/><path class="cls-2" d="M141.62,63.05a1.43,1.43,0,0,1-1.55-1.48v-3.8c0-.06,0-.08.08-.08h.79c.05,0,.08,0,.08.08v3.8a.6.6,0,0,0,.6.6H142a.59.59,0,0,0,.6-.6v-3.8c0-.06,0-.08.08-.08h.79c.06,0,.09,0,.09.08v3.8A1.43,1.43,0,0,1,142,63.05Z"/><path class="cls-2" d="M150.41,58.56a.08.08,0,0,0-.09.09v4.22c0,.06,0,.08-.08.08h-.82c-.06,0-.08,0-.08-.08V58.65a.08.08,0,0,0-.09-.09h-.89c-.06,0-.09,0-.09-.08v-.71c0-.06,0-.08.09-.08h2.94s.08,0,.08.08v.71c0,.06,0,.08-.08.08Z"/><path class="cls-2" d="M124.53,59.17a.6.6,0,0,0-.6-.6h-.82s-.08,0-.08.08v1.44c0,.06,0,.08.08.08h.82a.6.6,0,0,0,.6-.6Zm1,.4a1.45,1.45,0,0,1-1.55,1.48h-.82s-.08,0-.08.08v1.74c0,.06,0,.08-.08.08h-.8c-.05,0-.08,0-.08-.08v-5.1c0-.06,0-.08.08-.08h1.78a1.45,1.45,0,0,1,1.55,1.54Z"/><path class="cls-2" d="M132.29,63.06a1.43,1.43,0,0,1-1.55-1.48V59.06a1.43,1.43,0,0,1,1.55-1.48h.46a1.43,1.43,0,0,1,1.56,1.48v2.52a1.43,1.43,0,0,1-1.56,1.48Zm1.06-4a.59.59,0,0,0-.6-.61h-.46a.6.6,0,0,0-.6.61v2.52a.6.6,0,0,0,.6.61h.46a.59.59,0,0,0,.6-.61Z"/><path class="cls-2" d="M138,59.17a.61.61,0,0,0-.6-.61h-.92c-.06,0-.08,0-.08.09V62c0,.06,0,.08.08.08h.92a.59.59,0,0,0,.6-.6ZM135.52,63c-.06,0-.08,0-.08-.08v-5.1c0-.06,0-.08.08-.08h1.88A1.45,1.45,0,0,1,139,59.24V61.4A1.45,1.45,0,0,1,137.4,63Z"/><path class="cls-2" d="M129.85,63h-.91a.1.1,0,0,1-.11-.07L128,61a.13.13,0,0,0-.14-.08h-.5c-.05,0-.08,0-.08.08v1.88c0,.06,0,.08-.08.08h-.8c-.06,0-.08,0-.08-.08v-5.1c0-.06,0-.08.08-.08h1.8a1.43,1.43,0,0,1,1.56,1.54v.28a1.44,1.44,0,0,1-.84,1.26l1,2.07c0,.07,0,.11-.08.11m-1-3.78a.62.62,0,0,0-.61-.61h-.84c-.05,0-.08,0-.08.09V60c0,.06,0,.08.08.08h.84a.61.61,0,0,0,.61-.6Z"/></g></svg>