<svg id="Ebene_1" data-name="Ebene 1" xmlns="http://www.w3.org/2000/svg" viewBox="0 0 165 86"><defs><style>.cls-1{opacity:0.9;}.cls-2{fill:#e6e6e6;}</style></defs><g class="cls-1"><path class="cls-2" d="M97.82,16l-7.72-.37s-10.17-.28-14.61-.12c-8.78.32-12,.59-12,.59A230.07,230.07,0,0,0,.41,30.45a.45.45,0,0,0,.15.41A287.83,287.83,0,0,1,57.88,20.4s8.9-.78,16.4-.87c13.06-.16,16.37.14,16.37.14l12.94.73A259.93,259.93,0,0,1,142,26c6.11,1.4,12.63,3.16,22.26,5.94.23.06.19-.18.37-.26A218.92,218.92,0,0,0,97.82,16"/><path class="cls-2" d="M68,41.62H47.53c-.12.79-.21,1.51-.38,2.24a60.44,60.44,0,0,1,8.61-.44V68.74a22.61,22.61,0,0,1,3.65,0V43.33a38.69,38.69,0,0,1,8,.45c.12-.8.39-1.42.56-2.16"/><path class="cls-2" d="M33.82,47.15c0-3.36,2.79-4.27,5.23-4.27a8.68,8.68,0,0,1,6.18,2.29c.24-.79.43-1.62.7-2.6A14.74,14.74,0,0,0,39.37,41c-3.86,0-8.68,1.52-8.68,7,0,8.52,15,5.71,15,13.73,0,3.84-3.18,5.42-6.24,5.42a9.49,9.49,0,0,1-7.72-4.78c-.45,1.35-.82,2.64-1.27,4a14.48,14.48,0,0,0,8.3,2.73c4.22,0,10.42-2.29,10.42-8.5,0-8.66-15.33-7.07-15.33-13.4"/><path class="cls-2" d="M70.37,56.24,75,45.73l4.49,10.51Zm4.8-15.09L62.24,68.74c1.07,0,2.39-.06,3.39,0a96.78,96.78,0,0,1,4-10.63H80.32a92.64,92.64,0,0,1,4.24,10.53,24.82,24.82,0,0,1,4.48,0L76.29,41.15Z"/><path class="cls-2" d="M98.78,67.21s-3.79-.15-4.15,0V42.9h5.83c7.81,0,9.93,7,9.93,12.38,0,8-3.44,11.93-11.61,11.93M104,41.61H91.13V68.67h11.26c6.66,0,11.66-6.45,11.88-12.21.35-9-4.18-14.87-10.32-14.85"/><path class="cls-2" d="M121.79,56.43,126.46,46,131,56.43Zm4.67-15.22L113.67,68.7a29.64,29.64,0,0,1,3.4,0c1.34-3.92,2.5-7.08,3.89-10.44h10.83a99.33,99.33,0,0,1,4.14,10.44,39.44,39.44,0,0,1,4.37,0L127.67,41.21Z"/></g></svg>