<svg id="Ebene_1" data-name="Ebene 1" xmlns="http://www.w3.org/2000/svg" viewBox="0 0 165 86"><defs><style>.cls-1{opacity:0.9;}.cls-2{fill:#e6e6e6;}</style></defs><g class="cls-1"><polygon class="cls-2" points="65.28 25.84 96.13 25.84 93.93 33.87 84.91 33.87 78.23 60.2 66.15 60.2 72.9 33.67 63.13 33.67 65.28 25.84"/><polygon class="cls-2" points="103.15 25.99 116.77 25.99 119.05 45.84 131.72 25.8 144.32 25.8 143.54 60.05 130.86 60.05 132.11 40.63 120.42 60.13 109.75 60.13 107.59 40.78 99.55 60.09 87.38 60.09 103.15 25.99"/><path class="cls-2" d="M26.27,26H46.8s14.51.6,13.16,12.88S51.29,56.51,44.19,58.45,17.68,60,17.68,60Zm9.87,7.7L31.58,51.81S43.25,54,46.2,43.69s-3-10-3-10Z"/></g></svg>