<svg xmlns="http://www.w3.org/2000/svg" viewBox="0 0 230.87 230.87"><defs><style>.cls-1{fill:#fc3;}.cls-2{fill:none;}.cls-3{fill:#191919;}</style></defs><g id="Illustration"><path class="cls-1" d="M89.89,49.21A57.86,57.86,0,0,1,112,35.35a54.11,54.11,0,0,0-42.2,34.22h7A57.93,57.93,0,0,1,89.89,49.21Z"/><path class="cls-1" d="M136.47,69.21l19.22,7.3a12.21,12.21,0,0,1,15.66-5.6A54.29,54.29,0,0,0,142.63,39.5h0a53.06,53.06,0,0,0-11.51-1.26A52.13,52.13,0,0,0,81.38,74.65h-43v5.08H80.06a48.57,48.57,0,0,0-.8,5.07H31.37V89.9H79a46.64,46.64,0,0,0,.19,4.87H36.52v5.09h43.3A46,46,0,0,0,81,104.74H43.41v5.09H70.49a54.24,54.24,0,0,0,26,27.49,58.5,58.5,0,0,1-6.6-5.68c-1-1-2-2.08-2.94-3.17h-.29v-.33a57.94,57.94,0,0,1-10.5-18.31h6.52a51.77,51.77,0,0,0,5.2,9.83A21.42,21.42,0,0,1,99.6,107.08a15.48,15.48,0,1,1,16.93,0,21.44,21.44,0,0,1,5.9,3.82l28.4-9.9A16.69,16.69,0,0,1,159,91.7a12.2,12.2,0,0,1-4.63-9.57c0-.23,0-.46,0-.69l-17.78-6.75v2.77h-5.09V70.63a6.6,6.6,0,1,0-13.19,0v6.83h-5.09V70.63a11.68,11.68,0,0,1,5.28-9.77,8.74,8.74,0,0,1-2.41-6,8.82,8.82,0,1,1,17.64,0,8.7,8.7,0,0,1-2.42,6A11.7,11.7,0,0,1,136.47,69.21Z"/><path class="cls-2" d="M165,137.82a57.64,57.64,0,0,1-7.2,4.41l29.89,53.94a.65.65,0,0,0,.86.24l6.28-3.48a.67.67,0,0,0,.3-.38.65.65,0,0,0,0-.48Z"/><path class="cls-2" d="M178.07,113.16v-6.67a11.54,11.54,0,0,0-4.39-9,54.08,54.08,0,0,1-44.23,44.62v.49a52.12,52.12,0,0,0,48.62-29.39Z"/><path class="cls-2" d="M171.35,70.91a12.2,12.2,0,0,1,3,20.63,2,2,0,0,1,0,.25,16.66,16.66,0,0,1,7.91,9.12A52.2,52.2,0,0,0,142.63,39.5a54.29,54.29,0,0,1,28.72,31.41Z"/><path d="M183.16,117v-.39a3.54,3.54,0,0,1-.19.39Z"/><path d="M87,128.47l-.29-.33v.33Z"/><path class="cls-1" d="M108.06,110.42a16.31,16.31,0,0,0-16.19,14.4c.74.85,1.52,1.69,2.34,2.5a51.9,51.9,0,0,0,30.15,14.82V126.72A16.32,16.32,0,0,0,108.06,110.42Z"/><path class="cls-1" d="M173.68,97.44a11.53,11.53,0,0,0-18.69,9V117H149.9V106.72L126,115.05a21.23,21.23,0,0,1,3.47,11.67v15.34a54.08,54.08,0,0,0,44.23-44.62Z"/><path class="cls-1" d="M174.11,91.7l.17.09a2,2,0,0,0,0-.25Z"/><polygon class="cls-3" points="31.47 99.67 31.47 104.77 36.52 104.77 36.52 99.86 36.52 99.67 31.47 99.67"/><rect class="cls-3" x="26.31" y="89.75" width="5.05" height="5.09"/><rect class="cls-3" x="20.16" y="79.73" width="5.05" height="5.09"/><rect class="cls-3" x="28.4" y="69.57" width="5.05" height="5.09"/><path class="cls-3" d="M200.45,189.11,169.87,134c.84-.74,1.65-1.51,2.45-2.31h0A58.07,58.07,0,0,0,183,117a3.54,3.54,0,0,0,.19-.39A58.28,58.28,0,1,0,76.7,69.57H38.43v5.08H81.38a52.13,52.13,0,0,1,49.73-36.41,53.06,53.06,0,0,1,11.51,1.26h0a52.2,52.2,0,0,1,39.56,61.41,16.66,16.66,0,0,0-7.91-9.12l-.17-.09.19-.16a12.21,12.21,0,1,0-18.61-15l-19.22-7.3a11.7,11.7,0,0,0-5.19-8.35,8.7,8.7,0,0,0,2.42-6,8.82,8.82,0,1,0-17.64,0,8.74,8.74,0,0,0,2.41,6,11.68,11.68,0,0,0-5.28,9.77v6.83h5.09V70.63a6.6,6.6,0,1,1,13.19,0v6.83h5.09V74.69l17.78,6.75c0,.23,0,.46,0,.69A12.2,12.2,0,0,0,159,91.7a16.69,16.69,0,0,0-8.12,9.29l-28.4,9.9a21.44,21.44,0,0,0-5.9-3.82,15.49,15.49,0,1,0-16.93,0,21.42,21.42,0,0,0-11.72,12.58,51.77,51.77,0,0,1-5.2-9.83H76.16a57.94,57.94,0,0,0,10.5,18.31l.29.33c.94,1.09,1.91,2.14,2.94,3.17a58.41,58.41,0,0,0,62.36,13.1l30.14,54.38a6.7,6.7,0,0,0,4,3.22,7,7,0,0,0,1.86.26,6.75,6.75,0,0,0,3.26-.85l6.28-3.49a6.72,6.72,0,0,0,2.62-9.15ZM124.88,58.54a3.73,3.73,0,1,1,3.72-3.72A3.73,3.73,0,0,1,124.88,58.54ZM166.52,75a7.12,7.12,0,1,1-7.11,7.12A7.13,7.13,0,0,1,166.52,75ZM97.66,94.12a10.4,10.4,0,1,1,10.4,10.4A10.41,10.41,0,0,1,97.66,94.12Zm26.7,48a51.9,51.9,0,0,1-30.15-14.82c-.82-.81-1.6-1.65-2.34-2.5a16.3,16.3,0,0,1,32.49,1.9Zm5.09.41V126.72A21.23,21.23,0,0,0,126,115.05l23.92-8.33V117H155V106.49a11.54,11.54,0,0,1,23.08,0v6.67a52.12,52.12,0,0,1-48.62,29.39Zm65.72,50a.67.67,0,0,1-.3.38l-6.28,3.48a.65.65,0,0,1-.86-.24l-29.89-53.94a57.64,57.64,0,0,0,7.2-4.41l30.08,54.25A.65.65,0,0,1,195.17,192.55Z"/><path class="cls-3" d="M79.26,84.81a48.57,48.57,0,0,1,.8-5.07H31.37v5.08H79.26Z"/><path class="cls-3" d="M79.15,94.77A46.64,46.64,0,0,1,79,89.9H36.52v4.87H79.15Z"/><path class="cls-3" d="M79.82,99.86H43.41v4.88H81A46,46,0,0,1,79.82,99.86Z"/></g></svg>