<svg xmlns="http://www.w3.org/2000/svg" viewBox="0 0 100 100"><defs><style>.cls-1{fill:#fff;}</style></defs><g id="Illustration"><path class="cls-1" d="M75.14,48.15A3.6,3.6,0,0,0,79,44.84v-4.7a3.61,3.61,0,0,0-3.83-3.31H72.05v-.68c0-3.8-2.22-6.89-4.94-6.89H64.34l-2-14.84a.75.75,0,0,0-.74-.66H34.56a.76.76,0,0,0-.75.66l-2,14.84H28.34c-2.72,0-4.93,3.09-4.93,6.89V64.63c0,3.8,2.21,6.89,4.93,6.89h3.52l2,14.84a.76.76,0,0,0,.75.66H61.64a.75.75,0,0,0,.74-.66l2-14.84h2.77c2.72,0,4.94-3.09,4.94-6.89v-.34h3.09A3.61,3.61,0,0,0,79,61v-4.7A3.6,3.6,0,0,0,75.14,53H72.05V48.15Zm0-9.82a2.15,2.15,0,0,1,2.33,1.81v4.7a2.15,2.15,0,0,1-2.33,1.81h-3l-.06-8.32Zm0,16.14a2.15,2.15,0,0,1,2.33,1.81V61a2.15,2.15,0,0,1-2.33,1.81h-3l-.06-8.32ZM35.22,15.26H61l1.84,14H33.38ZM61,85.52H35.22l-1.84-14H62.82Zm9.57-20.89C70.55,67.55,69,70,67.11,70H28.34c-1.86,0-3.43-2.47-3.43-5.39V36.15c0-2.92,1.57-5.39,3.43-5.39H67.11c1.86,0,3.44,2.47,3.44,5.39Z"/><path class="cls-1" d="M64.36,53H53.77V46.81a.76.76,0,0,0-.56-.73.73.73,0,0,0-.84.36l-5.25,9.23V45.36a.74.74,0,0,0-.6-.73.73.73,0,0,0-.84.43l-3.43,7.79H31.85a.75.75,0,0,0,0,1.5H42.74a.76.76,0,0,0,.69-.45l2.19-5v9.59a.74.74,0,0,0,.56.72.58.58,0,0,0,.19,0,.76.76,0,0,0,.65-.38l5.25-9.24v4.11a.74.74,0,0,0,.75.75H64.36a.75.75,0,0,0,0-1.5Z"/><path class="cls-1" d="M39,20.4H56.88a.75.75,0,0,0,0-1.5H39a.75.75,0,0,0,0,1.5Z"/><path class="cls-1" d="M57.9,24h-20a.75.75,0,0,0,0,1.5h20a.75.75,0,0,0,0-1.5Z"/><path class="cls-1" d="M37.93,76.72h20a.75.75,0,1,0,0-1.5h-20a.75.75,0,0,0,0,1.5Z"/><path class="cls-1" d="M56.88,80.32H39a.75.75,0,0,0,0,1.5H56.88a.75.75,0,0,0,0-1.5Z"/></g></svg>