<svg xmlns="http://www.w3.org/2000/svg" viewBox="0 0 100 100"><defs><style>.cls-1{fill:#fff;}</style></defs><g id="Illustration"><path class="cls-1" d="M78.29,19.48H21.71c-3.17,0-5.75,3.6-5.75,8v45c0,4.43,2.58,8,5.75,8H78.29c3.17,0,5.75-3.6,5.75-8v-45C84,23.08,81.46,19.48,78.29,19.48Zm4.25,53c0,3.54-2,6.53-4.25,6.53H21.71c-2.3,0-4.25-3-4.25-6.53V30.3H82.54Zm0-43.69H17.46V27.51C17.46,24,19.41,21,21.71,21H78.29c2.3,0,4.25,3,4.25,6.53Z"/><path class="cls-1" d="M22.62,24.63a1,1,0,1,0,1,1A1,1,0,0,0,22.62,24.63Z"/><path class="cls-1" d="M26.56,24.63a1,1,0,1,0,1,1A1,1,0,0,0,26.56,24.63Z"/><path class="cls-1" d="M30.49,24.63a1,1,0,0,0,0,2,1,1,0,1,0,0-2Z"/><path class="cls-1" d="M39.27,64.81a14.64,14.64,0,0,0,10.32-4.24,12.2,12.2,0,0,0,.37,2c-.48.34-1.39.91-2.17,1.38a.76.76,0,0,0-.25,1l2.53,4a.7.7,0,0,0,.47.33.72.72,0,0,0,.57-.1l2-1.29A11.78,11.78,0,0,0,56,70l-.58,2.55a.74.74,0,0,0,.1.56.76.76,0,0,0,.46.34l4.68,1.06a.52.52,0,0,0,.17,0,.75.75,0,0,0,.73-.58l.61-2.6a12.36,12.36,0,0,0,3-.54L66.56,73a.75.75,0,0,0,.47.33.69.69,0,0,0,.56-.1l4.07-2.55a.75.75,0,0,0,.24-1l-1.43-2.29a11.34,11.34,0,0,0,1.58-2.17c.58.1,1.63.34,2.53.56a.72.72,0,0,0,.57-.09.74.74,0,0,0,.34-.47l1-4.61a.82.82,0,0,0-.1-.57.78.78,0,0,0-.48-.33l-2.33-.51A12,12,0,0,0,73.17,56c.48-.34,1.38-.91,2.17-1.38a.76.76,0,0,0,.34-.46.74.74,0,0,0-.1-.58l-2.52-4a.75.75,0,0,0-.47-.33.76.76,0,0,0-.57.1l-2,1.29a12.31,12.31,0,0,0-2.87-2.08l.59-2.55a.74.74,0,0,0-.57-.89l-4.68-1.07a.75.75,0,0,0-.9.56L61,47.26a11.9,11.9,0,0,0-3,.54l-1.4-2.23a.71.71,0,0,0-.46-.33.76.76,0,0,0-.57.1l-2,1.24A14.71,14.71,0,1,0,39.27,64.81ZM53.84,48.17,55.69,47,57,49.1a.74.74,0,0,0,.9.3,10.33,10.33,0,0,1,3.67-.66.75.75,0,0,0,.73-.58l.57-2.44,3.22.73-.55,2.4a.74.74,0,0,0,.42.85,10.68,10.68,0,0,1,3.36,2.43.74.74,0,0,0,.89.16c.31-.16,1.3-.79,2-1.23l1.71,2.71a14.07,14.07,0,0,0-2.16,1.5.75.75,0,0,0-.16.73,10.45,10.45,0,0,1,.52,3.71.76.76,0,0,0,.52.75c.33.11,1.48.36,2.27.53l-.7,3.12a13.25,13.25,0,0,0-2.63-.46.75.75,0,0,0-.61.4,10.75,10.75,0,0,1-2,2.68.76.76,0,0,0-.11.93l1.34,2.15-2.8,1.76-1.31-2.1a.76.76,0,0,0-.9-.3,10.37,10.37,0,0,1-3.67.66.75.75,0,0,0-.73.58l-.57,2.45L57,72.12l.55-2.4a.75.75,0,0,0-.42-.85,10.46,10.46,0,0,1-3.36-2.43.75.75,0,0,0-.89-.16c-.31.16-1.31.79-2,1.23l-1.71-2.7a15.65,15.65,0,0,0,2.16-1.51.73.73,0,0,0,.15-.73A10.29,10.29,0,0,1,51,58.93s0,0,0-.07a.73.73,0,0,0-.52-.75,5.68,5.68,0,0,0-.62-.16l-1.64-.37.7-3.12a14.12,14.12,0,0,0,2.61.47h0a.76.76,0,0,0,.61-.41,10.45,10.45,0,0,1,1.66-2.35l.24-.26.08-.08a.76.76,0,0,0,.1-.92L54,50.48,52.9,48.76Zm-1.65-.73-.72.45a.75.75,0,0,0-.24,1l.17.27A13.2,13.2,0,0,1,40.06,36.92,13.22,13.22,0,0,1,52.19,47.44ZM38.56,36.91A14.72,14.72,0,0,0,52.4,50.8l0,.07c0,.23,0,.46-.06.68a12,12,0,0,0-1.31,1.83c-.58-.1-1.63-.33-2.52-.56a.74.74,0,0,0-.91.56L46.6,58a.76.76,0,0,0,.1.57.74.74,0,0,0,.48.33l1.6.35a13.19,13.19,0,0,1-8,4A14.74,14.74,0,0,0,26.15,48.55,13.23,13.23,0,0,1,38.56,36.91ZM26.05,50h0A13.23,13.23,0,0,1,39.31,63.27s0,0,0,0h0A13.23,13.23,0,0,1,26.05,50.1Z"/><path class="cls-1" d="M54.52,63.73a8.28,8.28,0,0,0,5.22,3.7,8,8,0,0,0,1.87.22,8.37,8.37,0,1,0-8.16-10.23A8.28,8.28,0,0,0,54.52,63.73Zm.39-6a6.89,6.89,0,0,1,6.69-5.33,6.65,6.65,0,0,1,1.53.17,6.86,6.86,0,1,1-8.22,5.16Z"/></g></svg>