<svg xmlns="http://www.w3.org/2000/svg" viewBox="0 0 210 92"><defs><style>.cls-1{fill:#fff;}</style></defs><g id="Illustration"><rect class="cls-1" x="113.53" y="59.05" width="3.86" height="3.86" transform="translate(-14.83 69.62) rotate(-31.64)"/><polygon class="cls-1" points="110.04 26.42 111.78 29.24 108.49 31.27 105.2 33.29 107.23 36.58 110.52 34.55 113.8 32.53 116.12 36.28 119.4 34.26 121.43 37.54 124.72 35.52 126.74 38.81 128.77 42.09 132.05 40.07 130.03 36.78 128 33.49 125.98 30.21 123.95 26.92 120.67 28.95 118.64 25.66 116.61 22.37 114.59 19.09 111.3 21.11 109.28 17.82 105.99 19.85 108.02 23.14 110.04 26.42"/><polygon class="cls-1" points="133.58 57.27 131.56 53.98 134.84 51.95 132.82 48.67 130.79 45.38 128.77 42.09 125.48 44.12 127.51 47.41 129.53 50.69 126.25 52.72 122.96 54.74 124.98 58.03 121.7 60.05 118.41 62.08 120.44 65.37 122.46 68.65 119.17 70.68 121.2 73.97 123.23 77.25 126.51 75.23 129.8 73.2 127.77 69.92 131.06 67.89 134.35 65.86 132.32 62.58 135.61 60.55 133.58 57.27"/><path class="cls-1" d="M108.28,86.81,97.87,77.74l.91-9.54,5.51-3.35,11.51,18.7a34.52,34.52,0,0,1-7.52,3.26M86,85.84l10.8-6.49,9.24,8a34.56,34.56,0,0,1-20-1.55M70.09,73.23l5.23-12.67,9.91-2.51L96.84,68l-.91,9.53-12.14,7.3,0,.07a34.12,34.12,0,0,1-13.75-11.7M64.15,52.14,73.43,60,68.82,71.2a34.07,34.07,0,0,1-4.67-19.06M71,33.23l14.51,1,5,8.18L84.77,56.15l-9.92,2.52L64.36,49.75A34.52,34.52,0,0,1,71,33.23M79.76,25l4.45,7.23-11.77-.83A34.46,34.46,0,0,1,79.76,25m23.51,38.21L98,66.42,86.66,56.7l5.11-12.21Zm13.42,18.09-10.4-16.91,3.23-2,3.29-2-2-3.29-2-3.28,3.28-2-2-3.29-2-3.28-2-3.29,3.28-2-2-3.29-3.29,2-3.28,2-2-3.29-3.29,2-3.21,2-6.07-9.86,3.21-2,3.28-2-1.73-2.81,3.28-2,3.29-2-2-3.28-3.28,2-3.29,2-.29-.47-2-3.29-3.29,2-3.2,2-3.51-5.57-1.66,1,3.92,6.25A36.41,36.41,0,0,0,64.43,66.51L46,78.74l1.08,1.63,18.08-12c.37.85.77,1.69,1.21,2.52L42.93,86.46,44,88.08,67.35,72.57c0,.05.05.1.08.14.46.75.94,1.47,1.44,2.17L51.24,86.6l1.08,1.63L70.05,76.45c.58.73,1.18,1.44,1.8,2.12l-13,8.61L60,88.81,73.25,80a36.4,36.4,0,0,0,43.57,5.23l3.91,6.49,1.66-1-3.67-6.11,3.24-2,3.29-2-2-3.29-3.29,2Z"/><polygon class="cls-1" points="102.7 21.88 105.99 19.85 103.96 16.56 100.68 18.59 97.39 20.61 99.42 23.9 102.7 21.88"/><rect class="cls-1" x="43.05" y="80.28" width="1.94" height="1.94" transform="translate(-37.84 38.38) rotate(-33.91)"/><rect class="cls-1" x="39.92" y="87.95" width="1.94" height="1.94" transform="translate(-42.65 37.94) rotate(-33.91)"/><rect class="cls-1" x="48.21" y="87.95" width="1.94" height="1.94" transform="translate(-41.24 42.56) rotate(-33.91)"/><rect class="cls-1" x="55.87" y="88.76" width="1.94" height="1.94" transform="matrix(0.83, -0.56, 0.56, 0.83, -40.39, 46.98)"/><rect class="cls-1" x="117.76" y="10.11" width="1.94" height="1.94" transform="translate(14.02 68.13) rotate(-33.91)"/><rect class="cls-1" x="145.67" y="19.65" width="1.94" height="1.94" transform="translate(13.44 85.32) rotate(-33.91)"/><rect class="cls-1" x="151.55" y="15.7" width="1.94" height="1.94" transform="translate(16.64 87.93) rotate(-33.91)"/><rect class="cls-1" x="165.13" y="6.58" width="1.94" height="1.94" transform="translate(24.04 93.95) rotate(-33.91)"/><rect class="cls-1" x="145.9" y="29.95" width="1.94" height="1.94" transform="translate(7.73 87.2) rotate(-33.91)"/><rect class="cls-1" x="143.16" y="31.79" width="1.94" height="1.94" transform="translate(6.24 85.99) rotate(-33.91)"/><rect class="cls-1" x="148.43" y="28.25" width="1.94" height="1.94" transform="translate(9.11 88.32) rotate(-33.91)"/><rect class="cls-1" x="157.02" y="46.5" width="1.94" height="1.94" transform="translate(0.39 96.22) rotate(-33.91)"/><rect class="cls-1" x="141.82" y="64.61" width="1.94" height="1.94" transform="translate(-12.3 90.82) rotate(-33.91)"/><rect class="cls-1" x="144.62" y="43.92" width="1.94" height="1.94" transform="translate(-0.28 88.86) rotate(-33.91)"/><rect class="cls-1" x="145.9" y="62.09" width="1.94" height="1.94" transform="translate(-10.2 92.66) rotate(-33.91)"/><rect class="cls-1" x="168.14" y="20.21" width="1.94" height="1.94" transform="translate(16.95 97.95) rotate(-33.91)"/><rect class="cls-1" x="164.05" y="23.14" width="1.94" height="1.94" transform="translate(14.62 96.17) rotate(-33.91)"/><rect class="cls-1" x="133.71" y="27.69" width="1.94" height="1.94" transform="translate(6.92 80.02) rotate(-33.91)"/><rect class="cls-1" x="148.96" y="0.68" width="1.94" height="1.94" transform="translate(24.58 83.93) rotate(-33.91)"/></g></svg>