<svg xmlns="http://www.w3.org/2000/svg" viewBox="0 0 230.87 230.87"><defs><style>.cls-1{fill:none;}.cls-2{fill:#fc3;}.cls-3{fill:#191919;}</style></defs><g id="Illustration"><path class="cls-1" d="M85.81,74h0a11.78,11.78,0,0,1,0,23.56h0a11.78,11.78,0,0,0,0-23.56Z"/><path class="cls-1" d="M116.45,133h0a24.46,24.46,0,0,1,24,19.81l18.67,0h0l-18.67,0A24.46,24.46,0,0,0,116.45,133Z"/><path class="cls-1" d="M125.81,110.74a5.7,5.7,0,1,0,5.7,5.7A5.7,5.7,0,0,0,125.81,110.74Z"/><path class="cls-1" d="M63.56,137.23l.1-70.57h0l-.1,70.57A24.52,24.52,0,0,1,73.78,152.7l18.7,0h0l-18.7,0A24.52,24.52,0,0,0,63.56,137.23Z"/><path class="cls-1" d="M49.81,139.06a18.35,18.35,0,1,0,18.35,18.35A18.37,18.37,0,0,0,49.81,139.06Z"/><path class="cls-1" d="M125.81,104.66h0a11.78,11.78,0,0,1,0,23.56h0a11.78,11.78,0,0,0,0-23.56Z"/><path class="cls-1" d="M116.45,139.06a18.35,18.35,0,1,0,18.34,18.35A18.37,18.37,0,0,0,116.45,139.06Z"/><path class="cls-1" d="M183.08,139.06a18.35,18.35,0,1,0,18.35,18.35A18.37,18.37,0,0,0,183.08,139.06Z"/><path class="cls-1" d="M85.81,80a5.7,5.7,0,1,0,5.7,5.7A5.7,5.7,0,0,0,85.81,80Z"/><path class="cls-1" d="M215.71,49.76a4.52,4.52,0,0,0-2.6-.75l-151.9-.2c-2,0-3.18,1-3.18,1.51l-.12,8.77c0,.49,1.24,1.49,3.18,1.49l151.9.2v.3h0v-.3c1.94,0,3.17-1,3.17-1.51l.12-8.77C216.29,50.32,216.06,50,215.71,49.76Z"/><path class="cls-1" d="M204.58,145.84A24.44,24.44,0,0,0,183.08,133h0a24.44,24.44,0,0,1,21.5,12.86,24,24,0,0,1,2.5,7h.28a4.44,4.44,0,0,0,2.6-.75,1.24,1.24,0,0,0,.58-.77l.11-84.51h-6Z"/><polygon class="cls-2" points="57.56 78.41 51.59 78.41 23.35 78.41 23.35 83.38 51.59 83.38 51.59 83.39 57.56 83.39 57.56 78.41"/><polygon class="cls-2" points="57.53 103.28 57.54 98.31 51.57 98.31 23.62 98.31 23.62 103.28 28.55 103.28 51.56 103.28 57.53 103.28"/><path class="cls-2" d="M201.55,141.44a24.38,24.38,0,0,1,3,4.4l.1-79-141-.19-.1,70.57A24.52,24.52,0,0,1,73.78,152.7l18.7,0a24.46,24.46,0,0,1,24-19.74h0a24.46,24.46,0,0,1,24,19.81l18.67,0a24.46,24.46,0,0,1,24-19.84h0A24.38,24.38,0,0,1,201.55,141.44ZM92.28,116.64l-8.71,8.48a3,3,0,1,1-4.24-4.35l8.7-8.48a3,3,0,1,1,4.25,4.35ZM85.81,97.52h0a11.78,11.78,0,0,1,0-23.56h0a11.78,11.78,0,0,1,0,23.56Zm23.88,2.15L101,108.15a3,3,0,0,1-2.12.87,3,3,0,0,1-2.12-5.22l8.7-8.48a3,3,0,1,1,4.25,4.35Zm4.46-12.84,8.7-8.49a3,3,0,0,1,4.25,4.36l-8.71,8.48a3,3,0,0,1-2.12.87,3,3,0,0,1-2.12-5.22Zm11.66,41.39h0a11.78,11.78,0,0,1,0-23.56h0a11.78,11.78,0,0,1,0,23.56ZM144,99.82a3,3,0,0,1-4.29-.06L131.26,91a3,3,0,1,1,4.37-4.23l8.46,8.72A3,3,0,0,1,144,99.82ZM161,117.27a3,3,0,0,1-2.12.86,3.05,3.05,0,0,1-2.18-.92l-8.46-8.73a3,3,0,1,1,4.36-4.23L161,113A3,3,0,0,1,161,117.27Zm17.77-12.7-9,8.2a3,3,0,1,1-4.1-4.49l9-8.2a3,3,0,1,1,4.1,4.49Zm3.79-5.09a2.49,2.49,0,0,1-1.76-4.24L186,90l-5.29-5.29a2.49,2.49,0,1,1,3.52-3.51l5.28,5.28,5.28-5.28a2.49,2.49,0,1,1,3.52,3.51L193.07,90l5.28,5.28a2.48,2.48,0,0,1,0,3.51,2.45,2.45,0,0,1-1.76.73,2.48,2.48,0,0,1-1.76-.73l-5.28-5.28-5.28,5.28A2.45,2.45,0,0,1,182.51,99.48Z"/><path class="cls-2" d="M57.58,66.1a8.13,8.13,0,0,1-5.43-5l0,12.38h5.44Z"/><path class="cls-2" d="M56.06,108.25H28.55v5h23.6l0,19.81a19.67,19.67,0,0,1,5.37,1.19l0-26Z"/><polygon class="cls-2" points="51.58 93.34 56.06 93.34 57.54 93.34 57.55 88.36 56.06 88.36 51.58 88.36 51.58 88.36 18.38 88.36 18.38 93.33 18.68 93.33 18.68 93.34 23.62 93.34 51.58 93.34 51.58 93.34"/><path class="cls-3" d="M189.55,93.47l5.28,5.28a2.48,2.48,0,0,0,1.76.73,2.45,2.45,0,0,0,1.76-.73,2.48,2.48,0,0,0,0-3.51L193.07,90l5.28-5.29a2.49,2.49,0,1,0-3.52-3.51l-5.28,5.28-5.28-5.28a2.49,2.49,0,1,0-3.52,3.51L186,90l-5.29,5.28a2.49,2.49,0,0,0,1.76,4.24,2.45,2.45,0,0,0,1.76-.73Z"/><path class="cls-3" d="M88,112.29l-8.7,8.48a3,3,0,1,0,4.24,4.35l8.71-8.48A3,3,0,1,0,88,112.29Z"/><path class="cls-3" d="M105.44,95.32l-8.7,8.48A3,3,0,0,0,98.86,109a3,3,0,0,0,2.12-.87l8.71-8.48a3,3,0,1,0-4.25-4.35Z"/><path class="cls-3" d="M174.62,100.08l-9,8.2a3,3,0,1,0,4.1,4.49l9-8.2a3,3,0,1,0-4.1-4.49Z"/><path class="cls-3" d="M116.27,92.05a3,3,0,0,0,2.12-.87l8.71-8.48a3,3,0,0,0-4.25-4.36l-8.7,8.49a3,3,0,0,0,2.12,5.22Z"/><path class="cls-3" d="M152.55,104.25a3,3,0,1,0-4.36,4.23l8.46,8.73a3.05,3.05,0,0,0,2.18.92,3,3,0,0,0,2.12-.86A3,3,0,0,0,161,113Z"/><path class="cls-3" d="M135.63,86.8A3,3,0,1,0,131.26,91l8.47,8.73a3,3,0,0,0,4.36-4.24Z"/><path class="cls-3" d="M137.59,116.44a11.8,11.8,0,0,0-11.78-11.78h0a11.78,11.78,0,0,0,0,23.56h0A11.79,11.79,0,0,0,137.59,116.44Zm-11.78,5.7a5.7,5.7,0,1,1,5.7-5.7A5.7,5.7,0,0,1,125.81,122.14Z"/><path class="cls-3" d="M97.59,85.74A11.79,11.79,0,0,0,85.81,74h0a11.78,11.78,0,0,0,0,23.56h0A11.79,11.79,0,0,0,97.59,85.74Zm-11.78,5.7a5.7,5.7,0,1,1,5.7-5.7A5.71,5.71,0,0,1,85.81,91.44Z"/><path class="cls-3" d="M219.31,44.86a10.58,10.58,0,0,0-6.19-1.93L61.2,42.73C56,42.73,52,46.06,52,50.28l-.12,8.77a6.41,6.41,0,0,0,.32,2h0a8.13,8.13,0,0,0,5.43,5v7.34H23.35v5H57.56v5H18.38v5H57.55v5H23.62v5H57.54v5h-29v5h29l0,26a24.14,24.14,0,0,0-6-1.19q-.84-.06-1.71-.06a24.43,24.43,0,0,0-3,48.66v19.52a3,3,0,1,0,6.08,0V181.64A24.48,24.48,0,0,0,74.2,158.78l17.86,0a24.47,24.47,0,0,0,21.35,22.84v19.52a3,3,0,1,0,6.08,0V181.64a24.47,24.47,0,0,0,21.33-22.77l17.89,0A24.47,24.47,0,0,0,180,181.64v19.52a3,3,0,1,0,6.08,0V181.64A24.47,24.47,0,0,0,207.45,159a10.53,10.53,0,0,0,6.1-1.91,7.06,7.06,0,0,0,3.07-5.67l.11-85.15c3.28-1.15,5.52-3.79,5.52-6.92l.12-8.77A7.08,7.08,0,0,0,219.31,44.86ZM49.81,175.75a18.35,18.35,0,1,1,18.35-18.34A18.37,18.37,0,0,1,49.81,175.75Zm66.64,0a18.35,18.35,0,1,1,18.34-18.34A18.37,18.37,0,0,1,116.45,175.75Zm66.63,0a18.35,18.35,0,1,1,18.35-18.34A18.36,18.36,0,0,1,183.08,175.75Zm27.46-24.38a1.24,1.24,0,0,1-.58.77,4.44,4.44,0,0,1-2.6.75h-.28a24,24,0,0,0-2.5-7A24.44,24.44,0,0,0,183.08,133h0a24.46,24.46,0,0,0-24,19.84l-18.67,0a24.42,24.42,0,0,0-47.95-.07l-18.7,0a24.52,24.52,0,0,0-10.22-15.47l.1-70.57h0l141,.19h6Zm5.63-92.1c0,.52-1.23,1.51-3.17,1.51v.3h0v-.3l-151.9-.2c-1.94,0-3.18-1-3.18-1.49L58,50.32c0-.52,1.23-1.51,3.18-1.51l151.9.2a4.52,4.52,0,0,1,2.6.75c.35.26.58.56.58.74Z"/><rect class="cls-3" x="13.44" y="73.44" width="4.94" height="4.97"/><polygon class="cls-3" points="18.68 93.34 18.68 93.33 18.38 93.33 13.73 93.33 13.73 98.31 18.68 98.31 18.68 93.34"/><rect class="cls-3" x="18.67" y="103.28" width="4.94" height="4.97"/><rect class="cls-3" x="8.5" y="83.35" width="4.94" height="4.97"/></g></svg>