<svg xmlns="http://www.w3.org/2000/svg" viewBox="0 0 230.87 230.87"><defs><style>.cls-1{fill:none;}.cls-2{fill:#fc3;}.cls-3{fill:#191919;}</style></defs><g id="Illustration"><path class="cls-1" d="M73.83,118.41a5.91,5.91,0,0,0-6.23-4.29l-32.93,3.54c-7.12.76-7.16,5.44-7.18,7l0,.1-1.4,27a6.28,6.28,0,0,0,2.61,5.44,5.78,5.78,0,0,0,3.8,1l18.55-2a1.77,1.77,0,0,1,.32,0,3,3,0,0,1,3,2.72l1.49,13.9c.36,3.39,1.41,5.62,3.1,6.6a7,7,0,0,0,4.82.5l-1.17-10.91c-.65-6,1.69-11.57,6.76-16.06A28.73,28.73,0,0,1,77,148h.07l-3.14-29.31A2.11,2.11,0,0,1,73.83,118.41Z"/><polygon class="cls-1" points="73.17 71.82 38.69 76.25 73.17 71.82 73.17 71.82"/><polygon class="cls-1" points="79.61 91.05 51.31 94.68 79.61 91.05 79.61 91.05"/><path class="cls-1" d="M82.25,126.66a28.42,28.42,0,0,1-1.75-2.76L83,149l.17,0,0,0,2.89-.31,7.59-.75,11.08-1.18,6.16-.89.36,3.1a1,1,0,0,0,0,.14c0,.21.11.5.21.86a11.31,11.31,0,0,0,1.14,2.68l.36.46c1.11,1.38,1.34,1.66,4,1.66h.43c1-1.13,1.48-2.72,1.29-6.5,0-.09-.07-.26-.14-.46a9.53,9.53,0,0,0-1.31-2.52,11.66,11.66,0,0,0-3.83-3.3,43.73,43.73,0,0,1-10.32-2.73C93,137.23,86,131.94,82.25,126.66Z"/><path class="cls-1" d="M144,104.14a24.43,24.43,0,0,1,.72,3.52l0,.47a35,35,0,0,1-2.05,14.81,23.46,23.46,0,0,1-2.51,5.23,28.44,28.44,0,0,1,3.14,3.67,32.53,32.53,0,0,1,3.59,6.52l4.35-.46-3.67-34.15Z"/><path class="cls-1" d="M202.19,95.63a5.78,5.78,0,0,0-3.8-1l-18.55,2a3,3,0,0,1-3.35-2.71L175,80c-.36-3.39-1.4-5.62-3.1-6.61a7,7,0,0,0-4.82-.5l1.17,10.92c.65,6-1.69,11.57-6.76,16.06a28.3,28.3,0,0,1-7.6,4.83l-.08,0L157,134.06q0,.13.09.3a5.92,5.92,0,0,0,6.24,4.29l32.92-3.54c7.13-.76,7.17-5.45,7.18-7l0-.1,1.4-27A6.28,6.28,0,0,0,202.19,95.63Z"/><path class="cls-2" d="M114.6,69.53a5.69,5.69,0,0,0-2.13-1.92,5.4,5.4,0,0,0-2-.33,8.91,8.91,0,0,0-2.36.34l.65.8a13.37,13.37,0,0,1,1.59,3.64c.15.55.25,1,.3,1.24s0,.2,0,.25l3-.44,2.16-.23c0-.19-.1-.44-.18-.72A10.29,10.29,0,0,0,114.6,69.53Z"/><path class="cls-2" d="M117.54,107.48a10.11,10.11,0,0,0-5.8-2.17,5.17,5.17,0,0,0-1.07.11A11.65,11.65,0,0,1,113.3,108a10,10,0,0,1,1.31,2.51c.07.22.11.37.14.49a14.35,14.35,0,0,1-1,5.62l-.06.11a7.17,7.17,0,0,0,1.85.26,3.79,3.79,0,0,0,3.72-2.38,5.73,5.73,0,0,0-.13-5.5A9.83,9.83,0,0,0,117.54,107.48Z"/><path class="cls-2" d="M91.6,48.06a33.13,33.13,0,0,0-6.4,3.14A22,22,0,0,0,79.61,56l4.25-.54A26.22,26.22,0,0,1,91.6,48.06Z"/><path class="cls-2" d="M82.25,126.66C86,131.94,93,137.23,103.16,139.29A34.26,34.26,0,0,1,88,127.7a29.82,29.82,0,0,1-5.41-13.17h0l-3,.33.92,9A28.42,28.42,0,0,0,82.25,126.66Z"/><path class="cls-2" d="M80.82,60.81,42.34,65.75,43,70.67l31-4h0l5.11-.65A31,31,0,0,1,80.82,60.81Z"/><path class="cls-2" d="M78.47,76.16a31.21,31.21,0,0,1-.11-5l-5.19.66h0L38.68,76.25l.64,4.93,5.19-.67h0Z"/><path class="cls-2" d="M82.58,108.42a36.12,36.12,0,0,1,2-9.16A23.44,23.44,0,0,1,87.12,94a26,26,0,0,1-3-3.54l-4.5.58h0l-28.3,3.63.63,4.94,29.87-3.84A21.14,21.14,0,0,0,79.23,101a34.07,34.07,0,0,0-1.85,8.25,6.35,6.35,0,0,1,1.5-.38Z"/><path class="cls-2" d="M79.42,81.05l-34.28,4.4.63,4.93,28.45-3.65,7.08-.91A30.85,30.85,0,0,1,79.42,81.05Z"/><path class="cls-2" d="M117.31,145.32a9.53,9.53,0,0,1,1.31,2.52c.07.2.11.37.14.46.19,3.78-.33,5.37-1.29,6.5l.86,0c.22-.05.52-.11.88-.21a11.58,11.58,0,0,0,2.69-1.11l.47-.39c1.37-1.12,1.77-1.45,1.62-4.95h0a6.78,6.78,0,0,0-.87-1.67c-1-1.27-2.67-3.35-9.19-4.34l-.45-.07A11.66,11.66,0,0,1,117.31,145.32Z"/><path class="cls-2" d="M91.79,166.21a36.77,36.77,0,0,1-4.68-11.46l-3.21.34a6.1,6.1,0,0,1-2.05-.13,33.21,33.21,0,0,0,4.3,10.39c3,5.15,9.56,10.44,18.26,11.76A27.91,27.91,0,0,1,91.79,166.21Z"/><path class="cls-2" d="M137.43,146.16a26.31,26.31,0,0,0-4.88-11.86,27.85,27.85,0,0,0-4.66-5,22.07,22.07,0,0,0,3.64-6.65,31.85,31.85,0,0,0,1.88-13.87A25.79,25.79,0,0,0,128.52,97a30.91,30.91,0,0,0-13.6-10.44c-.77-.14-1.56-.27-2.39-.38h-.08a26.63,26.63,0,0,1-7.83-2.3c-7.36-1.16-9.67-3.67-11.16-5.55a9.76,9.76,0,0,1-1.31-2.49,4.27,4.27,0,0,1-.13-.52c-.28-5.9,1.16-6.43,3.32-8.27A13.4,13.4,0,0,1,99,65.42c.51-.15,1-.25,1.21-.3l.16,0,.16-.15a15.7,15.7,0,0,1,10-3.74,10.31,10.31,0,0,1,8.88,4.57l.18.25a15.09,15.09,0,0,1,1.66,3.42l.43-.06,7.25-.78a32.93,32.93,0,0,0-4.29-10.34,24.64,24.64,0,0,0-10.9-9.55,23.74,23.74,0,0,0-3.3-.23,27.21,27.21,0,0,0-3.36.22l-.33,0a29.47,29.47,0,0,0-11.66,4.31l-.1.06a20.25,20.25,0,0,0-6.39,6.09l-.44.66a24.39,24.39,0,0,0-3.53,16.47,24.67,24.67,0,0,0,8.5,14.93l2.2,1.88-1.77,2.29a19.22,19.22,0,0,0-3.16,5.73l0,.1a29.48,29.48,0,0,0-1.72,12.34v.21A23.9,23.9,0,0,0,93,124.19c2.11,3,8.43,10.13,21.78,11.88h.06c8,1.2,11.11,4,13.15,6.67l.07.1a12.52,12.52,0,0,1,1.72,3.31c.05.16.1.31.13.44l.15.4,0,.45c.31,6.42-1.31,8.25-3.83,10.31-.18.15-.37.3-.56.47l-.33.24a17.27,17.27,0,0,1-4.5,1.94c-.5.14-1,.26-1.47.35l-.62.07c-.6,0-1.17,0-1.7,0-3.88,0-5.81-.92-7.31-2.35-5.41.19-6-1.22-7.76-3.35a11.41,11.41,0,0,1-1-1.87l-7.8.83A30.85,30.85,0,0,0,97,163l.06.09c3,5.27,10.33,10.58,19.8,10.58h0a25.48,25.48,0,0,0,2.75-.15c.17,0,.33,0,.49-.06l.08,0,.38-.05a29.12,29.12,0,0,0,5.6-1.35C132.6,168,139.05,158.41,137.43,146.16Zm-12.69-29a9.88,9.88,0,0,1-9.21,5.85,15.41,15.41,0,0,1-7.57-2.2l-.53.12c-6.36-1.21-8.57-3.52-10-5.3a8.32,8.32,0,0,1-1.28-2.51,1.3,1.3,0,0,1-.15-.47A14.24,14.24,0,0,1,97,107c1.2-2.08,1.66-3.46,6.29-4.37l.64.13a9.81,9.81,0,0,1,7.78-3.56,16.21,16.21,0,0,1,9.52,3.45,15.44,15.44,0,0,1,2.68,2.68l.08.11A11.74,11.74,0,0,1,124.74,117.17Z"/><path class="cls-3" d="M123.94,105.36a15.44,15.44,0,0,0-2.68-2.68,16.21,16.21,0,0,0-9.52-3.45,9.81,9.81,0,0,0-7.78,3.56,11,11,0,0,0-1.43,2.23,11.46,11.46,0,0,0,3.77,14.73,18,18,0,0,0,1.66,1.07,15.41,15.41,0,0,0,7.57,2.2,9.88,9.88,0,0,0,9.21-5.85,11.74,11.74,0,0,0-.72-11.7Zm-4.69,9.2a3.79,3.79,0,0,1-3.72,2.38,7.17,7.17,0,0,1-1.85-.26,11.4,11.4,0,0,1-3.77-1.82c-1.79-1.33-3.57-3.66-1.88-7.24a3.61,3.61,0,0,1,2.64-2.2,5.17,5.17,0,0,1,1.07-.11,10.11,10.11,0,0,1,5.8,2.17,9.83,9.83,0,0,1,1.58,1.58A5.73,5.73,0,0,1,119.25,114.56Z"/><path class="cls-3" d="M205.65,90.63a11.8,11.8,0,0,0-6.7-2.09c-.4,0-.81,0-1.21.06l-15.51,1.67L181.06,79.4c-.58-5.43-2.64-9.21-6.11-11.24a11.78,11.78,0,0,0-6-1.5,17.6,17.6,0,0,0-6.44,1.28,3,3,0,0,0-1.81,3.11l1.44,13.44c.43,4-1.13,7.61-4.64,10.74a23.55,23.55,0,0,1-5.91,3.82l-.11,0A5.9,5.9,0,0,0,147,97.68l-5.4.58a32,32,0,0,0-2.32-3.76c-2.56-3.65-10.2-12.36-25.91-14.39-6.48-1-8.2-3.1-9.21-4.38a8.57,8.57,0,0,1-.86-3.72,3.4,3.4,0,0,1,1.29-2.51,9.36,9.36,0,0,1,3.58-1.88,8.91,8.91,0,0,1,2.36-.34,5.4,5.4,0,0,1,2,.33,5.69,5.69,0,0,1,2.13,1.92,10.29,10.29,0,0,1,1.11,2.63c.08.28.14.53.18.72s0,.25.07.33l.33,3.11,6.08-.9L138,73.74l3.17-.36-.5-3.15,0-.19A35.07,35.07,0,0,0,135.47,56c-3.92-6.77-13.18-13.58-25-13.58a33.32,33.32,0,0,0-4.21.28l-.33,0a35.36,35.36,0,0,0-14,5.16l-.28.17a26.22,26.22,0,0,0-7.74,7.35L79.61,56l-37.9,4.86.63,4.94h0l38.48-4.94a31,31,0,0,0-1.73,5.24L74,66.7,38.05,71.31l.63,4.94,34.49-4.43,5.19-.66a31.21,31.21,0,0,0,.11,5l-34,4.35h0l.63,4.94h0l34.28-4.4a30.85,30.85,0,0,0,1.88,4.77l-7.08.91-23.55,3,.64,4.93,28.3-3.63,4.5-.58a26,26,0,0,0,3,3.54,23.44,23.44,0,0,0-2.51,5.25,36.12,36.12,0,0,0-2,9.16l-3.7.4a6.35,6.35,0,0,0-1.5.38,6,6,0,0,0-2,1.25A12,12,0,0,0,67,108.08L34,111.61a15.53,15.53,0,0,0-8.36,3.27,12.54,12.54,0,0,0-4.26,9.64L20,151.4a12.25,12.25,0,0,0,5.25,10.74,11.77,11.77,0,0,0,6.69,2.09c.4,0,.81,0,1.21-.06l15.51-1.67,1.17,10.87c.58,5.43,2.64,9.21,6.11,11.24a11.8,11.8,0,0,0,6,1.5,17.73,17.73,0,0,0,6.44-1.28,3,3,0,0,0,1.82-3.11l-1.45-13.44c-.43-4,1.13-7.61,4.64-10.74a23.22,23.22,0,0,1,5.91-3.82l.11,0a5.91,5.91,0,0,0,2.5,1.28,6.1,6.1,0,0,0,2.05.13l3.21-.34a36.77,36.77,0,0,0,4.68,11.46,27.91,27.91,0,0,0,12.62,10.9,30.17,30.17,0,0,0,12.42,2.67h0a31.94,31.94,0,0,0,3.39-.18c.27,0,.59-.07,1-.13l.18,0a35.21,35.21,0,0,0,14-5.12c7.7-4.47,15.13-15.51,13.3-29.27,0-.25-.07-.49-.11-.74L152,144a5.87,5.87,0,0,0,3.48-1.63,12,12,0,0,0,7.2,2.44h0c.42,0,.84,0,1.25-.07l32.93-3.54a15.6,15.6,0,0,0,8.36-3.26,12.58,12.58,0,0,0,4.27-9.64l1.41-26.88A12.26,12.26,0,0,0,205.65,90.63Zm-73.44,78.51a30.61,30.61,0,0,1-6.08,2.93,29.12,29.12,0,0,1-5.6,1.35l-.38.05-.08,0c-.16,0-.32,0-.49.06a25.48,25.48,0,0,1-2.75.15h0c-9.47,0-16.77-5.31-19.8-10.58L97,163a30.85,30.85,0,0,1-3.77-8.89l7.8-.83,4.52-.49.53-.07a16,16,0,0,0,1.63,3.39l.2.27.43.53a14.6,14.6,0,0,0,1.42,1.59c1.5,1.43,3.43,2.35,7.31,2.35.53,0,1.1,0,1.7,0l.62-.07c.47-.09,1-.21,1.47-.35a17.27,17.27,0,0,0,4.5-1.94l.33-.24c.19-.17.38-.32.56-.47,2.52-2.06,4.14-3.89,3.83-10.31l0-.45-.15-.4c0-.13-.08-.28-.13-.44a12.52,12.52,0,0,0-1.72-3.31l-.07-.1c-2-2.62-5.19-5.47-13.15-6.67h-.06c-13.35-1.75-19.67-8.88-21.78-11.88a23.9,23.9,0,0,1-4.34-10.37v-.21a29.48,29.48,0,0,1,1.72-12.34l0-.1a19.22,19.22,0,0,1,3.16-5.73l1.77-2.29-2.2-1.88a24.67,24.67,0,0,1-8.5-14.93,24.39,24.39,0,0,1,3.53-16.47l.44-.66A20.25,20.25,0,0,1,95,53.12l.1-.06a29.47,29.47,0,0,1,11.66-4.31l.33,0a27.21,27.21,0,0,1,3.36-.22,23.74,23.74,0,0,1,3.3.23c7.86,1,13.84,5.72,16.52,10.36l.06.11a29.54,29.54,0,0,1,3.78,8.87l-5.17.55-7.25.78-.43.06A15.09,15.09,0,0,0,119.57,66l-.18-.25a10.31,10.31,0,0,0-8.88-4.57,15.7,15.7,0,0,0-10,3.74l-.16.15a9.43,9.43,0,0,0-3.18,6.8,13.78,13.78,0,0,0,2.05,7.46l.06.09a15,15,0,0,0,5.3,4.38,26.63,26.63,0,0,0,7.83,2.3h.08c.83.11,1.62.24,2.39.38,11.71,2.2,17.39,8.67,19.38,11.51a23.54,23.54,0,0,1,4.34,10.37c0,.06,0,.13,0,.22a29.06,29.06,0,0,1-1.72,12.31l0,.12a19.71,19.71,0,0,1-3.16,5.71L132,129l2.17,1.88a25.29,25.29,0,0,1,4.18,4.45,24,24,0,0,1,4.33,10.51c1.47,11-4.34,19.75-10.35,23.22ZM82.59,114.53h0A29.82,29.82,0,0,0,88,127.7a34.26,34.26,0,0,0,15.15,11.59A43.73,43.73,0,0,0,113.48,142l.45.07c6.52,1,8.2,3.07,9.19,4.34a6.78,6.78,0,0,1,.87,1.67h0c.15,3.5-.25,3.83-1.62,4.95l-.47.39a11.58,11.58,0,0,1-2.69,1.11c-.36.1-.66.16-.88.21l-.86,0H117c-2.65,0-2.88-.28-4-1.66l-.36-.46a11.31,11.31,0,0,1-1.14-2.68c-.1-.36-.17-.65-.21-.86a1,1,0,0,1,0-.14l-.36-3.1-6.16.89L93.73,148l-7.59.75-2.89.31,0,0L83,149,80.5,123.9l-.92-9ZM77,148a28.73,28.73,0,0,0-7.61,4.84c-5.07,4.49-7.41,10-6.76,16.06l1.17,10.91a7,7,0,0,1-4.82-.5c-1.69-1-2.74-3.21-3.1-6.6l-1.49-13.9a3,3,0,0,0-3-2.72,1.77,1.77,0,0,0-.32,0l-18.55,2a5.78,5.78,0,0,1-3.8-1,6.28,6.28,0,0,1-2.61-5.44l1.4-27,0-.1c0-1.54.06-6.22,7.18-7l32.93-3.54a5.91,5.91,0,0,1,6.23,4.29,2.11,2.11,0,0,0,.1.3L77.07,148Zm69.88-9.67a32.53,32.53,0,0,0-3.59-6.52,28.44,28.44,0,0,0-3.14-3.67,23.46,23.46,0,0,0,2.51-5.23,35,35,0,0,0,2.05-14.81l0-.47a24.43,24.43,0,0,0-.72-3.52l3.61-.39,3.67,34.15ZM203.4,128l0,.1c0,1.53,0,6.22-7.18,7l-32.92,3.54a5.92,5.92,0,0,1-6.24-4.29q0-.17-.09-.3l-3.15-29.31.08,0a28.3,28.3,0,0,0,7.6-4.83c5.07-4.49,7.41-10,6.76-16.06l-1.17-10.92a7,7,0,0,1,4.82.5c1.7,1,2.74,3.22,3.1,6.61l1.5,13.9a3,3,0,0,0,3.35,2.71l18.55-2a5.78,5.78,0,0,1,3.8,1,6.28,6.28,0,0,1,2.61,5.44Z"/><rect class="cls-3" x="32.18" y="61.74" width="4.94" height="4.97" transform="translate(-7.89 4.93) rotate(-7.31)"/><rect class="cls-3" x="35" y="81.44" width="4.94" height="4.97" transform="translate(-10.37 5.45) rotate(-7.31)"/><rect class="cls-3" x="41.17" y="90.67" width="4.94" height="4.97" transform="translate(-11.5 6.31) rotate(-7.31)"/><rect class="cls-3" x="28.54" y="72.2" width="4.94" height="4.97" transform="translate(-9.25 4.55) rotate(-7.31)"/></g></svg>