<svg xmlns="http://www.w3.org/2000/svg" viewBox="0 0 230.87 230.87"><defs><style>.cls-1{fill:#fc3;}.cls-2{fill:#fff;}.cls-3{fill:#191919;}</style></defs><g id="Illustration"><path class="cls-1" d="M52.14,84.24c-3.55,0-6.41-2-6.41-4.39l.12-40.24c0-2.41,2.87-4.37,6.41-4.37l153.56.21c3.54,0,6.4,2,6.4,4.39l-.11,40.24c0,2.42-2.88,4.37-6.42,4.37Z"/><rect class="cls-2" x="56.04" y="37.95" width="19.68" height="19.58"/><rect class="cls-2" x="194.01" y="38.6" width="19.68" height="22.51"/><polyline class="cls-2" points="165.36 37.45 165.36 59.32 143.5 59.32 143.5 37.45"/><polyline class="cls-2" points="123.25 81.77 123.25 59.91 145.12 59.91 145.12 81.77"/><polyline class="cls-2" points="168.68 82.88 168.68 61.01 190.54 61.01 190.54 82.88"/><polyline class="cls-2" points="77.91 81.77 77.91 59.91 99.77 59.91 99.77 81.77"/><polyline class="cls-2" points="119.88 37.45 119.88 59.32 98.01 59.32 98.01 37.45"/><rect class="cls-1" x="20.17" y="42.94" width="31.46" height="4.97"/><rect class="cls-3" x="10.27" y="37.98" width="4.94" height="4.97"/><rect class="cls-3" x="10.56" y="57.87" width="4.94" height="4.97"/><rect class="cls-3" x="15.5" y="67.82" width="4.94" height="4.97"/><rect class="cls-3" x="5.33" y="47.89" width="4.94" height="4.97"/><path class="cls-3" d="M97,112.12a3,3,0,0,0,0,4.3L116.58,136a3,3,0,0,0,4.3-4.3l-19.57-19.57A3,3,0,0,0,97,112.12Z"/><path class="cls-3" d="M168,112.12l-19.57,19.57a3,3,0,0,0,4.3,4.3l19.57-19.57a3,3,0,1,0-4.3-4.3Z"/><path class="cls-3" d="M128.67,157.52a3,3,0,0,0-4,1.63l-7.53,18-1.11-5.52a3,3,0,1,0-6,1.2l2.69,13.36a3,3,0,0,0,2.8,2.42l.07,0a3,3,0,0,0,4-1.63L130.3,161.5A3,3,0,0,0,128.67,157.52Z"/><path class="cls-3" d="M142.07,162.32a3,3,0,1,0-5.85,1.66l12,42.18a3,3,0,1,0,5.84-1.66Z"/><path class="cls-3" d="M134.53,144.19a3,3,0,0,0,3-3V127.84a15.92,15.92,0,1,0-6.08,0v13.32A3,3,0,0,0,134.53,144.19Zm-9.84-32a9.85,9.85,0,1,1,9.84,9.84A9.85,9.85,0,0,1,124.69,112.21Z"/><path class="cls-3" d="M212.72,34.27a10.25,10.25,0,0,0-6-1.87l-146-.2c-4.37,0-7.91,2.44-8.8,5.78H20.17v5h31.5l0,5H15.21v5H51.64v5H20.44v5H51.61v5H25.38v5h26.2v7.06a6.88,6.88,0,0,0,3,5.55,10.21,10.21,0,0,0,6,1.88H65a3.11,3.11,0,0,0,0,.43v108H59.2a3,3,0,0,0,0,6.08H76.87a3,3,0,1,0,0-6.08h-5.8V158.07a27.62,27.62,0,0,1,11.77-10.5c11.69-5.64,27.84-4.13,46.7,4.37a92,92,0,0,0,26.61,7.88,3,3,0,1,0,.71-6A85.87,85.87,0,0,1,132,146.4c-26.25-11.83-42.9-8.76-52.25-4.11a35.15,35.15,0,0,0-8.72,6.13V87.72a3.22,3.22,0,0,0,0-.43l124.47.17a2.26,2.26,0,0,0,0,.26v53a27.6,27.6,0,0,1-3.87,4.05,39.43,39.43,0,0,1-14.47,7.72,3,3,0,0,0,.87,5.95,3,3,0,0,0,.88-.13,45.23,45.23,0,0,0,16.59-8.85v46.25h-5.8a3,3,0,1,0,0,6.08h17.67a3,3,0,0,0,0-6.08h-5.8v-108a2.09,2.09,0,0,0,0-.25h5c5,0,9-3.25,9-7.4l.11-40.24A6.94,6.94,0,0,0,212.72,34.27ZM74.86,81.22l-14.28,0a4.13,4.13,0,0,1-2.43-.7c-.35-.25-.51-.51-.51-.64l0-17H74.86Zm0-24.44H57.71l0-17.16c0-.41,1.11-1.34,3-1.34l14.16,0ZM97.51,81.25l-16.57,0V62.86H97.51Zm0-24.47H80.94V38.31l16.57,0Zm22.64,24.5-16.57,0V62.86h16.57Zm0-24.5H103.58V38.34l16.57,0Zm22.63,24.53-16.56,0V62.86h16.56Zm0-24.53H126.22V38.37l16.56,0Zm22.64,24.56-16.56,0V62.86h16.56Zm0-24.56H148.86V38.4l16.56,0Zm22.64,24.59-16.56,0V62.86h16.56Zm0-24.59H171.5V38.43l16.56,0Zm18.52,24.61H194.14V62.86h15.43l0,17.2c0,.41-1.11,1.33-2.93,1.33m3-24.61H194.14V38.46l12.55,0a4.18,4.18,0,0,1,2.43.69c.35.26.51.52.51.64Z"/><rect class="cls-1" x="20.44" y="62.85" width="54.43" height="4.97"/><rect class="cls-1" x="25.38" y="72.79" width="34.41" height="4.97"/><rect class="cls-1" x="15.21" y="52.9" width="36.42" height="4.97"/></g></svg>