<svg xmlns="http://www.w3.org/2000/svg" viewBox="0 0 100 100"><defs><style>.cls-1{fill:#fff;}</style></defs><g id="Illustration"><path class="cls-1" d="M78.29,18.25H21.71c-3.17,0-5.75,3.6-5.75,8V66.16c0,4.42,2.58,8,5.75,8H43l6.41,7.32a.73.73,0,0,0,.56.25.75.75,0,0,0,.57-.26l6.25-7.31H78.29c3.17,0,5.75-3.6,5.75-8V26.27C84,21.85,81.46,18.25,78.29,18.25Zm4.25,47.91c0,3.53-2,6.52-4.25,6.52H56.48a.77.77,0,0,0-.57.26L50,79.86l-6.06-6.92a.73.73,0,0,0-.56-.26H21.71c-2.3,0-4.25-3-4.25-6.52V26.27c0-3.54,1.95-6.52,4.25-6.52H78.29c2.3,0,4.25,3,4.25,6.52Z"/><path class="cls-1" d="M56.83,32.37c-4.49,0-6,2.53-7,5.06-1.07-2.55-2.59-5.06-7.1-5.06-5.08,0-8,3.65-8,10C34.69,49.89,45,59,48.2,61.59l1.16.94a.68.68,0,0,0,.47.17.72.72,0,0,0,.46-.16c.59-.46,14.54-11.44,14.54-20.16C64.83,36,61.91,32.37,56.83,32.37ZM49.83,61l-.68-.56c-3-2.5-13-11.2-13-18,0-3.88,1.13-8.51,6.5-8.51,4.09,0,5,2.26,6.11,5.13l.27.66a.74.74,0,0,0,1,.41.71.71,0,0,0,.38-.32,1.07,1.07,0,0,0,.13-.21l.28-.7c1.12-2.78,2-5,6-5,5.37,0,6.5,4.63,6.5,8.51C63.33,49.54,52.26,59,49.83,61Z"/></g></svg>