<svg xmlns="http://www.w3.org/2000/svg" viewBox="0 0 100 100"><defs><style>.cls-1{fill:#fff;}</style></defs><g id="Illustration"><path class="cls-1" d="M72.4,50.18a1.87,1.87,0,0,0-.38-.36c-.56-.36-1.8-2.25-1.89-5.49,3.46-2.29,6.42-6.74,8-12.06h1.57a4,4,0,0,0,4-4V19.84a4,4,0,0,0-4-4H77.24a17.82,17.82,0,0,0-2.78-4.2,12.91,12.91,0,0,0-19.3-.27,15.75,15.75,0,0,0-2.8,4.47H49.59a4,4,0,0,0-4,4v8.43a4,4,0,0,0,4,4h2.23A23,23,0,0,0,59,43.75c-.07,2-.62,5.27-1.86,6.09,0,0-.22,0-.31,0-1.39.19-2.71.44-4,.73L31.44,37.79,9.76,51.07a.74.74,0,0,0-.28.25.75.75,0,0,0-.12.41V78.27L31.49,92.71a.76.76,0,0,0,.42.12.74.74,0,0,0,.42-.12L54,78.27V65.7H91.65V65C91.65,58.16,83.92,52.25,72.4,50.18ZM31.16,90.71,10.86,77.46V53.11l20.3,13.24Zm.75-25.65L11.51,51.75l0,0h.06l19.9-12.19L50.81,51.15l1,.62-1.73,1.15-11.56,7.7L36.19,62.2Zm20.58,12.4L32.66,90.7V66.36l3.14-2.09,1.67-1.11,15-10Zm3.77-65.07A11.49,11.49,0,0,1,65,8.67a11.35,11.35,0,0,1,8.38,4,15.43,15.43,0,0,1,2.22,3.19H54A13.79,13.79,0,0,1,56.26,12.39ZM49.59,30.77a2.5,2.5,0,0,1-2.5-2.5V19.84a2.5,2.5,0,0,1,2.5-2.5H79.67a2.5,2.5,0,0,1,2.49,2.5v8.43a2.5,2.5,0,0,1-2.49,2.5Zm3.76,1.5h23.2c-2.28,7.45-7.36,12.3-11.58,12.3S55.59,39.72,53.35,32.27ZM58,51.11c1.8-1.2,2.34-4.64,2.5-6.39A9,9,0,0,0,65,46.07a8.7,8.7,0,0,0,3.71-.88c.24,2.88,1.34,5.05,2.45,5.85-.37.57-2.61,1.8-6.6,1.8-4.58,0-6.74-1-6.87-1.45C57.66,51.39,57.7,51.28,58,51.11ZM54,64.2V51.9c.71-.15,1.44-.29,2.18-.4a1.62,1.62,0,0,0,.06.29c.57,1.89,4.67,2.55,8.3,2.55,4.3,0,7.16-1.29,7.93-2.62,10,1.87,17.06,6.89,17.65,12.48Z"/><path class="cls-1" d="M80,20.09a.75.75,0,0,1-.75.75h-1.9a.75.75,0,0,1-.73-.75.73.73,0,0,1,.39-.64.76.76,0,0,1,.36-.11h1.88A.76.76,0,0,1,80,20.09Z"/></g></svg>