<svg xmlns="http://www.w3.org/2000/svg" viewBox="0 0 100 100"><defs><style>.cls-1{fill:#fff;}</style></defs><g id="Illustration"><path class="cls-1" d="M67.72,47.9H49.28L49.37,44A2.56,2.56,0,0,1,50,42.26a3.36,3.36,0,0,1,2.54-.85l1.5,0c4.27.11,12.22.32,16-3.34a6.76,6.76,0,0,0,2-5,5.6,5.6,0,0,0-1.64-4.16c-3-3-9.73-2.88-16.22-2.79l-3.29,0h-.41c-4.07,0-9.1,0-13.15-.83-4.47-.93-6.65-2.63-6.65-5.23a2.66,2.66,0,0,1,.83-2c2.34-2.29,9-2.15,13.82-2.05,4,.08,5.94.09,6.7-.66a1.11,1.11,0,0,0,.36-.82V12.11a.75.75,0,0,0-1.5,0v2.22c-.71.29-3.37.24-5.52.19C40,14.41,33.31,14.26,30.52,17a4.2,4.2,0,0,0-1.28,3.09c0,3.37,2.64,5.62,7.85,6.7,4.2.86,9.3.85,13.45.86H51l3.31,0c6.18-.09,12.57-.18,15.15,2.36a4.11,4.11,0,0,1,1.19,3.09A5.25,5.25,0,0,1,69,37c-3.31,3.22-11.13,3-14.88,2.91l-1.55,0A4.83,4.83,0,0,0,49,41.22,4.13,4.13,0,0,0,47.87,44l-.09,3.91H27.45A17.87,17.87,0,1,0,42.92,74.71c.26-.45.5-.92.73-1.39a10.14,10.14,0,0,0,.85-4.2A3.07,3.07,0,0,1,47.61,66a3.27,3.27,0,0,1,3.1,3.1,8.45,8.45,0,0,0,.74,4.06A17.87,17.87,0,1,0,67.72,47.9Zm0,34.24a16.45,16.45,0,0,1-14.94-9.66,7.29,7.29,0,0,1-.57-3.36,4.72,4.72,0,0,0-4.6-4.6A4.55,4.55,0,0,0,43,69.12a8.68,8.68,0,0,1-.7,3.54h0c-.21.44-.43.88-.68,1.3A16.37,16.37,0,1,1,27.45,49.4H67.72a16.37,16.37,0,0,1,0,32.74Z"/><path class="cls-1" d="M34.24,64.64h-6.3V58.35a.75.75,0,1,0-1.5,0v6.29H20.15a.75.75,0,1,0,0,1.5h6.29v6.3a.75.75,0,0,0,1.5,0v-6.3h6.3a.75.75,0,0,0,0-1.5Z"/><path class="cls-1" d="M67.22,69.82a.75.75,0,0,0-.75.75v1.87a.75.75,0,0,0,1.5,0V70.57A.76.76,0,0,0,67.22,69.82Z"/><path class="cls-1" d="M67.22,57.6a.74.74,0,0,0-.75.75v.94a.75.75,0,0,0,1.5,0v-.94A.75.75,0,0,0,67.22,57.6Z"/><path class="cls-1" d="M61.74,64.64H60.17a.75.75,0,0,0,0,1.5h1.57a.75.75,0,0,0,0-1.5Z"/><path class="cls-1" d="M74.26,64.64H72.79a.75.75,0,0,0,0,1.5h1.47a.75.75,0,0,0,0-1.5Z"/><path class="cls-1" d="M77.44,39.31a.75.75,0,0,0-.87.6.75.75,0,0,0,.6.87C77.73,40.89,91,43.6,91,61.45a.75.75,0,0,0,1.5,0C92.46,42.32,77.59,39.33,77.44,39.31Z"/><path class="cls-1" d="M45.75,55a1,1,0,1,0,1,1A1,1,0,0,0,45.75,55Z"/><path class="cls-1" d="M49.68,55a1,1,0,0,0,0,2,1,1,0,1,0,0-2Z"/></g></svg>