<svg xmlns="http://www.w3.org/2000/svg" viewBox="0 0 210 92"><defs><style>.cls-1{fill:#fff;}</style></defs><g id="Illustration"><path class="cls-1" d="M49.07,46.3a.53.53,0,0,1-.59,0l-.16-.12c-4-2.84-3.89-6.39-3.88-6.54V36a.51.51,0,0,1,.52-.51H52.6a.51.51,0,0,1,.51.51v3.66c0,.35,0,3.77-3.88,6.52Z"/><path class="cls-1" d="M46.53,37.07a.51.51,0,0,0-.51.52v2.09a6.26,6.26,0,0,0,2.41,4.58.53.53,0,0,0,.69,0,6.22,6.22,0,0,0,2.41-4.55V37.59a.51.51,0,0,0-.51-.52Z"/><path class="cls-1" d="M71,27.9C66.13,23.64,49.78,17,49.09,16.73l-.33-.13-.32.15a19.81,19.81,0,0,1-8.37,1.85h-.43a19.87,19.87,0,0,1-7.95-1.85l-.31-.15-.33.13c-.7.28-17,6.91-21.88,11.17a1.78,1.78,0,0,0-.5,1.92l3,8.78A1.8,1.8,0,0,0,14,39.71L22,36.94a.21.21,0,0,1,.18,0,.2.2,0,0,1,.09.17V49.08A10.2,10.2,0,0,1,23.88,48V37.14a1.8,1.8,0,0,0-.75-1.46,1.76,1.76,0,0,0-1-.33,1.69,1.69,0,0,0-.58.1l-8.06,2.77a.23.23,0,0,1-.27-.13l-3-8.79a.2.2,0,0,1,0-.21c4-3.53,17-9.07,20.55-10.53a19.57,19.57,0,0,0,1.67,4C34.34,26,37,27.74,40.06,27.74s5.71-1.76,7.63-5.1a19.4,19.4,0,0,0,1.71-4.07c3.55,1.48,16.51,7,20.52,10.52a.19.19,0,0,1,0,.21l-3,8.79a.21.21,0,0,1-.26.13l-8.07-2.77a1.78,1.78,0,0,0-2.37,1.69V73.61a.2.2,0,0,1-.2.21h-32a.21.21,0,0,1-.21-.21V64.34a10.52,10.52,0,0,1-1.28-.85l-.3-.27V73.61a1.79,1.79,0,0,0,1.79,1.79h32a1.79,1.79,0,0,0,1.79-1.79V37.14a.2.2,0,0,1,.08-.17.23.23,0,0,1,.19,0l8.07,2.77a1.78,1.78,0,0,0,2.27-1.11l3-8.78A1.79,1.79,0,0,0,71,27.9"/><path class="cls-1" d="M29.3,63.86a7.69,7.69,0,0,1-5.42-1.4l-.3-.22A7.81,7.81,0,0,1,22.3,61a7.74,7.74,0,0,1,0-9.59,7.77,7.77,0,0,1,5.2-2.91,6.8,6.8,0,0,1,.9-.06,7.76,7.76,0,0,1,.9,15.47m8.38-8.79a9.36,9.36,0,0,0-10.37-8.2A9.47,9.47,0,0,0,23.88,48a10.2,10.2,0,0,0-1.58,1.11,9.1,9.1,0,0,0-1.48,1.62h-9.7v1.58H19.9a9,9,0,0,0-.68,2.1H9.47V56h9.59a9.07,9.07,0,0,0,.06,1.27,8.11,8.11,0,0,0,.14.86h-8v1.58h8.54a9.21,9.21,0,0,0,2.55,3.54l.3.27a10.52,10.52,0,0,0,1.28.85,9.31,9.31,0,0,0,4.5,1.16,10.14,10.14,0,0,0,1.1-.06,9.36,9.36,0,0,0,8.2-10.37"/><rect class="cls-1" x="7.92" y="58.1" width="1.64" height="1.58"/><rect class="cls-1" x="6.19" y="54.38" width="1.64" height="1.58"/><rect class="cls-1" x="7.83" y="50.7" width="1.64" height="1.58"/><path class="cls-1" d="M30.21,60.68l-5-5.21a.24.24,0,0,1,0-.33l.8-.77a.24.24,0,0,1,.34,0l3.92,4.06a.23.23,0,0,0,.33,0l8.53-8.21a.25.25,0,0,1,.34,0l.77.8a.25.25,0,0,1,0,.34l-9.67,9.31a.23.23,0,0,1-.33,0"/><path class="cls-1" d="M115.2,46.3a.54.54,0,0,1-.6,0l-.16-.12c-4-2.84-3.89-6.39-3.88-6.54V36a.51.51,0,0,1,.51-.51h7.65a.51.51,0,0,1,.52.51v3.66c0,.35,0,3.77-3.88,6.52Z"/><path class="cls-1" d="M112.66,37.07a.52.52,0,0,0-.52.52v2.09a6.3,6.3,0,0,0,2.41,4.58.54.54,0,0,0,.7,0,6.23,6.23,0,0,0,2.4-4.55V37.59a.51.51,0,0,0-.51-.52Z"/><path class="cls-1" d="M90,37.14a1.78,1.78,0,0,0-1.79-1.79,1.65,1.65,0,0,0-.58.1l-8.07,2.77a.21.21,0,0,1-.26-.13l-3-8.79a.19.19,0,0,1,0-.21c4-3.53,17-9.07,20.54-10.53a19.57,19.57,0,0,0,1.67,4c1.92,3.39,4.56,5.18,7.63,5.18s5.72-1.76,7.63-5.1a18.87,18.87,0,0,0,1.71-4.07c3.55,1.48,16.52,7,20.53,10.52a.2.2,0,0,1,0,.21l-3,8.79a.21.21,0,0,1-.26.13l-8.07-2.77a1.78,1.78,0,0,0-2.37,1.69V73.61a.21.21,0,0,1-.21.21h-32a.2.2,0,0,1-.2-.21m-1.59,0a1.79,1.79,0,0,0,1.79,1.79h32A1.79,1.79,0,0,0,124,73.61V37.14a.2.2,0,0,1,.09-.17.21.21,0,0,1,.18,0l8.07,2.77a1.79,1.79,0,0,0,2.28-1.11l3-8.78a1.78,1.78,0,0,0-.5-1.92c-4.84-4.26-21.18-10.89-21.88-11.17l-.33-.13-.31.15a19.82,19.82,0,0,1-8.38,1.85h-.43a19.83,19.83,0,0,1-7.94-1.85l-.32-.15-.33.13c-.69.28-17,6.91-21.88,11.17a1.79,1.79,0,0,0-.5,1.92l3,8.78a1.78,1.78,0,0,0,2.27,1.11l8.07-2.77a.23.23,0,0,1,.19,0,.2.2,0,0,1,.08.17Z"/><path class="cls-1" d="M181.32,46.3a.53.53,0,0,1-.59,0l-.17-.12c-4-2.84-3.88-6.39-3.88-6.54V36a.51.51,0,0,1,.52-.51h7.65a.51.51,0,0,1,.51.51v3.66c0,.35,0,3.77-3.88,6.52Z"/><path class="cls-1" d="M178.78,37.07a.51.51,0,0,0-.51.52v2.09a6.23,6.23,0,0,0,2.4,4.58.54.54,0,0,0,.7,0,6.31,6.31,0,0,0,2.41-4.55V37.59a.52.52,0,0,0-.52-.52Z"/><path class="cls-1" d="M202.22,29.3l-3,8.79a.22.22,0,0,1-.26.13l-8.07-2.77a1.78,1.78,0,0,0-2.37,1.69V73.61a.21.21,0,0,1-.21.21H156.34a.21.21,0,0,1-.21-.21V64.34a9.31,9.31,0,0,0,4.5,1.16,10.28,10.28,0,0,0,1.1-.06A9.35,9.35,0,1,0,156.13,48V37.14a1.78,1.78,0,0,0-1.79-1.79,1.65,1.65,0,0,0-.58.1l-8.07,2.77a.22.22,0,0,1-.26-.13l-3-8.79a.2.2,0,0,1,0-.21c4-3.53,17-9.07,20.54-10.53a19.7,19.7,0,0,0,1.68,4c1.91,3.39,4.55,5.18,7.63,5.18s5.71-1.76,7.63-5.1a19.4,19.4,0,0,0,1.71-4.07c3.55,1.48,16.51,7,20.52,10.52a.23.23,0,0,1,.05.21M154.55,61a7.75,7.75,0,0,1,5.19-12.5,7.07,7.07,0,0,1,.91-.06,7.76,7.76,0,0,1,.9,15.47,7.69,7.69,0,0,1-5.42-1.4l-.3-.22A7.81,7.81,0,0,1,154.55,61M203.22,27.9C198.38,23.64,182,17,181.34,16.73L181,16.6l-.32.15a19.81,19.81,0,0,1-8.37,1.85h-.43a19.83,19.83,0,0,1-7.95-1.85l-.32-.15-.32.13c-.7.28-17,6.91-21.89,11.17a1.79,1.79,0,0,0-.49,1.92l3,8.78a1.79,1.79,0,0,0,2.28,1.11l8.06-2.77a.22.22,0,0,1,.19,0,.2.2,0,0,1,.09.17V49.08a8.74,8.74,0,0,0-1.48,1.62h-9.7v1.58h8.78a9,9,0,0,0-.68,2.1h-9.75V56h9.58a9.07,9.07,0,0,0,.06,1.27c0,.29.08.58.14.86h-8.05v1.58H152a9.24,9.24,0,0,0,2.56,3.54V73.61a1.79,1.79,0,0,0,1.79,1.79h31.95a1.79,1.79,0,0,0,1.79-1.79V37.14a.2.2,0,0,1,.09-.17.22.22,0,0,1,.19,0l8.06,2.77a1.79,1.79,0,0,0,2.28-1.11l3-8.78a1.77,1.77,0,0,0-.49-1.92"/><rect class="cls-1" x="140.17" y="58.1" width="1.64" height="1.58"/><rect class="cls-1" x="138.43" y="54.38" width="1.64" height="1.58"/><rect class="cls-1" x="140.07" y="50.7" width="1.64" height="1.58"/><path class="cls-1" d="M162.46,60.68l-5-5.21a.24.24,0,0,1,0-.33l.8-.77a.24.24,0,0,1,.34,0l3.92,4.06a.23.23,0,0,0,.33,0l8.53-8.21a.24.24,0,0,1,.33,0l.77.8a.24.24,0,0,1,0,.34l-9.67,9.31a.23.23,0,0,1-.33,0"/></g></svg>