<svg xmlns="http://www.w3.org/2000/svg" viewBox="0 0 100 100"><defs><style>.cls-1{fill:#fff;}</style></defs><g id="Illustration"><path class="cls-1" d="M49.73,72.83l.08,0,.08,0a.74.74,0,0,0,.25,0,.75.75,0,0,0,.26,0l.08,0,.08,0,13-8.65a.76.76,0,0,0,.33-.63V47.64s0,0,0,0a.72.72,0,0,0-.07-.25s0-.06,0-.08a0,0,0,0,1,0,0,.6.6,0,0,0-.23-.22h0L50.25,38.85a.75.75,0,0,0-.79,0L36.48,47h0a.92.92,0,0,0-.22.22,0,0,0,0,0,0,0s0,.06,0,.09a1.05,1.05,0,0,0-.06.24s0,0,0,0v15.9a.75.75,0,0,0,.34.63Zm12.64-9.69L50.89,70.8V56.7L62.37,49ZM49.86,40.37l11.87,7.3L50.14,55.4,38.27,47.65ZM37.63,49,49.39,56.7V70.81L37.63,63.14Z"/><path class="cls-1" d="M78.29,19.48H21.71c-3.17,0-5.75,3.6-5.75,8v45c0,4.43,2.58,8,5.75,8H78.29c3.17,0,5.75-3.6,5.75-8v-45C84,23.08,81.46,19.48,78.29,19.48Zm4.25,53c0,3.54-2,6.53-4.25,6.53H21.71c-2.3,0-4.25-3-4.25-6.53V30.3H82.54Zm0-43.69H17.46V27.51C17.46,24,19.41,21,21.71,21H78.29c2.3,0,4.25,3,4.25,6.53Z"/><path class="cls-1" d="M22.62,24.63a1,1,0,1,0,1,1A1,1,0,0,0,22.62,24.63Z"/><path class="cls-1" d="M26.56,24.63a1,1,0,1,0,1,1A1,1,0,0,0,26.56,24.63Z"/><path class="cls-1" d="M30.49,24.63a1,1,0,0,0,0,2,1,1,0,1,0,0-2Z"/></g></svg>