<svg xmlns="http://www.w3.org/2000/svg" viewBox="0 0 210 92"><defs><style>.cls-1{fill:#fff;}</style></defs><g id="Illustration"><rect class="cls-1" x="3" y="63.38" width="1.63" height="1.62" transform="matrix(0.98, -0.19, 0.19, 0.98, -12.01, 1.87)"/><rect class="cls-1" x="0.6" y="60.12" width="1.63" height="1.62" transform="translate(-11.4 1.35) rotate(-10.81)"/><rect class="cls-1" x="1.82" y="56.46" width="1.63" height="1.62" transform="translate(-10.73 1.52) rotate(-10.85)"/><rect class="cls-1" x="4.85" y="66.71" width="1.63" height="1.62" transform="translate(-12.6 2.27) rotate(-10.85)"/><path class="cls-1" d="M50.58,39.9,17.64,45.64a5.16,5.16,0,0,0-4.27,5.08v3.57L5,56l.32,1.59,8.06-1.6v1.79L3.72,59.64,4,61.23l9.33-1.85v2.16l0-.09L6.2,62.88l.31,1.59,6.86-1.37v2L8,66.16l.31,1.59,5.06-1v2h0V84.36a.39.39,0,0,1-.39.4H8.72a.39.39,0,0,0-.39.39V86a.4.4,0,0,0,.39.4h5.87A.39.39,0,0,0,15,86V69.3l40-7V77a.4.4,0,0,1-.39.4H50.37a.38.38,0,0,0-.39.39v.84a.39.39,0,0,0,.39.39h5.87a.4.4,0,0,0,.39-.39V62.05h0V45a5.16,5.16,0,0,0-6.05-5.09"/><rect class="cls-1" x="72.4" y="63.38" width="1.63" height="1.62" transform="translate(-10.77 14.93) rotate(-10.85)"/><rect class="cls-1" x="70" y="60.12" width="1.63" height="1.62" transform="translate(-10.17 14.36) rotate(-10.81)"/><rect class="cls-1" x="71.22" y="56.46" width="1.63" height="1.62" transform="translate(-9.49 14.58) rotate(-10.85)"/><rect class="cls-1" x="74.25" y="66.71" width="1.63" height="1.62" transform="translate(-11.36 15.33) rotate(-10.84)"/><path class="cls-1" d="M84,50.72a3.52,3.52,0,0,1,2.93-3.48l33-5.74a3.14,3.14,0,0,1,.61,0A3.53,3.53,0,0,1,124,45v15.7l-40,7Zm36.49-10.9a5.45,5.45,0,0,0-.89.08L86.63,45.64a5.16,5.16,0,0,0-4.27,5.08v3.65l-8,1.58.31,1.59L82.36,56v1.79l-9.24,1.83.31,1.59,8.93-1.77v2.07l-6.77,1.35.32,1.59,6.45-1.29v2l-5,1,.32,1.59,4.65-.92v1.94h0V84.36a.4.4,0,0,1-.4.4H77.72a.38.38,0,0,0-.39.39V86a.39.39,0,0,0,.39.4h5.87A.4.4,0,0,0,84,86V69.3l40-7V77a.39.39,0,0,1-.39.4h-4.25a.39.39,0,0,0-.39.39v.84a.4.4,0,0,0,.39.39h5.87a.39.39,0,0,0,.39-.39V62.05h0V45a5.17,5.17,0,0,0-5.15-5.17"/><rect class="cls-1" x="141.58" y="63.38" width="1.63" height="1.62" transform="translate(-9.54 27.95) rotate(-10.85)"/><rect class="cls-1" x="139.19" y="60.12" width="1.63" height="1.62" transform="translate(-8.94 27.34) rotate(-10.81)"/><rect class="cls-1" x="140.41" y="56.46" width="1.63" height="1.62" transform="translate(-8.25 27.6) rotate(-10.85)"/><rect class="cls-1" x="143.43" y="66.71" width="1.63" height="1.62" transform="translate(-10.13 28.35) rotate(-10.84)"/><path class="cls-1" d="M188.57,39.9l-32.94,5.74a5.16,5.16,0,0,0-4.27,5.08v3.69L143.58,56l.31,1.59,7.47-1.48v1.78l-9.05,1.8.31,1.59,8.74-1.73v2.07l-6.58,1.31.32,1.59,6.26-1.25v2l-4.78,1,.32,1.59,4.46-.88v1.9h0V84.36a.39.39,0,0,1-.39.4h-4.25a.39.39,0,0,0-.39.39V86a.4.4,0,0,0,.39.4h5.87A.39.39,0,0,0,153,86V69.3l40-7V77a.4.4,0,0,1-.39.4h-4.25a.38.38,0,0,0-.39.39v.84a.39.39,0,0,0,.39.39h5.87a.4.4,0,0,0,.39-.39V45a5.16,5.16,0,0,0-6.05-5.09"/><path class="cls-1" d="M69.1,26.55l-4,5.26A29.67,29.67,0,0,0,6.84,28.23l1.58.38a28,28,0,0,1,55.13,3.68l-5.28-4.63-1.06,1.22,7.31,6.41,5.87-7.76Z"/><path class="cls-1" d="M138.67,26.55l-4,5.26a29.67,29.67,0,0,0-58.29-3.58l1.58.38a28.05,28.05,0,0,1,55.14,3.68l-5.28-4.63-1.07,1.22,7.32,6.41L140,27.53Z"/><path class="cls-1" d="M208.24,26.55l-4,5.26A29.67,29.67,0,0,0,146,28.23l1.57.38a28.05,28.05,0,0,1,55.14,3.68l-5.28-4.63-1.07,1.22,7.32,6.41,5.87-7.76Z"/></g></svg>