<svg xmlns="http://www.w3.org/2000/svg" viewBox="0 0 100 100"><defs><style>.cls-1{fill:#fff;}</style></defs><g id="Illustration"><path class="cls-1" d="M86,9.5H14.48c-3.89,0-7.07,4.46-7.07,9.94V60.82c0,5.48,3.18,9.94,7.07,9.94H42.6l-3.27,8.3H33.92a.75.75,0,0,0,0,1.5H66.54a.75.75,0,1,0,0-1.5H61.13l-3.27-8.3H86c3.9,0,7.07-4.46,7.07-9.94V19.44C93.05,14,89.88,9.5,86,9.5ZM50.23,27.33a9.46,9.46,0,1,1-9.46,9.46A9.48,9.48,0,0,1,50.23,27.33ZM43.66,11l5.92,6.91a.76.76,0,0,0,.57.26l.09,0a.75.75,0,0,0,.64-.24L56.8,11h5.39l-12,14.33L38.26,11Zm6.57,5.36L45.62,11h9.23ZM14.48,11H36.29L48.71,26a11,11,0,1,0,2.91,0L64.17,11H86c3,0,5.57,3.86,5.57,8.44V57.49H8.91v-38C8.91,14.86,11.46,11,14.48,11Zm45,68.06H40.94l3.28-8.3h12ZM86,69.26H14.48c-3,0-5.57-3.87-5.57-8.44V59H91.55v1.83C91.55,65.39,89,69.26,86,69.26Z"/><path class="cls-1" d="M72.23,85h0l-60.14.1a.74.74,0,0,0-.75.73l-.13,3.91a.75.75,0,0,0,.75.77H72.23a.75.75,0,0,0,.75-.75v-4a.75.75,0,0,0-.75-.75Zm-.75,4H12.73l.08-2.41,58.67-.1Z"/><path class="cls-1" d="M82.4,83.94c-4.24,0-6.3,3.64-6.79,5.57a.76.76,0,0,0,.13.65.75.75,0,0,0,.59.29H88.51a.73.73,0,0,0,.59-.3.75.75,0,0,0,.13-.65C88.72,87.58,86.65,83.94,82.4,83.94Zm-5,5a5.32,5.32,0,0,1,10,0Z"/><path class="cls-1" d="M42.54,33.79a.75.75,0,0,0,.25.83l3.83,3-1.47,4.63a.75.75,0,0,0,1.14.85l4-2.72,3.95,2.83a.75.75,0,0,0,1.16-.82l-1.35-4.67L58,34.83a.73.73,0,0,0,.27-.82.74.74,0,0,0-.69-.53l-4.85-.17-1.53-4.6a.75.75,0,0,0-1.42,0L48.1,33.25l-4.85,0A.78.78,0,0,0,42.54,33.79Zm6.1,1a.75.75,0,0,0,.7-.5l1.09-3,1,3.05a.75.75,0,0,0,.69.52l3.22.11-2.6,1.91a.74.74,0,0,0-.27.81l.89,3.09-2.62-1.87a.7.7,0,0,0-.44-.14.81.81,0,0,0-.42.12l-2.67,1.81,1-3.07a.77.77,0,0,0-.25-.82l-2.54-2Z"/><path class="cls-1" d="M28.67,49.65a13.46,13.46,0,0,0,1.42.43,15.29,15.29,0,0,0-4,2.58.75.75,0,0,0,.12,1.18,15.12,15.12,0,0,0,7.2,2,9.89,9.89,0,0,0,1.2-.07,14.82,14.82,0,0,0,7.82-3.65.79.79,0,0,0,.23-.62.77.77,0,0,0-.36-.56,15.39,15.39,0,0,0-4.51-1.71.78.78,0,0,0-.09-.4,15.56,15.56,0,0,0-3.27-3.59,1,1,0,0,0,0-.18,15.14,15.14,0,0,0-2.69-7.28,15.92,15.92,0,0,0,.36-4.86,14.71,14.71,0,0,0,5.52-6.45,14.7,14.7,0,0,0,.42-8.61.7.7,0,0,0-.44-.49.73.73,0,0,0-.66.05,14.76,14.76,0,0,0-5.64,6.52,12.61,12.61,0,0,0-.84,3.74,15.25,15.25,0,0,0-4.86-4.92.76.76,0,0,0-1.11.45A14.78,14.78,0,0,0,25,31.82a11.54,11.54,0,0,0,.81,1.61,14.33,14.33,0,0,0-2.07-.64.78.78,0,0,0-.64.17.76.76,0,0,0-.25.62,14.74,14.74,0,0,0,3.25,8,11.91,11.91,0,0,0,.94.94,15.71,15.71,0,0,0-4.55.5.75.75,0,0,0-.43,1.11A14.75,14.75,0,0,0,28.67,49.65Zm5.81,4.63A13,13,0,0,1,28,53.06a12.83,12.83,0,0,1,6.1-2.56,12.9,12.9,0,0,1,6.49,1.22A12.83,12.83,0,0,1,34.48,54.28ZM32.75,24.5a13,13,0,0,1,4.11-5.17,12.85,12.85,0,0,1-.58,6.58,13,13,0,0,1-4.12,5.17A12.76,12.76,0,0,1,32.75,24.5Zm-6.36,6.76a12.91,12.91,0,0,1-.61-6.58,13,13,0,0,1,4.14,5.15,12.82,12.82,0,0,1,.61,6.53,14,14,0,0,0-1.36-1.13A12,12,0,0,1,26.39,31.26Zm.84,9.31a12.92,12.92,0,0,1-2.73-6,14.14,14.14,0,0,1,3.69,1.83,17,17,0,0,0,1.54,1.3c.12.13.25.24.36.38a12.86,12.86,0,0,1,2.74,6L32.62,44a11.21,11.21,0,0,0-1.52-.72l-.59-.2A11.41,11.41,0,0,1,27.23,40.57Zm2.68,3.91a15.88,15.88,0,0,0,2.07.9,13.87,13.87,0,0,1,3.82,3.35,12.9,12.9,0,0,1-6.59-.48,12.94,12.94,0,0,1-5.23-4A13.24,13.24,0,0,1,29.91,44.48Z"/><path class="cls-1" d="M65.1,55.56a11.56,11.56,0,0,0,1.43.09,15.13,15.13,0,0,0,7-1.87.75.75,0,0,0,.14-1.18,15.36,15.36,0,0,0-3.48-2.43,10,10,0,0,0,1.48-.37,14.7,14.7,0,0,0,6.87-5.21.74.74,0,0,0,.09-.66.72.72,0,0,0-.46-.47,15.16,15.16,0,0,0-5.11-.71,13.48,13.48,0,0,0,1.34-1.29,14.73,14.73,0,0,0,3.25-8,.74.74,0,0,0-.25-.61.76.76,0,0,0-.64-.17,14.33,14.33,0,0,0-2.07.64,12.11,12.11,0,0,0,.81-1.61A14.74,14.74,0,0,0,76,23.11a.74.74,0,0,0-.44-.5.77.77,0,0,0-.66.05,15.42,15.42,0,0,0-4.69,4.64,12.28,12.28,0,0,0-.81-3.46,14.69,14.69,0,0,0-5.64-6.52.77.77,0,0,0-.66-.06.74.74,0,0,0-.44.5,14.74,14.74,0,0,0,.43,8.61,14.54,14.54,0,0,0,5.32,6.32,15.6,15.6,0,0,0,.35,5A15,15,0,0,0,66,45a.76.76,0,0,0,0,.21,15.43,15.43,0,0,0-3.37,3.39.69.69,0,0,0-.12.32,15.52,15.52,0,0,0-5.07,1.71.75.75,0,0,0-.36.55.76.76,0,0,0,.21.63A14.84,14.84,0,0,0,65.1,55.56Zm9.63-31a12.92,12.92,0,0,1-.61,6.58,11.91,11.91,0,0,1-2.77,4A12.9,12.9,0,0,0,70,36.26a13,13,0,0,1,.62-6.53A13,13,0,0,1,74.73,24.57ZM64.44,25.81a12.87,12.87,0,0,1-.59-6.58A12.79,12.79,0,0,1,68,24.4,13,13,0,0,1,68.56,31,12.86,12.86,0,0,1,64.44,25.81Zm6,12.15.37-.37a17.05,17.05,0,0,0,1.54-1.31A14.81,14.81,0,0,1,76,34.45a12.91,12.91,0,0,1-2.73,6A13,13,0,0,1,67.68,44,13,13,0,0,1,70.41,38ZM70,44.77a12.87,12.87,0,0,1,6.6-.18,12.88,12.88,0,0,1-5.41,3.79,13,13,0,0,1-6.61.17A12.85,12.85,0,0,1,70,44.77ZM65.75,50.3a12.84,12.84,0,0,1,6,2.67,12.87,12.87,0,0,1-6.52,1.1,12.85,12.85,0,0,1-6-2.67A12.89,12.89,0,0,1,65.75,50.3Z"/></g></svg>