<svg xmlns="http://www.w3.org/2000/svg" viewBox="0 0 230.87 230.87"><defs><style>.cls-1{fill:none;}.cls-2{fill:#191919;}.cls-3{fill:#fc3;}</style></defs><g id="Illustration"><path class="cls-1" d="M163.74,106.23a11.59,11.59,0,1,0-14.63-7.39A11.61,11.61,0,0,0,163.74,106.23Z"/><path class="cls-1" d="M150.85,129.16a11.6,11.6,0,0,0-7.39,14.63,11.59,11.59,0,0,0,14.62,7.39,11.59,11.59,0,1,0-7.23-22Z"/><path class="cls-1" d="M201,119.86a74.12,74.12,0,0,1-9.63,36.62L204,176l8.5,2.5-13.57-21,.74-1.31a72,72,0,0,0-44.27-105A74.56,74.56,0,0,1,201,119.86Z"/><path class="cls-1" d="M123.36,120a11.59,11.59,0,0,0-3.63-22.6,11.59,11.59,0,0,0-11,15.21A11.6,11.6,0,0,0,123.36,120Z"/><path class="cls-1" d="M142.93,192.53A71.57,71.57,0,0,0,184.27,175l-5.88-1.73A74.36,74.36,0,0,1,142.93,192.53Z"/><path class="cls-2" d="M88.69,110.25A8.89,8.89,0,1,0,99.4,122.71a8.68,8.68,0,0,0,.94-4.39l4.64-1.73a16.37,16.37,0,0,0,7.28,7.23c.38.19.77.37,1.16.53l-.06,26.28a8.73,8.73,0,0,0-3.78,1.84,8.89,8.89,0,0,0,4.81,15.7c.29,0,.57,0,.85,0a8.89,8.89,0,0,0,8.84-9.83l16.49-9.15a16.56,16.56,0,0,0,13.71,7.53l1.52,7.07A8.37,8.37,0,0,0,154,165a8.89,8.89,0,0,0,4.81,15.71c.29,0,.57,0,.86,0A8.89,8.89,0,0,0,160.74,163l-1.5-7,.4-.12a16.58,16.58,0,0,0-.59-31.69l.87-12.43h.18a16.69,16.69,0,0,0,5.2-.84,16.51,16.51,0,0,0,4.72-2.44l3.4,5.75a8.55,8.55,0,0,0-1,1.56,8.89,8.89,0,0,0,7.94,12.9,8.91,8.91,0,0,0,8.44-11.67,8.9,8.9,0,0,0-11.22-5.66h0l-3.9-6.6a16.59,16.59,0,0,0-25.22-21.37l-5.48-3.7a8.75,8.75,0,0,0,.11-5.83,8.89,8.89,0,0,0-16.7-.51L99.68,78.9a8.67,8.67,0,0,0-3.44-3.1,8.89,8.89,0,1,0-4,16.82,8.83,8.83,0,0,0,4.93-1.52l9.41,7.81a16.61,16.61,0,0,0-3.18,12.94l-4.67,1.74A8.88,8.88,0,0,0,88.69,110.25Zm6.24,10.2a3.85,3.85,0,0,1-2.25,1.94,3.93,3.93,0,0,1-3-.22,3.84,3.84,0,0,1-1.94-2.26,3.89,3.89,0,1,1,7.16.54Zm81.94-2.34a3.88,3.88,0,1,1,4.68,5.44,3.88,3.88,0,0,1-4.68-5.44ZM93.44,87.42a3.88,3.88,0,0,1-4.9-2.48,3.88,3.88,0,1,1,7.38-2.42A3.88,3.88,0,0,1,93.44,87.42Zm15.29,25.21a11.6,11.6,0,1,1,5.78,6.72A11.6,11.6,0,0,1,108.73,112.63Zm6.14,50.56a3.89,3.89,0,0,1-3.5-4.24,3.87,3.87,0,0,1,1.39-2.63,3.93,3.93,0,0,1,2.85-.87,3.89,3.89,0,1,1-.74,7.74Zm23.63-18.52-16.36,9.06a8.78,8.78,0,0,0-3.79-2.74l.06-25.44c.44,0,.87.06,1.31.06a16.69,16.69,0,0,0,5.2-.84,16.44,16.44,0,0,0,6.85-4.33l9.36,9.89A16.54,16.54,0,0,0,138.5,144.67ZM159.63,168l.38,0a3.88,3.88,0,0,1,3.5,4.24,3.92,3.92,0,0,1-4.24,3.5,3.9,3.9,0,0,1-3.52-3.86c0-.13,0-.25,0-.38a3.9,3.9,0,0,1,3.86-3.52Zm5.85-31.41a11.6,11.6,0,0,1-7.4,14.63,11.59,11.59,0,0,1-14.62-7.39,11.59,11.59,0,1,1,22-7.24Zm-9-52.34a11.57,11.57,0,0,1,8.85.67,11.59,11.59,0,1,1-8.85-.67ZM152.64,110a15.77,15.77,0,0,0,2.34,1l-.9,12.6a16.39,16.39,0,0,0-4.79.82,16.82,16.82,0,0,0-4.64,2.38l-10-10.57a16.32,16.32,0,0,0,1.43-9.9h0l9.58-2.91A16.44,16.44,0,0,0,152.64,110Zm-7.19-22.55a2.15,2.15,0,0,0-.14.26,16.4,16.4,0,0,0-1.4,11l-9.34,2.84a16.34,16.34,0,0,0-6.22-6.73l5.5-9.28a6.45,6.45,0,0,0,.76,0,8.88,8.88,0,0,0,5.36-1.8ZM133.38,73a3.89,3.89,0,1,1-2.48,4.91A3.89,3.89,0,0,1,133.38,73Zm-33,14.25a8.8,8.8,0,0,0,.75-3.55l24.8-5.09c.06.29.14.57.23.86a8.81,8.81,0,0,0,3,4.23l-5.45,9.18a16.49,16.49,0,0,0-9.12.36,16.21,16.21,0,0,0-4.34,2.18Z"/><polygon class="cls-2" points="17.03 141.1 21.99 141.1 21.99 136.11 21.99 136.1 17.03 136.1 17.03 141.1"/><rect class="cls-2" x="11.96" y="126.17" width="4.96" height="5"/><rect class="cls-2" x="6.92" y="116.24" width="4.96" height="5"/><rect class="cls-2" x="13.02" y="106.17" width="4.96" height="5"/><path class="cls-2" d="M204.71,157.3a77,77,0,1,0-143.45-51H23.08v5H65.52a72,72,0,1,1,134.1,44.92l-.74,1.31,13.57,21L204,176l-15.8-4.65-1.05,1c-.92.9-1.87,1.77-2.83,2.61a71.57,71.57,0,0,1-41.34,17.53c-2,.17-4,.27-6,.27A72.14,72.14,0,0,1,69.46,146h-5.3A77.44,77.44,0,0,0,107.52,192a76.91,76.91,0,0,0,82-15L224,187.11Z"/><path class="cls-2" d="M64.87,120.77c0-1.52.06-3,.15-4.52H16.94v5H64.88C64.88,121.07,64.87,120.92,64.87,120.77Z"/><path class="cls-2" d="M65.1,126.23H22v4.88H65.62C65.39,129.5,65.22,127.87,65.1,126.23Z"/><path class="cls-2" d="M66.53,136.11H27.7V141H67.79C67.32,139.42,66.89,137.78,66.53,136.11Z"/><path class="cls-3" d="M115.61,155.45a3.93,3.93,0,0,0-2.85.87,3.89,3.89,0,0,0-.52,5.47,3.83,3.83,0,0,0,2.63,1.4,3.91,3.91,0,0,0,4.24-3.5,3.89,3.89,0,0,0-3.5-4.24Z"/><path class="cls-3" d="M114.56,93.25a16.49,16.49,0,0,1,9.12-.36l5.45-9.18a8.81,8.81,0,0,1-3-4.23c-.09-.29-.17-.57-.23-.86l-24.8,5.09a8.8,8.8,0,0,1-.75,3.55l9.85,8.17A16.21,16.21,0,0,1,114.56,93.25Z"/><path class="cls-3" d="M135.81,80.4a3.89,3.89,0,1,0-4.91-2.48A3.89,3.89,0,0,0,135.81,80.4Z"/><path class="cls-3" d="M91.46,114.81a3.88,3.88,0,0,0-3.69,5.1,3.84,3.84,0,0,0,1.94,2.26,3.93,3.93,0,0,0,3,.22,3.9,3.9,0,0,0,2.48-4.91A3.91,3.91,0,0,0,91.46,114.81Z"/><path class="cls-3" d="M124.92,124.77a16.69,16.69,0,0,1-5.2.84c-.44,0-.87,0-1.31-.06L118.35,151a8.78,8.78,0,0,1,3.79,2.74l16.36-9.06a16.54,16.54,0,0,1,2.63-14.34l-9.36-9.89A16.44,16.44,0,0,1,124.92,124.77Z"/><path class="cls-3" d="M94,80.26a3.88,3.88,0,0,0-5.44,4.68,3.88,3.88,0,1,0,7.38-2.42A3.84,3.84,0,0,0,94,80.26Z"/><path class="cls-3" d="M134.61,85.59a6.45,6.45,0,0,1-.76,0l-5.5,9.28a16.34,16.34,0,0,1,6.22,6.73l9.34-2.84a16.4,16.4,0,0,1,1.4-11,2.15,2.15,0,0,1,.14-.26L140,83.79a8.88,8.88,0,0,1-5.36,1.8Z"/><path class="cls-3" d="M136.1,106.32a16.32,16.32,0,0,1-1.43,9.9l10,10.57a16.82,16.82,0,0,1,4.64-2.38,16.39,16.39,0,0,1,4.79-.82L155,111a15.77,15.77,0,0,1-2.34-1,16.44,16.44,0,0,1-7-6.63l-9.58,2.91Z"/><path class="cls-3" d="M181.55,123.55a3.89,3.89,0,0,0,.54-7.16,3.89,3.89,0,0,0-5.45,4.68A3.89,3.89,0,0,0,181.55,123.55Z"/><path class="cls-3" d="M155.77,171.48c0,.13,0,.25,0,.38a3.9,3.9,0,0,0,3.52,3.86,3.89,3.89,0,0,0,3.37-6.35A3.87,3.87,0,0,0,160,168l-.38,0a3.9,3.9,0,0,0-3.86,3.52Z"/><path class="cls-3" d="M191.34,156.48a74.53,74.53,0,0,0-36-105.34,72,72,0,0,0-89.83,60.11H23.08v5H65c-.09,1.5-.15,3-.15,4.52,0,.15,0,.3,0,.46H16.94v5H65.1c.12,1.64.29,3.27.52,4.88H22v5H66.53c.36,1.67.79,3.31,1.26,4.93H27.7v5h29A74.69,74.69,0,0,0,107.52,192,77.44,77.44,0,0,1,64.16,146h5.3A72.14,72.14,0,0,0,136.9,192.8c2,0,4-.1,6-.27a74.36,74.36,0,0,0,35.46-19.26l5.88,1.73c1-.84,1.91-1.71,2.83-2.61l1.05-1L204,176Zm-8.23-28.18a8.91,8.91,0,0,1-11.67-8.45,8.83,8.83,0,0,1,1-4,8.55,8.55,0,0,1,1-1.56l-3.4-5.75A16.51,16.51,0,0,1,165.3,111a16.69,16.69,0,0,1-5.2.84h-.18l-.87,12.43a16.58,16.58,0,0,1,.59,31.69l-.4.12,1.5,7a8.89,8.89,0,0,1-1.09,17.71c-.29,0-.57,0-.86,0A8.89,8.89,0,0,1,154,165a8.37,8.37,0,0,1,1.82-1.16l-1.52-7.07a16.56,16.56,0,0,1-13.71-7.53l-16.49,9.15a8.89,8.89,0,0,1-8.84,9.83c-.28,0-.56,0-.85,0a8.88,8.88,0,0,1-4.81-15.7,8.73,8.73,0,0,1,3.78-1.84l.06-26.28c-.39-.16-.78-.34-1.16-.53a16.37,16.37,0,0,1-7.28-7.23l-4.64,1.73a8.68,8.68,0,0,1-.94,4.39,8.9,8.9,0,1,1-.67-9.12l4.67-1.74a16.61,16.61,0,0,1,3.18-12.94L97.17,91.1a8.83,8.83,0,0,1-4.93,1.52,8.88,8.88,0,0,1-7.94-12.9A8.89,8.89,0,0,1,96.24,75.8a8.67,8.67,0,0,1,3.44,3.1l26.66-5.48a8.89,8.89,0,0,1,16.7.51,8.75,8.75,0,0,1-.11,5.83l5.48,3.7a16.59,16.59,0,0,1,25.22,21.37l3.9,6.6h0a8.9,8.9,0,0,1,11.22,5.66A8.9,8.9,0,0,1,183.11,128.3Z"/><path class="cls-3" d="M119.89,45.63a74.54,74.54,0,0,0-66.72,60.63h8.09A77.24,77.24,0,0,1,119.89,45.63Z"/></g></svg>