<svg xmlns="http://www.w3.org/2000/svg" viewBox="0 0 100 100"><defs><style>.cls-1{fill:#fff;}</style></defs><g id="Illustration"><path class="cls-1" d="M79.09,44.84a.69.69,0,0,0-.53-.22l-6.63.06h-44l-4.77,0h-1L74,22.11a.76.76,0,0,0,.39-1L71.1,13.66a.73.73,0,0,0-.41-.4.78.78,0,0,0-.58,0L17.63,36.18a.76.76,0,0,0-.4.41.78.78,0,0,0,0,.58l3.26,7.46a.75.75,0,0,0,.29.32.78.78,0,0,0-.24.55V81.72A6.07,6.07,0,0,0,26.38,88H73.49a6.06,6.06,0,0,0,5.82-6.28V45.37A.72.72,0,0,0,79.09,44.84Zm-13.5,1.34,6,6.71H65.1l-5.95-6.71Zm-8.45,0,6,6.71H56l-6-6.71Zm-9.1,0,6,6.71H47.55l-6-6.71Zm-8.45,0,6,6.71H39.1l-6-6.71Zm-11.67,0h3.22l6,6.71H30.66l-5.93-6.68Zm-5.18,0,5.91,6.66H22.14l-.09,0V46.24ZM70,14.94l1,2.36-3.3-1.37Zm-4.17,1.83,6.07,2.51L72.68,21,68.25,23,60,19.33Zm-7.74,3.37,8.27,3.64-5.86,2.56L52.25,22.7Zm-7.73,3.38,8.27,3.64L52.18,30l-8.27-3.64ZM42,27.16l8.27,3.64-5.86,2.56-8.27-3.64Zm-7.73,3.38,8.27,3.63-5.87,2.56L28.44,33.1Zm-7.74,3.37,8.27,3.64L29,40.11l-8.27-3.64ZM19,37.34l8.16,3.59-5.54,2.41ZM77.81,81.72a4.57,4.57,0,0,1-4.32,4.78H26.38a4.57,4.57,0,0,1-4.33-4.78V54.37l.09,0H77.82Zm0-28.83H73.55l-6-6.71h4.35l2.08,0,3.8,4.27Zm0-4.72-1.81-2h1.81Z"/><path class="cls-1" d="M48,80a9.8,9.8,0,1,0-9.79-9.8A9.81,9.81,0,0,0,48,80Zm0-18.09a8.3,8.3,0,1,1-8.29,8.29A8.3,8.3,0,0,1,48,61.94Z"/><path class="cls-1" d="M45.25,75.89a.75.75,0,0,0,.38-.1L53.94,71a.75.75,0,0,0,.38-.65.78.78,0,0,0-.38-.65l-8.31-4.8a.77.77,0,0,0-.75,0,.74.74,0,0,0-.38.65v9.6a.73.73,0,0,0,.38.65A.69.69,0,0,0,45.25,75.89Zm.75-9,6.07,3.5L46,73.84Z"/></g></svg>