<svg xmlns="http://www.w3.org/2000/svg" viewBox="0 0 230.87 230.87"><defs><style>.cls-1{fill:none;}.cls-2{fill:#fc3;}.cls-3{fill:#191919;}</style></defs><g id="Illustration"><path class="cls-1" d="M87.27,96.56c.88.17,1.74.37,2.59.62l10-53.46-8.49-1.6a2.31,2.31,0,0,0-.37,0,1.93,1.93,0,0,0-1.89,1.58L79.28,96.2c.89-.08,1.8-.13,2.71-.13A29.31,29.31,0,0,1,87.27,96.56Z"/><path class="cls-1" d="M172.56,52.53h0s0,0,0-.06l.2-1.06c.26-2.26-.81-3.63-3.62-4.19l-17-3.2.65-3.49a4,4,0,0,0-3.49-4.72,4.09,4.09,0,0,0-5.08,3.43l-.6,3.18-17-3.2c-2.81-.5-4.3.39-4.88,2.59l-.2,1.07a.06.06,0,0,0,0,0h0l-1,5.32,51.11,9.6Z"/><path class="cls-1" d="M79.5,146.72a21.82,21.82,0,0,0,2.55.16,22.35,22.35,0,0,0,21.25-15.5l7.09-4.84a30.06,30.06,0,0,1-.42,3.23,28.46,28.46,0,0,1-24.37,23l-2.38,12.7,79.42,14.92,22.5-119.75L177,59.08l-.52,2.77-.56,3L113.82,53.16l.56-3h0l.52-2.77-9.19-1.72L95.6,99.52A28.35,28.35,0,0,1,109.15,116l8.16-5.58,3.43,5L97.06,131.64A25.43,25.43,0,0,1,79.5,146.72Zm59.63-68.64,13.54,2.54-1.12,6L138,84Zm-1.87,10,32.55,6.11-1.12,6L136.14,94ZM133.31,110l13.54,2.55-1.11,6-13.55-2.55Zm-1.87,10L164,126l-1.12,6-32.55-6.11ZM127,142l13.54,2.54-1.12,6-13.54-2.55Zm-1.87,10L157.65,158l-1.12,6L124,157.86Z"/><path class="cls-1" d="M199.76,62.48l-8.49-1.6L167.5,187.46,76.12,170.3l3.28-17.46c-.88-.09-1.76-.21-2.63-.37a28.6,28.6,0,0,1-7.58-2.56l-5.11,27.22a1.93,1.93,0,0,0,1.54,2.26L174,199.74a2,2,0,0,0,2.26-1.54L201.3,64.73A1.92,1.92,0,0,0,199.76,62.48Z"/><path class="cls-1" d="M98.93,123l4.92-3.36a22.31,22.31,0,0,0-12-15.18A25.34,25.34,0,0,1,98.93,123Z"/><path class="cls-2" d="M57.64,109.87H32.44v5H55.28A28,28,0,0,1,57.64,109.87Z"/><path class="cls-2" d="M72.83,97.59l.18-1a25.46,25.46,0,0,0-18.21,8.25h6.63A26.84,26.84,0,0,1,72.83,97.59Z"/><path class="cls-2" d="M53.57,124.79a28.82,28.82,0,0,1,.41-5H27.48v5H53.57Z"/><path class="cls-2" d="M54.06,129.76H32.71v5H51.56A25.4,25.4,0,0,0,61.9,144.6a28.21,28.21,0,0,1-7.84-14.84Z"/><path class="cls-2" d="M77.89,146.49c.53.1,1.07.17,1.61.23a25.43,25.43,0,0,0,17.56-15.08l-11,7.51L72.58,119.4l5-3.44L87.67,130.7,98.93,123a25.34,25.34,0,0,0-7.05-18.54,22.35,22.35,0,1,0-14,42Z"/><rect class="cls-3" x="142.31" y="75.44" width="6.06" height="13.78" transform="translate(37.6 209.98) rotate(-79.37)"/><rect class="cls-3" x="149.94" y="77.51" width="6.06" height="33.12" transform="translate(32.28 227.05) rotate(-79.36)"/><rect class="cls-3" x="136.49" y="107.32" width="6.06" height="13.78" transform="translate(1.52 230.26) rotate(-79.37)"/><rect class="cls-3" x="144.13" y="109.4" width="6.06" height="33.12" transform="translate(-3.8 247.34) rotate(-79.36)"/><rect class="cls-3" x="130.15" y="139.31" width="6.06" height="13.78" transform="translate(-35.08 250.1) rotate(-79.36)"/><rect class="cls-3" x="137.78" y="141.38" width="6.06" height="33.12" transform="translate(-40.41 267.17) rotate(-79.36)"/><path class="cls-3" d="M200.88,56.5l-22.57-4.24c1.23-5.88-2.07-9.78-7.92-11h0l-.1,0h0l-11.45-2.15c-.31-4.51-3.34-8.17-8.45-9.13s-9.3,1.34-11.24,5.43l-11.58-2.18h0c-5.88-1-10.37,1.42-11.36,7.34L92.53,36.15A8.26,8.26,0,0,0,91,36a8,8,0,0,0-7.87,6.54L73,96.64l-.18,1a26.84,26.84,0,0,0-11.4,7.3h-29v5h25.2a28,28,0,0,0-2.36,5H27.48v5H54a28.82,28.82,0,0,0-.41,5H32.71v5H54.06A28.21,28.21,0,0,0,61.9,144.6c.58.58,1.17,1.14,1.79,1.67L58.11,176a8,8,0,0,0,6.39,9.36l108.36,20.35a8.24,8.24,0,0,0,1.48.14,8,8,0,0,0,7.87-6.54L207.28,65.86A8,8,0,0,0,200.88,56.5ZM121.45,42.92h0a.06.06,0,0,1,0,0l.2-1.07c.58-2.2,2.07-3.09,4.88-2.59l17,3.2.6-3.18a4.09,4.09,0,0,1,5.08-3.43,4,4,0,0,1,3.49,4.72L152.11,44l17,3.2c2.81.56,3.88,1.93,3.62,4.19l-.2,1.06s0,0,0,.06h0l-1,5.31-51.11-9.6Zm-32.3.75A1.93,1.93,0,0,1,91,42.09a2.31,2.31,0,0,1,.37,0l8.49,1.6-10,53.46c-.85-.25-1.71-.45-2.59-.62A29.31,29.31,0,0,0,82,96.07c-.91,0-1.82.05-2.71.13ZM60,120.39a22.32,22.32,0,0,1,31.84-15.93,22.31,22.31,0,0,1,12,15.18L98.93,123l-11.26,7.7L77.6,116l-5,3.44,13.5,19.75,11-7.51,23.68-16.19-3.43-5L109.15,116A28.35,28.35,0,0,0,95.6,99.52l10.11-53.83,9.19,1.72-.52,2.77h0l-.56,3L176,64.83l.56-3,.52-2.77,8.11,1.53-22.5,119.75L83.22,165.44l2.38-12.7a28.46,28.46,0,0,0,24.37-23,30.06,30.06,0,0,0,.42-3.23l-7.09,4.84a22.35,22.35,0,0,1-21.25,15.5,21.82,21.82,0,0,1-2.55-.16c-.54-.06-1.08-.13-1.61-.23A22.36,22.36,0,0,1,60,120.39ZM201.3,64.73,176.24,198.2a2,2,0,0,1-2.26,1.54L65.62,179.39a1.93,1.93,0,0,1-1.54-2.26l5.11-27.22a28.6,28.6,0,0,0,7.58,2.56c.87.16,1.75.28,2.63.37L76.12,170.3l91.38,17.16L191.27,60.88l8.49,1.6A1.92,1.92,0,0,1,201.3,64.73Z"/><rect class="cls-3" x="22.54" y="104.89" width="4.94" height="4.97"/><polygon class="cls-3" points="22.83 124.79 22.83 129.76 27.77 129.76 27.77 124.79 27.48 124.79 22.83 124.79"/><rect class="cls-3" x="17.6" y="114.81" width="4.94" height="4.97"/></g></svg>