<svg xmlns="http://www.w3.org/2000/svg" viewBox="0 0 1200 600"><defs><style>.cls-1{fill:#fff;}.cls-2{fill:none;}.cls-3{fill:#002dff;}.cls-4{fill:#0a36f4;}</style></defs><g id="Illustration"><path class="cls-1" d="M1062.29,397.94a.76.76,0,0,0-.06-.25s0-.06,0-.08a0,0,0,0,0,0,0,.8.8,0,0,0-.23-.22h0l-30-18a.73.73,0,0,0-.78,0l-29.32,18h0a.6.6,0,0,0-.23.22,0,0,0,0,1,0,0,.32.32,0,0,0,0,.09.72.72,0,0,0-.07.25.43.43,0,0,0,0,.05v35.93a.73.73,0,0,0,.34.62l30,19.56.08,0,.07,0a.85.85,0,0,0,.26.05.75.75,0,0,0,.26-.05l.08,0,.08,0L1062,434.55a.75.75,0,0,0,.34-.62V398S1062.29,398,1062.29,397.94Zm-30.7-17L1060.15,398l-27.92,18.63L1003.66,398ZM1003,399.38,1031.48,418V452.1L1003,433.52Zm30,52.7V418l27.83-18.56v34.12Z"/><path class="cls-2" d="M419.63,173.81c4.87,0,8.28-1.31,9.39-2.53a.9.9,0,0,0,.25-.42.28.28,0,0,0-.1-.09c-1.54-1-3.2-4.27-3.46-8.54a12,12,0,0,1-5.47,1.44,12.51,12.51,0,0,1-6.61-2.07c-.16,2.22-.83,7.48-3.41,9.22-.14.1-.6.43-.53.68C409.94,172.3,413.11,173.81,419.63,173.81Z"/><path class="cls-2" d="M438.33,137c.74-7.73-1.48-15.08-6.09-20.15a16.32,16.32,0,0,0-24.45-.37c-4.31,4.71-6.36,12.19-5.63,20.52,1.19,13.42,9.63,25.18,18.08,25.18C427.65,162.17,436.9,151.83,438.33,137Zm-11.48-.36a1,1,0,1,1,1-1A1,1,0,0,1,426.85,136.63Zm-1-6.28h4.59a.75.75,0,0,1,0,1.5h-4.59a.75.75,0,0,1,0-1.5Zm-6.21,13.3a.75.75,0,0,1,1.5,0v2.95a.75.75,0,0,1-1.5,0Zm-6.07-7a1,1,0,1,1,1-1A1,1,0,0,1,413.61,136.63Zm.7-4.78h-4.59a.75.75,0,0,1,0-1.5h4.59a.75.75,0,0,1,0,1.5Zm2.84,21a.76.76,0,0,1,.75-.75h4.59a.75.75,0,0,1,0,1.5H417.9A.76.76,0,0,1,417.15,152.87Z"/><path class="cls-3" d="M430.77,170.83a1.77,1.77,0,0,1-.07.5c-.58,2-4.88,4-11.07,4s-10.75-1.32-11.37-3.38a1.75,1.75,0,0,1,.23-1.49c-16.26,2.39-28.24,10.46-28.24,20.07h76.41C456.66,181.37,445.83,173.62,430.77,170.83Z"/><path class="cls-1" d="M408.26,171.93c.62,2.06,5.09,3.38,11.37,3.38s10.49-2,11.07-4a1.77,1.77,0,0,0,.07-.5,1.61,1.61,0,0,0-.78-1.32c-1.1-.7-2.74-3.78-2.81-8.14,6.06-4,11.53-12.73,12.64-24.24.78-8.15-1.58-15.91-6.47-21.3a17.82,17.82,0,0,0-26.66-.38c-4.6,5-6.79,12.92-6,21.67.87,9.9,5.61,18.94,11.52,23.48v0c-.07,2-.7,7.54-2.81,9a3.06,3.06,0,0,0-.89.86A1.75,1.75,0,0,0,408.26,171.93ZM402.16,137c-.73-8.33,1.32-15.81,5.63-20.52a16.32,16.32,0,0,1,24.45.37c4.61,5.07,6.83,12.42,6.09,20.15-1.43,14.84-10.68,25.18-18.09,25.18C411.79,162.17,403.35,150.41,402.16,137Zm8.06,33.83c2.58-1.74,3.25-7,3.41-9.22a12.51,12.51,0,0,0,6.61,2.07,12,12,0,0,0,5.47-1.44c.26,4.27,1.92,7.55,3.46,8.54a.28.28,0,0,1,.1.09.9.9,0,0,1-.25.42c-1.11,1.22-4.52,2.53-9.39,2.53-6.52,0-9.69-1.51-9.94-2.31C409.62,171.25,410.08,170.92,410.22,170.82Z"/><path class="cls-1" d="M423.24,152.87a.76.76,0,0,0-.75-.75H417.9a.75.75,0,0,0,0,1.5h4.59A.76.76,0,0,0,423.24,152.87Z"/><path class="cls-1" d="M414.31,130.35h-4.59a.75.75,0,0,0,0,1.5h4.59a.75.75,0,0,0,0-1.5Z"/><path class="cls-1" d="M420.43,147.35a.75.75,0,0,0,.75-.75v-2.95a.75.75,0,0,0-1.5,0v2.95A.74.74,0,0,0,420.43,147.35Z"/><path class="cls-1" d="M413.61,134.55a1,1,0,0,0,0,2.08,1,1,0,0,0,0-2.08Z"/><circle class="cls-1" cx="426.85" cy="135.59" r="1.04"/><path class="cls-1" d="M425.89,131.85h4.59a.75.75,0,0,0,0-1.5h-4.59a.75.75,0,0,0,0,1.5Z"/><path class="cls-1" d="M712.92,284.24a.75.75,0,0,0-.75-.75H708.5a.75.75,0,0,0,0,1.5h3.67A.76.76,0,0,0,712.92,284.24Z"/><path class="cls-1" d="M705.63,266.1H702a.75.75,0,0,0,0,1.5h3.66a.75.75,0,0,0,0-1.5Z"/><path class="cls-1" d="M710.52,280a.76.76,0,0,0,.75-.75v-2.35a.75.75,0,0,0-1.5,0v2.35A.76.76,0,0,0,710.52,280Z"/><circle class="cls-1" cx="705.07" cy="270.43" r="0.83"/><circle class="cls-1" cx="715.65" cy="270.43" r="0.83"/><path class="cls-1" d="M714.88,267.6h3.66a.75.75,0,0,0,0-1.5h-3.66a.75.75,0,0,0,0,1.5Z"/><path class="cls-1" d="M769.53,285h3.66a.75.75,0,0,0,0-1.5h-3.66a.75.75,0,0,0,0,1.5Z"/><path class="cls-1" d="M767.41,266.9a.76.76,0,0,0-.75-.75H763a.75.75,0,0,0,0,1.5h3.67A.75.75,0,0,0,767.41,266.9Z"/><path class="cls-1" d="M771.54,280a.75.75,0,0,0,.75-.75v-2.35a.75.75,0,0,0-1.5,0v2.35A.76.76,0,0,0,771.54,280Z"/><path class="cls-1" d="M779.67,297.85a1.74,1.74,0,0,0-.41-.4c-.66-.42-2.1-2.6-2.17-6.32,4.85-3.21,9.21-10.21,10.09-19.4a22.22,22.22,0,0,0-5.2-17.12,14.39,14.39,0,0,0-21.52-.31c-3.7,4-5.47,10.39-4.85,17.43a31.21,31.21,0,0,0,2.17,8.95,43.76,43.76,0,0,0-9.3-2.72,1.74,1.74,0,0,0-.41-.4c-.66-.42-2.1-2.6-2.17-6.32,4.84-3.21,9.2-10.21,10.09-19.4a22.19,22.19,0,0,0-5.21-17.12,14.38,14.38,0,0,0-21.51-.31c-3.7,4-5.47,10.39-4.85,17.43.7,7.9,4.47,15.12,9.2,18.79-.06,1.53-.57,5.9-2.17,7l-.05,0a1.06,1.06,0,0,0-.31,0A48.71,48.71,0,0,0,724.6,279a32.53,32.53,0,0,0,1.55-7.3,22.22,22.22,0,0,0-5.2-17.13,14.4,14.4,0,0,0-21.52-.3c-3.7,4-5.46,10.39-4.84,17.42.69,7.91,4.47,15.13,9.2,18.8-.07,1.63-.57,5.9-2.18,7l0,0a.8.8,0,0,0-.31,0c-13.88,1.93-23.58,8.85-23.58,16.82V315h61v0h62.52v-.75C801.23,306.77,792.58,300.17,779.67,297.85Zm-1.24.86c-.27.6-2.72,2.15-7.52,2.15-5.68,0-7.78-1.39-7.8-1.75,0,0,.07-.17.36-.36,2-1.36,2.61-5.33,2.78-7.24a10,10,0,0,0,5.14,1.56,9.66,9.66,0,0,0,4.24-1.1C775.88,295.31,777.14,297.83,778.43,298.71Zm-16.87-43.39a13,13,0,0,1,9.83-4.2,12.81,12.81,0,0,1,9.47,4.49,20.7,20.7,0,0,1,4.82,16c-1.13,11.77-8.43,20-14.29,20-6.67,0-13.35-9.34-14.29-20C756.52,265,758.15,259.05,761.56,255.32Zm-35.65-3.62c-.58-6.61,1.05-12.54,4.46-16.27a13,13,0,0,1,9.83-4.2,12.81,12.81,0,0,1,9.47,4.49,20.7,20.7,0,0,1,4.82,16c-1.13,11.77-8.43,20-14.29,20C733.53,271.68,726.85,262.34,725.91,251.7Zm6.37,27.16c2-1.36,2.61-5.33,2.78-7.24a10,10,0,0,0,5.14,1.56,9.66,9.66,0,0,0,4.24-1.1c.25,3.34,1.51,5.86,2.8,6.74-.27.6-2.72,2.15-7.52,2.15-5.68,0-7.78-1.39-7.8-1.75C731.92,279.19,732,279.05,732.28,278.86Zm-1.85.4a1.43,1.43,0,0,0,.06.41c.52,1.7,4.14,2.8,9.23,2.8,4.67,0,8-1.45,8.84-3a40.55,40.55,0,0,1,10.1,3.19h0a22.53,22.53,0,0,0,6.11,7.82c-.06,1.63-.56,5.9-2.17,7l0,0a1.06,1.06,0,0,0-.31,0c-11.61,1.62-20.29,6.73-22.82,13-2.33-5.94-10.09-10.82-20.81-12.74a1.46,1.46,0,0,0-.42-.4c-.65-.42-2.09-2.6-2.16-6.32A22.57,22.57,0,0,0,724,280.74,44.31,44.31,0,0,1,730.43,279.26Zm-34.35-7.72c-.58-6.61,1-12.54,4.46-16.27a12.89,12.89,0,0,1,19.3.29,20.74,20.74,0,0,1,4.82,16c-1.13,11.77-8.44,20-14.29,20C703.7,291.52,697,282.18,696.08,271.54Zm6.37,27.16c2-1.36,2.61-5.33,2.77-7.24a10,10,0,0,0,5.15,1.56,9.69,9.69,0,0,0,4.24-1.1c.25,3.34,1.51,5.86,2.8,6.74-.27.59-2.73,2.15-7.52,2.15-5.33,0-7.77-1.27-7.8-1.75C702.09,299,702.16,298.89,702.45,298.7Zm-23.23,14.84c.59-6.72,9.18-12.53,21.37-14.44a1.89,1.89,0,0,0,.06.41c.52,1.7,4.15,2.8,9.24,2.8,4.68,0,8-1.46,8.84-3,11.35,2.13,19.36,7.84,19.94,14.2Zm61,0c.6-6.72,9.18-12.53,21.38-14.44a1.43,1.43,0,0,0,.06.41c.52,1.7,4.14,2.8,9.23,2.8,4.68,0,8-1.46,8.84-3,11.35,2.13,19.36,7.85,20,14.2Z"/><path class="cls-1" d="M766.1,269.65a.84.84,0,1,0,.83.83A.84.84,0,0,0,766.1,269.65Z"/><circle class="cls-1" cx="776.67" cy="270.48" r="0.83"/><path class="cls-1" d="M775.9,267.65h3.67a.75.75,0,0,0,0-1.5H775.9a.75.75,0,0,0,0,1.5Z"/><path class="cls-1" d="M742.75,264.4a.75.75,0,0,0-.75-.75h-3.66a.75.75,0,0,0,0,1.5H742A.76.76,0,0,0,742.75,264.4Z"/><path class="cls-1" d="M735.47,246.26H731.8a.75.75,0,0,0,0,1.5h3.67a.75.75,0,0,0,0-1.5Z"/><path class="cls-1" d="M740.35,260.14a.75.75,0,0,0,.75-.75V257a.75.75,0,0,0-1.5,0v2.35A.76.76,0,0,0,740.35,260.14Z"/><path class="cls-1" d="M734.9,249.76a.83.83,0,0,0-.83.83.84.84,0,1,0,.83-.83Z"/><path class="cls-1" d="M745.48,249.76a.83.83,0,0,0-.83.83.84.84,0,0,0,.83.84.85.85,0,0,0,.84-.84A.84.84,0,0,0,745.48,249.76Z"/><path class="cls-1" d="M744.71,247.76h3.67a.75.75,0,0,0,0-1.5h-3.67a.75.75,0,0,0,0,1.5Z"/><path class="cls-1" d="M1005.69,170.2a.74.74,0,0,0-.75-.75h-3.66a.75.75,0,0,0,0,1.5h3.66A.75.75,0,0,0,1005.69,170.2Z"/><path class="cls-1" d="M998.41,152.06h-3.66a.75.75,0,0,0,0,1.5h3.66a.75.75,0,0,0,0-1.5Z"/><path class="cls-1" d="M1003.3,165.94a.76.76,0,0,0,.75-.75v-2.35a.75.75,0,1,0-1.5,0v2.35A.75.75,0,0,0,1003.3,165.94Z"/><circle class="cls-1" cx="997.85" cy="156.39" r="0.83"/><circle class="cls-1" cx="1008.43" cy="156.39" r="0.83"/><path class="cls-1" d="M1007.66,153.56h3.66a.75.75,0,0,0,0-1.5h-3.66a.75.75,0,0,0,0,1.5Z"/><path class="cls-1" d="M1062.3,171H1066a.75.75,0,0,0,0-1.5h-3.67a.75.75,0,0,0,0,1.5Z"/><path class="cls-1" d="M1060.18,152.86a.75.75,0,0,0-.75-.75h-3.66a.75.75,0,0,0,0,1.5h3.66A.74.74,0,0,0,1060.18,152.86Z"/><path class="cls-1" d="M1064.32,166a.76.76,0,0,0,.75-.75v-2.35a.75.75,0,0,0-1.5,0v2.35A.75.75,0,0,0,1064.32,166Z"/><path class="cls-1" d="M1072.45,183.81a1.61,1.61,0,0,0-.42-.4c-.65-.42-2.09-2.6-2.17-6.32,4.85-3.21,9.21-10.21,10.09-19.4a22.19,22.19,0,0,0-5.2-17.12,14.39,14.39,0,0,0-21.52-.31c-3.7,4-5.46,10.39-4.84,17.43a31.29,31.29,0,0,0,2.17,8.95,43.76,43.76,0,0,0-9.3-2.72,1.61,1.61,0,0,0-.42-.4c-.65-.42-2.09-2.6-2.17-6.32,4.85-3.21,9.21-10.21,10.09-19.4a22.19,22.19,0,0,0-5.2-17.12,14.39,14.39,0,0,0-21.52-.31c-3.7,4-5.46,10.39-4.84,17.43.69,7.9,4.47,15.12,9.19,18.79-.05,1.53-.56,5.9-2.17,7l0,0a1,1,0,0,0-.3,0,48.71,48.71,0,0,0-6.49,1.35,32.53,32.53,0,0,0,1.55-7.3,22.26,22.26,0,0,0-5.2-17.13,14.4,14.4,0,0,0-21.52-.3c-3.7,4-5.47,10.39-4.85,17.42.7,7.91,4.48,15.13,9.2,18.8-.06,1.63-.56,5.9-2.17,7l0,0a.75.75,0,0,0-.3,0c-13.88,1.93-23.58,8.85-23.58,16.82V201h61v.05H1094v-.75C1094,192.73,1085.36,186.13,1072.45,183.81Zm-1.24.86c-.27.6-2.73,2.15-7.53,2.15-5.67,0-7.77-1.39-7.79-1.75,0,0,.07-.17.36-.36,2-1.36,2.61-5.33,2.77-7.24a10,10,0,0,0,5.15,1.56,9.69,9.69,0,0,0,4.24-1.1C1068.65,181.27,1069.92,183.79,1071.21,184.67Zm-16.87-43.39a12.89,12.89,0,0,1,19.3.29,20.74,20.74,0,0,1,4.82,16c-1.13,11.77-8.44,20-14.29,20-6.67,0-13.35-9.34-14.29-20C1049.3,150.94,1050.92,145,1054.34,141.28Zm-35.65-3.62c-.58-6.61,1-12.54,4.46-16.27a12.89,12.89,0,0,1,19.3.29,20.74,20.74,0,0,1,4.82,16c-1.13,11.77-8.44,20-14.29,20C1026.31,157.64,1019.63,148.3,1018.69,137.66Zm6.37,27.16c2-1.36,2.61-5.33,2.77-7.24a10,10,0,0,0,5.15,1.56,9.69,9.69,0,0,0,4.24-1.1c.24,3.34,1.51,5.86,2.8,6.74-.27.6-2.73,2.15-7.53,2.15-5.68,0-7.77-1.39-7.79-1.75C1024.7,165.15,1024.77,165,1025.06,164.82Zm-1.86.4a1.89,1.89,0,0,0,.06.41c.52,1.7,4.14,2.8,9.23,2.8,4.68,0,8-1.45,8.85-3a40.55,40.55,0,0,1,10.1,3.19h0a22.74,22.74,0,0,0,6.11,7.82c-.06,1.63-.56,5.9-2.17,7l-.05,0a1,1,0,0,0-.3,0c-11.62,1.62-20.3,6.73-22.82,13-2.33-5.94-10.1-10.82-20.81-12.74a1.61,1.61,0,0,0-.42-.4c-.65-.42-2.09-2.6-2.17-6.32a22.44,22.44,0,0,0,7.89-10.34A44.92,44.92,0,0,1,1023.2,165.22Zm-34.34-7.72c-.58-6.61,1-12.54,4.46-16.27a12.89,12.89,0,0,1,19.3.29,20.74,20.74,0,0,1,4.82,16c-1.13,11.77-8.44,20-14.29,20C996.47,177.48,989.8,168.14,988.86,157.5Zm6.37,27.16c2-1.36,2.61-5.33,2.77-7.24a10,10,0,0,0,5.15,1.56,9.69,9.69,0,0,0,4.24-1.1c.24,3.34,1.51,5.86,2.79,6.74-.27.59-2.72,2.15-7.52,2.15-5.32,0-7.76-1.27-7.8-1.75C994.87,185,994.94,184.85,995.23,184.66ZM972,199.5c.6-6.72,9.18-12.53,21.38-14.44a1.43,1.43,0,0,0,.06.41c.52,1.7,4.14,2.8,9.23,2.8,4.68,0,8-1.46,8.85-3,11.35,2.13,19.35,7.84,19.94,14.2Zm61,.05c.59-6.72,9.18-12.53,21.37-14.44a1.89,1.89,0,0,0,.06.41c.52,1.7,4.15,2.8,9.23,2.8,4.69,0,8-1.46,8.85-3,11.35,2.13,19.35,7.85,19.94,14.2Z"/><path class="cls-1" d="M1058.87,155.61a.84.84,0,1,0,.83.83A.83.83,0,0,0,1058.87,155.61Z"/><circle class="cls-1" cx="1069.45" cy="156.44" r="0.83"/><path class="cls-1" d="M1068.68,153.61h3.66a.75.75,0,0,0,0-1.5h-3.66a.75.75,0,0,0,0,1.5Z"/><path class="cls-1" d="M1035.52,150.36a.74.74,0,0,0-.75-.75h-3.66a.75.75,0,0,0,0,1.5h3.66A.75.75,0,0,0,1035.52,150.36Z"/><path class="cls-1" d="M1028.24,132.22h-3.66a.75.75,0,0,0,0,1.5h3.66a.75.75,0,0,0,0-1.5Z"/><path class="cls-1" d="M1033.13,146.1a.76.76,0,0,0,.75-.75V143a.75.75,0,0,0-1.5,0v2.35A.75.75,0,0,0,1033.13,146.1Z"/><path class="cls-1" d="M1027.68,135.72a.83.83,0,0,0-.83.83.83.83,0,1,0,1.66,0A.83.83,0,0,0,1027.68,135.72Z"/><path class="cls-1" d="M1038.26,135.72a.83.83,0,0,0-.83.83.83.83,0,1,0,1.66,0A.83.83,0,0,0,1038.26,135.72Z"/><path class="cls-1" d="M1037.49,133.72h3.66a.75.75,0,0,0,0-1.5h-3.66a.75.75,0,0,0,0,1.5Z"/><path class="cls-2" d="M309.27,384.13H280a3.91,3.91,0,0,0-3.82,2.5h28.07c3,0,5.47,2.19,5.47,4.88v46.06a3.63,3.63,0,0,0,3.5-3.34V387.51C313.25,385.64,311.47,384.13,309.27,384.13Z"/><path class="cls-2" d="M283.82,392.29h16.55a4.39,4.39,0,0,1,4.64,4.07v45.19a3.76,3.76,0,0,0,3.08-2.44,2,2,0,0,0,.09-.35,3.09,3.09,0,0,0,.07-.52V391.51a3.72,3.72,0,0,0-4-3.38H275c-2.19,0-4,1.52-4,3.38v12.67l8.85-10.12A5.22,5.22,0,0,1,283.82,392.29Z"/><path class="cls-1" d="M309.27,382.63H280a5.34,5.34,0,0,0-5.38,4,5.16,5.16,0,0,0-5.09,4.87V405.9l1.5-1.72V391.51c0-1.86,1.79-3.38,4-3.38h29.24a3.72,3.72,0,0,1,4,3.38v46.73a3.09,3.09,0,0,1-.07.52,2,2,0,0,1-.09.35,3.76,3.76,0,0,1-3.08,2.44v.94a3.68,3.68,0,0,1-.06.57,5.24,5.24,0,0,0,4.71-4,5.15,5.15,0,0,0,5.09-4.86V387.51C314.75,384.82,312.29,382.63,309.27,382.63Zm4,51.6a3.63,3.63,0,0,1-3.5,3.34V391.51c0-2.69-2.45-4.88-5.47-4.88H276.21a3.91,3.91,0,0,1,3.82-2.5h29.24c2.2,0,4,1.51,4,3.38Z"/><path class="cls-3" d="M305,441.55V396.36a4.39,4.39,0,0,0-4.64-4.07H283.82a5.22,5.22,0,0,0-3.91,1.77l-8.85,10.12-1.5,1.72-1.19,1.36a5.41,5.41,0,0,0-1.35,3.57v31.66a4.4,4.4,0,0,0,4.64,4.07h28.71a4.5,4.5,0,0,0,4.58-3.5,3.68,3.68,0,0,0,.06-.57Z"/><path class="cls-3" d="M514,442.49a4.4,4.4,0,0,0,4.64,4.07h28.71a4.39,4.39,0,0,0,4.64-4.07V396.36a4.39,4.39,0,0,0-4.64-4.07H530.82a5.22,5.22,0,0,0-3.91,1.77l-11.54,13.2a5.41,5.41,0,0,0-1.35,3.57Z"/><polygon class="cls-3" points="481.4 419.9 480.38 421 484.99 425.28 348 425.28 348 426.78 484.99 426.78 480.38 431.07 481.4 432.17 488 426.03 481.4 419.9"/><polygon class="cls-3" points="955.4 419.9 954.38 421 958.99 425.28 795 425.28 795 426.78 958.99 426.78 954.38 431.07 955.4 432.17 962 426.03 955.4 419.9"/><polygon class="cls-3" points="423.04 394.41 418.75 399.02 418.75 328.03 417.25 328.03 417.25 399.02 412.96 394.41 411.87 395.43 418 402.03 424.13 395.43 423.04 394.41"/><path class="cls-1" d="M140.37,223.29a.76.76,0,0,0-.75-.75H135a.75.75,0,0,0,0,1.5h4.59A.76.76,0,0,0,140.37,223.29Z"/><path class="cls-1" d="M131.44,200.77h-4.59a.75.75,0,0,0,0,1.5h4.59a.75.75,0,0,0,0-1.5Z"/><path class="cls-1" d="M137.56,217.77a.76.76,0,0,0,.75-.75v-3a.75.75,0,0,0-1.5,0v3A.75.75,0,0,0,137.56,217.77Z"/><path class="cls-1" d="M146.2,238.76h-.1a13.84,13.84,0,0,1-1.79-7c6.06-3.95,11.53-12.72,12.64-24.23.78-8.15-1.58-15.91-6.47-21.3a17.82,17.82,0,0,0-26.66-.38c-4.6,5-6.79,12.92-6,21.67.87,9.9,5.61,18.94,11.52,23.48h0a21.26,21.26,0,0,1-1.52,7.31,1,1,0,0,0-.24,0c-14.44,2-24.54,9.2-24.54,17.5v.75h65.09v-.75C168.11,247.76,159.51,241.06,146.2,238.76Zm-26.91-31.35c-.73-8.33,1.32-15.81,5.63-20.52a16.32,16.32,0,0,1,24.45.37c4.61,5.07,6.83,12.42,6.08,20.15-1.42,14.84-10.67,25.18-18.08,25.18C128.92,232.59,120.48,220.83,119.29,207.41ZM130.76,232a12.51,12.51,0,0,0,6.61,2.07,12,12,0,0,0,5.47-1.44c.26,4.27,1.92,7.55,3.46,8.54a.28.28,0,0,1,.1.09h0a.87.87,0,0,1-.26.42c-1.1,1.22-4.51,2.53-9.38,2.53-6.52,0-9.69-1.51-9.94-2.31-.08-.25.38-.58.53-.68C129.93,239.5,130.6,234.24,130.76,232Zm-26.2,23.06c.59-7,9.38-13,21.91-15.06-1.28.89-1.23,1.84-1.08,2.33.62,2.05,5.09,3.38,11.37,3.38s10.49-2,11.07-4a1.57,1.57,0,0,0-.12-1.17c11.12,2.33,18.36,7.87,18.87,14.5Z"/><path class="cls-1" d="M130.74,205a1,1,0,1,0,1,1A1,1,0,0,0,130.74,205Z"/><path class="cls-1" d="M144,205a1,1,0,1,0,1,1A1,1,0,0,0,144,205Z"/><path class="cls-1" d="M143,202.27h4.59a.75.75,0,0,0,0-1.5H143a.75.75,0,0,0,0,1.5Z"/><polygon class="cls-1" points="169.42 245.69 190.05 235.54 187.8 241.42 189.2 241.96 192.41 233.54 183.78 230.95 183.35 232.39 189.38 234.19 168.76 244.35 169.42 245.69"/><polygon class="cls-1" points="88.15 232.38 87.72 230.95 79.09 233.54 82.3 241.95 83.7 241.42 81.46 235.54 102.08 245.69 102.74 244.35 82.12 234.19 88.15 232.38"/><polygon class="cls-1" points="187.8 263.14 190.04 269.02 169.42 258.87 168.76 260.21 189.38 270.37 183.35 272.18 183.78 273.61 192.41 271.02 189.2 262.61 187.8 263.14"/><polygon class="cls-1" points="102.08 258.87 81.45 269.02 83.7 263.14 82.3 262.61 79.09 271.02 87.72 273.61 88.15 272.17 82.12 270.37 102.74 260.21 102.08 258.87"/><path class="cls-3" d="M882.81,206.83A54.74,54.74,0,1,0,801.38,134a54.33,54.33,0,0,0-11.14,40.39l1.48-.18a53.25,53.25,0,1,1,90,31.6l.31-6.37-1.49-.08-.45,9,9-.21,0-1.5Z"/><path class="cls-1" d="M67,303.35H63.43v5.46H60.52V293.54H67c3.19,0,5,1.93,5,4.92A4.69,4.69,0,0,1,67,303.35Zm-3.59-7.11v4.45h3.5a2.23,2.23,0,0,0,0-4.45Z"/><path class="cls-1" d="M80.5,300.07a3.13,3.13,0,0,0-2.79.7,3.43,3.43,0,0,0-.73,2.47v5.57h-2.9V297.47h2.77v1.13a3.78,3.78,0,0,1,3.65-1.35Z"/><path class="cls-1" d="M93.06,303.15a5.72,5.72,0,1,1-5.72-6A5.75,5.75,0,0,1,93.06,303.15Zm-2.92,0c0-1.95-1.26-3.32-2.8-3.32s-2.79,1.37-2.79,3.32a2.83,2.83,0,1,0,5.59,0Z"/><path class="cls-1" d="M106.24,308.81h-2.77V307.6a4.76,4.76,0,0,1-3.48,1.45,5.94,5.94,0,0,1,0-11.82,4.8,4.8,0,0,1,3.35,1.32v-6.11h2.9Zm-5.81-8.89a3.24,3.24,0,1,0,2.91,3.25A3.09,3.09,0,0,0,100.43,299.92Z"/><path class="cls-1" d="M119.2,308.81h-2.77v-1a3.72,3.72,0,0,1-2.89,1.3c-2.68,0-4.46-2-4.46-5v-6.63H112v6.63a2,2,0,0,0,2.11,2.22,2.14,2.14,0,0,0,2.2-2.22v-6.63h2.91Z"/><path class="cls-1" d="M127.25,309.07a5.94,5.94,0,0,1,0-11.88,5.34,5.34,0,0,1,5.46,4.09H129.6a2.69,2.69,0,0,0-2.35-1.43,3.13,3.13,0,0,0-2.9,3.32,3.1,3.1,0,0,0,2.9,3.26,2.68,2.68,0,0,0,2.38-1.45h3.1A5.33,5.33,0,0,1,127.25,309.07Z"/><path class="cls-1" d="M140.14,308.78c-3.32.36-5.08-1.65-5.08-4.75v-4h-1.37v-2.58h1.37v-2.88H138v2.88h2v2.58h-2v4c0,1.59.73,2.18,2.18,2.09Z"/><path class="cls-1" d="M163.35,301.1c0,4.45-3.14,8-7.46,8s-7.48-3.52-7.48-8,3.15-7.94,7.48-7.94S163.35,296.68,163.35,301.1Zm-2.92,0c0-2.83-2-5.19-4.54-5.19s-4.55,2.36-4.55,5.19,2,5.22,4.55,5.22S160.43,304,160.43,301.1Z"/><path class="cls-1" d="M178,308.81h-3l-2.05-7.51-2,7.51h-3l-3.52-11.34h3.08l2,7.93,2.07-7.93h2.9l2.07,7.93,2-7.93h3.08Z"/><path class="cls-1" d="M193.21,308.81H190.3v-6.63a2,2,0,0,0-2.11-2.24,2.15,2.15,0,0,0-2.2,2.24v6.63h-2.9V297.47h2.77v1.1a3.74,3.74,0,0,1,2.92-1.38c2.67,0,4.43,2,4.43,5Z"/><path class="cls-1" d="M198.29,304.27a2.88,2.88,0,0,0,2.84,2.25,2.63,2.63,0,0,0,2.39-1.32h3.11a5.38,5.38,0,0,1-5.48,3.87,5.94,5.94,0,0,1,0-11.88c3.34,0,6.11,2.59,5.7,7.08ZM204,301.9a2.84,2.84,0,0,0-2.83-2.16,2.91,2.91,0,0,0-2.8,2.16Z"/><path class="cls-1" d="M215.51,300.07a3.14,3.14,0,0,0-2.79.7,3.43,3.43,0,0,0-.73,2.47v5.57h-2.9V297.47h2.77v1.13a3.78,3.78,0,0,1,3.65-1.35Z"/><path class="cls-1" d="M357.78,207.16h-2.9c0-1.32-1.1-2.31-2.95-2.31-1.54,0-3,.59-3,1.76s1,1.43,3.36,1.91c3.64.73,5.92,1.63,5.92,4.75,0,2.95-2.46,4.8-6.31,4.8-3,0-6.25-1.65-6.25-5.32h2.9c0,1.8,1.81,2.66,3.35,2.66s3.41-.6,3.41-2c0-1-.79-1.56-3.61-2.11s-5.68-1.39-5.68-4.67c0-2.61,2.31-4.44,5.88-4.44C356,202.14,357.78,204.74,357.78,207.16Z"/><path class="cls-1" d="M365.83,218.07a5.94,5.94,0,0,1,0-11.88,5.34,5.34,0,0,1,5.46,4.09h-3.1a2.72,2.72,0,0,0-2.36-1.43,3.14,3.14,0,0,0-2.9,3.32,3.1,3.1,0,0,0,2.9,3.26,2.68,2.68,0,0,0,2.38-1.45h3.1A5.33,5.33,0,0,1,365.83,218.07Z"/><path class="cls-1" d="M379.85,209.07a3.15,3.15,0,0,0-2.8.7,3.47,3.47,0,0,0-.72,2.47v5.57h-2.91V206.47h2.77v1.13a3.8,3.8,0,0,1,3.66-1.35Z"/><path class="cls-1" d="M391.68,217.81h-2.77v-1a3.68,3.68,0,0,1-2.88,1.3c-2.69,0-4.47-2-4.47-5v-6.63h2.91v6.63a2,2,0,0,0,2.11,2.22,2.14,2.14,0,0,0,2.2-2.22v-6.63h2.9Z"/><path class="cls-1" d="M411.9,217.81H409v-6.63a2,2,0,0,0-2.11-2.24,2.15,2.15,0,0,0-2.2,2.24v6.63h-2.93v-6.63a2,2,0,0,0-2.11-2.24,2.14,2.14,0,0,0-2.18,2.24v6.63h-2.93V206.47h2.8v1.1a3.68,3.68,0,0,1,2.92-1.38,4.19,4.19,0,0,1,3.39,1.6,4.36,4.36,0,0,1,3.45-1.6c3,0,4.8,2,4.8,5Z"/><path class="cls-1" d="M436.78,217.81h-2.86v-11.2l-3.1,11.2h-3.1l-3.1-11.2v11.2h-2.86V202.54h4.31L429.26,214l3.19-11.44h4.33Z"/><path class="cls-1" d="M447.17,216.75a4.61,4.61,0,0,1-3.48,1.28c-2.4,0-4.6-1.21-4.6-3.68s2.14-3.21,4.64-3.43c1.9-.18,3.24-.4,3.24-1.32,0-.59-.77-1.08-2.07-1.08a2.48,2.48,0,0,0-2.49,1.43h-2.9c.29-2.16,2.35-3.76,5.32-3.76,4.6,0,4.95,3,4.95,3.87V216a7.07,7.07,0,0,0,.33,1.85h-2.66A4,4,0,0,1,447.17,216.75Zm-.09-4.4a6.75,6.75,0,0,1-2.75.73c-1.43.15-2.31.46-2.31,1.29,0,.64.75,1.08,1.91,1.08,1.74,0,3.15-.59,3.15-2Z"/><path class="cls-1" d="M457.35,218.07c-2.88,0-5-1.52-5.37-4h2.95a2.56,2.56,0,0,0,2.42,1.32c1.17,0,2-.35,2-1s-.4-.91-2.38-1.21-4.73-.86-4.73-3.39c0-1.78,1.56-3.63,4.84-3.63,2.6,0,4.53,1.41,4.91,3.54h-3c-.17-.53-.81-.95-1.89-.95-1.34,0-1.89.49-1.89.91,0,.59.84.79,2.24,1,2.82.46,4.84,1.08,4.84,3.54C462.32,216.49,460.26,218.07,457.35,218.07Z"/><path class="cls-1" d="M469.85,217.78c-3.33.36-5.09-1.65-5.09-4.75v-4H463.4v-2.58h1.36v-2.88h2.91v2.88h2.05v2.58h-2.05v4c0,1.59.73,2.18,2.18,2.09Z"/><path class="cls-1" d="M474,213.27a2.89,2.89,0,0,0,2.84,2.25,2.63,2.63,0,0,0,2.4-1.32h3.1a5.37,5.37,0,0,1-5.48,3.87,5.94,5.94,0,0,1,0-11.88c3.35,0,6.12,2.59,5.7,7.08Zm5.68-2.37a2.84,2.84,0,0,0-2.84-2.16,2.9,2.9,0,0,0-2.79,2.16Z"/><path class="cls-1" d="M491.23,209.07a3.13,3.13,0,0,0-2.79.7,3.43,3.43,0,0,0-.73,2.47v5.57h-2.9V206.47h2.77v1.13a3.78,3.78,0,0,1,3.65-1.35Z"/><path class="cls-1" d="M685.72,334.24v12.57h-2.91V334.24h-4.09v-2.7h11.09v2.7Z"/><path class="cls-1" d="M694,342.27a2.88,2.88,0,0,0,2.83,2.25,2.63,2.63,0,0,0,2.4-1.32h3.11a5.38,5.38,0,0,1-5.48,3.87,5.94,5.94,0,0,1,0-11.88c3.34,0,6.11,2.59,5.7,7.08Zm5.67-2.37a2.84,2.84,0,0,0-2.84-2.16A2.9,2.9,0,0,0,694,339.9Z"/><path class="cls-1" d="M712.23,345.75a4.61,4.61,0,0,1-3.48,1.28c-2.4,0-4.6-1.21-4.6-3.68s2.13-3.21,4.64-3.43c1.89-.18,3.24-.4,3.24-1.32,0-.59-.77-1.08-2.07-1.08a2.47,2.47,0,0,0-2.49,1.43h-2.9c.28-2.16,2.35-3.76,5.32-3.76,4.6,0,5,3,5,3.87V345a7.07,7.07,0,0,0,.33,1.85h-2.66A4,4,0,0,1,712.23,345.75Zm-.09-4.4a6.8,6.8,0,0,1-2.75.73c-1.43.15-2.31.46-2.31,1.29,0,.64.74,1.08,1.91,1.08,1.74,0,3.15-.59,3.15-2Z"/><path class="cls-1" d="M735.17,346.81h-2.9v-6.63a2,2,0,0,0-2.11-2.24,2.15,2.15,0,0,0-2.2,2.24v6.63H725v-6.63a2,2,0,0,0-2.11-2.24,2.14,2.14,0,0,0-2.18,2.24v6.63h-2.93V335.47h2.8v1.1a3.68,3.68,0,0,1,2.92-1.38,4.19,4.19,0,0,1,3.39,1.6,4.35,4.35,0,0,1,3.46-1.6c3,0,4.79,2,4.79,5Z"/><path class="cls-1" d="M756.53,336.16h-2.9c0-1.32-1.1-2.31-3-2.31-1.54,0-3,.59-3,1.76s1,1.43,3.37,1.91c3.63.73,5.92,1.63,5.92,4.75,0,3-2.47,4.8-6.32,4.8-3,0-6.25-1.65-6.25-5.32h2.91c0,1.8,1.8,2.66,3.34,2.66s3.41-.6,3.41-2.05c0-1-.79-1.56-3.61-2.11s-5.67-1.39-5.67-4.67c0-2.61,2.31-4.44,5.87-4.44C754.71,331.14,756.53,333.74,756.53,336.16Z"/><path class="cls-1" d="M765.64,347.05a4.75,4.75,0,0,1-3.32-1.34v6.14h-2.93V335.47h2.8v1.19a4.79,4.79,0,0,1,3.45-1.45,5.95,5.95,0,0,1,0,11.84Zm-.42-9.13a3.23,3.23,0,1,0,2.91,3.19A3,3,0,0,0,765.22,337.92Z"/><path class="cls-1" d="M779.65,338.07a3.14,3.14,0,0,0-2.79.7,3.43,3.43,0,0,0-.73,2.47v5.57h-2.9V335.47H776v1.13a3.79,3.79,0,0,1,3.65-1.35Z"/><path class="cls-1" d="M784.43,334.24h-2.91v-2.7h2.91Zm0,12.57h-2.91V335.47h2.91Z"/><path class="cls-1" d="M797.47,346.81h-2.9v-6.63a2,2,0,0,0-2.11-2.24,2.15,2.15,0,0,0-2.2,2.24v6.63h-2.91V335.47h2.78v1.1a3.74,3.74,0,0,1,2.92-1.38c2.66,0,4.42,2,4.42,5Z"/><path class="cls-1" d="M805.57,346.78c-3.32.36-5.08-1.65-5.08-4.75v-4h-1.37v-2.58h1.37v-2.88h2.9v2.88h2.05v2.58h-2.05v4c0,1.59.73,2.18,2.18,2.09Z"/><path class="cls-1" d="M837.18,167.85v2.71H826.59v-1.3c0-3.43,2.27-5.08,4.6-6.34,2.84-1.52,3.12-2.22,3.12-3.12s-.63-1.9-2.17-1.9a2.45,2.45,0,0,0-2.42,2.73h-2.93a5.15,5.15,0,0,1,5.32-5.41c3.53,0,5.11,2.38,5.11,4.6,0,2.88-2,4-4.58,5.43-1.54.84-2.73,1.68-2.81,2.6Z"/><path class="cls-1" d="M848.37,167.45v3.11h-2.7v-3.11H839v-2.57l6-9.59h3.39v9.59H850v2.57Zm-2.7-8.62-3.79,6h3.79Z"/><path class="cls-1" d="M866.79,170.56h-2.91v-6.63a2,2,0,0,0-2.11-2.15,2.08,2.08,0,0,0-2.2,2.15v6.63h-2.93V154.19h2.93v5.63a4.27,4.27,0,0,1,2.6-.88c2.77,0,4.62,2,4.62,5Z"/><path class="cls-1" d="M929.93,232.81h-5.66V217.54h5.66c4.24,0,6.88,2.92,6.88,7.63S934.11,232.81,929.93,232.81Zm0-12.57h-2.75v9.86h2.75c3.45,0,4-3.1,4-4.95C933.91,222.9,933.21,220.24,929.93,220.24Z"/><path class="cls-1" d="M946.52,231.75A4.61,4.61,0,0,1,943,233c-2.4,0-4.6-1.21-4.6-3.68s2.14-3.21,4.64-3.43c1.9-.18,3.24-.4,3.24-1.32,0-.59-.77-1.08-2.07-1.08a2.48,2.48,0,0,0-2.49,1.43h-2.9c.29-2.16,2.35-3.76,5.32-3.76,4.6,0,5,3,5,3.87V231a7.07,7.07,0,0,0,.33,1.85H946.8A4,4,0,0,1,946.52,231.75Zm-.09-4.4a6.75,6.75,0,0,1-2.75.73c-1.43.15-2.31.46-2.31,1.29,0,.64.75,1.08,1.91,1.08,1.74,0,3.15-.59,3.15-2Z"/><path class="cls-1" d="M955.07,220.24h-2.9v-2.7h2.9Zm0,12.57h-2.9V221.47h2.9Z"/><path class="cls-1" d="M961,232.81h-2.91V216.44H961Z"/><path class="cls-1" d="M969.22,234.87c-1.1,2.95-2.84,3.35-5.22,3.19v-2.64c1.46.09,2.14-.26,2.62-1.56L967,233l-4.38-11.53h3.08l2.78,8.19,2.7-8.19h3.11Z"/><path class="cls-1" d="M994.39,222.16h-2.91c0-1.32-1.1-2.31-3-2.31-1.54,0-3,.59-3,1.76s1,1.43,3.37,1.91c3.63.73,5.92,1.63,5.92,4.75,0,2.95-2.46,4.8-6.32,4.8-3,0-6.24-1.65-6.24-5.32h2.9c0,1.8,1.8,2.66,3.34,2.66s3.42-.6,3.42-2c0-1-.8-1.56-3.61-2.11s-5.68-1.39-5.68-4.67c0-2.61,2.31-4.44,5.87-4.44C992.56,217.14,994.39,219.74,994.39,222.16Z"/><path class="cls-1" d="M1002.44,233.07a5.94,5.94,0,0,1,0-11.88,5.34,5.34,0,0,1,5.46,4.09h-3.11a2.7,2.7,0,0,0-2.35-1.43,3.14,3.14,0,0,0-2.91,3.32,3.1,3.1,0,0,0,2.91,3.26,2.65,2.65,0,0,0,2.37-1.45h3.11A5.33,5.33,0,0,1,1002.44,233.07Z"/><path class="cls-1" d="M1016.45,224.07a3.14,3.14,0,0,0-2.79.7,3.43,3.43,0,0,0-.73,2.47v5.57H1010V221.47h2.77v1.13a3.78,3.78,0,0,1,3.65-1.35Z"/><path class="cls-1" d="M1028.29,232.81h-2.77v-1a3.72,3.72,0,0,1-2.89,1.3c-2.68,0-4.46-2-4.46-5v-6.63h2.9v6.63a2,2,0,0,0,2.12,2.22,2.15,2.15,0,0,0,2.2-2.22v-6.63h2.9Z"/><path class="cls-1" d="M1048.51,232.81h-2.91v-6.63a2,2,0,0,0-2.11-2.24,2.15,2.15,0,0,0-2.2,2.24v6.63h-2.93v-6.63a2,2,0,0,0-2.11-2.24,2.15,2.15,0,0,0-2.18,2.24v6.63h-2.92V221.47h2.79v1.1a3.71,3.71,0,0,1,2.93-1.38,4.21,4.21,0,0,1,3.39,1.6,4.34,4.34,0,0,1,3.45-1.6c3,0,4.8,2,4.8,5Z"/><path class="cls-1" d="M1073.39,232.81h-2.86v-11.2l-3.1,11.2h-3.11l-3.1-11.2v11.2h-2.86V217.54h4.31l3.19,11.44,3.2-11.44h4.33Z"/><path class="cls-1" d="M1078.62,228.27a2.89,2.89,0,0,0,2.84,2.25,2.63,2.63,0,0,0,2.4-1.32h3.1a5.37,5.37,0,0,1-5.48,3.87,5.94,5.94,0,0,1,0-11.88c3.35,0,6.12,2.59,5.7,7.08Zm5.68-2.37a2.84,2.84,0,0,0-2.84-2.16,2.9,2.9,0,0,0-2.79,2.16Z"/><path class="cls-1" d="M1091.71,228.27a2.89,2.89,0,0,0,2.84,2.25,2.63,2.63,0,0,0,2.4-1.32h3.1a5.37,5.37,0,0,1-5.48,3.87,5.94,5.94,0,0,1,0-11.88c3.35,0,6.12,2.59,5.7,7.08Zm5.68-2.37a2.84,2.84,0,0,0-2.84-2.16,2.9,2.9,0,0,0-2.79,2.16Z"/><path class="cls-1" d="M1107.82,232.78c-3.32.36-5.09-1.65-5.09-4.75v-4h-1.36v-2.58h1.36v-2.88h2.91v2.88h2v2.58h-2v4c0,1.59.73,2.18,2.18,2.09Z"/><path class="cls-1" d="M1112.66,220.24h-2.91v-2.7h2.91Zm0,12.57h-2.91V221.47h2.91Z"/><path class="cls-1" d="M1125.7,232.81h-2.9v-6.63a2,2,0,0,0-2.11-2.24,2.15,2.15,0,0,0-2.2,2.24v6.63h-2.91V221.47h2.77v1.1a3.77,3.77,0,0,1,2.93-1.38c2.66,0,4.42,2,4.42,5Z"/><path class="cls-1" d="M1139.48,232.23c0,3.77-2.25,6.12-5.88,6.12-2.7,0-5.06-1.56-5.5-4h3.19a2.5,2.5,0,0,0,2.31,1.25c2.05,0,3-1.34,3-3.36v-.55a4.78,4.78,0,0,1-3.34,1.32,5.94,5.94,0,0,1,0-11.82,4.75,4.75,0,0,1,3.47,1.45v-1.21h2.78Zm-5.81-8.31a3.24,3.24,0,1,0,2.9,3.25A3.06,3.06,0,0,0,1133.67,223.92Z"/><path class="cls-1" d="M941.51,479.35h-3.58v5.46H935V469.54h6.43c3.19,0,5,1.93,5,4.92A4.7,4.7,0,0,1,941.51,479.35Zm-3.58-7.11v4.45h3.5a2.23,2.23,0,0,0,0-4.45Z"/><path class="cls-1" d="M955,476.07a3.13,3.13,0,0,0-2.79.7,3.43,3.43,0,0,0-.73,2.47v5.57h-2.91V473.47h2.78v1.13a3.78,3.78,0,0,1,3.65-1.35Z"/><path class="cls-1" d="M967.56,479.15a5.72,5.72,0,1,1-5.72-6A5.75,5.75,0,0,1,967.56,479.15Zm-2.92,0c0-1.95-1.26-3.32-2.8-3.32s-2.79,1.37-2.79,3.32a2.83,2.83,0,1,0,5.59,0Z"/><path class="cls-1" d="M980.74,484.81H978V483.6a4.76,4.76,0,0,1-3.48,1.45,5.94,5.94,0,0,1,0-11.82,4.8,4.8,0,0,1,3.35,1.32v-6.11h2.9Zm-5.81-8.89a3.24,3.24,0,1,0,2.91,3.25A3.09,3.09,0,0,0,974.93,475.92Z"/><path class="cls-1" d="M993.7,484.81h-2.77v-1a3.72,3.72,0,0,1-2.89,1.3c-2.68,0-4.46-2-4.46-5v-6.63h2.9v6.63a2,2,0,0,0,2.11,2.22,2.14,2.14,0,0,0,2.2-2.22v-6.63h2.91Z"/><path class="cls-1" d="M1001.75,485.07a5.94,5.94,0,0,1,0-11.88,5.34,5.34,0,0,1,5.46,4.09h-3.11a2.69,2.69,0,0,0-2.35-1.43,3.14,3.14,0,0,0-2.91,3.32,3.1,3.1,0,0,0,2.91,3.26,2.68,2.68,0,0,0,2.38-1.45h3.1A5.33,5.33,0,0,1,1001.75,485.07Z"/><path class="cls-1" d="M1014.64,484.78c-3.32.36-5.08-1.65-5.08-4.75v-4h-1.37v-2.58h1.37v-2.88h2.9v2.88h2v2.58h-2v4c0,1.59.73,2.18,2.18,2.09Z"/><path class="cls-1" d="M1026.56,484.81h-2.9V469.54h2.9Z"/><path class="cls-1" d="M1039.68,484.81h-2.91v-6.63a2,2,0,0,0-2.11-2.24,2.15,2.15,0,0,0-2.2,2.24v6.63h-2.9V473.47h2.77v1.1a3.76,3.76,0,0,1,2.93-1.38c2.66,0,4.42,2,4.42,5Z"/><path class="cls-1" d="M1047.66,485.07a5.94,5.94,0,0,1,0-11.88,5.34,5.34,0,0,1,5.46,4.09H1050a2.72,2.72,0,0,0-2.36-1.43,3.14,3.14,0,0,0-2.9,3.32,3.1,3.1,0,0,0,2.9,3.26A2.68,2.68,0,0,0,1050,481h3.1A5.33,5.33,0,0,1,1047.66,485.07Z"/><path class="cls-1" d="M1061.68,476.07a3.15,3.15,0,0,0-2.8.7,3.47,3.47,0,0,0-.72,2.47v5.57h-2.91V473.47H1058v1.13a3.8,3.8,0,0,1,3.66-1.35Z"/><path class="cls-1" d="M1065.77,480.27a2.88,2.88,0,0,0,2.84,2.25,2.65,2.65,0,0,0,2.4-1.32h3.1a5.38,5.38,0,0,1-5.48,3.87,5.94,5.94,0,0,1,0-11.88c3.34,0,6.12,2.59,5.7,7.08Zm5.67-2.37a2.84,2.84,0,0,0-2.83-2.16,2.91,2.91,0,0,0-2.8,2.16Z"/><path class="cls-1" d="M1093.93,484.81H1091v-6.63a2,2,0,0,0-2.12-2.24,2.15,2.15,0,0,0-2.2,2.24v6.63h-2.92v-6.63a2,2,0,0,0-2.12-2.24,2.14,2.14,0,0,0-2.17,2.24v6.63h-2.93V473.47h2.79v1.1a3.71,3.71,0,0,1,2.93-1.38,4.19,4.19,0,0,1,3.39,1.6,4.34,4.34,0,0,1,3.45-1.6c3,0,4.8,2,4.8,5Z"/><path class="cls-1" d="M1099,480.27a2.88,2.88,0,0,0,2.84,2.25,2.65,2.65,0,0,0,2.4-1.32h3.1a5.38,5.38,0,0,1-5.48,3.87,5.94,5.94,0,0,1,0-11.88c3.34,0,6.12,2.59,5.7,7.08Zm5.67-2.37a2.84,2.84,0,0,0-2.83-2.16,2.91,2.91,0,0,0-2.8,2.16Z"/><path class="cls-1" d="M1119.91,484.81H1117v-6.63a2,2,0,0,0-2.12-2.24,2.15,2.15,0,0,0-2.2,2.24v6.63h-2.9V473.47h2.77v1.1a3.77,3.77,0,0,1,2.93-1.38c2.66,0,4.42,2,4.42,5Z"/><path class="cls-1" d="M1128,484.78c-3.33.36-5.09-1.65-5.09-4.75v-4h-1.36v-2.58h1.36v-2.88h2.91v2.88h2v2.58h-2v4c0,1.59.72,2.18,2.18,2.09Z"/><path class="cls-1" d="M463,474.16h-2.9c0-1.32-1.1-2.31-2.95-2.31-1.54,0-3,.59-3,1.76s1,1.43,3.36,1.91c3.64.73,5.92,1.63,5.92,4.75,0,3-2.46,4.8-6.31,4.8-3,0-6.25-1.65-6.25-5.32h2.9c0,1.8,1.81,2.66,3.35,2.66s3.41-.6,3.41-2.05c0-1-.79-1.56-3.61-2.11s-5.68-1.39-5.68-4.67c0-2.61,2.31-4.44,5.88-4.44C461.21,469.14,463,471.74,463,474.16Z"/><path class="cls-1" d="M472.14,485.05a4.73,4.73,0,0,1-3.32-1.34v6.14h-2.93V473.47h2.79v1.19a4.79,4.79,0,0,1,3.46-1.45,5.95,5.95,0,0,1,0,11.84Zm-.42-9.13a3.23,3.23,0,1,0,2.9,3.19A3,3,0,0,0,471.72,475.92Z"/><path class="cls-1" d="M486.15,476.07a3.14,3.14,0,0,0-2.79.7,3.43,3.43,0,0,0-.73,2.47v5.57h-2.9V473.47h2.77v1.13a3.78,3.78,0,0,1,3.65-1.35Z"/><path class="cls-1" d="M490.93,472.24H488v-2.7h2.91Zm0,12.57H488V473.47h2.91Z"/><path class="cls-1" d="M504,484.81h-2.9v-6.63a2,2,0,0,0-2.11-2.24,2.15,2.15,0,0,0-2.2,2.24v6.63h-2.91V473.47h2.77v1.1a3.77,3.77,0,0,1,2.93-1.38c2.66,0,4.42,2,4.42,5Z"/><path class="cls-1" d="M512.07,484.78c-3.33.36-5.09-1.65-5.09-4.75v-4h-1.36v-2.58H507v-2.88h2.91v2.88h2.05v2.58h-2.05v4c0,1.59.73,2.18,2.18,2.09Z"/><path class="cls-1" d="M528.46,484.81H521V469.54h7c3.06,0,4.6,1.58,4.6,4.13a3.54,3.54,0,0,1-1.5,3,3.89,3.89,0,0,1,2.09,3.66C533.25,483.05,531.41,484.81,528.46,484.81Zm-4.53-12.63v3.36h4.13a1.69,1.69,0,0,0,1.78-1.69,1.61,1.61,0,0,0-1.78-1.67Zm4.07,6h-4.07v3.93h4.13c1.12,0,2.22-.44,2.22-1.93C530.28,478.93,529.47,478.21,528,478.21Z"/><path class="cls-1" d="M542.91,483.75a4.58,4.58,0,0,1-3.47,1.28c-2.4,0-4.6-1.21-4.6-3.68s2.13-3.21,4.64-3.43c1.89-.18,3.23-.4,3.23-1.32,0-.59-.77-1.08-2.06-1.08a2.46,2.46,0,0,0-2.49,1.43h-2.91c.29-2.16,2.36-3.76,5.33-3.76,4.6,0,4.95,3,4.95,3.87V483a7.07,7.07,0,0,0,.33,1.85H543.2A4,4,0,0,1,542.91,483.75Zm-.09-4.4a6.71,6.71,0,0,1-2.75.73c-1.43.15-2.31.46-2.31,1.29,0,.64.75,1.08,1.92,1.08,1.74,0,3.14-.59,3.14-2Z"/><path class="cls-1" d="M553.69,485.07a5.94,5.94,0,0,1,0-11.88,5.34,5.34,0,0,1,5.46,4.09h-3.1a2.72,2.72,0,0,0-2.36-1.43,3.13,3.13,0,0,0-2.9,3.32,3.1,3.1,0,0,0,2.9,3.26,2.68,2.68,0,0,0,2.38-1.45h3.1A5.33,5.33,0,0,1,553.69,485.07Z"/><path class="cls-1" d="M564.18,481.55v3.26h-2.9V468.44h2.9v9.15l3.72-4.12h4l-4.23,4.43,4.47,6.91h-3.7L565.64,480Z"/><path class="cls-1" d="M580,485.05a4.71,4.71,0,0,1-3.45-1.45v1.21h-2.79V468.44h2.92v6.11a4.75,4.75,0,0,1,3.32-1.32,5.93,5.93,0,0,1,0,11.82Zm-.41-9.13a3.24,3.24,0,0,0,0,6.44,3.24,3.24,0,0,0,0-6.44Z"/><path class="cls-1" d="M590.58,484.81h-2.9V468.44h2.9Z"/><path class="cls-1" d="M604.25,479.15a5.72,5.72,0,1,1-5.72-6A5.76,5.76,0,0,1,604.25,479.15Zm-2.93,0c0-1.95-1.25-3.32-2.79-3.32s-2.8,1.37-2.8,3.32a2.83,2.83,0,1,0,5.59,0Z"/><path class="cls-1" d="M617.43,484.23c0,3.77-2.25,6.12-5.88,6.12-2.71,0-5.06-1.56-5.5-4h3.19a2.5,2.5,0,0,0,2.31,1.25c2.05,0,3-1.34,3-3.36v-.55a4.78,4.78,0,0,1-3.34,1.32,5.94,5.94,0,0,1,0-11.82,4.75,4.75,0,0,1,3.47,1.45v-1.21h2.78Zm-5.81-8.31a3.24,3.24,0,1,0,2.9,3.25A3.06,3.06,0,0,0,611.62,475.92Z"/><path class="cls-1" d="M201.77,479.35h-3.59v5.46h-2.91V469.54h6.43c3.19,0,5,1.93,5,4.92A4.69,4.69,0,0,1,201.77,479.35Zm-3.59-7.11v4.45h3.5a2.23,2.23,0,0,0,0-4.45Z"/><path class="cls-1" d="M215.25,476.07a3.13,3.13,0,0,0-2.79.7,3.43,3.43,0,0,0-.73,2.47v5.57h-2.9V473.47h2.77v1.13a3.78,3.78,0,0,1,3.65-1.35Z"/><path class="cls-1" d="M227.81,479.15a5.72,5.72,0,1,1-5.72-6A5.75,5.75,0,0,1,227.81,479.15Zm-2.92,0c0-1.95-1.26-3.32-2.8-3.32s-2.79,1.37-2.79,3.32a2.83,2.83,0,1,0,5.59,0Z"/><path class="cls-1" d="M241,484.81h-2.77V483.6a4.76,4.76,0,0,1-3.48,1.45,5.94,5.94,0,0,1,0-11.82,4.8,4.8,0,0,1,3.35,1.32v-6.11H241Zm-5.81-8.89a3.24,3.24,0,1,0,2.91,3.25A3.09,3.09,0,0,0,235.18,475.92Z"/><path class="cls-1" d="M254,484.81h-2.77v-1a3.72,3.72,0,0,1-2.89,1.3c-2.68,0-4.46-2-4.46-5v-6.63h2.9v6.63a2,2,0,0,0,2.11,2.22,2.14,2.14,0,0,0,2.2-2.22v-6.63H254Z"/><path class="cls-1" d="M262,485.07a5.94,5.94,0,0,1,0-11.88,5.34,5.34,0,0,1,5.46,4.09h-3.11a2.69,2.69,0,0,0-2.35-1.43,3.13,3.13,0,0,0-2.9,3.32,3.1,3.1,0,0,0,2.9,3.26,2.68,2.68,0,0,0,2.38-1.45h3.1A5.33,5.33,0,0,1,262,485.07Z"/><path class="cls-1" d="M274.89,484.78c-3.32.36-5.08-1.65-5.08-4.75v-4h-1.37v-2.58h1.37v-2.88h2.9v2.88h2.05v2.58h-2.05v4c0,1.59.73,2.18,2.18,2.09Z"/><path class="cls-1" d="M291.28,484.81h-7.43V469.54h7c3.05,0,4.59,1.58,4.59,4.13a3.56,3.56,0,0,1-1.49,3,3.89,3.89,0,0,1,2.09,3.66C296.08,483.05,294.23,484.81,291.28,484.81Zm-4.53-12.63v3.36h4.14a1.69,1.69,0,0,0,1.78-1.69,1.61,1.61,0,0,0-1.78-1.67Zm4.07,6h-4.07v3.93h4.14c1.12,0,2.22-.44,2.22-1.93C293.11,478.93,292.29,478.21,290.82,478.21Z"/><path class="cls-1" d="M305.74,483.75a4.61,4.61,0,0,1-3.48,1.28c-2.4,0-4.6-1.21-4.6-3.68s2.14-3.21,4.64-3.43c1.9-.18,3.24-.4,3.24-1.32,0-.59-.77-1.08-2.07-1.08A2.48,2.48,0,0,0,301,477h-2.9c.28-2.16,2.35-3.76,5.32-3.76,4.6,0,5,3,5,3.87V483a7.07,7.07,0,0,0,.33,1.85H306A4,4,0,0,1,305.74,483.75Zm-.09-4.4a6.75,6.75,0,0,1-2.75.73c-1.43.15-2.31.46-2.31,1.29,0,.64.75,1.08,1.91,1.08,1.74,0,3.15-.59,3.15-2Z"/><path class="cls-1" d="M316.52,485.07a5.94,5.94,0,0,1,0-11.88,5.34,5.34,0,0,1,5.45,4.09h-3.1a2.72,2.72,0,0,0-2.35-1.43,3.14,3.14,0,0,0-2.91,3.32,3.1,3.1,0,0,0,2.91,3.26,2.67,2.67,0,0,0,2.37-1.45H322A5.32,5.32,0,0,1,316.52,485.07Z"/><path class="cls-1" d="M327,481.55v3.26H324.1V468.44H327v9.15l3.72-4.12h4l-4.22,4.43,4.46,6.91h-3.69L328.46,480Z"/><path class="cls-1" d="M342.85,485.05a4.71,4.71,0,0,1-3.46-1.45v1.21H336.6V468.44h2.93v6.11a4.71,4.71,0,0,1,3.32-1.32,5.94,5.94,0,0,1,0,11.82Zm-.42-9.13a3.24,3.24,0,0,0,0,6.44,3.24,3.24,0,0,0,0-6.44Z"/><path class="cls-1" d="M353.41,484.81H350.5V468.44h2.91Z"/><path class="cls-1" d="M367.07,479.15a5.72,5.72,0,1,1-5.72-6A5.75,5.75,0,0,1,367.07,479.15Zm-2.92,0c0-1.95-1.26-3.32-2.8-3.32s-2.79,1.37-2.79,3.32a2.83,2.83,0,1,0,5.59,0Z"/><path class="cls-1" d="M380.25,484.23c0,3.77-2.24,6.12-5.88,6.12-2.7,0-5.06-1.56-5.5-4h3.19a2.51,2.51,0,0,0,2.31,1.25c2.05,0,3-1.34,3-3.36v-.55a4.8,4.8,0,0,1-3.35,1.32,5.94,5.94,0,0,1,0-11.82,4.78,4.78,0,0,1,3.48,1.45v-1.21h2.77Zm-5.81-8.31a3.05,3.05,0,0,0-2.9,3.25,3,3,0,0,0,2.9,3.19,3.24,3.24,0,0,0,0-6.44Z"/><path class="cls-1" d="M351.53,298.16h-2.9c0-1.32-1.1-2.31-2.95-2.31-1.54,0-3,.59-3,1.76s1,1.43,3.36,1.91c3.64.73,5.92,1.63,5.92,4.75,0,3-2.46,4.8-6.31,4.8-3,0-6.25-1.65-6.25-5.32h2.9c0,1.8,1.81,2.66,3.35,2.66s3.41-.6,3.41-2.05c0-1-.79-1.56-3.61-2.11s-5.68-1.39-5.68-4.67c0-2.61,2.31-4.44,5.88-4.44C349.71,293.14,351.53,295.74,351.53,298.16Z"/><path class="cls-1" d="M360.64,309.05a4.73,4.73,0,0,1-3.32-1.34v6.14h-2.93V297.47h2.79v1.19a4.79,4.79,0,0,1,3.46-1.45,5.95,5.95,0,0,1,0,11.84Zm-.42-9.13a3.23,3.23,0,1,0,2.91,3.19A3,3,0,0,0,360.22,299.92Z"/><path class="cls-1" d="M374.65,300.07a3.14,3.14,0,0,0-2.79.7,3.43,3.43,0,0,0-.73,2.47v5.57h-2.9V297.47H371v1.13a3.78,3.78,0,0,1,3.65-1.35Z"/><path class="cls-1" d="M379.43,296.24h-2.91v-2.7h2.91Zm0,12.57h-2.91V297.47h2.91Z"/><path class="cls-1" d="M392.47,308.81h-2.9v-6.63a2,2,0,0,0-2.11-2.24,2.15,2.15,0,0,0-2.2,2.24v6.63h-2.91V297.47h2.77v1.1a3.77,3.77,0,0,1,2.93-1.38c2.66,0,4.42,2,4.42,5Z"/><path class="cls-1" d="M400.57,308.78c-3.32.36-5.09-1.65-5.09-4.75v-4h-1.36v-2.58h1.36v-2.88h2.91v2.88h2.05v2.58h-2.05v4c0,1.59.73,2.18,2.18,2.09Z"/><path class="cls-1" d="M416,303.35h-3.58v5.46h-2.91V293.54H416c3.19,0,5,1.93,5,4.92A4.69,4.69,0,0,1,416,303.35Zm-3.58-7.11v4.45h3.49a2.23,2.23,0,0,0,0-4.45Z"/><path class="cls-1" d="M426,308.81h-2.9V292.44H426Z"/><path class="cls-1" d="M436.38,307.75a4.57,4.57,0,0,1-3.47,1.28c-2.4,0-4.6-1.21-4.6-3.68s2.13-3.21,4.64-3.43c1.89-.18,3.24-.4,3.24-1.32,0-.59-.77-1.08-2.07-1.08a2.47,2.47,0,0,0-2.49,1.43h-2.9c.28-2.16,2.35-3.76,5.32-3.76,4.6,0,4.95,3,4.95,3.87V307a7.07,7.07,0,0,0,.33,1.85h-2.66A4.36,4.36,0,0,1,436.38,307.75Zm-.08-4.4a6.8,6.8,0,0,1-2.75.73c-1.43.15-2.32.46-2.32,1.29,0,.64.75,1.08,1.92,1.08,1.74,0,3.15-.59,3.15-2Z"/><path class="cls-1" d="M452.09,308.81h-2.9v-6.63a2,2,0,0,0-2.12-2.24,2.15,2.15,0,0,0-2.2,2.24v6.63H442V297.47h2.77v1.1a3.77,3.77,0,0,1,2.93-1.38c2.66,0,4.42,2,4.42,5Z"/><path class="cls-1" d="M465,308.81H462.1v-6.63a2,2,0,0,0-2.11-2.24,2.15,2.15,0,0,0-2.2,2.24v6.63h-2.91V297.47h2.78v1.1a3.74,3.74,0,0,1,2.92-1.38c2.67,0,4.43,2,4.43,5Z"/><path class="cls-1" d="M470.77,296.24h-2.91v-2.7h2.91Zm0,12.57h-2.91V297.47h2.91Z"/><path class="cls-1" d="M483.81,308.81h-2.9v-6.63a2,2,0,0,0-2.11-2.24,2.15,2.15,0,0,0-2.2,2.24v6.63h-2.91V297.47h2.78v1.1a3.74,3.74,0,0,1,2.92-1.38c2.67,0,4.42,2,4.42,5Z"/><path class="cls-1" d="M497.59,308.23c0,3.77-2.25,6.12-5.88,6.12-2.7,0-5.06-1.56-5.5-4h3.19a2.51,2.51,0,0,0,2.31,1.25c2.05,0,3-1.34,3-3.36v-.55a4.78,4.78,0,0,1-3.34,1.32,5.94,5.94,0,0,1,0-11.82,4.74,4.74,0,0,1,3.47,1.45v-1.21h2.78Zm-5.81-8.31a3.24,3.24,0,1,0,2.9,3.25A3.06,3.06,0,0,0,491.78,299.92Z"/><path class="cls-4" d="M739.61,169.28A128.72,128.72,0,0,0,610.91,295l-4.14-4.69-1.12,1,6,6.75,6.3-6.44-1.07-1-4.43,4.54a127.24,127.24,0,1,1,127.2,130.2h-165v1.5h165a128.75,128.75,0,1,0,0-257.5Z"/></g></svg>