<svg xmlns="http://www.w3.org/2000/svg" viewBox="0 0 505.51 473.89"><defs><style>.cls-1{fill:#191919;}.cls-2{fill:#002dff;opacity:0.4;}.cls-3{fill:#fff;}</style></defs><g id="Hintergrund"><rect class="cls-1" x="-13.41" y="-16.66" width="535.82" height="507.56"/></g><g id="Illustration"><circle class="cls-2" cx="252.76" cy="144" r="134"/><circle class="cls-2" cx="144" cy="329.89" r="134"/><circle class="cls-2" cx="361.52" cy="329.89" r="134"/><path class="cls-3" d="M386,293.55l-1.59-2.11.87-.66a4.76,4.76,0,0,0,.89-6.74l-11.09-14.29a3.61,3.61,0,0,0-6.22.91l-4.09,10.52a2,2,0,0,1-3.44.5l-1.75-2.26a4.85,4.85,0,0,0-3.87-1.85,4.75,4.75,0,0,0-3.8,2L325.16,317a4.77,4.77,0,0,0,3.38,7.52l8.6-.06a11,11,0,0,0,7.35-2.83l.78-.6,1.57,2.09a1.06,1.06,0,0,0,.69.41h.16a1.06,1.06,0,0,0,.63-.21h0L350,322.1a1.05,1.05,0,0,0,.21-1.48l-1.57-2.09,5.25-4,1.59,2.1a1,1,0,0,0,.69.41h.16a1.06,1.06,0,0,0,.63-.21h0l1.65-1.24a1.06,1.06,0,0,0,.21-1.48L357.2,312l15.29-11.57,1.56,2.08a1.06,1.06,0,0,0,1.48.21h0l1.66-1.24a1.06,1.06,0,0,0,.21-1.48l-1.57-2.09,5.25-4,1.58,2.11a1.08,1.08,0,0,0,.85.42,1.06,1.06,0,0,0,.63-.21h0L385.8,295A1.07,1.07,0,0,0,386,293.55Zm-38.27,28.56-1.4-1.86,1.21-.91,1.4,1.86Zm8.61-6.47-1.4-1.86,1.21-.91,1.4,1.86Zm29.47-28.22a3.42,3.42,0,0,1-1.33,2.3l-7.72,5.84a18.24,18.24,0,0,1-1.9-5.64,23.87,23.87,0,0,1,2.6-14.94l7.66,9.88A3.37,3.37,0,0,1,385.82,287.42ZM353,280.35a3.4,3.4,0,0,1,2.74-1.44h.07a3.42,3.42,0,0,1,2.72,1.33l1.76,2.26a3.32,3.32,0,0,0,5.73-.83l4.09-10.53a2.25,2.25,0,0,1,1.8-1.43,2.23,2.23,0,0,1,2.13.86l2.53,3.25c-6.23,11.72-2.11,20.42-.88,22.56l-1.59,1.2-1.57,1.18-25-10.71Zm13.56,22.93-22.93-9.82,3.08-4.3,24.6,10.53Zm-5.92,4.48-20.76-9.05,3-4.14,22.5,9.63Zm-17,12.83a9.72,9.72,0,0,1-6.57,2.56l-8.49.07a3.45,3.45,0,0,1-2.38-5.43l12.85-18,20.33,8.86Zm32.48-20-1.21.91-1.39-1.86,1.2-.91Zm7.4-5.57-1.4-1.86,1.21-.91,1.4,1.86Z"/><path class="cls-3" d="M389.86,280.09H403.5a.67.67,0,0,0,.67-.67.66.66,0,0,0-.67-.66H389.86a.66.66,0,0,0-.67.66A.67.67,0,0,0,389.86,280.09Z"/><path class="cls-3" d="M400.12,301H386.47a.65.65,0,0,0-.66.66.66.66,0,0,0,.66.67h13.65a.67.67,0,0,0,.67-.67A.66.66,0,0,0,400.12,301Z"/><path class="cls-3" d="M410.33,291.59H396.68a.67.67,0,0,0,0,1.34h13.65a.67.67,0,0,0,0-1.34Z"/><path class="cls-3" d="M162.42,269.71a4.5,4.5,0,0,0-4.27.19L136.1,281.07H114.55a3.79,3.79,0,0,0-3.78,3.79v.56h-4.22a3.79,3.79,0,0,0-3.79,3.79v8a3.79,3.79,0,0,0,3.79,3.79h4.22v.33a3.78,3.78,0,0,0,3.78,3.78h1.12v15.41a3.15,3.15,0,0,0,3.15,3.15h2.55a3.15,3.15,0,0,0,3.14-3.15v-4.22a1.81,1.81,0,0,1,1.81-1.81,3.15,3.15,0,0,0,3.15-3.14v-6.24h6.63l22,11.17a5.65,5.65,0,0,0,2.52.65,3.41,3.41,0,0,0,1.76-.45,2.69,2.69,0,0,0,1.23-2.4V272.11A2.68,2.68,0,0,0,162.42,269.71Zm-26.82,34h-2.14V282.41h2.14Zm-31.5-12.44h6.67v3.77H104.1Zm2.45-4.55h4.22V290H104.1v-.77A2.45,2.45,0,0,1,106.55,286.76Zm0,12.88a2.46,2.46,0,0,1-2.45-2.46v-.77h6.67v3.23Zm21.58,11.68a1.81,1.81,0,0,1-1.81,1.81,3.15,3.15,0,0,0-3.14,3.14v4.22a1.82,1.82,0,0,1-1.81,1.81h-2.55a1.82,1.82,0,0,1-1.82-1.81V305.08h11.13Zm-12.46-7.57h-1.12a2.45,2.45,0,0,1-2.45-2.45V284.86a2.45,2.45,0,0,1,2.45-2.45h17.57v21.34H115.67Zm46.65,10.3a1.35,1.35,0,0,1-.6,1.26,3.27,3.27,0,0,1-3-.24L136.94,304V282.14l21.81-11.05a3.31,3.31,0,0,1,3-.25,1.37,1.37,0,0,1,.6,1.27Z"/><path class="cls-3" d="M181.56,306.71l-10-4.62a.66.66,0,0,0-.88.32.67.67,0,0,0,.32.89l10,4.62a.71.71,0,0,0,.28.06.66.66,0,0,0,.28-1.27Z"/><path class="cls-3" d="M171.29,284.15a.71.71,0,0,0,.28-.06l10-4.62a.67.67,0,1,0-.56-1.21l-10,4.62a.66.66,0,0,0-.32.88A.65.65,0,0,0,171.29,284.15Z"/><path class="cls-3" d="M188.6,292.49l-12.34-.14a.67.67,0,0,0-.67.66.66.66,0,0,0,.66.67l12.33.15h0a.67.67,0,0,0,0-1.34Z"/><path class="cls-3" d="M239.37,124a.73.73,0,0,0,.51.2.76.76,0,0,0,.56-.24.75.75,0,0,0-.05-1.06l-8.07-7.48,8.06-7.07a.75.75,0,1,0-1-1.13l-8.69,7.62a.73.73,0,0,0-.25.56.72.72,0,0,0,.24.56Z"/><path class="cls-3" d="M265.08,124a.75.75,0,0,0,.55.24.72.72,0,0,0,.51-.2l8.69-8a.76.76,0,0,0,.24-.56.74.74,0,0,0-.26-.56l-8.68-7.62a.76.76,0,0,0-1.06.07.75.75,0,0,0,.07,1.06l8.06,7.07-8.08,7.48A.76.76,0,0,0,265.08,124Z"/><path class="cls-3" d="M248.85,129.25a.64.64,0,0,0,.2,0,.74.74,0,0,0,.72-.54l7.41-25.83a.75.75,0,0,0-.51-.93.76.76,0,0,0-.93.52l-7.41,25.83A.75.75,0,0,0,248.85,129.25Z"/><path class="cls-3" d="M224.29,88.07a1,1,0,1,0,1,1A1,1,0,0,0,224.29,88.07Z"/><circle class="cls-3" cx="228.35" cy="89.06" r="0.99"/><circle class="cls-3" cx="232.41" cy="89.06" r="0.99"/><path class="cls-3" d="M282.11,83.38h-58.7a6,6,0,0,0-6,6V134a6,6,0,0,0,6,6h58.7a6,6,0,0,0,6-6V89.35A6,6,0,0,0,282.11,83.38ZM286.57,134a4.47,4.47,0,0,1-4.46,4.47h-58.7a4.47,4.47,0,0,1-4.47-4.47V94.49h67.63Zm0-41H218.94V89.35a4.47,4.47,0,0,1,4.47-4.47h58.7a4.47,4.47,0,0,1,4.46,4.47Z"/><path class="cls-3" d="M248.68,187.8h-2.9V172.53h2.9Z"/><path class="cls-3" d="M257.48,175.23V187.8h-2.9V175.23h-4.1v-2.7h11.09v2.7Z"/><path class="cls-3" d="M104.83,371.88H102v-11.2l-3.1,11.2h-3.1l-3.11-11.2v11.2H89.8V356.61h4.31l3.2,11.45,3.19-11.45h4.33Z"/><path class="cls-3" d="M115,370.83a4.56,4.56,0,0,1-3.47,1.27c-2.4,0-4.6-1.21-4.6-3.67s2.13-3.21,4.64-3.43c1.89-.18,3.24-.4,3.24-1.32,0-.6-.77-1.08-2.07-1.08a2.46,2.46,0,0,0-2.49,1.43h-2.9c.28-2.16,2.35-3.76,5.32-3.76,4.6,0,5,3,5,3.87V370a7,7,0,0,0,.33,1.85h-2.66A4.15,4.15,0,0,1,115,370.83Zm-.08-4.4a6.82,6.82,0,0,1-2.76.72c-1.43.16-2.31.46-2.31,1.3,0,.64.75,1.08,1.92,1.08,1.74,0,3.15-.59,3.15-2Z"/><path class="cls-3" d="M126.78,363.15a3.14,3.14,0,0,0-2.79.7,3.42,3.42,0,0,0-.73,2.47v5.56h-2.9V360.55h2.77v1.12a3.8,3.8,0,0,1,3.65-1.34Z"/><path class="cls-3" d="M131.38,368.63v3.25h-2.9V355.51h2.9v9.16l3.72-4.12h4L134.88,365l4.47,6.91h-3.7l-2.82-4.77Z"/><path class="cls-3" d="M142.38,367.35a2.89,2.89,0,0,0,2.84,2.25,2.64,2.64,0,0,0,2.4-1.32h3.1a5.37,5.37,0,0,1-5.48,3.87,5.94,5.94,0,0,1,0-11.88c3.35,0,6.12,2.59,5.7,7.08Zm5.68-2.38a2.83,2.83,0,0,0-2.84-2.15,2.88,2.88,0,0,0-2.79,2.15Z"/><path class="cls-3" d="M158.38,371.86c-3.33.35-5.09-1.65-5.09-4.75v-4h-1.36v-2.58h1.36v-2.88h2.91v2.88h2v2.58h-2v4c0,1.59.72,2.18,2.18,2.09Z"/><path class="cls-3" d="M163,359.32h-2.91v-2.71H163Zm0,12.56h-2.91V360.55H163Z"/><path class="cls-3" d="M175.82,371.88h-2.9v-6.62a2,2,0,0,0-2.11-2.24,2.14,2.14,0,0,0-2.2,2.24v6.62H165.7V360.55h2.77v1.1a3.74,3.74,0,0,1,2.93-1.38c2.66,0,4.42,2,4.42,5Z"/><path class="cls-3" d="M189.37,371.31c0,3.76-2.24,6.12-5.87,6.12-2.71,0-5.06-1.56-5.5-4h3.19a2.5,2.5,0,0,0,2.31,1.25c2.05,0,3-1.34,3-3.36v-.55a4.78,4.78,0,0,1-3.34,1.32,5.93,5.93,0,0,1,0-11.82,4.75,4.75,0,0,1,3.47,1.45v-1.21h2.77Zm-5.8-8.32a3.07,3.07,0,0,0-2.91,3.26,2.92,2.92,0,1,0,5.81,0A3.1,3.1,0,0,0,183.57,363Z"/><path class="cls-3" d="M342.8,361.23h-2.9c0-1.32-1.1-2.31-2.95-2.31-1.54,0-3,.6-3,1.76s1,1.43,3.36,1.92c3.63.72,5.92,1.63,5.92,4.75,0,2.95-2.46,4.8-6.31,4.8-3,0-6.25-1.65-6.25-5.33h2.9c0,1.81,1.81,2.67,3.35,2.67s3.41-.6,3.41-2.05c0-1-.79-1.56-3.61-2.11s-5.68-1.39-5.68-4.67c0-2.62,2.31-4.44,5.88-4.44C341,356.22,342.8,358.81,342.8,361.23Z"/><path class="cls-3" d="M351.47,372.13a4.74,4.74,0,0,1-3.33-1.35v6.14h-2.92V360.55H348v1.19a4.79,4.79,0,0,1,3.46-1.45,5.61,5.61,0,0,1,5.39,5.89C356.86,369.55,354.44,372.13,351.47,372.13Zm-.42-9.14a3.23,3.23,0,1,0,2.9,3.19A3,3,0,0,0,351.05,363Z"/><path class="cls-3" d="M369.6,366.23a5.72,5.72,0,1,1-5.72-6A5.76,5.76,0,0,1,369.6,366.23Zm-2.93,0c0-2-1.25-3.32-2.79-3.32s-2.8,1.36-2.8,3.32a2.83,2.83,0,1,0,5.59,0Z"/><path class="cls-3" d="M378,363.15a3.13,3.13,0,0,0-2.79.7,3.42,3.42,0,0,0-.73,2.47v5.56h-2.91V360.55h2.78v1.12a3.79,3.79,0,0,1,3.65-1.34Z"/><path class="cls-3" d="M385.43,371.86c-3.32.35-5.08-1.65-5.08-4.75v-4H379v-2.58h1.36v-2.88h2.91v2.88h2v2.58h-2v4c0,1.59.72,2.18,2.17,2.09Z"/><path class="cls-3" d="M391.9,372.15c-2.88,0-5-1.52-5.37-4h3a2.58,2.58,0,0,0,2.42,1.32c1.17,0,2.05-.36,2.05-1s-.4-.9-2.38-1.21-4.73-.85-4.73-3.38c0-1.79,1.56-3.63,4.84-3.63,2.6,0,4.53,1.4,4.91,3.54h-3c-.18-.53-.82-.95-1.9-.95-1.34,0-1.89.49-1.89.9,0,.6.84.8,2.24,1,2.82.46,4.85,1.07,4.85,3.54C396.88,370.56,394.81,372.15,391.9,372.15Z"/></g></svg>