<svg xmlns="http://www.w3.org/2000/svg" viewBox="0 0 1200 400"><defs><style>.cls-1{fill:#fff;}.cls-2{fill:#fc3;}.cls-3{fill:#002dff;}</style></defs><g id="Illustration"><polygon class="cls-1" points="652.3 99.67 604 126.09 554.94 99.67 554.94 158.54 564 163.07 564 114.77 604 135.9 643.24 114.77 643.24 163.82 652.3 158.54 652.3 99.67"/><polygon class="cls-1" points="604 177.41 604 177.41 576.83 163.07 576.83 167.6 604 182.69 630.41 167.6 630.41 163.07 604 177.41"/><polygon class="cls-1" points="638.71 94.39 604 75.52 568.52 94.39 568.52 94.39 576.83 98.92 599.47 86.84 599.47 111.75 603.24 114.01 608.52 111.75 608.52 86.84 630.41 98.16 638.71 94.39"/><path class="cls-1" d="M450,144.66a12.55,12.55,0,0,1-6.82,1.7c-4.71,0-8.38-3-8.38-6.75,0-2.55,1.24-5.11,5.24-7.47Zm-10.09-27.32a3.32,3.32,0,0,1,3.34-3.54,3.08,3.08,0,0,1,3.28,3.21c0,2.16-1.38,3.87-4.13,5.5L442,122a7.16,7.16,0,0,1-2-4.65m17,35.9h10l-6.42-8.06c2.36-3.93,3.4-9.3,3.14-14.87h-7.73a24,24,0,0,1-.78,8.12L447,128.21c4.13-2.42,7.4-6,7.4-10.67a10.65,10.65,0,0,0-11-10.94c-6.62,0-11.34,4.78-11.34,11a13.5,13.5,0,0,0,3.15,8.39l.39.45c-4.39,2.56-8.84,6.88-8.84,13.17,0,8.32,7.33,14.41,16.5,14.41,4.92,0,8.65-1.11,11.73-3.21Z"/><path class="cls-1" d="M741.3,141h28v-7.93h-28Zm0-14.55h28v-8h-28Z"/><path class="cls-2" d="M242,114.13V108.2H229.53v45h13.11V135.08c0-4.07.5-8.24,3.28-11.12,3-3.18,7.34-3.78,12.61-3.18V108.07A17.12,17.12,0,0,0,242,114.13"/><path class="cls-2" d="M276,114.13V108.2H263.52v45h13.11V135.08c0-4.07.5-8.24,3.28-11.12,3-3.18,7.34-3.78,12.61-3.18V108.07A17.12,17.12,0,0,0,276,114.13"/><path class="cls-2" d="M168.69,79.48a10.9,10.9,0,1,0,10.9,10.9,10.9,10.9,0,0,0-10.9-10.9"/><path class="cls-2" d="M342.92,146.13l-.13-37.71H329.45l.19,23.06a9.68,9.68,0,0,1-9.93,10c-8.54,0-9.53-7.15-9.53-10L310,108.42H296.88l.19,23.06c0,13.41,8.05,22.44,20.16,22.44a16.74,16.74,0,0,0,12.59-5.4l.06,12.78c0,4.67-2.88,9.33-9.43,9.33s-9.33-4.66-9.33-9.33v-.89H298v.49c0,12.81,8.74,22.54,22.44,22.54S343,173.71,343,160.9Z"/><path class="cls-2" d="M211.43,125.23H192c.12-.25.24-.49.37-.73a9.87,9.87,0,0,1,9.35-6.68,9.75,9.75,0,0,1,9.58,6.85c.1.18.19.37.28.56h-.11m-9.68-18.63c-12.67,0-23,10.56-23,23.55s10.31,23.56,23,23.56a23.07,23.07,0,0,0,21.86-16.32H210.13a9.28,9.28,0,0,1-8.44,4.64,10.06,10.06,0,0,1-9.63-6.76l-.09-.19h0c-.11-.31-.22-.63-.3-1h32.7a23.87,23.87,0,0,0,.34-4c0-13-10.31-23.55-23-23.55"/><path class="cls-2" d="M162,161.08c0,4.65-2.86,9.29-9.34,9.33h-3v12.82h3.27c13.5-.16,22.19-9.83,22.19-22.53V108.2H162Z"/><rect class="cls-3" x="908.96" y="172.33" width="3.01" height="10.75"/><path class="cls-3" d="M895.62,180.55a3.14,3.14,0,0,1-3-3.31,3,3,0,1,1,3,3.31m3-8.1a4.92,4.92,0,0,0-3.47-1.37,6.15,6.15,0,0,0,0,12.25,5,5,0,0,0,3.61-1.5v1.25h2.87v-17h-3Z"/><rect class="cls-3" x="977.92" y="166.1" width="3.01" height="16.98"/><path class="cls-3" d="M967.81,178.52c0,1.5-1.46,2.12-3.27,2.12-1.21,0-2-.46-2-1.12,0-.87.91-1.18,2.4-1.35a6.85,6.85,0,0,0,2.85-.75Zm2.81-3.47c0-.94-.37-4-5.14-4-3.08,0-5.23,1.67-5.52,3.9h3c.27-1,1.51-1.48,2.58-1.48,1.35,0,2.14.5,2.14,1.12,0,1-1.39,1.19-3.35,1.37-2.6.23-4.82.91-4.82,3.56s2.29,3.81,4.77,3.81A4.76,4.76,0,0,0,967.9,182a4.07,4.07,0,0,0,.3,1.09H971a7.05,7.05,0,0,1-.34-1.91Z"/><rect class="cls-3" x="937.86" y="172.33" width="3.01" height="10.75"/><path class="cls-3" d="M924.63,180.55a3.14,3.14,0,0,1-3-3.31,3,3,0,1,1,3,3.31m3.15-8a4.92,4.92,0,0,0-3.61-1.5,6.15,6.15,0,0,0,0,12.25,4.92,4.92,0,0,0,3.47-1.37v.57c0,2.1-1,3.5-3.08,3.5a2.61,2.61,0,0,1-2.4-1.31h-3.3c.45,2.49,2.89,4.11,5.7,4.11,3.77,0,6.1-2.44,6.1-6.34V171.33h-2.88Z"/><path class="cls-3" d="M951.54,178.15V174h2.12v-2.67h-2.12v-3h-3v3h-1.42V174h1.42v4.13c0,3.22,1.82,5.29,5.27,4.93v-2.74c-1.51.09-2.26-.52-2.26-2.17"/><path class="cls-3" d="M910.43,166a2.34,2.34,0,0,0,0,4.67,2.28,2.28,0,0,0,1.52-.58h0a2.33,2.33,0,0,0-1.54-4.08"/><path class="cls-3" d="M939.36,166a2.34,2.34,0,1,0,2.33,2.34,2.34,2.34,0,0,0-2.33-2.34"/><path class="cls-3" d="M940.8,114.13V108.2H928.29v45H941.4V135.08c0-4.07.49-8.24,3.28-11.12,3-3.18,7.34-3.78,12.6-3.18V108.07a17.11,17.11,0,0,0-16.48,6.06"/><path class="cls-3" d="M974.79,114.13V108.2H962.28v45h13.11V135.08c0-4.07.49-8.24,3.27-11.12,3-3.18,7.35-3.78,12.61-3.18V108.07a17.11,17.11,0,0,0-16.48,6.06"/><path class="cls-3" d="M867.45,79.48a10.9,10.9,0,1,0,10.9,10.9,10.9,10.9,0,0,0-10.9-10.9"/><path class="cls-3" d="M1041.68,146.13l-.13-37.71H1028.2l.2,23.06a9.68,9.68,0,0,1-9.93,10c-8.54,0-9.53-7.15-9.53-10l-.2-23.06h-13.1l.19,23.06c0,13.41,8,22.44,20.16,22.44a16.76,16.76,0,0,0,12.59-5.4l.06,12.78c0,4.67-2.88,9.33-9.43,9.33s-9.33-4.66-9.33-9.33v-.89H996.77v.49c0,12.81,8.74,22.54,22.44,22.54s22.54-9.73,22.54-22.54Z"/><path class="cls-3" d="M910.19,125.23H890.72c.11-.25.24-.49.37-.73a9.87,9.87,0,0,1,9.34-6.68,9.75,9.75,0,0,1,9.59,6.85c.09.18.19.37.28.56h-.11m-9.68-18.63c-12.67,0-23,10.56-23,23.55s10.31,23.56,23,23.56a23.07,23.07,0,0,0,21.86-16.32H908.89a9.29,9.29,0,0,1-8.45,4.64,10,10,0,0,1-9.62-6.76l-.09-.19h0c-.11-.31-.22-.63-.31-1h32.71a23.87,23.87,0,0,0,.34-4c0-13-10.31-23.55-23-23.55"/><path class="cls-3" d="M860.76,161.08c0,4.65-2.86,9.29-9.34,9.33h-3v12.82h3.26c13.51-.16,22.2-9.83,22.2-22.53V108.2h-13.1Z"/><path class="cls-1" d="M156.52,288.2c-3.38,0-5.89-1.78-6.3-4.65h3.46a3,3,0,0,0,2.84,1.55c1.37,0,2.41-.41,2.41-1.19s-.47-1.06-2.8-1.42-5.55-1-5.55-4c0-2.09,1.83-4.26,5.68-4.26,3.05,0,5.33,1.65,5.77,4.16h-3.54c-.21-.62-1-1.11-2.23-1.11-1.57,0-2.22.57-2.22,1.06,0,.69,1,.93,2.64,1.18,3.3.55,5.68,1.27,5.68,4.16C162.36,286.34,159.93,288.2,156.52,288.2Z"/><path class="cls-1" d="M172.31,288.17a5.57,5.57,0,0,1-3.91-1.57v7.21H165V274.58h3.28V276a5.61,5.61,0,0,1,4.06-1.71c3.48,0,6.33,3,6.33,6.93S175.79,288.17,172.31,288.17Zm-.5-10.72a3.79,3.79,0,1,0,3.42,3.75A3.55,3.55,0,0,0,171.81,277.45Z"/><path class="cls-1" d="M193.85,281.25a6.71,6.71,0,1,1-6.72-7A6.76,6.76,0,0,1,193.85,281.25Zm-3.44,0c0-2.3-1.47-3.91-3.28-3.91s-3.28,1.61-3.28,3.91,1.48,3.79,3.28,3.79S190.41,283.52,190.41,281.28Z"/><path class="cls-1" d="M204,277.63a3.67,3.67,0,0,0-3.28.83,4,4,0,0,0-.86,2.89v6.54h-3.41V274.58h3.26v1.32a4.44,4.44,0,0,1,4.29-1.57Z"/><path class="cls-1" d="M212.32,287.86c-3.9.42-6-1.93-6-5.58v-4.67h-1.6v-3h1.6V271.2h3.41v3.38h2.41v3h-2.41v4.7c0,1.86.86,2.56,2.56,2.45Z"/><path class="cls-1" d="M219.92,288.2c-3.39,0-5.9-1.78-6.31-4.65h3.46a3,3,0,0,0,2.85,1.55c1.36,0,2.4-.41,2.4-1.19s-.47-1.06-2.79-1.42-5.56-1-5.56-4c0-2.09,1.84-4.26,5.69-4.26,3.05,0,5.32,1.65,5.76,4.16h-3.54c-.21-.62-1-1.11-2.22-1.11-1.58,0-2.23.57-2.23,1.06,0,.69,1,.93,2.64,1.18,3.31.55,5.68,1.27,5.68,4.16C225.75,286.34,223.33,288.2,219.92,288.2Z"/><path class="cls-1" d="M243.91,288.17a5.51,5.51,0,0,1-4-1.7v1.42h-3.28V268.67H240v7.18a5.55,5.55,0,0,1,3.9-1.55c3.49,0,6.33,3,6.33,6.95S247.4,288.17,243.91,288.17Zm-.49-10.72a3.64,3.64,0,0,0-3.41,3.83,3.59,3.59,0,0,0,3.41,3.74,3.55,3.55,0,0,0,3.41-3.74A3.6,3.6,0,0,0,243.42,277.45Z"/><path class="cls-1" d="M264.61,287.89h-3.26v-1.21A4.38,4.38,0,0,1,258,288.2c-3.16,0-5.25-2.35-5.25-5.84v-7.78h3.41v7.78a2.37,2.37,0,0,0,2.48,2.61,2.52,2.52,0,0,0,2.59-2.61v-7.78h3.41Z"/><path class="cls-1" d="M273.36,288.2c-3.38,0-5.89-1.78-6.3-4.65h3.46a3,3,0,0,0,2.84,1.55c1.37,0,2.41-.41,2.41-1.19s-.47-1.06-2.8-1.42-5.55-1-5.55-4c0-2.09,1.83-4.26,5.68-4.26,3,0,5.33,1.65,5.77,4.16h-3.54c-.21-.62-1-1.11-2.23-1.11-1.57,0-2.22.57-2.22,1.06,0,.69,1,.93,2.64,1.18,3.3.55,5.68,1.27,5.68,4.16C279.2,286.34,276.77,288.2,273.36,288.2Z"/><path class="cls-1" d="M285.3,273.14h-3.41V270h3.41Zm0,14.75h-3.41V274.58h3.41Z"/><path class="cls-1" d="M300.62,287.89h-3.41v-7.78a2.37,2.37,0,0,0-2.48-2.63,2.52,2.52,0,0,0-2.59,2.63v7.78h-3.41V274.58H292v1.3a4.37,4.37,0,0,1,3.43-1.63c3.13,0,5.2,2.35,5.2,5.86Z"/><path class="cls-1" d="M306.58,282.57a3.38,3.38,0,0,0,3.33,2.63,3.09,3.09,0,0,0,2.82-1.55h3.64a6.29,6.29,0,0,1-6.43,4.55,7,7,0,0,1,0-13.95c3.93,0,7.18,3.05,6.69,8.32Zm6.67-2.79a3.35,3.35,0,0,0-3.34-2.53,3.41,3.41,0,0,0-3.28,2.53Z"/><path class="cls-1" d="M324.67,288.2c-3.39,0-5.9-1.78-6.31-4.65h3.46a3,3,0,0,0,2.85,1.55c1.36,0,2.4-.41,2.4-1.19s-.47-1.06-2.79-1.42-5.56-1-5.56-4c0-2.09,1.84-4.26,5.69-4.26,3,0,5.32,1.65,5.76,4.16h-3.54c-.21-.62-1-1.11-2.22-1.11-1.58,0-2.22.57-2.22,1.06,0,.69,1,.93,2.63,1.18,3.31.55,5.68,1.27,5.68,4.16C330.5,286.34,328.08,288.2,324.67,288.2Z"/><path class="cls-1" d="M338.51,288.2c-3.38,0-5.89-1.78-6.3-4.65h3.46a3,3,0,0,0,2.84,1.55c1.37,0,2.4-.41,2.4-1.19s-.46-1.06-2.79-1.42-5.55-1-5.55-4c0-2.09,1.83-4.26,5.68-4.26,3.05,0,5.32,1.65,5.76,4.16h-3.54c-.2-.62-1-1.11-2.22-1.11-1.57,0-2.22.57-2.22,1.06,0,.69,1,.93,2.64,1.18,3.3.55,5.68,1.27,5.68,4.16C344.35,286.34,341.92,288.2,338.51,288.2Z"/><path class="cls-1" d="M188,319.2a7,7,0,0,1,0-13.95,6.26,6.26,0,0,1,6.4,4.8H190.8a3.18,3.18,0,0,0-2.76-1.68,3.69,3.69,0,0,0-3.41,3.91A3.64,3.64,0,0,0,188,316.1a3.15,3.15,0,0,0,2.79-1.71h3.64A6.24,6.24,0,0,1,188,319.2Z"/><path class="cls-1" d="M209.58,312.25a6.71,6.71,0,1,1-6.72-7A6.76,6.76,0,0,1,209.58,312.25Zm-3.43,0c0-2.3-1.48-3.91-3.29-3.91s-3.28,1.61-3.28,3.91,1.48,3.79,3.28,3.79S206.15,314.52,206.15,312.28Z"/><path class="cls-1" d="M224.05,318.89h-3.41v-7.78a2.36,2.36,0,0,0-2.48-2.63,2.52,2.52,0,0,0-2.59,2.63v7.78h-3.41V305.58h3.26v1.3a4.38,4.38,0,0,1,3.44-1.63c3.12,0,5.19,2.35,5.19,5.86Z"/><path class="cls-1" d="M232.73,319.2c-3.39,0-5.89-1.78-6.31-4.65h3.47a3,3,0,0,0,2.84,1.55c1.37,0,2.4-.41,2.4-1.19s-.46-1.06-2.79-1.42-5.55-1-5.55-4c0-2.09,1.83-4.26,5.68-4.26,3.05,0,5.32,1.65,5.76,4.16h-3.54c-.21-.62-.95-1.11-2.22-1.11-1.58,0-2.22.57-2.22,1.06,0,.69,1,.93,2.63,1.18,3.31.55,5.69,1.27,5.69,4.16C238.57,317.34,236.14,319.2,232.73,319.2Z"/><path class="cls-1" d="M253,318.89H249.7v-1.21a4.38,4.38,0,0,1-3.38,1.52c-3.16,0-5.25-2.35-5.25-5.84v-7.78h3.41v7.78A2.37,2.37,0,0,0,247,316a2.51,2.51,0,0,0,2.58-2.61v-7.78H253Z"/><path class="cls-1" d="M259.8,318.89h-3.41V299.67h3.41Z"/><path class="cls-1" d="M269.44,318.86c-3.91.42-6-1.93-6-5.58v-4.67h-1.61v-3h1.61V302.2h3.41v3.38h2.4v3h-2.4v4.7c0,1.86.85,2.56,2.56,2.45Z"/><path class="cls-1" d="M280.36,317.65a5.38,5.38,0,0,1-4.08,1.5c-2.82,0-5.4-1.42-5.4-4.32s2.51-3.77,5.45-4c2.22-.2,3.8-.46,3.8-1.55,0-.69-.9-1.26-2.43-1.26-1.21,0-2.61.54-2.92,1.68h-3.41c.34-2.54,2.77-4.42,6.25-4.42,5.4,0,5.82,3.49,5.82,4.55v6.92a8.13,8.13,0,0,0,.38,2.17H280.7A4.71,4.71,0,0,1,280.36,317.65Zm-.1-5.17a7.85,7.85,0,0,1-3.23.86c-1.68.18-2.71.54-2.71,1.52,0,.75.88,1.26,2.24,1.26,2.05,0,3.7-.69,3.7-2.4Z"/><path class="cls-1" d="M298.81,318.89H295.4v-7.78a2.37,2.37,0,0,0-2.48-2.63,2.52,2.52,0,0,0-2.59,2.63v7.78h-3.41V305.58h3.26v1.3a4.37,4.37,0,0,1,3.43-1.63c3.13,0,5.2,2.35,5.2,5.86Z"/><path class="cls-1" d="M308.31,318.86c-3.9.42-6-1.93-6-5.58v-4.67h-1.6v-3h1.6V302.2h3.42v3.38h2.4v3h-2.4v4.7c0,1.86.85,2.56,2.55,2.45Z"/><path class="cls-1" d="M315.91,319.2c-3.39,0-5.89-1.78-6.31-4.65h3.47a3,3,0,0,0,2.84,1.55c1.37,0,2.4-.41,2.4-1.19s-.46-1.06-2.79-1.42-5.56-1-5.56-4c0-2.09,1.84-4.26,5.69-4.26,3.05,0,5.32,1.65,5.76,4.16h-3.54c-.21-.62-1-1.11-2.22-1.11-1.58,0-2.22.57-2.22,1.06,0,.69,1,.93,2.63,1.18,3.31.55,5.69,1.27,5.69,4.16C321.75,317.34,319.32,319.2,315.91,319.2Z"/><path class="cls-1" d="M549.41,287.89h-3.36V274.74l-3.64,13.15h-3.65l-3.64-13.15v13.15h-3.36V270h5.06l3.75,13.43L544.32,270h5.09Z"/><path class="cls-1" d="M555.55,282.57a3.38,3.38,0,0,0,3.34,2.63,3.09,3.09,0,0,0,2.81-1.55h3.65a6.31,6.31,0,0,1-6.44,4.55,7,7,0,0,1,0-13.95c3.93,0,7.18,3.05,6.69,8.32Zm6.67-2.79a3.33,3.33,0,0,0-3.33-2.53,3.42,3.42,0,0,0-3.29,2.53Z"/><path class="cls-1" d="M581.13,287.89h-3.26v-1.42a5.58,5.58,0,0,1-4.08,1.7c-3.46,0-6.33-3-6.33-6.92s2.87-6.95,6.33-6.95a5.62,5.62,0,0,1,3.93,1.55v-7.18h3.41Zm-6.82-10.44a3.6,3.6,0,0,0-3.41,3.83,3.55,3.55,0,0,0,3.41,3.74,3.59,3.59,0,0,0,3.41-3.74A3.64,3.64,0,0,0,574.31,277.45Z"/><path class="cls-1" d="M588.05,273.14h-3.41V270h3.41Zm0,14.75h-3.41V274.58h3.41Z"/><path class="cls-1" d="M594.17,282.57a3.38,3.38,0,0,0,3.34,2.63,3.09,3.09,0,0,0,2.81-1.55H604a6.29,6.29,0,0,1-6.43,4.55,7,7,0,0,1,0-13.95c3.93,0,7.18,3.05,6.69,8.32Zm6.67-2.79a3.34,3.34,0,0,0-3.33-2.53,3.42,3.42,0,0,0-3.29,2.53Z"/><path class="cls-1" d="M618.74,287.89h-3.41v-7.78a2.36,2.36,0,0,0-2.48-2.63,2.52,2.52,0,0,0-2.58,2.63v7.78h-3.41V274.58h3.25v1.3a4.39,4.39,0,0,1,3.44-1.63c3.12,0,5.19,2.35,5.19,5.86Z"/><path class="cls-1" d="M628.25,287.86c-3.91.42-6-1.93-6-5.58v-4.67h-1.6v-3h1.6V271.2h3.41v3.38h2.4v3h-2.4v4.7c0,1.86.85,2.56,2.56,2.45Z"/><path class="cls-1" d="M643.07,281.25a6.71,6.71,0,1,1-6.71-7A6.75,6.75,0,0,1,643.07,281.25Zm-3.43,0c0-2.3-1.47-3.91-3.28-3.91s-3.28,1.61-3.28,3.91,1.47,3.79,3.28,3.79S639.64,283.52,639.64,281.28Z"/><path class="cls-1" d="M658.29,281.25a6.71,6.71,0,1,1-6.72-7A6.76,6.76,0,0,1,658.29,281.25Zm-3.44,0c0-2.3-1.47-3.91-3.28-3.91s-3.28,1.61-3.28,3.91,1.47,3.79,3.28,3.79S654.85,283.52,654.85,281.28Z"/><path class="cls-1" d="M664.36,287.89H661V268.67h3.41Z"/><path class="cls-1" d="M673.17,288.2c-3.39,0-5.89-1.78-6.3-4.65h3.46a3,3,0,0,0,2.84,1.55c1.37,0,2.4-.41,2.4-1.19s-.46-1.06-2.79-1.42-5.55-1-5.55-4c0-2.09,1.83-4.26,5.68-4.26,3.05,0,5.32,1.65,5.76,4.16h-3.54c-.2-.62-1-1.11-2.22-1.11-1.58,0-2.22.57-2.22,1.06,0,.69,1,.93,2.63,1.18,3.31.55,5.69,1.27,5.69,4.16C679,286.34,676.58,288.2,673.17,288.2Z"/><path class="cls-1" d="M563.36,306.38H560c0-1.55-1.3-2.71-3.47-2.71-1.8,0-3.48.7-3.48,2.07s1.21,1.68,4,2.25c4.26.85,6.95,1.91,6.95,5.58,0,3.46-2.89,5.63-7.42,5.63-3.51,0-7.33-1.94-7.33-6.25h3.41c0,2.12,2.12,3.12,3.92,3.12,2,0,4-.69,4-2.4,0-1.14-.93-1.83-4.24-2.48s-6.66-1.63-6.66-5.48c0-3.07,2.71-5.22,6.89-5.22C561.21,300.49,563.36,303.54,563.36,306.38Z"/><path class="cls-1" d="M579.35,312.25a6.71,6.71,0,1,1-6.72-7A6.76,6.76,0,0,1,579.35,312.25Zm-3.44,0c0-2.3-1.47-3.91-3.28-3.91s-3.28,1.61-3.28,3.91,1.47,3.79,3.28,3.79S575.91,314.52,575.91,312.28Z"/><path class="cls-1" d="M585.42,318.89H582V299.67h3.41Z"/><path class="cls-1" d="M600.61,318.89h-3.26v-1.21A4.38,4.38,0,0,1,594,319.2c-3.16,0-5.25-2.35-5.25-5.84v-7.78h3.41v7.78a2.37,2.37,0,0,0,2.48,2.61,2.52,2.52,0,0,0,2.59-2.61v-7.78h3.41Z"/><path class="cls-1" d="M610.19,318.86c-3.9.42-6-1.93-6-5.58v-4.67h-1.6v-3h1.6V302.2h3.41v3.38H610v3h-2.4v4.7c0,1.86.85,2.56,2.56,2.45Z"/><path class="cls-1" d="M615.87,304.14h-3.41V301h3.41Zm0,14.75h-3.41V305.58h3.41Z"/><path class="cls-1" d="M631.94,312.25a6.71,6.71,0,1,1-6.72-7A6.76,6.76,0,0,1,631.94,312.25Zm-3.44,0c0-2.3-1.47-3.91-3.28-3.91s-3.28,1.61-3.28,3.91,1.48,3.79,3.28,3.79S628.5,314.52,628.5,312.28Z"/><path class="cls-1" d="M646.41,318.89H643v-7.78a2.37,2.37,0,0,0-2.48-2.63,2.52,2.52,0,0,0-2.59,2.63v7.78h-3.41V305.58h3.26v1.3a4.37,4.37,0,0,1,3.43-1.63c3.13,0,5.2,2.35,5.2,5.86Z"/><path class="cls-1" d="M655.09,319.2c-3.39,0-5.89-1.78-6.31-4.65h3.46a3,3,0,0,0,2.85,1.55c1.37,0,2.4-.41,2.4-1.19s-.47-1.06-2.79-1.42-5.56-1-5.56-4c0-2.09,1.84-4.26,5.69-4.26,3,0,5.32,1.65,5.76,4.16h-3.54c-.21-.62-1-1.11-2.22-1.11-1.58,0-2.22.57-2.22,1.06,0,.69,1,.93,2.63,1.18,3.31.55,5.69,1.27,5.69,4.16C660.93,317.34,658.5,319.2,655.09,319.2Z"/><path class="cls-1" d="M854.69,288.2c-3.38,0-5.89-1.78-6.3-4.65h3.46a3,3,0,0,0,2.84,1.55c1.37,0,2.41-.41,2.41-1.19s-.47-1.06-2.79-1.42-5.56-1-5.56-4c0-2.09,1.84-4.26,5.68-4.26,3.05,0,5.33,1.65,5.77,4.16h-3.54c-.21-.62-1-1.11-2.23-1.11-1.57,0-2.22.57-2.22,1.06,0,.69,1,.93,2.64,1.18,3.31.55,5.68,1.27,5.68,4.16C860.53,286.34,858.1,288.2,854.69,288.2Z"/><path class="cls-1" d="M870.48,288.17a5.53,5.53,0,0,1-3.9-1.57v7.21h-3.44V274.58h3.28V276a5.62,5.62,0,0,1,4.06-1.71c3.49,0,6.33,3,6.33,6.93S874,288.17,870.48,288.17ZM870,277.45a3.79,3.79,0,1,0,3.41,3.75A3.55,3.55,0,0,0,870,277.45Z"/><path class="cls-1" d="M892,281.25a6.71,6.71,0,1,1-6.71-7A6.75,6.75,0,0,1,892,281.25Zm-3.43,0c0-2.3-1.48-3.91-3.28-3.91S882,279,882,281.28s1.48,3.79,3.29,3.79S888.59,283.52,888.59,281.28Z"/><path class="cls-1" d="M902.15,277.63a3.67,3.67,0,0,0-3.28.83,4,4,0,0,0-.86,2.89v6.54H894.6V274.58h3.26v1.32a4.45,4.45,0,0,1,4.29-1.57Z"/><path class="cls-1" d="M910.49,287.86c-3.9.42-6-1.93-6-5.58v-4.67h-1.6v-3h1.6V271.2h3.41v3.38h2.41v3h-2.41v4.7c0,1.86.86,2.56,2.56,2.45Z"/><path class="cls-1" d="M918.09,288.2c-3.39,0-5.89-1.78-6.31-4.65h3.46a3,3,0,0,0,2.85,1.55c1.37,0,2.4-.41,2.4-1.19s-.47-1.06-2.79-1.42-5.56-1-5.56-4c0-2.09,1.84-4.26,5.69-4.26,3,0,5.32,1.65,5.76,4.16h-3.54c-.21-.62-1-1.11-2.22-1.11-1.58,0-2.22.57-2.22,1.06,0,.69,1,.93,2.63,1.18,3.31.55,5.69,1.27,5.69,4.16C923.93,286.34,921.5,288.2,918.09,288.2Z"/><path class="cls-1" d="M942.08,288.17a5.51,5.51,0,0,1-4.05-1.7v1.42h-3.28V268.67h3.43v7.18a5.55,5.55,0,0,1,3.9-1.55c3.49,0,6.33,3,6.33,6.95S945.57,288.17,942.08,288.17Zm-.49-10.72a3.64,3.64,0,0,0-3.41,3.83,3.59,3.59,0,0,0,3.41,3.74,3.55,3.55,0,0,0,3.41-3.74A3.6,3.6,0,0,0,941.59,277.45Z"/><path class="cls-1" d="M962.78,287.89h-3.26v-1.21a4.38,4.38,0,0,1-3.38,1.52c-3.15,0-5.25-2.35-5.25-5.84v-7.78h3.41v7.78a2.37,2.37,0,0,0,2.48,2.61,2.52,2.52,0,0,0,2.59-2.61v-7.78h3.41Z"/><path class="cls-1" d="M971.53,288.2c-3.38,0-5.89-1.78-6.3-4.65h3.46a3,3,0,0,0,2.84,1.55c1.37,0,2.41-.41,2.41-1.19s-.47-1.06-2.79-1.42-5.56-1-5.56-4c0-2.09,1.84-4.26,5.69-4.26,3,0,5.32,1.65,5.76,4.16H973.5c-.21-.62-1-1.11-2.22-1.11-1.58,0-2.23.57-2.23,1.06,0,.69,1,.93,2.64,1.18,3.31.55,5.68,1.27,5.68,4.16C977.37,286.34,974.94,288.2,971.53,288.2Z"/><path class="cls-1" d="M983.47,273.14h-3.41V270h3.41Zm0,14.75h-3.41V274.58h3.41Z"/><path class="cls-1" d="M998.79,287.89h-3.41v-7.78a2.37,2.37,0,0,0-2.48-2.63,2.52,2.52,0,0,0-2.59,2.63v7.78H986.9V274.58h3.26v1.3a4.37,4.37,0,0,1,3.43-1.63c3.13,0,5.2,2.35,5.2,5.86Z"/><path class="cls-1" d="M1004.75,282.57a3.38,3.38,0,0,0,3.34,2.63,3.09,3.09,0,0,0,2.81-1.55h3.65a6.31,6.31,0,0,1-6.44,4.55,7,7,0,0,1,0-13.95c3.93,0,7.18,3.05,6.69,8.32Zm6.67-2.79a3.33,3.33,0,0,0-3.33-2.53,3.42,3.42,0,0,0-3.29,2.53Z"/><path class="cls-1" d="M1022.84,288.2c-3.39,0-5.89-1.78-6.31-4.65H1020a3,3,0,0,0,2.84,1.55c1.37,0,2.4-.41,2.4-1.19s-.47-1.06-2.79-1.42-5.56-1-5.56-4c0-2.09,1.84-4.26,5.69-4.26,3.05,0,5.32,1.65,5.76,4.16h-3.54c-.21-.62-1-1.11-2.22-1.11-1.58,0-2.22.57-2.22,1.06,0,.69,1,.93,2.63,1.18,3.31.55,5.69,1.27,5.69,4.16C1028.68,286.34,1026.25,288.2,1022.84,288.2Z"/><path class="cls-1" d="M1036.68,288.2c-3.38,0-5.89-1.78-6.3-4.65h3.46a3,3,0,0,0,2.84,1.55c1.37,0,2.41-.41,2.41-1.19s-.47-1.06-2.79-1.42-5.56-1-5.56-4c0-2.09,1.83-4.26,5.68-4.26,3,0,5.33,1.65,5.77,4.16h-3.54c-.21-.62-1-1.11-2.23-1.11-1.57,0-2.22.57-2.22,1.06,0,.69,1,.93,2.64,1.18,3.3.55,5.68,1.27,5.68,4.16C1042.52,286.34,1040.09,288.2,1036.68,288.2Z"/><path class="cls-1" d="M901.39,319.2c-3.39,0-5.9-1.78-6.31-4.65h3.46a3,3,0,0,0,2.85,1.55c1.36,0,2.4-.41,2.4-1.19s-.47-1.06-2.79-1.42-5.56-1-5.56-4c0-2.09,1.84-4.26,5.69-4.26,3,0,5.32,1.65,5.76,4.16h-3.54c-.21-.62-1-1.11-2.22-1.11-1.58,0-2.23.57-2.23,1.06,0,.69,1,.93,2.64,1.18,3.31.55,5.68,1.27,5.68,4.16C907.22,317.34,904.8,319.2,901.39,319.2Z"/><path class="cls-1" d="M922.46,312.25a6.71,6.71,0,1,1-6.71-7A6.75,6.75,0,0,1,922.46,312.25Zm-3.43,0c0-2.3-1.47-3.91-3.28-3.91s-3.28,1.61-3.28,3.91,1.47,3.79,3.28,3.79S919,314.52,919,312.28Z"/><path class="cls-1" d="M928.53,318.89h-3.41V299.67h3.41Z"/><path class="cls-1" d="M943.73,318.89h-3.26v-1.21a4.38,4.38,0,0,1-3.38,1.52c-3.16,0-5.25-2.35-5.25-5.84v-7.78h3.41v7.78a2.37,2.37,0,0,0,2.48,2.61,2.52,2.52,0,0,0,2.59-2.61v-7.78h3.41Z"/><path class="cls-1" d="M953.31,318.86c-3.9.42-6-1.93-6-5.58v-4.67h-1.6v-3h1.6V302.2h3.41v3.38h2.4v3h-2.4v4.7c0,1.86.85,2.56,2.56,2.45Z"/><path class="cls-1" d="M959,304.14h-3.41V301H959Zm0,14.75h-3.41V305.58H959Z"/><path class="cls-1" d="M975.06,312.25a6.71,6.71,0,1,1-6.72-7A6.76,6.76,0,0,1,975.06,312.25Zm-3.44,0c0-2.3-1.47-3.91-3.28-3.91s-3.28,1.61-3.28,3.91,1.47,3.79,3.28,3.79S971.62,314.52,971.62,312.28Z"/><path class="cls-1" d="M989.53,318.89h-3.41v-7.78a2.37,2.37,0,0,0-2.48-2.63,2.52,2.52,0,0,0-2.59,2.63v7.78h-3.41V305.58h3.26v1.3a4.37,4.37,0,0,1,3.43-1.63c3.13,0,5.2,2.35,5.2,5.86Z"/><path class="cls-1" d="M998.21,319.2c-3.39,0-5.9-1.78-6.31-4.65h3.46a3,3,0,0,0,2.85,1.55c1.36,0,2.4-.41,2.4-1.19s-.47-1.06-2.79-1.42-5.56-1-5.56-4c0-2.09,1.84-4.26,5.69-4.26,3,0,5.32,1.65,5.76,4.16h-3.54c-.21-.62-1-1.11-2.22-1.11-1.58,0-2.22.57-2.22,1.06,0,.69,1,.93,2.63,1.18,3.31.55,5.68,1.27,5.68,4.16C1004,317.34,1001.62,319.2,998.21,319.2Z"/></g></svg>