<?xml version="1.0" encoding="utf-8"?>
<!-- Generator: Adobe Illustrator 25.3.1, SVG Export Plug-In . SVG Version: 6.00 Build 0)  -->
<svg version="1.1" id="Ebene_1" xmlns="http://www.w3.org/2000/svg" xmlns:xlink="http://www.w3.org/1999/xlink" x="0px" y="0px"
	 viewBox="0 0 1200 600" style="enable-background:new 0 0 1200 600;" xml:space="preserve">
<style type="text/css">
	.st0{fill:#FFFFFF;}
	.st1{fill:none;}
	.st2{fill:#002DFF;}
	.st3{fill:#0A36F4;}
</style>
<g id="Illustration">
	<path class="st0" d="M1062.3,397.9c0-0.1,0-0.2-0.1-0.2c0,0,0-0.1,0-0.1l0,0c-0.1-0.1-0.1-0.2-0.2-0.2l0,0l-30-18
		c-0.2-0.2-0.5-0.2-0.8,0l-29.3,18l0,0c-0.1,0.1-0.2,0.1-0.2,0.2l0,0c0,0,0,0.1,0,0.1c0,0.1-0.1,0.2-0.1,0.2c0,0,0,0,0,0v35.9
		c0,0.3,0.1,0.5,0.3,0.6l30,19.6h0.1h0.1c0.1,0,0.2,0,0.3,0c0.1,0,0.2,0,0.3,0h0.1h0.1l29.2-19.6c0.2-0.1,0.3-0.4,0.3-0.6
		L1062.3,397.9C1062.3,398,1062.3,398,1062.3,397.9z M1031.6,380.9l28.6,17.1l-27.9,18.6l-28.6-18.6L1031.6,380.9z M1003,399.4
		l28.5,18.6v34.1l-28.5-18.6V399.4z M1033,452.1V418l27.8-18.6v34.1L1033,452.1z"/>
	<path class="st1" d="M419.6,173.8c4.9,0,8.3-1.3,9.4-2.5c0.1-0.1,0.2-0.3,0.2-0.4c0,0-0.1-0.1-0.1-0.1c-1.5-1-3.2-4.3-3.5-8.5
		c-1.7,0.9-3.6,1.4-5.5,1.4c-2.4-0.1-4.6-0.8-6.6-2.1c-0.2,2.2-0.8,7.5-3.4,9.2c-0.1,0.1-0.6,0.4-0.5,0.7
		C409.9,172.3,413.1,173.8,419.6,173.8z"/>
	<path class="st1" d="M438.3,137c0.7-7.7-1.5-15.1-6.1-20.2c-5.9-6.8-16.2-7.6-23-1.8c-0.5,0.4-1,0.9-1.4,1.4
		c-4.3,4.7-6.4,12.2-5.6,20.5c1.2,13.4,9.6,25.2,18.1,25.2C427.6,162.2,436.9,151.8,438.3,137z M426.8,136.6c-0.6,0-1-0.4-1-1
		s0.4-1,1-1s1,0.4,1,1C427.8,136.2,427.4,136.6,426.8,136.6L426.8,136.6z M425.8,130.4h4.6c0.4,0,0.8,0.3,0.8,0.8s-0.3,0.8-0.8,0.8
		h-4.6c-0.4,0-0.8-0.3-0.8-0.8S425.4,130.4,425.8,130.4z M419.6,143.7c0-0.4,0.3-0.8,0.8-0.8s0.8,0.3,0.8,0.8v2.9
		c0,0.4-0.3,0.8-0.8,0.8s-0.8-0.3-0.8-0.8V143.7z M413.6,136.7c-0.6,0-1-0.4-1-1s0.4-1,1-1s1,0.4,1,1
		C414.6,136.2,414.1,136.6,413.6,136.7L413.6,136.7z M414.3,131.9h-4.6c-0.4,0-0.8-0.3-0.8-0.8s0.3-0.8,0.8-0.8h4.6
		c0.4,0,0.8,0.3,0.8,0.8S414.7,131.9,414.3,131.9z M417.1,152.9c0-0.4,0.3-0.7,0.8-0.8h4.6c0.4,0,0.8,0.3,0.8,0.8s-0.3,0.8-0.8,0.8
		h-4.5C417.5,153.6,417.1,153.3,417.1,152.9L417.1,152.9z"/>
	<path class="st2" d="M430.8,170.8c0,0.2,0,0.3-0.1,0.5c-0.6,2-4.9,4-11.1,4s-10.8-1.3-11.4-3.4c-0.2-0.5-0.1-1.1,0.2-1.5
		c-16.3,2.4-28.2,10.5-28.2,20.1h76.4C456.7,181.4,445.8,173.6,430.8,170.8z"/>
	<path class="st0" d="M408.3,171.9c0.6,2.1,5.1,3.4,11.4,3.4s10.5-2,11.1-4c0-0.2,0.1-0.3,0.1-0.5c0-0.5-0.3-1-0.8-1.3
		c-1.1-0.7-2.7-3.8-2.8-8.1c6.1-4,11.5-12.7,12.6-24.2c0.8-8.1-1.6-15.9-6.5-21.3c-6.4-7.5-17.7-8.3-25.1-1.9c-0.5,0.5-1,1-1.5,1.5
		c-4.6,5-6.8,12.9-6,21.7c0.9,9.9,5.6,18.9,11.5,23.5l0,0c-0.1,2-0.7,7.5-2.8,9c-0.4,0.2-0.7,0.5-0.9,0.9
		C408.2,170.9,408.1,171.4,408.3,171.9z M402.2,137c-0.7-8.3,1.3-15.8,5.6-20.5c6.1-6.7,16.4-7.1,23.1-1.1c0.5,0.5,1,0.9,1.4,1.4
		c4.6,5.1,6.8,12.4,6.1,20.2c-1.4,14.8-10.7,25.2-18.1,25.2C411.8,162.2,403.4,150.4,402.2,137z M410.2,170.8c2.6-1.7,3.2-7,3.4-9.2
		c2,1.3,4.3,2,6.6,2.1c1.9,0,3.8-0.5,5.5-1.4c0.3,4.3,1.9,7.6,3.5,8.5c0,0,0.1,0.1,0.1,0.1c0,0.2-0.1,0.3-0.2,0.4
		c-1.1,1.2-4.5,2.5-9.4,2.5c-6.5,0-9.7-1.5-9.9-2.3C409.6,171.2,410.1,170.9,410.2,170.8L410.2,170.8z"/>
	<path class="st0" d="M423.2,152.9c0-0.4-0.3-0.7-0.8-0.8h-4.6c-0.4,0-0.8,0.3-0.8,0.8s0.3,0.8,0.8,0.8h4.6
		C422.9,153.6,423.2,153.3,423.2,152.9z"/>
	<path class="st0" d="M414.3,130.4h-4.6c-0.4,0-0.8,0.3-0.8,0.8s0.3,0.8,0.8,0.8h4.6c0.4,0,0.8-0.3,0.8-0.8S414.7,130.4,414.3,130.4
		z"/>
	<path class="st0" d="M420.4,147.4c0.4,0,0.8-0.3,0.8-0.8v-2.9c0-0.4-0.3-0.8-0.8-0.8s-0.8,0.3-0.8,0.8v2.9
		C419.7,147,420,147.3,420.4,147.4C420.4,147.4,420.4,147.4,420.4,147.4z"/>
	<path class="st0" d="M413.6,134.6c-0.6,0-1,0.5-1,1c0,0.6,0.5,1,1,1s1-0.5,1-1C414.6,135,414.2,134.6,413.6,134.6z"/>
	<circle class="st0" cx="426.9" cy="135.6" r="1"/>
	<path class="st0" d="M425.9,131.9h4.6c0.4,0,0.8-0.3,0.8-0.8s-0.3-0.8-0.8-0.8h-4.6c-0.4,0-0.8,0.3-0.8,0.8
		S425.5,131.9,425.9,131.9z"/>
	<path class="st0" d="M712.9,284.2c0-0.4-0.3-0.8-0.8-0.8h-3.7c-0.4,0-0.8,0.3-0.8,0.8s0.3,0.8,0.8,0.8h3.7
		C712.6,285,712.9,284.7,712.9,284.2z"/>
	<path class="st0" d="M705.6,266.1H702c-0.4,0-0.8,0.3-0.8,0.8s0.3,0.8,0.8,0.8h3.7c0.4,0,0.8-0.3,0.8-0.8S706.1,266.1,705.6,266.1
		L705.6,266.1z"/>
	<path class="st0" d="M710.5,280c0.4,0,0.7-0.3,0.8-0.8v-2.4c0-0.4-0.3-0.8-0.8-0.8s-0.8,0.3-0.8,0.8v2.4
		C709.8,279.7,710.1,280,710.5,280z"/>
	<circle class="st0" cx="705.1" cy="270.4" r="0.8"/>
	<circle class="st0" cx="715.7" cy="270.4" r="0.8"/>
	<path class="st0" d="M714.9,267.6h3.7c0.4,0,0.8-0.3,0.8-0.8s-0.3-0.8-0.8-0.8h-3.7c-0.4,0-0.8,0.3-0.8,0.8
		S714.5,267.6,714.9,267.6z"/>
	<path class="st0" d="M769.5,285h3.7c0.4,0,0.8-0.3,0.8-0.8s-0.3-0.8-0.8-0.8h-3.7c-0.4,0-0.8,0.3-0.8,0.8S769.1,285,769.5,285z"/>
	<path class="st0" d="M767.4,266.9c0-0.4-0.3-0.7-0.8-0.8H763c-0.4,0-0.8,0.3-0.8,0.8s0.3,0.8,0.8,0.8h3.7
		C767.1,267.6,767.4,267.3,767.4,266.9z"/>
	<path class="st0" d="M771.5,280c0.4,0,0.8-0.3,0.8-0.8v-2.4c0-0.4-0.3-0.8-0.8-0.8s-0.8,0.3-0.8,0.8v2.4
		C770.8,279.7,771.1,280,771.5,280z"/>
	<path class="st0" d="M779.7,297.9c-0.1-0.2-0.3-0.3-0.4-0.4c-0.7-0.4-2.1-2.6-2.2-6.3c4.8-3.2,9.2-10.2,10.1-19.4
		c0.7-6.2-1.1-12.4-5.2-17.1c-5.2-6-14.3-6.7-20.3-1.5c-0.4,0.4-0.8,0.8-1.2,1.2c-3.7,4-5.5,10.4-4.8,17.4c0.3,3.1,1,6.1,2.2,9
		c-3-1.2-6.1-2.2-9.3-2.7c-0.1-0.2-0.3-0.3-0.4-0.4c-0.7-0.4-2.1-2.6-2.2-6.3c4.8-3.2,9.2-10.2,10.1-19.4c0.7-6.2-1.1-12.4-5.2-17.1
		c-5.2-6-14.3-6.7-20.3-1.5c-0.4,0.4-0.8,0.8-1.2,1.2c-3.7,4-5.5,10.4-4.8,17.4c0.7,7.9,4.5,15.1,9.2,18.8c-0.1,1.5-0.6,5.9-2.2,7h0
		c-0.1,0-0.2,0-0.3,0c-2.2,0.3-4.4,0.8-6.5,1.4c0.8-2.4,1.3-4.8,1.5-7.3c0.7-6.2-1.1-12.4-5.2-17.1c-5.2-6-14.3-6.7-20.3-1.5
		c-0.4,0.4-0.8,0.8-1.2,1.2c-3.7,4-5.5,10.4-4.8,17.4c0.7,7.9,4.5,15.1,9.2,18.8c-0.1,1.6-0.6,5.9-2.2,7l0,0c-0.1,0-0.2,0-0.3,0
		c-13.9,1.9-23.6,8.9-23.6,16.8v0.7h61l0,0h62.5v-0.8C801.2,306.8,792.6,300.2,779.7,297.9z M778.4,298.7c-0.3,0.6-2.7,2.1-7.5,2.1
		c-5.7,0-7.8-1.4-7.8-1.8c0,0,0.1-0.2,0.4-0.4c2-1.4,2.6-5.3,2.8-7.2c1.5,1,3.3,1.5,5.1,1.6c1.5,0,2.9-0.4,4.2-1.1
		C775.9,295.3,777.1,297.8,778.4,298.7z M761.6,255.3c2.5-2.7,6.1-4.3,9.8-4.2c3.7,0.1,7.1,1.7,9.5,4.5c3.8,4.4,5.5,10.2,4.8,16
		c-1.1,11.8-8.4,20-14.3,20c-6.7,0-13.3-9.3-14.3-20C756.5,265,758.2,259,761.6,255.3L761.6,255.3z M725.9,251.7
		c-0.6-6.6,1-12.5,4.5-16.3c2.5-2.7,6.1-4.3,9.8-4.2c3.7,0.1,7.1,1.7,9.5,4.5c3.8,4.4,5.5,10.2,4.8,16c-1.1,11.8-8.4,20-14.3,20
		C733.5,271.7,726.8,262.3,725.9,251.7z M732.3,278.9c2-1.4,2.6-5.3,2.8-7.2c1.5,1,3.3,1.5,5.1,1.6c1.5,0,2.9-0.4,4.2-1.1
		c0.2,3.3,1.5,5.9,2.8,6.7c-0.3,0.6-2.7,2.1-7.5,2.1c-5.7,0-7.8-1.4-7.8-1.8C731.9,279.2,732,279,732.3,278.9L732.3,278.9z
		 M730.4,279.3c0,0.1,0,0.3,0.1,0.4c0.5,1.7,4.1,2.8,9.2,2.8c4.7,0,8-1.5,8.8-3c3.5,0.6,6.9,1.7,10.1,3.2l0,0c1.4,3,3.5,5.7,6.1,7.8
		c-0.1,1.6-0.6,5.9-2.2,7l0,0c-0.1,0-0.2,0-0.3,0c-11.6,1.6-20.3,6.7-22.8,13c-2.3-5.9-10.1-10.8-20.8-12.7
		c-0.1-0.2-0.3-0.3-0.4-0.4c-0.7-0.4-2.1-2.6-2.2-6.3c3.6-2.6,6.3-6.2,7.9-10.3C726.1,280.1,728.3,279.6,730.4,279.3L730.4,279.3z
		 M696.1,271.5c-0.6-6.6,1-12.5,4.5-16.3c4.8-5.3,13-5.6,18.2-0.8c0.4,0.4,0.7,0.7,1.1,1.1c3.8,4.4,5.5,10.2,4.8,16
		c-1.1,11.8-8.4,20-14.3,20C703.7,291.5,697,282.2,696.1,271.5L696.1,271.5z M702.5,298.7c2-1.4,2.6-5.3,2.8-7.2
		c1.5,1,3.3,1.5,5.2,1.6c1.5,0,2.9-0.4,4.2-1.1c0.2,3.3,1.5,5.9,2.8,6.7c-0.3,0.6-2.7,2.1-7.5,2.1c-5.3,0-7.8-1.3-7.8-1.8
		C702.1,299,702.2,298.9,702.5,298.7L702.5,298.7z M679.2,313.5c0.6-6.7,9.2-12.5,21.4-14.4c0,0.1,0,0.3,0.1,0.4
		c0.5,1.7,4.2,2.8,9.2,2.8c4.7,0,8-1.5,8.8-3c11.3,2.1,19.4,7.8,19.9,14.2L679.2,313.5z M740.2,313.5c0.6-6.7,9.2-12.5,21.4-14.4
		c0,0.1,0,0.3,0.1,0.4c0.5,1.7,4.1,2.8,9.2,2.8c4.7,0,8-1.5,8.8-3c11.3,2.1,19.4,7.9,20,14.2L740.2,313.5z"/>
	<path class="st0" d="M766.1,269.6c-0.5,0-0.8,0.4-0.8,0.8s0.4,0.8,0.8,0.8c0.5,0,0.8-0.4,0.8-0.8c0,0,0,0,0,0
		C766.9,270,766.6,269.7,766.1,269.6z"/>
	<circle class="st0" cx="776.7" cy="270.5" r="0.8"/>
	<path class="st0" d="M775.9,267.6h3.7c0.4,0,0.8-0.3,0.8-0.8s-0.3-0.8-0.8-0.8h-3.7c-0.4,0-0.8,0.3-0.8,0.8
		S775.5,267.6,775.9,267.6z"/>
	<path class="st0" d="M742.8,264.4c0-0.4-0.3-0.8-0.8-0.8h-3.7c-0.4,0-0.8,0.3-0.8,0.8s0.3,0.8,0.8,0.8h3.7
		C742.4,265.1,742.7,264.8,742.8,264.4z"/>
	<path class="st0" d="M735.5,246.3h-3.7c-0.4,0-0.8,0.3-0.8,0.8s0.3,0.8,0.8,0.8h3.7c0.4,0,0.8-0.3,0.8-0.8S735.9,246.3,735.5,246.3
		z"/>
	<path class="st0" d="M740.3,260.1c0.4,0,0.8-0.3,0.8-0.8V257c0-0.4-0.3-0.8-0.8-0.8s-0.8,0.3-0.8,0.8v2.4
		C739.6,259.8,739.9,260.1,740.3,260.1C740.3,260.1,740.3,260.1,740.3,260.1z"/>
	<path class="st0" d="M734.9,249.8c-0.5,0-0.8,0.4-0.8,0.8v0c0,0.5,0.4,0.8,0.8,0.8c0.5,0,0.8-0.4,0.8-0.8S735.4,249.8,734.9,249.8
		C734.9,249.8,734.9,249.8,734.9,249.8z"/>
	<path class="st0" d="M745.5,249.8c-0.5,0-0.8,0.4-0.8,0.8v0c0,0.5,0.4,0.8,0.8,0.8c0.5,0,0.8-0.4,0.8-0.8
		C746.3,250.1,745.9,249.8,745.5,249.8z"/>
	<path class="st0" d="M744.7,247.8h3.7c0.4,0,0.8-0.3,0.8-0.8s-0.3-0.8-0.8-0.8h-3.7c-0.4,0-0.8,0.3-0.8,0.8
		S744.3,247.8,744.7,247.8z"/>
	<path class="st0" d="M1005.7,170.2c0-0.4-0.3-0.7-0.7-0.8c0,0,0,0,0,0h-3.7c-0.4,0-0.8,0.3-0.8,0.8s0.3,0.8,0.8,0.8l0,0h3.7
		C1005.4,170.9,1005.7,170.6,1005.7,170.2z"/>
	<path class="st0" d="M998.4,152.1h-3.7c-0.4,0-0.8,0.3-0.8,0.8s0.3,0.8,0.8,0.8h3.7c0.4,0,0.8-0.3,0.8-0.8S998.8,152.1,998.4,152.1
		z"/>
	<path class="st0" d="M1003.3,165.9c0.4,0,0.7-0.3,0.8-0.8v-2.4c0-0.4-0.3-0.8-0.8-0.8s-0.8,0.3-0.8,0.8v2.4
		C1002.5,165.6,1002.9,165.9,1003.3,165.9z"/>
	<circle class="st0" cx="997.8" cy="156.4" r="0.8"/>
	<circle class="st0" cx="1008.4" cy="156.4" r="0.8"/>
	<path class="st0" d="M1007.7,153.6h3.7c0.4,0,0.8-0.3,0.8-0.8s-0.3-0.8-0.8-0.8h-3.7c-0.4,0-0.8,0.3-0.8,0.8
		S1007.2,153.6,1007.7,153.6z"/>
	<path class="st0" d="M1062.3,171h3.7c0.4,0,0.8-0.3,0.8-0.8s-0.3-0.8-0.8-0.8h-3.7c-0.4,0-0.8,0.3-0.8,0.8S1061.9,171,1062.3,171
		L1062.3,171z"/>
	<path class="st0" d="M1060.2,152.9c0-0.4-0.3-0.8-0.8-0.8h-3.7c-0.4,0-0.8,0.3-0.8,0.8s0.3,0.8,0.8,0.8h3.7
		C1059.8,153.6,1060.2,153.3,1060.2,152.9C1060.2,152.9,1060.2,152.9,1060.2,152.9z"/>
	<path class="st0" d="M1064.3,166c0.4,0,0.7-0.3,0.8-0.8v-2.4c0-0.4-0.3-0.8-0.8-0.8s-0.8,0.3-0.8,0.8v2.4
		C1063.6,165.7,1063.9,166,1064.3,166z"/>
	<path class="st0" d="M1072.4,183.8c-0.1-0.2-0.3-0.3-0.4-0.4c-0.7-0.4-2.1-2.6-2.2-6.3c4.8-3.2,9.2-10.2,10.1-19.4
		c0.7-6.2-1.1-12.4-5.2-17.1c-5.2-6-14.3-6.7-20.3-1.5c-0.4,0.4-0.8,0.8-1.2,1.2c-3.7,4-5.5,10.4-4.8,17.4c0.3,3.1,1,6.1,2.2,8.9
		c-3-1.2-6.1-2.2-9.3-2.7c-0.1-0.2-0.3-0.3-0.4-0.4c-0.7-0.4-2.1-2.6-2.2-6.3c4.8-3.2,9.2-10.2,10.1-19.4c0.7-6.2-1.1-12.4-5.2-17.1
		c-5.2-6-14.3-6.7-20.3-1.5c-0.4,0.4-0.8,0.8-1.2,1.2c-3.7,4-5.5,10.4-4.8,17.4c0.7,7.9,4.5,15.1,9.2,18.8c-0.1,1.5-0.6,5.9-2.2,7
		l0,0c-0.1,0-0.2,0-0.3,0c-2.2,0.3-4.4,0.8-6.5,1.4c0.8-2.4,1.3-4.8,1.5-7.3c0.7-6.2-1.1-12.4-5.2-17.1c-5.2-6-14.3-6.7-20.3-1.5
		c-0.4,0.4-0.8,0.8-1.2,1.2c-3.7,4-5.5,10.4-4.8,17.4c0.7,7.9,4.5,15.1,9.2,18.8c-0.1,1.6-0.6,5.9-2.2,7l0,0c-0.1,0-0.2,0-0.3,0
		c-13.9,1.9-23.6,8.9-23.6,16.8v0.8h61v0.1h62.4v-0.8C1094,192.7,1085.4,186.1,1072.4,183.8z M1071.2,184.7
		c-0.3,0.6-2.7,2.1-7.5,2.1c-5.7,0-7.8-1.4-7.8-1.8c0,0,0.1-0.2,0.4-0.4c2-1.4,2.6-5.3,2.8-7.2c1.5,1,3.3,1.5,5.2,1.6
		c1.5,0,2.9-0.4,4.2-1.1C1068.7,181.3,1069.9,183.8,1071.2,184.7z M1054.3,141.3c4.8-5.3,13-5.6,18.2-0.8c0.4,0.4,0.7,0.7,1.1,1.1
		c3.8,4.4,5.5,10.2,4.8,16c-1.1,11.8-8.4,20-14.3,20c-6.7,0-13.3-9.3-14.3-20C1049.3,150.9,1050.9,145,1054.3,141.3z M1018.7,137.7
		c-0.6-6.6,1-12.5,4.5-16.3c4.8-5.3,13-5.6,18.2-0.8c0.4,0.4,0.7,0.7,1.1,1.1c3.8,4.4,5.5,10.2,4.8,16c-1.1,11.8-8.4,20-14.3,20
		C1026.3,157.6,1019.6,148.3,1018.7,137.7L1018.7,137.7z M1025.1,164.8c2-1.4,2.6-5.3,2.8-7.2c1.5,1,3.3,1.5,5.2,1.6
		c1.5,0,2.9-0.4,4.2-1.1c0.2,3.3,1.5,5.9,2.8,6.7c-0.3,0.6-2.7,2.1-7.5,2.1c-5.7,0-7.8-1.4-7.8-1.8
		C1024.7,165.1,1024.8,165,1025.1,164.8L1025.1,164.8z M1023.2,165.2c0,0.1,0,0.3,0.1,0.4c0.5,1.7,4.1,2.8,9.2,2.8
		c4.7,0,8-1.4,8.8-3c3.5,0.6,6.9,1.7,10.1,3.2l0,0c1.4,3,3.5,5.7,6.1,7.8c-0.1,1.6-0.6,5.9-2.2,7h-0.1c-0.1,0-0.2,0-0.3,0
		c-11.6,1.6-20.3,6.7-22.8,13c-2.3-5.9-10.1-10.8-20.8-12.7c-0.1-0.2-0.3-0.3-0.4-0.4c-0.7-0.4-2.1-2.6-2.2-6.3
		c3.6-2.6,6.3-6.2,7.9-10.3C1018.8,166,1021,165.5,1023.2,165.2L1023.2,165.2z M988.9,157.5c-0.6-6.6,1-12.5,4.5-16.3
		c4.8-5.3,13-5.6,18.2-0.8c0.4,0.4,0.7,0.7,1.1,1.1c3.8,4.4,5.5,10.2,4.8,16c-1.1,11.8-8.4,20-14.3,20
		C996.5,177.5,989.8,168.1,988.9,157.5L988.9,157.5z M995.2,184.7c2-1.4,2.6-5.3,2.8-7.2c1.5,1,3.3,1.5,5.2,1.6
		c1.5,0,2.9-0.4,4.2-1.1c0.2,3.3,1.5,5.9,2.8,6.7c-0.3,0.6-2.7,2.1-7.5,2.1c-5.3,0-7.8-1.3-7.8-1.8
		C994.9,185,994.9,184.9,995.2,184.7L995.2,184.7z M972,199.5c0.6-6.7,9.2-12.5,21.4-14.4c0,0.1,0,0.3,0.1,0.4
		c0.5,1.7,4.1,2.8,9.2,2.8c4.7,0,8-1.5,8.8-3c11.3,2.1,19.4,7.8,19.9,14.2L972,199.5z M1033,199.6c0.6-6.7,9.2-12.5,21.4-14.4
		c0,0.1,0,0.3,0.1,0.4c0.5,1.7,4.2,2.8,9.2,2.8c4.7,0,8-1.5,8.8-3c11.3,2.1,19.3,7.9,19.9,14.2L1033,199.6z"/>
	<path class="st0" d="M1058.9,155.6c-0.5,0-0.8,0.4-0.8,0.8c0,0.5,0.4,0.8,0.8,0.8c0.5,0,0.8-0.4,0.8-0.8c0,0,0,0,0,0
		C1059.7,156,1059.3,155.6,1058.9,155.6z"/>
	<circle class="st0" cx="1069.4" cy="156.4" r="0.8"/>
	<path class="st0" d="M1068.7,153.6h3.7c0.4,0,0.8-0.3,0.8-0.8s-0.3-0.8-0.8-0.8h-3.7c-0.4,0-0.8,0.3-0.8,0.8
		S1068.3,153.6,1068.7,153.6z"/>
	<path class="st0" d="M1035.5,150.4c0-0.4-0.3-0.7-0.7-0.8c0,0,0,0,0,0h-3.7c-0.4,0-0.8,0.3-0.8,0.8s0.3,0.8,0.8,0.8h3.7
		C1035.2,151.1,1035.5,150.8,1035.5,150.4z"/>
	<path class="st0" d="M1028.2,132.2h-3.7c-0.4,0-0.8,0.3-0.8,0.8s0.3,0.8,0.8,0.8h3.7c0.4,0,0.8-0.3,0.8-0.8
		S1028.7,132.2,1028.2,132.2z"/>
	<path class="st0" d="M1033.1,146.1c0.4,0,0.7-0.3,0.8-0.8V143c0-0.4-0.3-0.8-0.8-0.8s-0.8,0.3-0.8,0.8v2.4
		C1032.4,145.8,1032.7,146.1,1033.1,146.1z"/>
	<path class="st0" d="M1027.7,135.7c-0.5,0-0.8,0.4-0.8,0.8c0,0.5,0.4,0.8,0.8,0.8c0.5,0,0.8-0.4,0.8-0.8
		C1028.5,136.1,1028.1,135.7,1027.7,135.7C1027.7,135.7,1027.7,135.7,1027.7,135.7z"/>
	<path class="st0" d="M1038.3,135.7c-0.5,0-0.8,0.4-0.8,0.8c0,0.5,0.4,0.8,0.8,0.8c0.5,0,0.8-0.4,0.8-0.8
		C1039.1,136.1,1038.7,135.7,1038.3,135.7C1038.3,135.7,1038.3,135.7,1038.3,135.7z"/>
	<path class="st0" d="M1037.5,133.7h3.7c0.4,0,0.8-0.3,0.8-0.8s-0.3-0.8-0.8-0.8h-3.7c-0.4,0-0.8,0.3-0.8,0.8
		S1037.1,133.7,1037.5,133.7z"/>
	<path class="st1" d="M309.3,384.1H280c-1.7-0.1-3.2,0.9-3.8,2.5h28.1c3,0,5.5,2.2,5.5,4.9v46.1c1.8-0.1,3.4-1.5,3.5-3.3v-46.7
		C313.2,385.6,311.5,384.1,309.3,384.1z"/>
	<path class="st1" d="M283.8,392.3h16.5c2.4-0.1,4.5,1.7,4.6,4.1v45.2c1.4-0.2,2.6-1.1,3.1-2.4c0-0.1,0.1-0.2,0.1-0.4
		c0-0.2,0.1-0.3,0.1-0.5v-46.7c-0.2-2-2-3.5-4-3.4H275c-2.2,0-4,1.5-4,3.4v12.7l8.9-10.1C280.9,392.9,282.3,392.3,283.8,392.3z"/>
	<path class="st0" d="M309.3,382.6H280c-2.5-0.1-4.8,1.6-5.4,4c-2.7,0-4.9,2.2-5.1,4.9v14.4l1.5-1.7v-12.7c0-1.9,1.8-3.4,4-3.4h29.2
		c2-0.2,3.8,1.3,4,3.4v46.7c0,0.2,0,0.3-0.1,0.5c0,0.1,0,0.2-0.1,0.4c-0.5,1.3-1.7,2.3-3.1,2.4v0.9c0,0.2,0,0.4-0.1,0.6
		c2.3-0.2,4.2-1.8,4.7-4c2.7,0,4.9-2.2,5.1-4.9v-46.7C314.8,384.8,312.3,382.6,309.3,382.6z M313.3,434.2c-0.1,1.8-1.7,3.3-3.5,3.3
		v-46.1c0-2.7-2.5-4.9-5.5-4.9h-28.1c0.6-1.6,2.1-2.6,3.8-2.5h29.2c2.2,0,4,1.5,4,3.4V434.2z"/>
	<path class="st2" d="M305,441.5v-45.2c-0.2-2.4-2.2-4.2-4.6-4.1h-16.5c-1.5,0-2.9,0.6-3.9,1.8l-8.9,10.1l-1.5,1.7l-1.2,1.4
		c-0.9,1-1.3,2.3-1.4,3.6v31.7c0.2,2.4,2.2,4.2,4.6,4.1h28.7c2.2,0.1,4.1-1.4,4.6-3.5c0-0.2,0.1-0.4,0.1-0.6L305,441.5z"/>
	<path class="st2" d="M514,442.5c0.2,2.4,2.2,4.2,4.6,4.1h28.7c2.4,0.1,4.5-1.7,4.6-4.1v-46.1c-0.2-2.4-2.2-4.2-4.6-4.1h-16.5
		c-1.5,0-2.9,0.6-3.9,1.8l-11.5,13.2c-0.9,1-1.3,2.3-1.3,3.6L514,442.5z"/>
	<polygon class="st2" points="481.4,419.9 480.4,421 485,425.3 348,425.3 348,426.8 485,426.8 480.4,431.1 481.4,432.2 488,426 	"/>
	<polygon class="st2" points="955.4,419.9 954.4,421 959,425.3 795,425.3 795,426.8 959,426.8 954.4,431.1 955.4,432.2 962,426 	"/>
	<polygon class="st2" points="423,394.4 418.8,399 418.8,328 417.2,328 417.2,399 413,394.4 411.9,395.4 418,402 424.1,395.4 	"/>
	<path class="st0" d="M140.4,223.3c0-0.4-0.3-0.7-0.8-0.8H135c-0.4,0-0.8,0.3-0.8,0.8s0.3,0.8,0.8,0.8h4.6
		C140,224.1,140.4,223.7,140.4,223.3C140.4,223.3,140.4,223.3,140.4,223.3z"/>
	<path class="st0" d="M131.4,200.8h-4.6c-0.4,0-0.8,0.3-0.8,0.8s0.3,0.8,0.8,0.8h4.6c0.4,0,0.8-0.3,0.8-0.8S131.9,200.8,131.4,200.8
		z"/>
	<path class="st0" d="M137.6,217.8c0.4,0,0.7-0.3,0.8-0.8v-3c0-0.4-0.3-0.8-0.8-0.8s-0.8,0.3-0.8,0.8v3
		C136.8,217.4,137.1,217.8,137.6,217.8z"/>
	<path class="st0" d="M146.2,238.8h-0.1c-1.2-2.1-1.8-4.5-1.8-7c6.1-3.9,11.5-12.7,12.6-24.2c0.8-8.1-1.6-15.9-6.5-21.3
		c-6.4-7.5-17.7-8.3-25.1-1.9c-0.5,0.5-1,1-1.5,1.5c-4.6,5-6.8,12.9-6,21.7c0.9,9.9,5.6,18.9,11.5,23.5l0,0c-0.1,2.5-0.6,5-1.5,7.3
		c-0.1,0-0.2,0-0.2,0c-14.4,2-24.5,9.2-24.5,17.5v0.8h65.1v-0.8C168.1,247.8,159.5,241.1,146.2,238.8z M119.3,207.4
		c-0.7-8.3,1.3-15.8,5.6-20.5c6.1-6.7,16.4-7.1,23.1-1.1c0.5,0.5,1,0.9,1.4,1.4c4.6,5.1,6.8,12.4,6.1,20.1
		c-1.4,14.8-10.7,25.2-18.1,25.2C128.9,232.6,120.5,220.8,119.3,207.4L119.3,207.4z M130.8,232c2,1.3,4.3,2,6.6,2.1
		c1.9,0,3.8-0.5,5.5-1.4c0.3,4.3,1.9,7.6,3.5,8.5c0,0,0.1,0.1,0.1,0.1l0,0c0,0.2-0.1,0.3-0.3,0.4c-1.1,1.2-4.5,2.5-9.4,2.5
		c-6.5,0-9.7-1.5-9.9-2.3c-0.1-0.2,0.4-0.6,0.5-0.7C129.9,239.5,130.6,234.2,130.8,232z M104.6,255.1c0.6-7,9.4-13,21.9-15.1
		c-1.3,0.9-1.2,1.8-1.1,2.3c0.6,2.1,5.1,3.4,11.4,3.4s10.5-2,11.1-4c0.1-0.4,0.1-0.8-0.1-1.2c11.1,2.3,18.4,7.9,18.9,14.5
		L104.6,255.1z"/>
	<path class="st0" d="M130.7,205c-0.6,0-1,0.4-1,1s0.4,1,1,1s1-0.4,1-1S131.3,205,130.7,205z"/>
	<path class="st0" d="M144,205c-0.6,0-1,0.4-1,1s0.4,1,1,1s1-0.4,1-1S144.6,205,144,205z"/>
	<path class="st0" d="M143,202.3h4.6c0.4,0,0.8-0.3,0.8-0.8s-0.3-0.8-0.8-0.8H143c-0.4,0-0.8,0.3-0.8,0.8S142.6,202.3,143,202.3z"/>
	<polygon class="st0" points="169.4,245.7 190.1,235.5 187.8,241.4 189.2,242 192.4,233.5 183.8,230.9 183.4,232.4 189.4,234.2 
		168.8,244.4 	"/>
	<polygon class="st0" points="88.2,232.4 87.7,230.9 79.1,233.5 82.3,241.9 83.7,241.4 81.5,235.5 102.1,245.7 102.7,244.4 
		82.1,234.2 	"/>
	<polygon class="st0" points="187.8,263.1 190,269 169.4,258.9 168.8,260.2 189.4,270.4 183.4,272.2 183.8,273.6 192.4,271 
		189.2,262.6 	"/>
	<polygon class="st0" points="102.1,258.9 81.4,269 83.7,263.1 82.3,262.6 79.1,271 87.7,273.6 88.2,272.2 82.1,270.4 102.7,260.2 	
		"/>
	<path class="st2" d="M882.8,206.8c21.6-21.2,21.9-55.8,0.7-77.4s-55.8-21.9-77.4-0.7c-1.7,1.7-3.3,3.4-4.8,5.3
		c-9,11.4-13,26-11.1,40.4l1.5-0.2c-3.6-29.2,17.1-55.8,46.3-59.4c29.2-3.6,55.8,17.1,59.4,46.3c2,16.5-3.8,33.1-15.7,44.7l0.3-6.4
		l-1.5-0.1l-0.5,9l9-0.2v-1.5L882.8,206.8z"/>
	<path class="st0" d="M67,303.4h-3.6v5.5h-2.9v-15.3H67c3.2,0,5,1.9,5,4.9c0.1,2.6-1.9,4.8-4.5,4.9C67.4,303.4,67.2,303.4,67,303.4z
		 M63.4,296.2v4.5h3.5c1.2-0.1,2.2-1.1,2.1-2.4c-0.1-1.1-1-2-2.1-2.1H63.4z"/>
	<path class="st0" d="M80.5,300.1c-1-0.2-2,0-2.8,0.7c-0.6,0.7-0.8,1.6-0.7,2.5v5.6h-2.9v-11.3h2.8v1.1c0.9-1.1,2.3-1.6,3.7-1.4
		L80.5,300.1z"/>
	<path class="st0" d="M93.1,303.1c-0.2,3.2-2.8,5.6-6,5.4s-5.6-2.8-5.4-6c0.1-3,2.7-5.4,5.7-5.4c3.2,0,5.7,2.6,5.7,5.8
		C93.1,303,93.1,303.1,93.1,303.1z M90.1,303.1c0-2-1.3-3.3-2.8-3.3s-2.8,1.4-2.8,3.3c-0.2,1.5,0.8,3,2.4,3.2c1.5,0.2,3-0.8,3.2-2.4
		C90.2,303.7,90.2,303.4,90.1,303.1z"/>
	<path class="st0" d="M106.2,308.8h-2.8v-1.2c-0.9,0.9-2.2,1.5-3.5,1.5c-3.3-0.3-5.6-3.2-5.3-6.5c0.3-2.8,2.5-5,5.3-5.3
		c1.2,0,2.4,0.5,3.3,1.3v-6.1h2.9V308.8z M100.4,299.9c-1.8-0.2-3.4,1.1-3.6,2.9c-0.2,1.8,1.1,3.4,2.9,3.6c1.8,0.2,3.4-1.1,3.6-2.9
		c0-0.1,0-0.2,0-0.3C103.4,301.5,102.1,300,100.4,299.9L100.4,299.9z"/>
	<path class="st0" d="M119.2,308.8h-2.8v-1c-0.7,0.8-1.8,1.3-2.9,1.3c-2.7,0-4.5-2-4.5-5v-6.6h2.9v6.6c-0.1,1.1,0.7,2.1,1.8,2.2
		c0.1,0,0.2,0,0.3,0c1.2,0,2.2-0.9,2.2-2.1c0,0,0-0.1,0-0.1v-6.6h2.9L119.2,308.8z"/>
	<path class="st0" d="M127.2,309.1c-3.3,0-5.9-2.7-5.9-5.9s2.7-5.9,5.9-5.9c2.6-0.1,4.9,1.6,5.5,4.1h-3.1c-0.5-0.9-1.4-1.4-2.3-1.4
		c-1.7,0.1-3,1.6-2.9,3.3c-0.1,1.7,1.2,3.2,2.9,3.3c1,0,1.9-0.6,2.4-1.5h3.1C132.1,307.5,129.8,309.2,127.2,309.1z"/>
	<path class="st0" d="M140.1,308.8c-3.3,0.4-5.1-1.6-5.1-4.8v-4h-1.4v-2.6h1.4v-2.9h2.9v2.9h2v2.6h-2v4c0,1.6,0.7,2.2,2.2,2.1
		L140.1,308.8z"/>
	<path class="st0" d="M163.4,301.1c0,4.5-3.1,8-7.5,8s-7.5-3.5-7.5-8s3.1-7.9,7.5-7.9S163.4,296.7,163.4,301.1z M160.4,301.1
		c0-2.8-2-5.2-4.5-5.2s-4.6,2.4-4.6,5.2s2,5.2,4.6,5.2S160.4,304,160.4,301.1L160.4,301.1z"/>
	<path class="st0" d="M178,308.8h-3l-2.1-7.5l-2,7.5h-3l-3.5-11.3h3.1l2,7.9l2.1-7.9h2.9l2.1,7.9l2-7.9h3.1L178,308.8z"/>
	<path class="st0" d="M193.2,308.8h-2.9v-6.6c0.1-1.1-0.6-2.1-1.7-2.2c-0.1,0-0.2,0-0.4,0c-1.2,0-2.2,0.9-2.2,2.1c0,0,0,0.1,0,0.1
		v6.6h-2.9v-11.3h2.8v1.1c0.7-0.9,1.8-1.4,2.9-1.4c2.7,0,4.4,2,4.4,5V308.8z"/>
	<path class="st0" d="M198.3,304.3c0.3,1.3,1.5,2.3,2.8,2.2c1,0,1.9-0.5,2.4-1.3h3.1c-0.7,2.4-3,4-5.5,3.9c-3.3,0-5.9-2.7-5.9-5.9
		s2.7-5.9,5.9-5.9c3.3,0,6.1,2.6,5.7,7.1L198.3,304.3z M204,301.9c-0.3-1.3-1.5-2.2-2.8-2.2c-1.3,0-2.5,0.9-2.8,2.2H204z"/>
	<path class="st0" d="M215.5,300.1c-1-0.2-2,0-2.8,0.7c-0.6,0.7-0.8,1.6-0.7,2.5v5.6h-2.9v-11.3h2.8v1.1c0.9-1.1,2.3-1.6,3.6-1.4
		L215.5,300.1z"/>
	<path class="st0" d="M357.8,207.2h-2.9c0-1.3-1.1-2.3-3-2.3c-1.5,0-3,0.6-3,1.8s1,1.4,3.4,1.9c3.6,0.7,5.9,1.6,5.9,4.8
		c0,2.9-2.5,4.8-6.3,4.8c-3,0-6.2-1.6-6.2-5.3h2.9c0,1.8,1.8,2.7,3.4,2.7s3.4-0.6,3.4-2c0-1-0.8-1.6-3.6-2.1s-5.7-1.4-5.7-4.7
		c0-2.6,2.3-4.4,5.9-4.4C356,202.1,357.8,204.7,357.8,207.2z"/>
	<path class="st0" d="M365.8,218.1c-3.3,0-5.9-2.7-5.9-5.9s2.7-5.9,5.9-5.9c2.6-0.1,4.9,1.6,5.5,4.1h-3.1c-0.5-0.9-1.4-1.4-2.4-1.4
		c-1.7,0.1-3,1.6-2.9,3.3c-0.1,1.7,1.2,3.2,2.9,3.3c1,0,1.9-0.6,2.4-1.4h3.1C370.7,216.5,368.4,218.2,365.8,218.1z"/>
	<path class="st0" d="M379.9,209.1c-1-0.2-2,0-2.8,0.7c-0.5,0.7-0.8,1.6-0.7,2.5v5.6h-2.9v-11.3h2.8v1.1c0.9-1.1,2.3-1.6,3.7-1.4
		V209.1z"/>
	<path class="st0" d="M391.7,217.8h-2.8v-1c-0.7,0.8-1.8,1.3-2.9,1.3c-2.7,0-4.5-2-4.5-5v-6.6h2.9v6.6c-0.1,1.1,0.7,2.1,1.8,2.2
		c0.1,0,0.2,0,0.3,0c1.2,0,2.2-0.9,2.2-2.1c0,0,0-0.1,0-0.1v-6.6h2.9V217.8z"/>
	<path class="st0" d="M411.9,217.8H409v-6.6c0.1-1.1-0.6-2.1-1.7-2.2c-0.1,0-0.2,0-0.4,0c-1.2,0-2.2,0.9-2.2,2.1c0,0,0,0.1,0,0.1
		v6.6h-2.9v-6.6c0.1-1.1-0.6-2.1-1.7-2.2c-0.1,0-0.2,0-0.4,0c-1.2,0-2.2,0.9-2.2,2.1c0,0,0,0.1,0,0.1v6.6h-2.9v-11.3h2.8v1.1
		c0.7-0.9,1.8-1.4,2.9-1.4c1.3,0,2.6,0.6,3.4,1.6c0.8-1,2.1-1.6,3.5-1.6c3,0,4.8,2,4.8,5L411.9,217.8z"/>
	<path class="st0" d="M436.8,217.8h-2.9v-11.2l-3.1,11.2h-3.1l-3.1-11.2v11.2h-2.9v-15.3h4.3l3.2,11.5l3.2-11.4h4.3V217.8z"/>
	<path class="st0" d="M447.2,216.8c-0.9,0.9-2.2,1.4-3.5,1.3c-2.4,0-4.6-1.2-4.6-3.7s2.1-3.2,4.6-3.4c1.9-0.2,3.2-0.4,3.2-1.3
		c0-0.6-0.8-1.1-2.1-1.1c-1-0.1-2,0.5-2.5,1.4h-2.9c0.3-2.2,2.4-3.8,5.3-3.8c4.6,0,5,3,5,3.9v5.9c0,0.6,0.1,1.3,0.3,1.9h-2.7
		C447.3,217.5,447.2,217.1,447.2,216.8z M447.1,212.4c-0.9,0.4-1.8,0.7-2.8,0.7c-1.4,0.1-2.3,0.5-2.3,1.3c0,0.6,0.8,1.1,1.9,1.1
		c1.7,0,3.1-0.6,3.1-2V212.4z"/>
	<path class="st0" d="M457.4,218.1c-2.9,0-5-1.5-5.4-4h3c0.5,0.9,1.4,1.4,2.4,1.3c1.2,0,2-0.4,2-1s-0.4-0.9-2.4-1.2
		s-4.7-0.9-4.7-3.4c0-1.8,1.6-3.6,4.8-3.6c2.6,0,4.5,1.4,4.9,3.5h-3c-0.2-0.5-0.8-0.9-1.9-0.9c-1.3,0-1.9,0.5-1.9,0.9
		c0,0.6,0.8,0.8,2.2,1c2.8,0.5,4.8,1.1,4.8,3.5C462.3,216.5,460.3,218.1,457.4,218.1z"/>
	<path class="st0" d="M469.9,217.8c-3.3,0.4-5.1-1.6-5.1-4.8v-4h-1.4v-2.6h1.4v-2.9h2.9v2.9h2v2.6h-2v4c0,1.6,0.7,2.2,2.2,2.1
		L469.9,217.8z"/>
	<path class="st0" d="M474,213.3c0.3,1.3,1.5,2.3,2.8,2.2c1,0,1.9-0.5,2.4-1.3h3.1c-0.7,2.4-3,4-5.5,3.9c-3.3,0-5.9-2.7-5.9-5.9
		s2.7-5.9,5.9-5.9l0,0c3.4,0,6.1,2.6,5.7,7.1L474,213.3z M479.7,210.9c-0.3-1.3-1.5-2.2-2.8-2.2c-1.3,0-2.5,0.9-2.8,2.2H479.7z"/>
	<path class="st0" d="M491.2,209.1c-1-0.2-2,0-2.8,0.7c-0.6,0.7-0.8,1.6-0.7,2.5v5.6h-2.9v-11.3h2.8v1.1c0.9-1.1,2.3-1.6,3.6-1.4
		L491.2,209.1z"/>
	<path class="st0" d="M685.7,334.2v12.6h-2.9v-12.6h-4.1v-2.7h11.1v2.7H685.7z"/>
	<path class="st0" d="M694,342.3c0.3,1.3,1.5,2.3,2.8,2.2c1,0,1.9-0.5,2.4-1.3h3.1c-0.7,2.4-3,4-5.5,3.9c-3.3,0-5.9-2.7-5.9-5.9
		s2.7-5.9,5.9-5.9c3.3,0,6.1,2.6,5.7,7.1L694,342.3z M699.7,339.9c-0.3-1.3-1.5-2.2-2.8-2.2c-1.3,0-2.5,0.9-2.8,2.2H699.7z"/>
	<path class="st0" d="M712.2,345.8c-0.9,0.9-2.2,1.4-3.5,1.3c-2.4,0-4.6-1.2-4.6-3.7s2.1-3.2,4.6-3.4c1.9-0.2,3.2-0.4,3.2-1.3
		c0-0.6-0.8-1.1-2.1-1.1c-1.1-0.1-2.1,0.5-2.5,1.4h-2.9c0.3-2.2,2.3-3.8,5.3-3.8c4.6,0,5,3,5,3.9v5.9c0,0.6,0.1,1.3,0.3,1.9h-2.7
		C712.4,346.5,712.3,346.1,712.2,345.8z M712.1,341.4c-0.9,0.4-1.8,0.7-2.8,0.7c-1.4,0.1-2.3,0.5-2.3,1.3c0,0.6,0.7,1.1,1.9,1.1
		c1.7,0,3.2-0.6,3.2-2V341.4z"/>
	<path class="st0" d="M735.2,346.8h-2.9v-6.6c0.1-1.1-0.6-2.1-1.7-2.2c-0.1,0-0.2,0-0.4,0c-1.2,0-2.2,0.9-2.2,2.1c0,0,0,0.1,0,0.1
		v6.6h-3v-6.6c0.1-1.1-0.6-2.1-1.7-2.2c-0.1,0-0.2,0-0.4,0c-1.2,0-2.2,0.9-2.2,2.1c0,0,0,0.1,0,0.1v6.6h-2.9v-11.3h2.8v1.1
		c0.7-0.9,1.8-1.4,2.9-1.4c1.3,0,2.6,0.6,3.4,1.6c0.8-1,2.1-1.6,3.5-1.6c3,0,4.8,2,4.8,5L735.2,346.8z"/>
	<path class="st0" d="M756.5,336.2h-2.9c0-1.3-1.1-2.3-3-2.3c-1.5,0-3,0.6-3,1.8s1,1.4,3.4,1.9c3.6,0.7,5.9,1.6,5.9,4.8
		c0,3-2.5,4.8-6.3,4.8c-3,0-6.2-1.6-6.2-5.3h2.9c0,1.8,1.8,2.7,3.3,2.7s3.4-0.6,3.4-2c0-1-0.8-1.6-3.6-2.1s-5.7-1.4-5.7-4.7
		c0-2.6,2.3-4.4,5.9-4.4C754.7,331.1,756.5,333.7,756.5,336.2z"/>
	<path class="st0" d="M765.6,347c-1.2,0-2.4-0.5-3.3-1.3v6.1h-2.9v-16.4h2.8v1.2c0.9-0.9,2.2-1.5,3.5-1.5c3.3,0.3,5.7,3.2,5.3,6.5
		C770.7,344.5,768.5,346.8,765.6,347z M765.2,337.9c-1.8-0.2-3.4,1.1-3.5,2.9c-0.2,1.8,1.1,3.4,2.9,3.5c1.8,0.2,3.4-1.1,3.5-2.9
		c0-0.1,0-0.2,0-0.3c0.1-1.7-1.1-3.1-2.8-3.2C765.3,337.9,765.3,337.9,765.2,337.9L765.2,337.9z"/>
	<path class="st0" d="M779.7,338.1c-1-0.2-2,0-2.8,0.7c-0.6,0.7-0.8,1.6-0.7,2.5v5.6h-2.9v-11.3h2.8v1.1c0.9-1.1,2.3-1.6,3.7-1.4
		V338.1z"/>
	<path class="st0" d="M784.4,334.2h-2.9v-2.7h2.9V334.2z M784.4,346.8h-2.9v-11.3h2.9V346.8z"/>
	<path class="st0" d="M797.5,346.8h-2.9v-6.6c0.1-1.1-0.6-2.1-1.7-2.2c-0.1,0-0.2,0-0.4,0c-1.2,0-2.2,0.9-2.2,2.1c0,0,0,0.1,0,0.1
		v6.6h-2.9v-11.3h2.8v1.1c0.7-0.9,1.8-1.4,2.9-1.4c2.7,0,4.4,2,4.4,5V346.8z"/>
	<path class="st0" d="M805.6,346.8c-3.3,0.4-5.1-1.6-5.1-4.8v-4h-1.4v-2.6h1.4v-2.9h2.9v2.9h2v2.6h-2v4c0,1.6,0.7,2.2,2.2,2.1V346.8
		z"/>
	<path class="st0" d="M837.2,167.9v2.7h-10.6v-1.3c0-3.4,2.3-5.1,4.6-6.3c2.8-1.5,3.1-2.2,3.1-3.1s-0.6-1.9-2.2-1.9
		c-1.4,0-2.4,1.1-2.4,2.5c0,0.1,0,0.2,0,0.3h-2.9c-0.1-2.8,2-5.3,4.9-5.4c0.1,0,0.3,0,0.4,0c3.5,0,5.1,2.4,5.1,4.6
		c0,2.9-2,4-4.6,5.4c-1.5,0.8-2.7,1.7-2.8,2.6L837.2,167.9z"/>
	<path class="st0" d="M848.4,167.4v3.1h-2.7v-3.1H839v-2.6l6-9.6h3.4v9.6h1.6v2.6H848.4z M845.7,158.8l-3.8,6h3.8V158.8z"/>
	<path class="st0" d="M866.8,170.6h-2.9v-6.6c0.1-1.1-0.7-2.1-1.8-2.1c-0.1,0-0.2,0-0.3,0c-1.1-0.1-2.1,0.8-2.2,2c0,0.1,0,0.1,0,0.2
		v6.6h-2.9v-16.4h2.9v5.6c0.7-0.6,1.7-0.9,2.6-0.9c2.8,0,4.6,2,4.6,5V170.6z"/>
	<path class="st0" d="M929.9,232.8h-5.7v-15.3h5.7c4.2,0,6.9,2.9,6.9,7.6S934.1,232.8,929.9,232.8z M929.9,220.2h-2.8v9.9h2.8
		c3.5,0,4-3.1,4-4.9C933.9,222.9,933.2,220.2,929.9,220.2L929.9,220.2z"/>
	<path class="st0" d="M946.5,231.8c-0.9,0.9-2.2,1.3-3.5,1.2c-2.4,0-4.6-1.2-4.6-3.7s2.1-3.2,4.6-3.4c1.9-0.2,3.2-0.4,3.2-1.3
		c0-0.6-0.8-1.1-2.1-1.1c-1-0.1-2,0.5-2.5,1.4h-2.9c0.3-2.2,2.3-3.8,5.3-3.8c4.6,0,5,3,5,3.9v6c0,0.6,0.1,1.3,0.3,1.9h-2.7
		C946.7,232.5,946.6,232.1,946.5,231.8z M946.4,227.4c-0.9,0.4-1.8,0.7-2.8,0.7c-1.4,0.1-2.3,0.5-2.3,1.3c0,0.6,0.8,1.1,1.9,1.1
		c1.7,0,3.2-0.6,3.2-2V227.4z"/>
	<path class="st0" d="M955.1,220.2h-2.9v-2.7h2.9V220.2z M955.1,232.8h-2.9v-11.3h2.9V232.8z"/>
	<path class="st0" d="M961,232.8h-2.9v-16.4h2.9V232.8z"/>
	<path class="st0" d="M969.2,234.9c-1.1,2.9-2.8,3.4-5.2,3.2v-2.6c1.5,0.1,2.1-0.3,2.6-1.6l0.4-0.9l-4.4-11.5h3.1l2.8,8.2l2.7-8.2
		h3.1L969.2,234.9z"/>
	<path class="st0" d="M994.4,222.2h-2.9c0-1.3-1.1-2.3-3-2.3c-1.5,0-3,0.6-3,1.8s1,1.4,3.4,1.9c3.6,0.7,5.9,1.6,5.9,4.8
		c0,2.9-2.5,4.8-6.3,4.8c-3,0-6.2-1.6-6.2-5.3h2.9c0,1.8,1.8,2.7,3.3,2.7s3.4-0.6,3.4-2c0-1-0.8-1.6-3.6-2.1s-5.7-1.4-5.7-4.7
		c0-2.6,2.3-4.4,5.9-4.4C992.6,217.1,994.4,219.7,994.4,222.2z"/>
	<path class="st0" d="M1002.4,233.1c-3.3,0-5.9-2.7-5.9-5.9s2.7-5.9,5.9-5.9c2.6-0.1,4.9,1.6,5.5,4.1h-3.1c-0.5-0.9-1.4-1.4-2.3-1.4
		c-1.7,0.1-3,1.6-2.9,3.3c-0.1,1.7,1.2,3.2,2.9,3.3c1,0,1.9-0.6,2.4-1.4h3.1C1007.3,231.5,1005,233.2,1002.4,233.1z"/>
	<path class="st0" d="M1016.5,224.1c-1-0.2-2,0-2.8,0.7c-0.6,0.7-0.8,1.6-0.7,2.5v5.6h-2.9v-11.3h2.8v1.1c0.9-1.1,2.3-1.6,3.7-1.4
		L1016.5,224.1z"/>
	<path class="st0" d="M1028.3,232.8h-2.8v-1c-0.7,0.8-1.8,1.3-2.9,1.3c-2.7,0-4.5-2-4.5-5v-6.6h2.9v6.6c-0.1,1.1,0.7,2.1,1.8,2.2
		c0.1,0,0.2,0,0.4,0c1.2,0,2.2-0.9,2.2-2.1c0,0,0-0.1,0-0.1v-6.6h2.9V232.8z"/>
	<path class="st0" d="M1048.5,232.8h-2.9v-6.6c0.1-1.1-0.6-2.1-1.7-2.2c-0.1,0-0.2,0-0.4,0c-1.2,0-2.2,0.9-2.2,2.1c0,0,0,0.1,0,0.1
		v6.6h-2.9v-6.6c0.1-1.1-0.6-2.1-1.7-2.2c-0.1,0-0.2,0-0.4,0c-1.2,0-2.2,0.9-2.2,2.1c0,0,0,0.1,0,0.1v6.6h-2.9v-11.3h2.8v1.1
		c0.7-0.9,1.8-1.4,2.9-1.4c1.3,0,2.6,0.6,3.4,1.6c0.8-1,2.1-1.6,3.4-1.6c3,0,4.8,2,4.8,5V232.8z"/>
	<path class="st0" d="M1073.4,232.8h-2.9v-11.2l-3.1,11.2h-3.1l-3.1-11.2v11.2h-2.9v-15.3h4.3l3.2,11.4l3.2-11.4h4.3V232.8z"/>
	<path class="st0" d="M1078.6,228.3c0.3,1.3,1.5,2.3,2.8,2.2c1,0,1.9-0.5,2.4-1.3h3.1c-0.7,2.4-3,4-5.5,3.9c-3.3,0-5.9-2.7-5.9-5.9
		s2.7-5.9,5.9-5.9c3.3,0,6.1,2.6,5.7,7.1L1078.6,228.3z M1084.3,225.9c-0.3-1.3-1.5-2.2-2.8-2.2c-1.3,0-2.5,0.9-2.8,2.2H1084.3z"/>
	<path class="st0" d="M1091.7,228.3c0.3,1.3,1.5,2.3,2.8,2.2c1,0,1.9-0.5,2.4-1.3h3.1c-0.7,2.4-3,4-5.5,3.9c-3.3,0-5.9-2.7-5.9-5.9
		s2.7-5.9,5.9-5.9c3.3,0,6.1,2.6,5.7,7.1L1091.7,228.3z M1097.4,225.9c-0.3-1.3-1.5-2.2-2.8-2.2c-1.3,0-2.5,0.9-2.8,2.2H1097.4z"/>
	<path class="st0" d="M1107.8,232.8c-3.3,0.4-5.1-1.6-5.1-4.8v-4h-1.4v-2.6h1.4v-2.9h2.9v2.9h2v2.6h-2v4c0,1.6,0.7,2.2,2.2,2.1
		L1107.8,232.8z"/>
	<path class="st0" d="M1112.7,220.2h-2.9v-2.7h2.9V220.2z M1112.7,232.8h-2.9v-11.3h2.9V232.8z"/>
	<path class="st0" d="M1125.7,232.8h-2.9v-6.6c0.1-1.1-0.6-2.1-1.7-2.2c-0.1,0-0.2,0-0.4,0c-1.2,0-2.2,0.9-2.2,2.1c0,0,0,0.1,0,0.1
		v6.6h-2.9v-11.3h2.8v1.1c0.7-0.9,1.8-1.4,2.9-1.4c2.7,0,4.4,2,4.4,5L1125.7,232.8z"/>
	<path class="st0" d="M1139.5,232.2c0,3.8-2.2,6.1-5.9,6.1c-2.7,0-5.1-1.6-5.5-4h3.2c0.5,0.8,1.4,1.3,2.3,1.2c2.1,0,3-1.3,3-3.4
		v-0.6c-0.9,0.9-2.1,1.3-3.3,1.3c-3.3-0.3-5.6-3.2-5.3-6.5c0.3-2.8,2.5-5,5.3-5.3c1.3,0,2.6,0.5,3.5,1.4v-1.2h2.8L1139.5,232.2z
		 M1133.7,223.9c-1.8-0.2-3.4,1.1-3.6,2.9c-0.2,1.8,1.1,3.4,2.9,3.6c1.8,0.2,3.4-1.1,3.6-2.9c0-0.1,0-0.2,0-0.3
		C1136.7,225.5,1135.4,224,1133.7,223.9C1133.7,223.9,1133.7,223.9,1133.7,223.9L1133.7,223.9z"/>
	<path class="st0" d="M941.5,479.4h-3.6v5.5H935v-15.3h6.4c3.2,0,5,1.9,5,4.9c0.1,2.6-1.9,4.8-4.5,4.9
		C941.8,479.4,941.6,479.4,941.5,479.4z M937.9,472.2v4.5h3.5c1.2-0.1,2.2-1.1,2.1-2.4c-0.1-1.1-1-2-2.1-2.1H937.9z"/>
	<path class="st0" d="M955,476.1c-1-0.2-2,0-2.8,0.7c-0.6,0.7-0.8,1.6-0.7,2.5v5.6h-2.9v-11.3h2.8v1.1c0.9-1.1,2.3-1.6,3.7-1.4
		L955,476.1z"/>
	<path class="st0" d="M967.6,479.1c-0.2,3.2-2.8,5.6-6,5.4s-5.6-2.8-5.4-6c0.1-3,2.7-5.4,5.7-5.4c3.2,0,5.7,2.6,5.7,5.8
		C967.6,479,967.6,479.1,967.6,479.1z M964.6,479.1c0-2-1.3-3.3-2.8-3.3s-2.8,1.4-2.8,3.3c-0.2,1.5,0.8,3,2.4,3.2
		c1.5,0.2,3-0.8,3.2-2.4C964.7,479.7,964.7,479.4,964.6,479.1L964.6,479.1z"/>
	<path class="st0" d="M980.7,484.8H978v-1.2c-0.9,0.9-2.2,1.5-3.5,1.5c-3.3-0.3-5.6-3.2-5.3-6.5c0.3-2.8,2.5-5,5.3-5.3
		c1.2,0,2.4,0.5,3.3,1.3v-6.1h2.9L980.7,484.8z M974.9,475.9c-1.8-0.2-3.4,1.1-3.6,2.9c-0.2,1.8,1.1,3.4,2.9,3.6
		c1.8,0.2,3.4-1.1,3.6-2.9c0-0.1,0-0.2,0-0.3C977.9,477.5,976.6,476,974.9,475.9L974.9,475.9z"/>
	<path class="st0" d="M993.7,484.8h-2.8v-1c-0.7,0.8-1.8,1.3-2.9,1.3c-2.7,0-4.5-2-4.5-5v-6.6h2.9v6.6c-0.1,1.1,0.7,2.1,1.8,2.2
		c0.1,0,0.2,0,0.3,0c1.2,0,2.2-0.9,2.2-2.1c0,0,0-0.1,0-0.1v-6.6h2.9L993.7,484.8z"/>
	<path class="st0" d="M1001.8,485.1c-3.3,0-5.9-2.7-5.9-5.9s2.7-5.9,5.9-5.9c2.6-0.1,4.9,1.6,5.5,4.1h-3.1c-0.5-0.9-1.4-1.4-2.3-1.4
		c-1.7,0.1-3,1.6-2.9,3.3c-0.1,1.7,1.2,3.2,2.9,3.3c1,0,1.9-0.6,2.4-1.5h3.1C1006.6,483.5,1004.3,485.2,1001.8,485.1z"/>
	<path class="st0" d="M1014.6,484.8c-3.3,0.4-5.1-1.6-5.1-4.8v-4h-1.4v-2.6h1.4v-2.9h2.9v2.9h2v2.6h-2v4c0,1.6,0.7,2.2,2.2,2.1
		V484.8z"/>
	<path class="st0" d="M1026.6,484.8h-2.9v-15.3h2.9V484.8z"/>
	<path class="st0" d="M1039.7,484.8h-2.9v-6.6c0.1-1.1-0.6-2.1-1.7-2.2c-0.1,0-0.2,0-0.4,0c-1.2,0-2.2,0.9-2.2,2.1c0,0,0,0.1,0,0.1
		v6.6h-2.9v-11.3h2.8v1.1c0.7-0.9,1.8-1.4,2.9-1.4c2.7,0,4.4,2,4.4,5L1039.7,484.8z"/>
	<path class="st0" d="M1047.7,485.1c-3.3,0-5.9-2.7-5.9-5.9s2.7-5.9,5.9-5.9l0,0c2.6-0.1,4.9,1.6,5.5,4.1h-3.1
		c-0.5-0.9-1.4-1.4-2.4-1.4c-1.7,0.1-3,1.6-2.9,3.3c-0.1,1.7,1.2,3.2,2.9,3.3c1,0,1.9-0.6,2.4-1.4h3.1
		C1052.5,483.5,1050.2,485.2,1047.7,485.1z"/>
	<path class="st0" d="M1061.7,476.1c-1-0.2-2,0-2.8,0.7c-0.5,0.7-0.8,1.6-0.7,2.5v5.6h-2.9v-11.3h2.8v1.1c0.9-1.1,2.3-1.6,3.7-1.4
		L1061.7,476.1z"/>
	<path class="st0" d="M1065.8,480.3c0.3,1.3,1.5,2.3,2.8,2.2c1,0,1.9-0.5,2.4-1.3h3.1c-0.7,2.4-3,4-5.5,3.9c-3.3,0-5.9-2.7-5.9-5.9
		s2.7-5.9,5.9-5.9c3.3,0,6.1,2.6,5.7,7.1L1065.8,480.3z M1071.4,477.9c-0.3-1.3-1.5-2.2-2.8-2.2c-1.3,0-2.5,0.9-2.8,2.2H1071.4z"/>
	<path class="st0" d="M1093.9,484.8h-2.9v-6.6c0.1-1.1-0.6-2.1-1.7-2.2c-0.1,0-0.3,0-0.4,0c-1.2,0-2.2,0.9-2.2,2.1c0,0,0,0.1,0,0.1
		v6.6h-2.9v-6.6c0.1-1.1-0.6-2.1-1.7-2.2c-0.1,0-0.3,0-0.4,0c-1.2,0-2.2,0.9-2.2,2.1c0,0,0,0.1,0,0.1v6.6h-2.9v-11.3h2.8v1.1
		c0.7-0.9,1.8-1.4,2.9-1.4c1.3,0,2.6,0.6,3.4,1.6c0.8-1,2.1-1.6,3.4-1.6c3,0,4.8,2,4.8,5L1093.9,484.8z"/>
	<path class="st0" d="M1099,480.3c0.3,1.3,1.5,2.3,2.8,2.2c1,0,1.9-0.5,2.4-1.3h3.1c-0.7,2.4-3,4-5.5,3.9c-3.3,0-5.9-2.7-5.9-5.9
		s2.7-5.9,5.9-5.9l0,0c3.3,0,6.1,2.6,5.7,7.1L1099,480.3z M1104.7,477.9c-0.3-1.3-1.5-2.2-2.8-2.2c-1.3,0-2.5,0.9-2.8,2.2H1104.7z"
		/>
	<path class="st0" d="M1119.9,484.8h-2.9v-6.6c0.1-1.1-0.6-2.1-1.7-2.2c-0.1,0-0.3,0-0.4,0c-1.2,0-2.2,0.9-2.2,2.1c0,0,0,0.1,0,0.1
		v6.6h-2.9v-11.3h2.8v1.1c0.7-0.9,1.8-1.4,2.9-1.4c2.7,0,4.4,2,4.4,5L1119.9,484.8z"/>
	<path class="st0" d="M1128,484.8c-3.3,0.4-5.1-1.6-5.1-4.8v-4h-1.4v-2.6h1.4v-2.9h2.9v2.9h2v2.6h-2v4c0,1.6,0.7,2.2,2.2,2.1
		L1128,484.8z"/>
	<path class="st0" d="M467.1,474.2h-2.9c0-1.3-1.1-2.3-3-2.3c-1.5,0-3,0.6-3,1.8s1,1.4,3.4,1.9c3.6,0.7,5.9,1.6,5.9,4.8
		c0,3-2.5,4.8-6.3,4.8c-3,0-6.2-1.6-6.2-5.3h2.9c0,1.8,1.8,2.7,3.4,2.7s3.4-0.6,3.4-2c0-1-0.8-1.6-3.6-2.1s-5.7-1.4-5.7-4.7
		c0-2.6,2.3-4.4,5.9-4.4C465.3,469.1,467.1,471.7,467.1,474.2z"/>
	<path class="st0" d="M476.2,485c-1.2,0-2.4-0.5-3.3-1.3v6.1H470v-16.4h2.8v1.2c0.9-0.9,2.2-1.5,3.5-1.5c3.3,0.3,5.7,3.2,5.3,6.5
		C481.3,482.5,479.1,484.8,476.2,485z M475.8,475.9c-1.8-0.2-3.4,1.1-3.5,2.9c-0.2,1.8,1.1,3.4,2.9,3.5c1.8,0.2,3.4-1.1,3.5-2.9
		c0-0.1,0-0.2,0-0.4C478.8,477.5,477.6,476,475.8,475.9C475.9,475.9,475.9,475.9,475.8,475.9L475.8,475.9z"/>
	<path class="st0" d="M490.2,476.1c-1-0.2-2,0-2.8,0.7c-0.6,0.7-0.8,1.6-0.7,2.5v5.6h-2.9v-11.3h2.8v1.1c0.9-1.1,2.3-1.6,3.6-1.4
		L490.2,476.1z"/>
	<path class="st0" d="M495,472.2h-2.9v-2.7h2.9L495,472.2z M495,484.8h-2.9v-11.3h2.9L495,484.8z"/>
	<path class="st0" d="M508.1,484.8h-2.9v-6.6c0.1-1.1-0.6-2.1-1.7-2.2c-0.1,0-0.2,0-0.4,0c-1.2,0-2.2,0.9-2.2,2.1c0,0,0,0.1,0,0.1
		v6.6H498v-11.3h2.8v1.1c0.7-0.9,1.8-1.4,2.9-1.4c2.7,0,4.4,2,4.4,5V484.8z"/>
	<path class="st0" d="M516.2,484.8c-3.3,0.4-5.1-1.6-5.1-4.8v-4h-1.4v-2.6h1.4v-2.9h2.9v2.9h2v2.6h-2v4c0,1.6,0.7,2.2,2.2,2.1
		L516.2,484.8z"/>
	<path class="st0" d="M532.6,484.8h-7.5v-15.3h7c3.1,0,4.6,1.6,4.6,4.1c0,1.2-0.5,2.3-1.5,3c1.4,0.7,2.2,2.1,2.1,3.7
		C537.3,483,535.5,484.8,532.6,484.8z M528,472.2v3.4h4.1c0.9,0,1.7-0.7,1.8-1.6c0,0,0-0.1,0-0.1c0-0.9-0.7-1.6-1.5-1.7
		c-0.1,0-0.2,0-0.2,0L528,472.2z M532.1,478.2H528v3.9h4.1c1.1,0,2.2-0.4,2.2-1.9C534.4,478.9,533.6,478.2,532.1,478.2L532.1,478.2z
		"/>
	<path class="st0" d="M547,483.8c-0.9,0.9-2.2,1.4-3.5,1.3c-2.4,0-4.6-1.2-4.6-3.7s2.1-3.2,4.6-3.4c1.9-0.2,3.2-0.4,3.2-1.3
		c0-0.6-0.8-1.1-2.1-1.1c-1.1-0.1-2.1,0.5-2.5,1.4h-2.9c0.3-2.2,2.4-3.8,5.3-3.8c4.6,0,5,3,5,3.9v5.9c0,0.6,0.1,1.3,0.3,1.9h-2.7
		C547.2,484.5,547.1,484.1,547,483.8z M546.9,479.4c-0.9,0.4-1.8,0.7-2.8,0.7c-1.4,0.1-2.3,0.5-2.3,1.3c0,0.6,0.8,1.1,1.9,1.1
		c1.7,0,3.1-0.6,3.1-2V479.4z"/>
	<path class="st0" d="M557.8,485.1c-3.3,0-5.9-2.7-5.9-5.9s2.7-5.9,5.9-5.9c2.6-0.1,4.9,1.6,5.5,4.1h-3.1c-0.5-0.9-1.4-1.4-2.4-1.4
		c-1.7,0.1-3,1.6-2.9,3.3c-0.1,1.7,1.2,3.2,2.9,3.3c1,0,1.9-0.6,2.4-1.5h3.1C562.7,483.5,560.4,485.2,557.8,485.1z"/>
	<path class="st0" d="M568.3,481.5v3.3h-2.9v-16.4h2.9v9.1l3.7-4.1h4l-4.2,4.4l4.5,6.9h-3.7l-2.8-4.8L568.3,481.5z"/>
	<path class="st0" d="M581.5,484.8h-2.9v-16.4h2.9V484.8z"/>
	<path class="st0" d="M595.2,479.1c-0.2,3.2-2.8,5.6-6,5.4s-5.6-2.8-5.4-6c0.1-3,2.7-5.4,5.7-5.4c3.2,0,5.7,2.6,5.7,5.8
		C595.2,479,595.2,479.1,595.2,479.1z M592.2,479.1c0-2-1.2-3.3-2.8-3.3s-2.8,1.4-2.8,3.3c-0.2,1.5,0.8,3,2.4,3.2
		c1.5,0.2,3-0.8,3.2-2.4C592.3,479.7,592.3,479.4,592.2,479.1L592.2,479.1z"/>
	<path class="st0" d="M608.3,484.2c0,3.8-2.2,6.1-5.9,6.1c-2.7,0-5.1-1.6-5.5-4h3.2c0.5,0.8,1.4,1.3,2.3,1.2c2,0,3-1.3,3-3.4v-0.5
		c-0.9,0.9-2.1,1.3-3.3,1.3c-3.3-0.3-5.6-3.2-5.3-6.5c0.3-2.8,2.5-5,5.3-5.3c1.3,0,2.6,0.5,3.5,1.5v-1.2h2.8L608.3,484.2z
		 M602.5,475.9c-1.8-0.2-3.4,1.1-3.6,2.9c-0.2,1.8,1.1,3.4,2.9,3.6c1.8,0.2,3.4-1.1,3.6-2.9c0-0.1,0-0.2,0-0.3
		C605.5,477.5,604.2,476,602.5,475.9C602.5,475.9,602.5,475.9,602.5,475.9z"/>
	<path class="st0" d="M212.3,479.4h-3.6v5.5h-2.9v-15.3h6.4c3.2,0,5,1.9,5,4.9c0.1,2.6-1.9,4.8-4.5,4.9
		C212.6,479.4,212.4,479.4,212.3,479.4z M208.7,472.2v4.5h3.5c1.2-0.1,2.2-1.1,2.1-2.4c-0.1-1.1-1-2-2.1-2.1H208.7z"/>
	<path class="st0" d="M225.8,476.1c-1-0.2-2,0-2.8,0.7c-0.6,0.7-0.8,1.6-0.7,2.5v5.6h-2.9v-11.3h2.8v1.1c0.9-1.1,2.3-1.6,3.6-1.4
		L225.8,476.1z"/>
	<path class="st0" d="M238.3,479.1c-0.2,3.2-2.8,5.6-6,5.4c-3.2-0.2-5.6-2.8-5.4-6c0.1-3,2.7-5.4,5.7-5.4c3.2,0,5.7,2.6,5.7,5.8
		C238.3,479,238.3,479.1,238.3,479.1z M235.4,479.1c0-2-1.3-3.3-2.8-3.3s-2.8,1.4-2.8,3.3c-0.2,1.5,0.8,3,2.4,3.2
		c1.5,0.2,3-0.8,3.2-2.4C235.4,479.7,235.4,479.4,235.4,479.1z"/>
	<path class="st0" d="M251.5,484.8h-2.8v-1.2c-0.9,0.9-2.2,1.5-3.5,1.5c-3.3-0.3-5.6-3.2-5.3-6.5c0.3-2.8,2.5-5,5.3-5.3
		c1.2,0,2.4,0.5,3.4,1.3v-6.1h2.9V484.8z M245.7,475.9c-1.8-0.2-3.4,1.1-3.6,2.9c-0.2,1.8,1.1,3.4,2.9,3.6s3.4-1.1,3.6-2.9
		c0-0.1,0-0.2,0-0.3C248.7,477.5,247.4,476,245.7,475.9L245.7,475.9z"/>
	<path class="st0" d="M264.5,484.8h-2.8v-1c-0.7,0.8-1.8,1.3-2.9,1.3c-2.7,0-4.5-2-4.5-5v-6.6h2.9v6.6c-0.1,1.1,0.7,2.1,1.8,2.2
		c0.1,0,0.2,0,0.3,0c1.2,0,2.2-0.9,2.2-2.1c0,0,0-0.1,0-0.1v-6.6h2.9V484.8z"/>
	<path class="st0" d="M272.5,485.1c-3.3,0-5.9-2.7-5.9-5.9s2.7-5.9,5.9-5.9c2.6-0.1,4.9,1.6,5.5,4.1h-3.1c-0.5-0.9-1.4-1.4-2.4-1.4
		c-1.7,0.1-3,1.6-2.9,3.3c-0.1,1.7,1.2,3.2,2.9,3.3c1,0,1.9-0.6,2.4-1.5h3.1C277.4,483.5,275.1,485.2,272.5,485.1z"/>
	<path class="st0" d="M285.4,484.8c-3.3,0.4-5.1-1.6-5.1-4.8v-4h-1.4v-2.6h1.4v-2.9h2.9v2.9h2v2.6h-2v4c0,1.6,0.7,2.2,2.2,2.1V484.8
		z"/>
	<path class="st0" d="M301.8,484.8h-7.4v-15.3h7c3,0,4.6,1.6,4.6,4.1c0,1.2-0.5,2.3-1.5,3c1.4,0.7,2.2,2.1,2.1,3.7
		C306.6,483,304.7,484.8,301.8,484.8z M297.2,472.2v3.4h4.1c0.9,0,1.7-0.7,1.8-1.6c0,0,0-0.1,0-0.1c0-0.9-0.7-1.6-1.5-1.7
		c-0.1,0-0.2,0-0.2,0L297.2,472.2z M301.3,478.2h-4.1v3.9h4.1c1.1,0,2.2-0.4,2.2-1.9C303.6,478.9,302.8,478.2,301.3,478.2
		L301.3,478.2z"/>
	<path class="st0" d="M316.2,483.8c-0.9,0.9-2.2,1.4-3.5,1.3c-2.4,0-4.6-1.2-4.6-3.7s2.1-3.2,4.6-3.4c1.9-0.2,3.2-0.4,3.2-1.3
		c0-0.6-0.8-1.1-2.1-1.1c-1.1-0.1-2,0.5-2.5,1.5h-2.9c0.3-2.2,2.4-3.8,5.3-3.8c4.6,0,5,3,5,3.9v5.9c0,0.6,0.1,1.3,0.3,1.9h-2.8
		C316.4,484.5,316.3,484.1,316.2,483.8z M316.1,479.4c-0.9,0.4-1.8,0.7-2.8,0.7c-1.4,0.1-2.3,0.5-2.3,1.3c0,0.6,0.8,1.1,1.9,1.1
		c1.7,0,3.1-0.6,3.1-2V479.4z"/>
	<path class="st0" d="M327,485.1c-3.3,0-5.9-2.7-5.9-5.9s2.7-5.9,5.9-5.9c2.6-0.1,4.9,1.6,5.5,4.1h-3.1c-0.5-0.9-1.4-1.4-2.4-1.4
		c-1.7,0.1-3,1.6-2.9,3.3c-0.1,1.7,1.2,3.2,2.9,3.3c1,0,1.9-0.6,2.4-1.5h3.1C331.9,483.5,329.6,485.2,327,485.1z"/>
	<path class="st0" d="M337.5,481.5v3.3h-2.9v-16.4h2.9v9.1l3.7-4.1h4l-4.2,4.4l4.5,6.9h-3.7L339,480L337.5,481.5z"/>
	<path class="st0" d="M350.8,484.8h-2.9v-16.4h2.9V484.8z"/>
	<path class="st0" d="M364.5,479.1c-0.2,3.2-2.8,5.6-6,5.4c-3.2-0.2-5.6-2.8-5.4-6c0.1-3,2.7-5.4,5.7-5.4c3.2,0,5.7,2.6,5.7,5.8
		C364.5,479,364.5,479.1,364.5,479.1z M361.5,479.1c0-2-1.3-3.3-2.8-3.3s-2.8,1.4-2.8,3.3c-0.2,1.5,0.8,3,2.4,3.2s3-0.8,3.2-2.4
		C361.6,479.7,361.6,479.4,361.5,479.1z"/>
	<path class="st0" d="M377.6,484.2c0,3.8-2.2,6.1-5.9,6.1c-2.7,0-5.1-1.6-5.5-4h3.2c0.5,0.8,1.4,1.3,2.3,1.2c2,0,3-1.3,3-3.4v-0.5
		c-0.9,0.9-2.1,1.3-3.4,1.3c-3.3-0.3-5.6-3.2-5.3-6.5c0.3-2.8,2.5-5,5.3-5.3c1.3,0,2.6,0.5,3.5,1.5v-1.2h2.8L377.6,484.2z
		 M371.8,475.9c-1.7,0.1-3,1.5-2.9,3.2c0,0,0,0,0,0.1c-0.1,1.7,1.1,3.1,2.8,3.2c0,0,0.1,0,0.1,0c1.8-0.2,3.1-1.8,2.9-3.6
		C374.5,477.3,373.3,476.1,371.8,475.9z"/>
	<path class="st0" d="M351.5,298.2h-2.9c0-1.3-1.1-2.3-3-2.3c-1.5,0-3,0.6-3,1.8s1,1.4,3.4,1.9c3.6,0.7,5.9,1.6,5.9,4.8
		c0,3-2.5,4.8-6.3,4.8c-3,0-6.2-1.6-6.2-5.3h2.9c0,1.8,1.8,2.7,3.4,2.7s3.4-0.6,3.4-2c0-1-0.8-1.6-3.6-2.1s-5.7-1.4-5.7-4.7
		c0-2.6,2.3-4.4,5.9-4.4C349.7,293.1,351.5,295.7,351.5,298.2z"/>
	<path class="st0" d="M360.6,309c-1.2,0-2.4-0.5-3.3-1.3v6.1h-2.9v-16.4h2.8v1.2c0.9-0.9,2.2-1.5,3.5-1.5c3.3,0.3,5.7,3.2,5.3,6.5
		C365.7,306.5,363.5,308.8,360.6,309z M360.2,299.9c-1.8-0.2-3.4,1.1-3.5,2.9c-0.2,1.8,1.1,3.4,2.9,3.5c1.8,0.2,3.4-1.1,3.5-2.9
		c0-0.1,0-0.2,0-0.3c0.1-1.7-1.1-3.1-2.8-3.2C360.3,299.9,360.3,299.9,360.2,299.9L360.2,299.9z"/>
	<path class="st0" d="M374.6,300.1c-1-0.2-2,0-2.8,0.7c-0.6,0.7-0.8,1.6-0.7,2.5v5.6h-2.9v-11.3h2.8v1.1c0.9-1.1,2.3-1.6,3.6-1.4
		V300.1z"/>
	<path class="st0" d="M379.4,296.2h-2.9v-2.7h2.9V296.2z M379.4,308.8h-2.9v-11.3h2.9V308.8z"/>
	<path class="st0" d="M392.5,308.8h-2.9v-6.6c0.1-1.1-0.6-2.1-1.7-2.2c-0.1,0-0.2,0-0.4,0c-1.2,0-2.2,0.9-2.2,2.1c0,0,0,0.1,0,0.1
		v6.6h-2.9v-11.3h2.8v1.1c0.7-0.9,1.8-1.4,2.9-1.4c2.7,0,4.4,2,4.4,5V308.8z"/>
	<path class="st0" d="M400.6,308.8c-3.3,0.4-5.1-1.6-5.1-4.8v-4h-1.4v-2.6h1.4v-2.9h2.9v2.9h2v2.6h-2v4c0,1.6,0.7,2.2,2.2,2.1V308.8
		z"/>
	<path class="st0" d="M416,303.4h-3.6v5.5h-2.9v-15.3h6.5c3.2,0,5,1.9,5,4.9c0.1,2.6-1.9,4.8-4.5,4.9
		C416.4,303.4,416.2,303.4,416,303.4z M412.4,296.2v4.5h3.5c1.2-0.1,2.2-1.1,2.1-2.4c-0.1-1.1-1-2-2.1-2.1H412.4z"/>
	<path class="st0" d="M426,308.8h-2.9v-16.4h2.9V308.8z"/>
	<path class="st0" d="M436.4,307.8c-0.9,0.9-2.2,1.4-3.5,1.3c-2.4,0-4.6-1.2-4.6-3.7s2.1-3.2,4.6-3.4c1.9-0.2,3.2-0.4,3.2-1.3
		c0-0.6-0.8-1.1-2.1-1.1c-1.1-0.1-2.1,0.5-2.5,1.4h-2.9c0.3-2.2,2.4-3.8,5.3-3.8c4.6,0,5,3,5,3.9v5.9c0,0.6,0.1,1.3,0.3,1.9h-2.7
		C436.5,308.5,436.4,308.1,436.4,307.8z M436.3,303.4c-0.9,0.4-1.8,0.7-2.8,0.7c-1.4,0.1-2.3,0.5-2.3,1.3c0,0.6,0.8,1.1,1.9,1.1
		c1.7,0,3.1-0.6,3.1-2V303.4z"/>
	<path class="st0" d="M452.1,308.8h-2.9v-6.6c0.1-1.1-0.6-2.1-1.7-2.2c-0.1,0-0.3,0-0.4,0c-1.2,0-2.2,0.9-2.2,2.1c0,0,0,0.1,0,0.1
		v6.6H442v-11.3h2.8v1.1c0.7-0.9,1.8-1.4,2.9-1.4c2.7,0,4.4,2,4.4,5L452.1,308.8z"/>
	<path class="st0" d="M465,308.8h-2.9v-6.6c0.1-1.1-0.6-2.1-1.7-2.2c-0.1,0-0.2,0-0.4,0c-1.2,0-2.2,0.9-2.2,2.1c0,0,0,0.1,0,0.1v6.6
		h-2.9v-11.3h2.8v1.1c0.7-0.9,1.8-1.4,2.9-1.4c2.7,0,4.4,2,4.4,5L465,308.8z"/>
	<path class="st0" d="M470.8,296.2h-2.9v-2.7h2.9V296.2z M470.8,308.8h-2.9v-11.3h2.9V308.8z"/>
	<path class="st0" d="M483.8,308.8h-2.9v-6.6c0.1-1.1-0.6-2.1-1.7-2.2c-0.1,0-0.2,0-0.4,0c-1.2,0-2.2,0.9-2.2,2.1c0,0,0,0.1,0,0.1
		v6.6h-2.9v-11.3h2.8v1.1c0.7-0.9,1.8-1.4,2.9-1.4c2.7,0,4.4,2,4.4,5L483.8,308.8z"/>
	<path class="st0" d="M497.6,308.2c0,3.8-2.2,6.1-5.9,6.1c-2.7,0-5.1-1.6-5.5-4h3.2c0.5,0.8,1.4,1.3,2.3,1.2c2,0,3-1.3,3-3.4v-0.5
		c-0.9,0.9-2.1,1.3-3.3,1.3c-3.3-0.3-5.6-3.2-5.3-6.5c0.3-2.8,2.5-5,5.3-5.3c1.3,0,2.6,0.5,3.5,1.5v-1.2h2.8L497.6,308.2z
		 M491.8,299.9c-1.8-0.2-3.4,1.1-3.6,2.9c-0.2,1.8,1.1,3.4,2.9,3.6c1.8,0.2,3.4-1.1,3.6-2.9c0-0.1,0-0.2,0-0.3
		C494.8,301.5,493.5,300,491.8,299.9C491.8,299.9,491.8,299.9,491.8,299.9z"/>
	<path class="st3" d="M739.6,169.3c-69.9,0-127.1,55.8-128.7,125.7l-4.1-4.7l-1.1,1l6,6.8l6.3-6.4l-1.1-1l-4.4,4.5
		c1.6-70.3,59.9-125.9,130.2-124.2c70.3,1.6,125.9,59.9,124.2,130.2c-1.6,69.1-58.1,124.3-127.2,124.3h-165v1.5h165
		c71.1,0,128.8-57.6,128.8-128.8S810.8,169.4,739.6,169.3L739.6,169.3z"/>
</g>
</svg>
