<svg xmlns="http://www.w3.org/2000/svg" viewBox="0 0 1200 600"><defs><style>.cls-1{fill:#191919;}.cls-2{fill:none;}.cls-3{fill:#fc3;}</style></defs><g id="Illustration"><path class="cls-1" d="M477.59,408.65h-2.91c0-1.32-1.1-2.31-2.95-2.31-1.54,0-3,.59-3,1.76s1,1.43,3.37,1.91c3.63.73,5.92,1.63,5.92,4.76,0,2.94-2.47,4.79-6.32,4.79-3,0-6.25-1.65-6.25-5.32h2.91c0,1.8,1.8,2.66,3.34,2.66s3.41-.59,3.41-2c0-1-.79-1.56-3.61-2.11s-5.67-1.39-5.67-4.66c0-2.62,2.31-4.45,5.87-4.45C475.76,403.63,477.59,406.23,477.59,408.65Z"/><path class="cls-1" d="M485.13,421.37c-1.1,2.94-2.84,3.34-5.21,3.19v-2.64c1.45.08,2.13-.27,2.61-1.57l.33-.85L478.49,408h3.08l2.77,8.18L487,408h3.11Z"/><path class="cls-1" d="M501.61,419.3H498.7v-6.63a2,2,0,0,0-2.11-2.24,2.15,2.15,0,0,0-2.2,2.24v6.63h-2.9V408h2.77v1.1a3.75,3.75,0,0,1,2.93-1.39c2.66,0,4.42,2,4.42,5Z"/><path class="cls-1" d="M509.37,419.28c-3.32.35-5.08-1.65-5.08-4.76v-4h-1.36V408h1.36v-2.89h2.91V408h2v2.57h-2v4c0,1.59.72,2.18,2.17,2.1Z"/><path class="cls-1" d="M521.28,419.3h-2.91v-6.63a2,2,0,0,0-2.11-2.15,2.08,2.08,0,0,0-2.2,2.15v6.63h-2.93V402.93h2.93v5.63a4.27,4.27,0,0,1,2.6-.88c2.77,0,4.62,2,4.62,5Z"/><path class="cls-1" d="M526.11,414.77A2.9,2.9,0,0,0,529,417a2.63,2.63,0,0,0,2.4-1.32h3.1a5.36,5.36,0,0,1-5.47,3.87,5.94,5.94,0,0,1,0-11.88c3.34,0,6.11,2.6,5.69,7.09Zm5.68-2.38a2.84,2.84,0,0,0-2.84-2.16,2.9,2.9,0,0,0-2.79,2.16Z"/><path class="cls-1" d="M541.3,419.56c-2.89,0-5-1.52-5.37-4h3a2.55,2.55,0,0,0,2.42,1.32c1.16,0,2-.35,2-1S543,415,541,414.7s-4.74-.86-4.74-3.39c0-1.78,1.57-3.63,4.85-3.63,2.59,0,4.53,1.41,4.9,3.54h-3c-.18-.53-.82-.94-1.89-.94-1.35,0-1.9.48-1.9.9,0,.59.84.79,2.25,1,2.81.46,4.84,1.08,4.84,3.54C546.27,418,544.2,419.56,541.3,419.56Z"/><path class="cls-1" d="M550.56,414.77A2.88,2.88,0,0,0,553.4,417a2.63,2.63,0,0,0,2.39-1.32h3.11a5.38,5.38,0,0,1-5.48,3.87,5.94,5.94,0,0,1,0-11.88c3.34,0,6.11,2.6,5.7,7.09Zm5.67-2.38a2.84,2.84,0,0,0-2.83-2.16,2.91,2.91,0,0,0-2.8,2.16Z"/><path class="cls-1" d="M911.84,415.86h-3.58v5.46h-2.91V406.05h6.43c3.19,0,5,1.94,5,4.93A4.69,4.69,0,0,1,911.84,415.86Zm-3.58-7.1v4.44h3.5a2.22,2.22,0,0,0,0-4.44Z"/><path class="cls-1" d="M925,412.58a3.12,3.12,0,0,0-2.8.71,3.45,3.45,0,0,0-.72,2.46v5.57h-2.91V410h2.78v1.12a3.79,3.79,0,0,1,3.65-1.34Z"/><path class="cls-1" d="M937.23,415.66a5.72,5.72,0,1,1-5.72-6A5.75,5.75,0,0,1,937.23,415.66Zm-2.92,0c0-2-1.26-3.33-2.8-3.33s-2.79,1.37-2.79,3.33a2.82,2.82,0,1,0,5.59,0Z"/><path class="cls-1" d="M944.62,421.3c-3.32.35-5.08-1.65-5.08-4.76v-4h-1.36V410h1.36v-2.88h2.9V410h2v2.57h-2v4c0,1.58.73,2.18,2.18,2.09Z"/><path class="cls-1" d="M957.36,415.66a5.72,5.72,0,1,1-5.72-6A5.75,5.75,0,0,1,957.36,415.66Zm-2.92,0c0-2-1.26-3.33-2.8-3.33s-2.79,1.37-2.79,3.33a2.82,2.82,0,1,0,5.59,0Z"/><path class="cls-1" d="M964.75,421.3c-3.32.35-5.08-1.65-5.08-4.76v-4h-1.36V410h1.36v-2.88h2.9V410h2v2.57h-2v4c0,1.58.73,2.18,2.18,2.09Z"/><path class="cls-1" d="M971.86,423.39c-1.1,2.95-2.84,3.34-5.22,3.19v-2.64c1.46.09,2.14-.27,2.62-1.56l.33-.86L965.21,410h3.08l2.78,8.18,2.7-8.18h3.1Z"/><path class="cls-1" d="M984.46,421.56a4.72,4.72,0,0,1-3.32-1.34v6.14h-2.92V410H981v1.19a4.75,4.75,0,0,1,3.45-1.46,5.95,5.95,0,0,1,0,11.84Zm-.41-9.13a3.06,3.06,0,0,0-2.91,3.19,3.09,3.09,0,0,0,2.91,3.24,3,3,0,0,0,2.9-3.24A3,3,0,0,0,984.05,412.43Z"/><path class="cls-1" d="M1138.37,405.12v12.56h-2.91V405.12h-4.09v-2.71h11.09v2.71Z"/><path class="cls-1" d="M1144.44,413.15a2.88,2.88,0,0,0,2.84,2.24,2.64,2.64,0,0,0,2.4-1.32h3.1a5.37,5.37,0,0,1-5.48,3.87,5.94,5.94,0,0,1,0-11.88c3.34,0,6.12,2.6,5.7,7.09Zm5.68-2.38a2.86,2.86,0,0,0-2.84-2.16,2.91,2.91,0,0,0-2.8,2.16Z"/><path class="cls-1" d="M1159.62,417.94c-2.88,0-5-1.51-5.37-4h3a2.56,2.56,0,0,0,2.42,1.32c1.17,0,2.05-.35,2.05-1s-.4-.9-2.38-1.21-4.73-.86-4.73-3.39c0-1.78,1.56-3.63,4.84-3.63,2.6,0,4.53,1.41,4.91,3.54h-3c-.17-.52-.81-.94-1.89-.94-1.34,0-1.89.48-1.89.9,0,.59.83.79,2.24,1,2.82.47,4.84,1.08,4.84,3.55C1164.59,416.36,1162.52,417.94,1159.62,417.94Z"/><path class="cls-1" d="M1172.12,417.66c-3.33.35-5.09-1.65-5.09-4.75v-4h-1.36v-2.57H1167v-2.88h2.91v2.88h2v2.57h-2v4c0,1.58.72,2.18,2.18,2.09Z"/><path class="cls-1" d="M705.66,420.11h-2.91V404.84h2.91Z"/><path class="cls-1" d="M719.41,420.11h-2.77V418.9a4.76,4.76,0,0,1-3.48,1.45,5.94,5.94,0,0,1,0-11.82,4.8,4.8,0,0,1,3.35,1.32v-6.11h2.9Zm-5.81-8.89a3.06,3.06,0,0,0-2.9,3.25,3,3,0,0,0,2.9,3.19,3.24,3.24,0,0,0,0-6.44Z"/><path class="cls-1" d="M724.4,415.57a2.89,2.89,0,0,0,2.84,2.25,2.63,2.63,0,0,0,2.4-1.32h3.1a5.37,5.37,0,0,1-5.48,3.87,5.94,5.94,0,0,1,0-11.88c3.35,0,6.12,2.59,5.7,7.08Zm5.68-2.37a2.84,2.84,0,0,0-2.84-2.16,2.89,2.89,0,0,0-2.79,2.16Z"/><path class="cls-1" d="M737.27,415.57a2.89,2.89,0,0,0,2.84,2.25,2.63,2.63,0,0,0,2.4-1.32h3.1a5.37,5.37,0,0,1-5.48,3.87,5.94,5.94,0,0,1,0-11.88c3.35,0,6.12,2.59,5.7,7.08ZM743,413.2a2.84,2.84,0,0,0-2.84-2.16,2.89,2.89,0,0,0-2.79,2.16Z"/><path class="cls-1" d="M758,420.11h-2.91v-6.63a2,2,0,0,0-2.11-2.24,2.15,2.15,0,0,0-2.2,2.24v6.63h-2.91V408.77h2.78v1.11a3.72,3.72,0,0,1,2.92-1.39c2.67,0,4.43,2,4.43,5Z"/><path class="cls-1" d="M29.07,420.92H25.94l-5-15.28H24l3.5,11.78L31,405.64h3.08Z"/><path class="cls-1" d="M36.43,416.38a2.89,2.89,0,0,0,2.84,2.25,2.63,2.63,0,0,0,2.4-1.32h3.1a5.37,5.37,0,0,1-5.48,3.87,5.94,5.94,0,0,1,0-11.88c3.35,0,6.12,2.59,5.7,7.08ZM42.11,414a2.84,2.84,0,0,0-2.84-2.16A2.9,2.9,0,0,0,36.48,414Z"/><path class="cls-1" d="M53.44,412.18a3.13,3.13,0,0,0-2.79.7,3.43,3.43,0,0,0-.73,2.47v5.57H47V409.58h2.77v1.13a3.78,3.78,0,0,1,3.65-1.35Z"/><path class="cls-1" d="M59.62,421.18c-2.88,0-5-1.52-5.37-4h3a2.56,2.56,0,0,0,2.42,1.32c1.17,0,2.05-.35,2.05-1s-.4-.91-2.38-1.21-4.73-.86-4.73-3.39c0-1.78,1.56-3.63,4.84-3.63,2.6,0,4.54,1.41,4.91,3.54h-3c-.18-.53-.82-.95-1.9-.95-1.34,0-1.89.49-1.89.91,0,.59.84.79,2.24,1,2.82.46,4.85,1.08,4.85,3.54C64.6,419.59,62.53,421.18,59.62,421.18Z"/><path class="cls-1" d="M72.12,420.89c-3.32.36-5.08-1.65-5.08-4.75v-4H65.67v-2.58H67V406.7h2.9v2.88h2v2.58h-2v4c0,1.59.73,2.18,2.18,2.09Z"/><path class="cls-1" d="M81.42,419.86A4.56,4.56,0,0,1,78,421.13c-2.4,0-4.6-1.21-4.6-3.67S75.48,414.25,78,414c1.89-.18,3.24-.4,3.24-1.32,0-.6-.77-1.08-2.07-1.08a2.47,2.47,0,0,0-2.49,1.43h-2.9c.28-2.16,2.35-3.76,5.32-3.76,4.6,0,5,3,5,3.87v5.9a7.15,7.15,0,0,0,.33,1.85H81.71A4.36,4.36,0,0,1,81.42,419.86Zm-3.1-14.41v2.44H75.64v-2.44Zm3,10a6.82,6.82,0,0,1-2.75.72c-1.43.16-2.31.47-2.31,1.3,0,.64.74,1.08,1.91,1.08,1.74,0,3.15-.59,3.15-2.05Zm1.12-10v2.44H79.77v-2.44Z"/><path class="cls-1" d="M96.91,420.92H94v-6.63a2,2,0,0,0-2.11-2.24,2.15,2.15,0,0,0-2.2,2.24v6.63H86.79V409.58h2.77v1.1a3.77,3.77,0,0,1,2.93-1.38c2.66,0,4.42,2,4.42,5Z"/><path class="cls-1" d="M110.46,420.92h-2.77v-1.21a4.75,4.75,0,0,1-3.47,1.45,5.93,5.93,0,0,1,0-11.82,4.78,4.78,0,0,1,3.34,1.32v-6.12h2.9Zm-5.8-8.89a3.24,3.24,0,1,0,2.9,3.25A3.06,3.06,0,0,0,104.66,412Z"/><path class="cls-1" d="M123.29,420.92h-2.9v-6.63a2,2,0,0,0-2.12-2.24,2.15,2.15,0,0,0-2.2,2.24v6.63h-2.9V409.58h2.77v1.1a3.77,3.77,0,0,1,2.93-1.38c2.66,0,4.42,2,4.42,5Z"/><path class="cls-1" d="M128.83,408.35h-2.9v-2.71h2.9Zm0,12.57h-2.9V409.58h2.9Z"/><path class="cls-1" d="M136.14,421.18c-2.88,0-5-1.52-5.37-4h2.95a2.55,2.55,0,0,0,2.42,1.32c1.16,0,2-.35,2-1s-.39-.91-2.37-1.21-4.73-.86-4.73-3.39c0-1.78,1.56-3.63,4.84-3.63,2.59,0,4.53,1.41,4.9,3.54h-3c-.18-.53-.81-.95-1.89-.95-1.35,0-1.89.49-1.89.91,0,.59.83.79,2.24,1,2.82.46,4.84,1.08,4.84,3.54C141.11,419.59,139,421.18,136.14,421.18Z"/><path class="cls-1" d="M253,420.51H241.71V405.24h11.15V408h-8.25v3.25h7v2.71h-7v3.89H253Z"/><path class="cls-1" d="M261.42,411.77a3.12,3.12,0,0,0-2.8.71,3.45,3.45,0,0,0-.72,2.46v5.57H255V409.18h2.78v1.12a3.79,3.79,0,0,1,3.65-1.34Z"/><path class="cls-1" d="M266,417.25v3.26h-2.91V404.14H266v9.15l3.72-4.11h4l-4.22,4.42,4.46,6.91h-3.69l-2.82-4.77Z"/><path class="cls-1" d="M285.09,420.51h-2.77v-1a3.72,3.72,0,0,1-2.88,1.29c-2.69,0-4.47-2-4.47-5v-6.62h2.9v6.62A2,2,0,0,0,280,418a2.14,2.14,0,0,0,2.2-2.22v-6.62h2.9Z"/><path class="cls-1" d="M297.85,420.51H295v-6.62a2,2,0,0,0-2.12-2.25,2.16,2.16,0,0,0-2.2,2.25v6.62h-2.9V409.18h2.77v1.1a3.75,3.75,0,0,1,2.93-1.39c2.66,0,4.42,2,4.42,5Z"/><path class="cls-1" d="M311.4,420.51h-2.77V419.3a4.76,4.76,0,0,1-3.48,1.45,5.93,5.93,0,0,1,0-11.81,4.76,4.76,0,0,1,3.35,1.32v-6.12h2.9Zm-5.81-8.89a3.07,3.07,0,0,0-2.9,3.26,2.92,2.92,0,1,0,5.81,0A3.09,3.09,0,0,0,305.59,411.62Z"/><path class="cls-1" d="M324,420.51h-2.77v-1a3.72,3.72,0,0,1-2.88,1.29c-2.69,0-4.47-2-4.47-5v-6.62h2.9v6.62a2,2,0,0,0,2.12,2.22,2.14,2.14,0,0,0,2.2-2.22v-6.62H324Z"/><path class="cls-1" d="M336.79,420.51h-2.9v-6.62a2,2,0,0,0-2.12-2.25,2.16,2.16,0,0,0-2.2,2.25v6.62h-2.9V409.18h2.77v1.1a3.75,3.75,0,0,1,2.93-1.39c2.66,0,4.42,2,4.42,5Z"/><path class="cls-1" d="M350.34,419.94c0,3.76-2.24,6.11-5.87,6.11-2.71,0-5.06-1.56-5.5-4h3.19a2.49,2.49,0,0,0,2.31,1.26c2,0,3-1.34,3-3.37v-.55a4.76,4.76,0,0,1-3.35,1.32,5.93,5.93,0,0,1,0-11.81,4.72,4.72,0,0,1,3.48,1.45v-1.21h2.77Zm-5.81-8.32a3.07,3.07,0,0,0-2.9,3.26,2.92,2.92,0,1,0,5.81,0A3.09,3.09,0,0,0,344.53,411.62Z"/><polygon class="cls-1" points="204.6 345.88 202.89 347.71 210.58 354.86 115.59 354.86 115.59 357.36 210.58 357.36 202.89 364.5 204.6 366.33 215.59 356.11 204.6 345.88"/><polygon class="cls-1" points="421.8 345.88 420.1 347.71 427.78 354.86 332.8 354.86 332.8 357.36 427.78 357.36 420.1 364.5 421.8 366.33 432.8 356.11 421.8 345.88"/><polygon class="cls-1" points="644 345.88 642.29 347.71 649.98 354.86 555 354.86 555 357.36 649.98 357.36 642.29 364.5 644 366.33 655 356.11 644 345.88"/><polygon class="cls-1" points="857.61 345.88 855.9 347.71 863.58 354.86 768.6 354.86 768.6 357.36 863.59 357.36 855.9 364.5 857.61 366.33 868.6 356.11 857.61 345.88"/><polygon class="cls-1" points="1069.57 345.88 1067.87 347.71 1075.55 354.86 980.57 354.86 980.57 357.36 1075.56 357.36 1067.87 364.5 1069.57 366.33 1080.57 356.11 1069.57 345.88"/><rect class="cls-2" x="294.18" y="336.17" width="2.75" height="2.51"/><polygon class="cls-2" points="296.94 341.18 294.18 341.18 294.18 344.87 296.94 344.87 296.94 342.36 296.94 341.18"/><rect class="cls-2" x="290.74" y="336.17" width="0.94" height="2.51"/><polygon class="cls-2" points="287.99 342.36 287.99 344.87 291.68 344.87 291.68 341.18 290.74 341.18 290.74 342.36 287.99 342.36"/><polygon class="cls-2" points="285.49 347.37 281.8 347.37 279.3 347.37 273.1 347.37 273.1 342.36 272.16 342.36 272.16 348.56 278.35 348.56 284.55 348.56 284.55 354.75 290.74 354.75 290.74 353.56 285.49 353.56 285.49 347.37"/><rect class="cls-2" x="307.45" y="344.38" width="1.05" height="3.26"/><polygon class="cls-2" points="284.55 342.36 281.8 342.36 281.8 344.87 285.49 344.87 285.49 342.36 284.55 342.36"/><rect class="cls-2" x="301.25" y="350.58" width="1.05" height="3.26"/><polygon class="cls-2" points="291.68 348.56 291.68 347.37 287.99 347.37 287.99 351.06 290.74 351.06 290.74 348.56 291.68 348.56"/><polygon class="cls-2" points="282.89 372.95 282.89 371.86 281.02 371.86 281.02 375.56 284.72 375.56 284.72 372.95 282.89 372.95"/><polygon class="cls-2" points="282.89 366.76 282.89 365.67 281.02 365.67 281.02 369.36 282.89 369.36 282.89 366.76"/><rect class="cls-2" x="281.02" y="360.56" width="1.86" height="2.61"/><polygon class="cls-2" points="284.72 378.06 278.52 378.06 278.52 371.86 278.52 369.36 278.52 365.67 272.33 365.67 272.33 359.47 272.33 356.97 272.33 354.37 270.5 354.37 270.5 360.56 270.5 366.76 276.69 366.76 276.69 372.95 276.69 379.15 282.89 379.15 289.08 379.15 289.08 378.06 287.22 378.06 284.72 378.06"/><rect class="cls-2" x="294.18" y="347.37" width="2.75" height="1.19"/><rect class="cls-2" x="274.83" y="354.37" width="1.86" height="2.61"/><rect class="cls-2" x="287.22" y="372.95" width="1.86" height="2.61"/><polygon class="cls-2" points="296.11 362.53 296.11 360.03 296.11 356.77 295.06 356.77 295.06 362.97 295.06 369.16 301.25 369.16 301.25 368.73 296.11 368.73 296.11 362.53"/><polygon class="cls-2" points="276.69 360.56 276.69 359.47 274.83 359.47 274.83 363.17 278.52 363.17 278.52 360.56 276.69 360.56"/><polygon class="cls-2" points="278.35 342.36 275.6 342.36 275.6 344.87 279.3 344.87 279.3 342.36 278.35 342.36"/><rect class="cls-2" x="311" y="344.38" width="2.64" height="3.26"/><polygon class="cls-2" points="313.64 350.14 311 350.14 311 353.84 313.64 353.84 313.64 350.58 313.64 350.14"/><polygon class="cls-2" points="268.99 331.46 317.44 331.46 317.44 380.72 319.42 380.72 319.42 330.29 268.99 330.29 268.99 331.46"/><rect class="cls-2" x="304.8" y="362.53" width="2.64" height="0.43"/><polygon class="cls-2" points="304.8 356.34 304.8 360.03 307.45 360.03 307.45 356.77 308.5 356.77 308.5 356.34 304.8 356.34"/><polygon class="cls-2" points="302.3 360.03 302.3 356.34 301.25 356.34 301.25 356.77 298.61 356.77 298.61 360.03 302.3 360.03"/><polygon class="cls-2" points="298.61 362.53 298.61 366.23 301.25 366.23 301.25 362.97 302.3 362.97 302.3 362.53 298.61 362.53"/><rect class="cls-2" x="311" y="356.34" width="2.64" height="0.43"/><polygon class="cls-2" points="308.5 353.84 308.5 350.14 307.45 350.14 307.45 350.58 304.8 350.58 304.8 353.84 308.5 353.84"/><polygon class="cls-3" points="266.49 352.17 264.59 352.17 264.59 352.17 249.15 352.17 249.15 354.67 264.59 354.67 264.59 354.68 266.49 354.68 266.49 352.17"/><polygon class="cls-3" points="266.49 364.6 266.49 362.15 248.32 362.15 248.32 364.64 251.34 364.64 251.34 364.6 266.49 364.6"/><polygon class="cls-3" points="266.49 357.18 246.08 357.18 246.08 357.14 246.06 357.14 246.06 359.64 264.59 359.64 264.59 359.65 266.49 359.65 266.49 357.18"/><rect class="cls-3" x="264.59" y="331.46" width="1.9" height="18.21"/><polygon class="cls-3" points="287.22 372.95 289.08 372.95 289.08 375.56 290.91 375.56 290.91 371.86 287.22 371.86 287.22 372.95"/><rect class="cls-3" x="287.99" y="341.17" width="2.75" height="1.19"/><rect class="cls-3" x="298.61" y="356.34" width="2.64" height="0.43"/><polygon class="cls-3" points="296.94 338.68 297.88 338.68 297.88 334.98 294.18 334.98 294.18 336.17 296.94 336.17 296.94 338.68"/><polygon class="cls-3" points="276.69 356.97 278.52 356.97 278.52 353.28 274.83 353.28 274.83 354.37 276.69 354.37 276.69 356.97"/><polygon class="cls-3" points="282.89 360.56 282.89 363.17 284.72 363.17 284.72 359.47 281.02 359.47 281.02 360.56 282.89 360.56"/><polygon class="cls-3" points="282.89 369.36 284.72 369.36 284.72 365.67 282.89 365.67 282.89 366.76 282.89 369.36"/><rect class="cls-3" x="307.45" y="356.77" width="1.05" height="3.26"/><rect class="cls-3" x="282.89" y="371.86" width="1.83" height="1.09"/><polygon class="cls-3" points="313.64 350.58 313.64 353.84 314.69 353.84 314.69 350.14 313.64 350.14 313.64 350.58"/><path class="cls-3" d="M269,331.46v49.26h48.45V331.46Zm24.42,46.6h-4.33v1.09H276.69V366.76H270.5V354.37h1.83v-3.59H281V357h6.2v12.39h6.19Zm-2.67-24.5v1.19h-6.19v-6.19H272.16v-6.2h.94v-3.69h17.64v-2.5h.94v-3.69h8.7v14.89h-3.44v1.19h-2.76v5Zm26.45-5.92v8.7h-3.55v.43H311v5.76h-3.55V363H304.8v5.76h-3.55v.43h-6.19V356.77h1.05v-2.93h5.14v-3.26h1.05v-2.94h5.15v-3.26h1.05v-2.93h8.69Z"/><polygon class="cls-3" points="313.64 344.38 313.64 347.64 314.69 347.64 314.69 343.95 311 343.95 311 344.38 313.64 344.38"/><rect class="cls-3" x="301.25" y="362.97" width="1.05" height="3.26"/><rect class="cls-3" x="276.69" y="359.47" width="1.83" height="1.09"/><polygon class="cls-3" points="296.94 342.36 296.94 344.87 297.88 344.87 297.88 341.18 296.94 341.18 296.94 342.36"/><rect class="cls-3" x="304.8" y="350.14" width="2.64" height="0.43"/><polygon class="cls-3" points="285.49 342.36 285.49 341.18 281.8 341.18 281.8 342.36 284.55 342.36 285.49 342.36"/><polygon class="cls-3" points="279.3 342.36 279.3 341.18 275.6 341.18 275.6 342.36 278.35 342.36 279.3 342.36"/><rect class="cls-3" x="290.74" y="348.56" width="0.94" height="2.51"/><polygon class="cls-3" points="266.49 367.1 264.59 367.1 264.59 367.12 251.34 367.12 251.34 369.62 264.59 369.62 264.59 384.31 317.44 384.31 317.44 383.22 266.49 383.22 266.49 367.1"/><path class="cls-1" d="M266.49,327.79v21.88H249.15v2.5h17.34v2.51H246.08v2.5h20.41v2.47H248.32v2.49h18.17v2.45H251.33v2.5h15.16v16.12h55.42V327.79Zm52.92,52.93H269V330.29h50.42Z"/><path class="cls-1" d="M287.22,365.67V357H281v-6.19h-8.69v14.89h6.19v12.39h14.89v-8.7h-6.19Zm-2.5-6.2v3.7H281v-3.7Zm-3.7,6.2h3.7v3.69H281Zm-6.19-12.39h3.69V357h-3.69v-3.69Zm0,9.89v-3.7h3.69v3.7ZM281,375.56v-3.7h3.7v3.7Zm9.89-3.7v3.7h-3.69v-3.7Z"/><path class="cls-1" d="M294.18,347.37h6.2V332.48h-8.7v6.19H273.1v8.7h12.39v6.19h8.69v-6.19Zm3.7-2.5h-3.7v-3.7h3.7Zm-3.7-9.89h3.7v3.69h-3.7V335Zm-3.44,6.19h.94v3.7H288v-3.7Zm-15.14,3.7v-3.7h3.69v3.7Zm6.19,0v-3.7h3.7v3.7Zm8.95,6.19H288v-3.69h3.69v3.69Z"/><path class="cls-1" d="M308.5,344.38v3.26h-6.2v6.2h-6.19v14.89h8.69v-6.2H311v-6.19h6.19V341.45H308.5Zm-3.7,5.76h3.7v3.7h-3.7v-3.7Zm-6.19,6.2h3.69V360h-3.69v-3.69Zm3.69,9.89h-3.69v-3.7h3.69v3.7Zm6.2-6.2h-3.7v-3.69h3.7V360Zm6.19-6.19H311v-3.7h3.69Zm0-9.89v3.69H311V344Z"/><rect x="240.87" y="354.68" width="2.41" height="2.5"/><rect x="243.66" y="359.65" width="2.41" height="2.5"/><rect x="243.95" y="349.67" width="2.41" height="2.5"/><rect x="246.55" y="364.6" width="2.41" height="2.5"/><rect class="cls-2" x="499.64" y="373" width="17.33" height="1.5"/><polygon class="cls-2" points="541.43 351.25 541.43 393.75 543.64 393.75 543.64 349.75 521.67 349.75 521.67 351.25 541.43 351.25"/><rect class="cls-2" x="494.93" y="351.25" width="2.2" height="19.25"/><polygon class="cls-2" points="516.97 347.25 519.17 347.25 519.17 326.5 475.17 326.5 475.17 328 516.97 328 516.97 347.25"/><rect class="cls-2" x="516.97" y="349.75" width="2.2" height="1.5"/><rect class="cls-2" x="499.64" y="351.25" width="17.33" height="19.25"/><rect class="cls-2" x="494.93" y="373" width="2.2" height="1.5"/><rect class="cls-3" x="516.97" y="351.25" width="2.2" height="19.25"/><polygon class="cls-3" points="497.14 374.5 494.93 374.5 494.93 397.75 541.43 397.75 541.43 396.25 497.14 396.25 497.14 374.5"/><rect class="cls-3" x="499.64" y="349.75" width="17.33" height="1.5"/><rect class="cls-3" x="470.47" y="328" width="2.2" height="21.67"/><polygon class="cls-3" points="472.67 357.18 452.36 357.18 452.36 357.14 452.35 357.14 452.35 359.64 470.47 359.64 470.47 359.65 472.67 359.65 472.67 357.18"/><polygon class="cls-3" points="521.67 351.25 521.67 373 516.97 373 516.97 374.5 499.64 374.5 499.64 393.75 541.43 393.75 541.43 351.25 521.67 351.25"/><polygon class="cls-3" points="516.97 328 475.17 328 475.17 370.5 494.93 370.5 494.93 351.25 497.14 351.25 497.14 347.25 516.97 347.25 516.97 328"/><polygon class="cls-3" points="470.47 354.68 472.67 354.68 472.67 352.17 470.47 352.17 470.47 352.17 455.44 352.17 455.44 354.67 470.47 354.67 470.47 354.68"/><polygon class="cls-3" points="457.71 364.64 457.71 364.6 472.67 364.6 472.67 362.15 454.64 362.15 454.64 362.14 454.6 362.14 454.6 364.6 455.24 364.6 455.24 364.64 457.71 364.64"/><polygon class="cls-3" points="472.67 367.1 470.47 367.1 470.47 367.12 457.62 367.12 457.62 369.62 470.47 369.62 470.47 374.5 494.93 374.5 494.93 373 472.67 373 472.67 367.1"/><rect class="cls-1" x="447.15" y="354.68" width="2.41" height="2.5"/><rect class="cls-1" x="449.95" y="359.65" width="2.41" height="2.5"/><rect class="cls-1" x="450.23" y="349.67" width="2.41" height="2.5"/><path class="cls-1" d="M521.67,347.25V324h-49v25.67H455.49v2.5h17.18v2.51H452.36v2.5h20.31v2.47h-18v2.49h18v2.45h-15v2.5h15V373h24.47v23.25h49v-49ZM494.93,370.5H475.17v-44h44v20.75h-22V370.5Zm24.24-20.75V370.5H499.64V349.75h19.53Zm24.47,44h-44V373h22V349.75h22Z"/><polygon class="cls-1" points="454.6 364.6 452.83 364.6 452.83 367.1 455.24 367.1 455.24 364.64 455.24 364.6 454.6 364.6"/><polygon class="cls-2" points="966.65 340.7 942.59 326.28 940.4 327.62 964.55 342.1 966.65 340.7"/><polygon class="cls-2" points="965.61 373.68 968 372.09 968 353.22 965.61 354.81 965.61 373.68"/><polygon class="cls-2" points="965.61 351.81 968 350.21 968 342.81 965.61 344.4 965.61 351.81"/><polygon class="cls-3" points="915.25 341.27 912.86 342.73 912.86 349.67 915.25 349.67 915.25 341.27"/><polygon class="cls-3" points="950.46 383.79 965.61 373.68 965.61 354.81 950.46 364.92 950.46 383.79"/><polygon class="cls-3" points="900.2 364.64 900.2 364.6 915.25 364.6 915.25 362.15 897.18 362.15 897.18 364.6 897.82 364.6 897.82 364.64 900.2 364.64"/><polygon class="cls-3" points="915.25 367.1 912.86 367.1 912.86 367.12 900.2 367.12 900.2 369.62 912.86 369.62 912.86 374.69 939.52 392.09 941.66 390.67 915.25 373.44 915.25 367.1"/><path class="cls-3" d="M964.75,345a1.25,1.25,0,0,1-1.73-.34,1.26,1.26,0,0,1,.34-1.74l1.19-.79L940.4,327.62l-8.93,5.47,12.38,8.08-1.37,2.09-13.37-8.72-10,6.1,3.37,2.2a1.25,1.25,0,1,1-1.37,2.09l-3.4-2.22v29.37l24,15.64V384a1.25,1.25,0,0,1,2.5,0v4l3.74-2.5V363.58l17.65-11.77V344.4Zm-31,6.69a1.25,1.25,0,0,1-1,.57,1.31,1.31,0,0,1-.68-.2l-5.43-3.55a1.25,1.25,0,1,1,1.36-2.09l5.44,3.54A1.25,1.25,0,0,1,933.75,351.66Zm10.47,25.65a1.25,1.25,0,0,1-2.5,0v-6.66a1.25,1.25,0,1,1,2.5,0Zm4.43-21.6-4.43,3V364a1.25,1.25,0,0,1-2.5,0v-5.65l-4.27-2.78a1.25,1.25,0,1,1,1.37-2.09l4.39,2.86,4-2.71a1.25,1.25,0,1,1,1.39,2.08Zm10.74-7.16L954,352.13a1.27,1.27,0,0,1-.69.21,1.25,1.25,0,0,1-.7-2.29l5.37-3.58a1.25,1.25,0,0,1,1.39,2.08Z"/><polygon class="cls-3" points="912.86 359.65 915.25 359.65 915.25 357.18 894.94 357.18 894.94 357.14 894.92 357.14 894.92 359.64 912.86 359.64 912.86 359.65"/><polygon class="cls-3" points="912.86 354.68 915.25 354.68 915.25 352.17 912.86 352.17 912.86 352.17 898.01 352.17 898.01 354.67 912.86 354.67 912.86 354.68"/><rect class="cls-1" x="889.73" y="354.68" width="2.41" height="2.5"/><rect class="cls-1" x="892.53" y="359.65" width="2.41" height="2.5"/><rect class="cls-1" x="892.81" y="349.67" width="2.41" height="2.5"/><path class="cls-1" d="M958,346.47l-5.37,3.58a1.25,1.25,0,0,0,.7,2.29,1.27,1.27,0,0,0,.69-.21l5.37-3.58a1.25,1.25,0,0,0-1.39-2.08Z"/><path class="cls-1" d="M947.26,353.63l-4,2.71-4.39-2.86a1.25,1.25,0,1,0-1.37,2.09l4.27,2.78V364a1.25,1.25,0,0,0,2.5,0v-5.33l4.43-3a1.25,1.25,0,1,0-1.39-2.08Z"/><path class="cls-1" d="M943,369.4a1.25,1.25,0,0,0-1.25,1.25v6.66a1.25,1.25,0,0,0,2.5,0v-6.66A1.25,1.25,0,0,0,943,369.4Z"/><path class="cls-1" d="M933.39,349.93,928,346.39a1.25,1.25,0,1,0-1.36,2.09L932,352a1.31,1.31,0,0,0,.68.2,1.25,1.25,0,0,0,.69-2.3Z"/><path class="cls-1" d="M974.6,345.81l-4.1,2.74v-8.46l-.57-.34a1.24,1.24,0,0,0-.59-.35l-26.76-16-13.43,8.22-12-7.81-1.36,2.1,11,7.16-11.54,7.07v9.57H898v2.5h17.24v2.51H894.94v2.5h20.31v2.47H897.18v2.49h18.07v2.45h-15v2.5h15v6.34l26.41,17.23,1.51,1,4.79-3.19v7.75h2.5v-9.42l20-13.36V351.55l5.49-3.66ZM968,372.09l-2.39,1.59-15.15,10.11V364.92l15.15-10.11,2.39-1.59Zm0-21.88-2.39,1.6L948,363.58v21.87l-3.74,2.5v-4a1.25,1.25,0,0,0-2.5,0v3.76l-24-15.64V342.71l3.4,2.22a1.25,1.25,0,1,0,1.37-2.09l-3.37-2.2,10-6.1,13.37,8.72,1.37-2.09-12.38-8.08,8.93-5.47,2.19-1.34,24.06,14.42-2.1,1.4-1.19.79a1.26,1.26,0,0,0-.34,1.74,1.25,1.25,0,0,0,1.73.34l.86-.57,2.39-1.59Z"/><polygon class="cls-1" points="897.18 364.6 895.41 364.6 895.41 367.1 897.82 367.1 897.82 364.64 897.82 364.6 897.18 364.6"/><polygon class="cls-2" points="1173.53 341.86 1175.49 340.55 1151.17 325.98 1149.12 327.23 1173.53 341.86"/><polygon class="cls-2" points="1174.22 373.36 1176.58 371.79 1176.58 342.83 1174.22 344.4 1174.22 373.36"/><polygon class="cls-3" points="1126.33 371.78 1150.49 387.55 1150.49 358.57 1126.33 342.8 1126.33 371.78"/><polygon class="cls-3" points="1149.12 327.23 1127.42 340.53 1151.73 356.4 1173.53 341.86 1149.12 327.23"/><polygon class="cls-3" points="1152.99 358.56 1152.99 387.52 1174.22 373.36 1174.22 344.4 1152.99 358.56"/><polygon class="cls-3" points="1108.78 364.67 1108.78 364.64 1123.83 364.64 1123.83 362.18 1105.76 362.18 1105.76 364.64 1106.4 364.64 1106.4 364.67 1108.78 364.67"/><polygon class="cls-3" points="1123.83 340.84 1121.48 342.28 1121.48 349.7 1123.83 349.7 1123.83 340.84"/><polygon class="cls-3" points="1121.48 359.68 1123.83 359.68 1123.83 357.21 1103.52 357.21 1103.52 357.18 1103.5 357.18 1103.5 359.68 1121.48 359.68 1121.48 359.68"/><polygon class="cls-3" points="1121.48 354.71 1123.83 354.71 1123.83 352.2 1121.48 352.2 1121.48 352.2 1106.59 352.2 1106.59 354.7 1121.48 354.7 1121.48 354.71"/><polygon class="cls-3" points="1123.83 367.14 1121.48 367.14 1121.48 367.15 1108.78 367.15 1108.78 369.65 1121.48 369.65 1121.48 374.24 1148.14 391.64 1150.14 390.3 1123.83 373.13 1123.83 367.14"/><rect class="cls-1" x="1138.14" y="314.14" width="2.5" height="5.71" transform="translate(-33.24 470.72) rotate(-23.02)"/><rect class="cls-1" x="1129" y="321.14" width="2.5" height="5.71" transform="translate(112.73 913.15) rotate(-46.07)"/><rect class="cls-1" x="1160.25" y="315.78" width="5.71" height="2.5" transform="translate(416.84 1263.82) rotate(-67)"/><rect class="cls-1" x="1169.79" y="322.78" width="5.71" height="2.5" transform="translate(103.25 904.11) rotate(-43.92)"/><rect class="cls-1" x="1150" y="311.84" width="2.5" height="5.71"/><path class="cls-1" d="M1151.16,323.05l-27.33,16.75v9.9h-17.24v2.5h17.24v2.51h-20.31v2.5h20.31v2.47h-18.07v2.49h18.07v2.46h-15v2.5h15v6l26.31,17.17,1.61,1.05,27.33-18.22V339.79Zm0,2.93,24.32,14.57-2,1.31-21.8,14.54-24.31-15.87,21.7-13.3Zm-24.84,16.82,24.16,15.77v29l-24.16-15.77Zm50.25,29-2.36,1.57L1153,387.52v-29l21.23-14.16,2.36-1.57Z"/><rect class="cls-1" x="1098.31" y="354.71" width="2.41" height="2.5"/><rect class="cls-1" x="1101.1" y="359.68" width="2.41" height="2.5"/><rect class="cls-1" x="1101.39" y="349.7" width="2.41" height="2.5"/><polygon class="cls-1" points="1105.76 364.64 1103.99 364.64 1103.99 367.14 1106.4 367.14 1106.4 364.67 1106.4 364.64 1105.76 364.64"/><rect class="cls-2" x="81.28" y="349.32" width="2.72" height="16.52"/><rect class="cls-2" x="81.12" y="368.33" width="3.04" height="3.16"/><path class="cls-2" d="M65.33,355.33c0-2.37,1.72-4,4.5-4s4.32,1.41,4.32,3.71c0,1.66-.9,2.46-2.4,3.64-2,1.51-3.74,2.78-3.74,6.27v.86h2.62V365c0-2.3,1.06-3.1,2.72-4.32s3.48-2.59,3.48-5.69c0-3.45-2.55-6.2-7-6.2s-7.22,3-7.22,6.56Z"/><polygon class="cls-2" points="101.95 381.19 104.23 381.19 104.23 330.7 53.75 330.7 53.75 332.68 101.95 332.68 101.95 381.19"/><rect class="cls-2" x="67.79" y="368.33" width="3.07" height="3.16"/><polygon class="cls-3" points="51.25 352.17 51.25 354.68 33.91 354.68 33.91 352.18 48.96 352.18 48.96 352.17 51.25 352.17"/><polygon class="cls-3" points="51.25 357.18 51.25 359.65 30.82 359.65 30.82 357.15 30.84 357.15 30.84 357.18 51.25 357.18"/><rect class="cls-3" x="48.96" y="332.69" width="2.29" height="16.98"/><polygon class="cls-3" points="51.25 362.15 51.25 364.61 36.09 364.61 36.09 364.64 33.71 364.64 33.71 364.64 33.07 364.64 33.07 362.15 51.25 362.15"/><path class="cls-1" d="M51.25,328.21v21.46H33.91v2.5H51.25v2.51H30.84v2.5H51.25v2.47H33.07v2.5H51.25v2.46H36.09v2.5H51.25v16.58h55.48V328.21Zm53,53H53.75V330.71h50.48Z"/><rect class="cls-1" x="25.63" y="354.68" width="2.41" height="2.5"/><rect class="cls-1" x="28.42" y="359.65" width="2.41" height="2.5"/><rect class="cls-1" x="28.71" y="349.67" width="2.41" height="2.5"/><polygon class="cls-1" points="33.08 364.64 31.31 364.64 31.31 367.14 33.72 367.14 33.72 364.67 33.72 364.64 33.08 364.64"/><rect class="cls-2" x="67.78" y="368.34" width="3.07" height="3.16"/><path class="cls-2" d="M66.9,349.28a6.37,6.37,0,0,0-4.29,6.05h2.71a3.68,3.68,0,0,1,1.39-3h-.56A6.39,6.39,0,0,1,66.9,349.28Z"/><rect class="cls-2" x="81.27" y="349.32" width="2.72" height="16.52"/><path class="cls-2" d="M74.89,359.42a7.06,7.06,0,0,0,.64-.69A5.13,5.13,0,0,0,74.89,359.42Z"/><path class="cls-2" d="M75.29,355.71a12.46,12.46,0,0,0,1.51-1.35c-.25-2.85-2.32-5.1-5.78-5.51A3.59,3.59,0,0,0,69,351.43a6.19,6.19,0,0,1,.88-.06c2.88,0,4.32,1.4,4.32,3.7,0,1.67-.9,2.46-2.4,3.65-2,1.5-3.74,2.78-3.74,6.26v.86h2.62V365a3.91,3.91,0,0,1,.92-2.78V362C71.55,358.49,73.31,357.21,75.29,355.71Z"/><rect class="cls-2" x="81.11" y="368.34" width="3.04" height="3.16"/><path class="cls-3" d="M76.8,354.36a3.22,3.22,0,0,0,.89-2.3c0-2.3-1.44-3.71-4.32-3.71a5.47,5.47,0,0,0-2.35.5C74.48,349.26,76.55,351.51,76.8,354.36Z"/><path class="cls-3" d="M53.75,332.69v48.5H102v-48.5Zm31.06,13.62h2.72v16.52H84.81Zm-3.54,3H84v16.52H81.27ZM70.85,371.5H67.78v-3.16h3.07Zm3.54-3H71.32v-3.16h3.07Zm2.5-10.83a13.75,13.75,0,0,0-1.36,1.07,7.06,7.06,0,0,1-.64.69,4.11,4.11,0,0,0-.72,2.55v.86H71.55v-.63a3.91,3.91,0,0,0-.92,2.78v.86H68V365c0-3.48,1.76-4.76,3.74-6.26,1.5-1.19,2.4-2,2.4-3.65,0-2.3-1.44-3.7-4.32-3.7a6.19,6.19,0,0,0-.88.06,5,5,0,0,0-.09.89H66.71a3.68,3.68,0,0,0-1.39,3H62.61a6.37,6.37,0,0,1,4.29-6.05,7,7,0,0,1,6.47-3.52c4.44,0,7,2.75,7,6.2C80.37,355.07,78.45,356.5,76.89,357.66Zm7.26,13.84h-3v-3.16h3Zm3.54-3h-3v-3.16h3Z"/><polygon class="cls-3" points="51.25 367.11 48.96 367.11 48.96 367.12 36.09 367.12 36.09 369.62 48.96 369.62 48.96 385.67 101.95 385.67 101.95 383.69 51.25 383.69 51.25 367.11"/><rect class="cls-1" x="71.32" y="365.33" width="3.07" height="3.17"/><path class="cls-1" d="M73.37,345.76a7,7,0,0,0-6.47,3.52,6.39,6.39,0,0,0-.75,3h2.71a5,5,0,0,1,.09-.89A3.59,3.59,0,0,1,71,348.85a5.47,5.47,0,0,1,2.35-.5c2.88,0,4.32,1.41,4.32,3.71a3.22,3.22,0,0,1-.89,2.3,12.46,12.46,0,0,1-1.51,1.35c-2,1.5-3.74,2.78-3.74,6.26v.86h2.62V362a4.11,4.11,0,0,1,.72-2.55,5.13,5.13,0,0,1,.64-.69,13.75,13.75,0,0,1,1.36-1.07c1.56-1.16,3.48-2.59,3.48-5.7C80.37,348.51,77.81,345.76,73.37,345.76Z"/><rect class="cls-1" x="84.65" y="365.33" width="3.04" height="3.17"/><rect class="cls-1" x="84.81" y="346.31" width="2.72" height="16.53"/><path class="cls-2" d="M693.47,338.31h0v0Z"/><polygon class="cls-2" points="728.22 343.05 716.42 350.28 716.42 364.73 728.48 372.6 740.27 364.73 740.27 350.28 728.22 343.05"/><path class="cls-2" d="M726.9,332a1.21,1.21,0,0,1,.55-.8l1.52-1H706.39c-.06,0-4.94.05-7.25,2.34a17.39,17.39,0,0,1,4-.57Z"/><path class="cls-2" d="M732.17,331.13l-1.33.84h24.43v48.68h2V330.2H732.72A1.27,1.27,0,0,1,732.17,331.13Z"/><path class="cls-3" d="M708,382.12V340.41a9.67,9.67,0,0,1-8.77.61,7.35,7.35,0,0,1-1.29-.74v41.4a1.6,1.6,0,0,0,.59,1.24c4,3.23,7.51,1.2,9.25-.3A.65.65,0,0,0,708,382.12Z"/><path class="cls-3" d="M695.44,335.27v0a7.19,7.19,0,0,1,.1-1.05,5.3,5.3,0,0,0-1.6,2h0a.36.36,0,0,1,0,.09c0,.13-.11.26-.15.39v0a3.17,3.17,0,0,0-.12.44.31.31,0,0,0,0,.08l-.06.35q0,.35-.06.72h0v0h0v.15c0,.64,0,1.43,0,2.53v8.69h2Z"/><path class="cls-3" d="M730.84,332l-2.05,1.31a1.26,1.26,0,0,1-.67.19,1.22,1.22,0,0,1-1-.58,1.21,1.21,0,0,1-.17-.92H703.17a17.39,17.39,0,0,0-4,.57,3.83,3.83,0,0,0-1.2,2.75,3.57,3.57,0,0,0,2.32,3.45,6.86,6.86,0,0,0,7-.9,2,2,0,0,1,2.1-.35,1.93,1.93,0,0,1,1.15,1.76V342l2.48-1.58a1.25,1.25,0,0,1,1.34,2.11l-3.38,2.15a1.07,1.07,0,0,1-.44.16v20.85l2.76,1.8a1.23,1.23,0,0,1,.37,1.72,1.25,1.25,0,0,1-1,.57,1.22,1.22,0,0,1-.68-.2l-1.4-.91v12H729l-.56-.37a1.25,1.25,0,1,1,1.36-2.09l3.35,2.18a1,1,0,0,1,.29.28h21.82V332Zm-13,5.33,4.82-3.07a1.25,1.25,0,0,1,1.35,2.11l-4.83,3.07a1.27,1.27,0,0,1-.67.2,1.25,1.25,0,0,1-.67-2.31Zm6.86,39a1.25,1.25,0,0,1-1,.57,1.22,1.22,0,0,1-.68-.2l-5.51-3.58a1.25,1.25,0,1,1,1.36-2.1l5.51,3.58A1.25,1.25,0,0,1,724.66,376.33Zm3.82-3.74-12.06-7.86V350.28l11.8-7.23,12,7.23v14.45Z"/><path class="cls-3" d="M709.41,384.51c-.14.12-.31.26-.51.41h46.37v-1.77H710.33A3.14,3.14,0,0,1,709.41,384.51Z"/><polygon class="cls-3" points="695.44 352.17 693.47 352.17 693.47 352.17 678.13 352.17 678.13 354.67 693.47 354.67 693.47 354.68 695.44 354.68 695.44 352.17"/><polygon class="cls-3" points="695.44 357.18 675.05 357.18 675.05 357.14 675.04 357.14 675.04 359.64 693.47 359.64 693.47 359.65 695.44 359.65 695.44 357.18"/><path class="cls-3" d="M697,384.86a4.06,4.06,0,0,1-1.52-3.18V367.1h-2v0H680.31v2.5h13.16v15.3h0a2.82,2.82,0,0,0,1,2c4.62,3.73,8.75,1.37,10.55-.07a8.74,8.74,0,0,1-2.21.29A9.23,9.23,0,0,1,697,384.86Z"/><polygon class="cls-3" points="695.44 364.6 695.44 362.15 677.33 362.15 677.33 362.14 677.29 362.14 677.29 364.6 677.93 364.6 677.93 364.64 680.39 364.64 680.39 364.6 695.44 364.6"/><rect class="cls-1" x="669.84" y="354.68" width="2.41" height="2.5"/><rect class="cls-1" x="672.64" y="359.65" width="2.41" height="2.5"/><rect class="cls-1" x="672.92" y="349.67" width="2.41" height="2.5"/><path class="cls-1" d="M724.29,374.6,718.78,371a1.25,1.25,0,1,0-1.36,2.1l5.51,3.58a1.22,1.22,0,0,0,.68.2,1.25,1.25,0,0,0,.68-2.3Z"/><path class="cls-1" d="M718.47,339.61a1.27,1.27,0,0,0,.67-.2l4.83-3.07a1.25,1.25,0,0,0-1.35-2.11l-4.82,3.07a1.25,1.25,0,0,0,.67,2.31Z"/><path class="cls-1" d="M759.74,327.7H706.39c-3.52,0-10,1.39-10.85,6.5a7.19,7.19,0,0,0-.1,1.05v14.42H678.18v2.5h17.26v2.51H675.05v2.5h20.39v2.47H677.33v2.49h18.11v2.45H680.39v2.5h15.05v14.58a4.06,4.06,0,0,0,1.52,3.18,9.23,9.23,0,0,0,5.9,2.27,8.74,8.74,0,0,0,2.21-.29,11.06,11.06,0,0,0,3.83-1.92c.2-.15.37-.29.51-.41a3.14,3.14,0,0,0,.92-1.36h49.41Zm-61.21,55.22a1.6,1.6,0,0,1-.59-1.24v-41.4a7.35,7.35,0,0,0,1.29.74,9.67,9.67,0,0,0,8.77-.61v41.71a.65.65,0,0,1-.22.5C706,384.12,702.53,386.15,698.53,382.92Zm58.71-2.27H733.45a1,1,0,0,0-.29-.28l-3.35-2.18a1.25,1.25,0,1,0-1.36,2.09l.56.37H710.5v-12l1.4.91a1.22,1.22,0,0,0,.68.2,1.25,1.25,0,0,0,1-.57,1.23,1.23,0,0,0-.37-1.72l-2.76-1.8V344.79a1.07,1.07,0,0,0,.44-.16l3.38-2.15a1.25,1.25,0,0,0-1.34-2.11L710.5,342v-2.7a1.93,1.93,0,0,0-1.15-1.76,2,2,0,0,0-2.1.35,6.86,6.86,0,0,1-7,.9,3.57,3.57,0,0,1-2.32-3.45,3.83,3.83,0,0,1,1.2-2.75c2.31-2.29,7.19-2.34,7.25-2.34H729l-1.52,1a1.25,1.25,0,0,0-.38,1.72,1.22,1.22,0,0,0,1,.58,1.26,1.26,0,0,0,.67-.19l2.05-1.31,1.33-.84a1.27,1.27,0,0,0,.55-.93h24.52Z"/><polygon class="cls-1" points="677.29 364.6 675.52 364.6 675.52 367.1 677.93 367.1 677.93 364.64 677.93 364.6 677.29 364.6"/><path class="cls-1" d="M731.39,339.07l-13,8v15.83l13.32,8.69,13-8.7V347Zm0,2.92,9.72,5.82-9.47,6.31-9.71-6.33Zm-10.55,8.07,9.56,6.24v11.46l-9.56-6.23Zm12.06,17.68V356.29l9.29-6.2v11.45Z"/><path class="cls-1" d="M1161.33,298.72c-.36-.44-.71-.88-1.08-1.32-57.16-68.94-135-126.54-225.57-166.83C839,88,730.37,65.52,620.49,65.52S402.19,88,306.79,130.63C214.3,171.92,135,231.49,77.4,302.91l1.95,1.57c22.54-28,65-46,108-46,43.46,0,84.59,17.52,107.35,45.72l1,1.26.93-1.26C319.42,276,360.55,258.45,404,258.45c42.64,0,83.32,17.6,106.19,45.94l1,1.22,1-1.22c34.46-42.74,81.94-78.39,137.32-103.12,57.16-25.52,122.16-39,188-39s130.79,13.48,187.93,39a389.23,389.23,0,0,1,96.81,61.2,267.58,267.58,0,0,0-49.67-28.86c-38.35-17.15-81.85-26.22-125.78-26.22-88.18,0-169.49,35.55-217.49,95.09l1.94,1.57c47.54-59,128.12-94.16,215.55-94.16,43.58,0,86.72,9,124.76,26a256.77,256.77,0,0,1,70.4,46.18c-23.78-16.32-55.65-26.1-88-26.1-43.46,0-83.54,17.53-107.22,46.9l1.95,1.56c23.21-28.78,62.56-46,105.27-46,43.6,0,86.29,18,108.77,45.86l1.94-1.57Q1163,300.71,1161.33,298.72Zm-865.63,2.7C272.3,273.34,231,256,187.39,256c-34.59,0-67.75,10.88-91.78,29.33,55.63-62.6,128.5-115,212.2-152.37C402.89,90.46,511,68,620.49,68s217.83,22.42,313.17,64.83c56.66,25.21,108.31,57.22,153,94.54a530.84,530.84,0,0,0-106-62.58c-76.55-34.15-163.46-52.2-251.33-52.2s-174.7,18-251,52.1C404.81,197.53,341.7,244.79,295.7,301.42ZM1026.4,199c-57.46-25.65-122.8-39.21-189-39.21s-131.52,13.57-189,39.23c-55.23,24.66-102.66,60.14-137.28,102.66C487.68,273.43,446.8,256,404,256c-34,0-66.68,10.6-90.49,28.61C357.49,236.39,414.32,196,479.34,167c76-33.95,162.48-51.89,250-51.89s174.08,18,250.31,52c46.08,20.55,88,46.74,124.2,77.31A399.32,399.32,0,0,0,1026.4,199Z"/><path class="cls-1" d="M947.71,437.87c-22.16,27.46-66.53,45.92-110.42,45.92-43,0-82.47-17.19-105.68-46l-2,1.57c23.68,29.36,63.91,46.9,107.63,46.9,32.81,0,65.91-10.2,90.12-26.74C878.78,504.75,805.46,532,728.89,532c-43.7,0-87-8.94-125.16-25.85-37.12-16.45-68.77-40.06-91.54-68.3-.44-.58-.64-.81-1-1.25-.27.4-.6.73-1,1.25h0c-22.77,28.21-54.48,51.82-91.71,68.28C380.24,523,336.91,532,293.21,532c-44.09,0-85.64-8.7-123.49-25.85-35.89-16.26-67-39.88-89.9-68.31l-1.94,1.57c23.16,28.73,54.57,52.6,90.81,69,38.18,17.3,80.07,26.07,124.52,26.07,44.05,0,87.73-9,126.31-26.08,37.09-16.39,68.74-39.84,91.68-67.85,22.95,28,54.55,51.49,91.52,67.86,38.49,17.05,82.12,26.07,126.17,26.07,88.88,0,173.47-36.42,220.76-95Z"/></g></svg>