<?xml version="1.0" encoding="utf-8"?>
<!-- Generator: Adobe Illustrator 24.2.1, SVG Export Plug-In . SVG Version: 6.00 Build 0)  -->
<svg version="1.1" id="Ebene_1" xmlns="http://www.w3.org/2000/svg" xmlns:xlink="http://www.w3.org/1999/xlink" x="0px" y="0px"
	 viewBox="0 0 505.5 473.9" style="enable-background:new 0 0 505.5 473.9;" xml:space="preserve">
<style type="text/css">
	.st0{fill:#191919;}
	.st1{opacity:0.4;fill:#002DFF;enable-background:new    ;}
	.st2{fill:#FFFFFF;}
</style>
<g id="Hintergrund">
	<rect x="-13.4" y="-16.7" class="st0" width="535.8" height="507.6"/>
</g>
<g id="Illustration">
	<circle class="st1" cx="252.8" cy="144" r="134"/>
	<circle class="st1" cx="144" cy="329.9" r="134"/>
	<circle class="st1" cx="361.5" cy="329.9" r="134"/>
	<path class="st2" d="M386,293.6l-1.6-2.1l0.9-0.7c2.1-1.6,2.5-4.6,0.9-6.7c0,0,0-0.1-0.1-0.1l-11.1-14.3c-1.2-1.6-3.5-1.9-5.1-0.6
		c-0.5,0.4-0.9,0.9-1.2,1.6l-4.1,10.5c-0.4,1-1.6,1.5-2.6,1.1c-0.3-0.1-0.6-0.3-0.8-0.6l-1.8-2.3c-0.9-1.2-2.4-1.9-3.9-1.9
		c-1.5,0-2.9,0.8-3.8,2L325.2,317c-1.5,2.1-1,5.1,1.1,6.7c0.7,0.5,1.5,0.8,2.3,0.9l8.6-0.1c2.7,0,5.3-1,7.4-2.8l0.8-0.6l1.6,2.1
		c0.2,0.2,0.4,0.4,0.7,0.4h0.2c0.2,0,0.4-0.1,0.6-0.2l0,0l1.7-1.2c0.5-0.3,0.6-1,0.2-1.5c0,0,0,0,0,0l-1.6-2.1l5.2-4l1.6,2.1
		c0.2,0.2,0.4,0.4,0.7,0.4h0.2c0.2,0,0.4-0.1,0.6-0.2l0,0l1.6-1.2c0.5-0.4,0.6-1,0.2-1.5l-1.6-2.1l15.3-11.6l1.6,2.1
		c0.4,0.5,1,0.6,1.5,0.2l0,0l1.7-1.2c0.5-0.4,0.6-1,0.2-1.5l-1.6-2.1l5.2-4l1.6,2.1c0.2,0.3,0.5,0.4,0.9,0.4c0.2,0,0.4-0.1,0.6-0.2
		l0,0l1.7-1.2C386.2,294.6,386.3,294,386,293.6z M347.7,322.1l-1.4-1.9l1.2-0.9l1.4,1.9L347.7,322.1z M356.3,315.6l-1.4-1.9l1.2-0.9
		l1.4,1.9L356.3,315.6z M385.8,287.4c-0.1,0.9-0.6,1.7-1.3,2.3l-7.7,5.8c-0.9-1.8-1.6-3.7-1.9-5.6c-0.8-5.1,0.1-10.4,2.6-14.9
		l7.7,9.9C385.7,285.6,385.9,286.5,385.8,287.4L385.8,287.4z M353,280.4c0.6-0.9,1.6-1.4,2.7-1.4h0.1c1.1,0,2.1,0.5,2.7,1.3l1.8,2.3
		c1.1,1.5,3.2,1.7,4.7,0.6c0.5-0.4,0.9-0.9,1.1-1.4l4.1-10.5c0.3-0.8,1-1.3,1.8-1.4c0.8-0.1,1.6,0.2,2.1,0.9l2.5,3.2
		c-6.2,11.7-2.1,20.4-0.9,22.6l-1.6,1.2l-1.6,1.2l-25-10.7L353,280.4z M366.6,303.3l-22.9-9.8l3.1-4.3l24.6,10.5L366.6,303.3z
		 M360.6,307.8l-20.8-9l3-4.1l22.5,9.6L360.6,307.8z M343.6,320.6c-1.8,1.6-4.1,2.6-6.6,2.6l-8.5,0.1c-1.9-0.2-3.2-2-3-3.9
		c0.1-0.6,0.3-1.1,0.6-1.6l12.9-18l20.3,8.9L343.6,320.6z M376.1,300.6l-1.2,0.9l-1.4-1.9l1.2-0.9L376.1,300.6z M383.5,295l-1.4-1.9
		l1.2-0.9l1.4,1.9L383.5,295z"/>
	<path class="st2" d="M389.9,280.1h13.6c0.4,0,0.7-0.3,0.7-0.7v0c0-0.4-0.3-0.7-0.7-0.7c0,0,0,0,0,0h-13.6c-0.4,0-0.7,0.3-0.7,0.6
		c0,0,0,0,0,0C389.2,279.8,389.5,280.1,389.9,280.1L389.9,280.1z"/>
	<path class="st2" d="M400.1,301h-13.6c-0.4,0-0.7,0.3-0.7,0.6c0,0,0,0,0,0c0,0.4,0.3,0.7,0.6,0.7c0,0,0,0,0,0h13.6
		c0.4,0,0.7-0.3,0.7-0.7v0C400.8,301.3,400.5,301,400.1,301C400.1,301,400.1,301,400.1,301z"/>
	<path class="st2" d="M410.3,291.6h-13.6c-0.4,0-0.7,0.3-0.7,0.7c0,0.4,0.3,0.7,0.7,0.7h13.6c0.4,0,0.7-0.3,0.7-0.7
		C411,291.9,410.7,291.6,410.3,291.6z"/>
	<path class="st2" d="M162.4,269.7c-1.4-0.7-3-0.6-4.3,0.2l-22,11.2h-21.6c-2.1,0-3.8,1.7-3.8,3.8v0.6h-4.2c-2.1,0-3.8,1.7-3.8,3.8
		l0,0v8c0,2.1,1.7,3.8,3.8,3.8h0h4.2v0.3c0,2.1,1.7,3.8,3.8,3.8h1.1v15.4c0,1.7,1.4,3.1,3.2,3.1h2.6c1.7,0,3.1-1.4,3.1-3.1v-4.2
		c0-1,0.8-1.8,1.8-1.8c1.7,0,3.1-1.4,3.1-3.1v-6.2h6.6l22,11.2c0.8,0.4,1.6,0.6,2.5,0.6c0.6,0,1.2-0.1,1.8-0.5
		c0.8-0.5,1.3-1.4,1.2-2.4v-42C163.7,271.2,163.2,270.2,162.4,269.7z M135.6,303.7h-2.1v-21.3h2.1V303.7z M104.1,291.3h6.7v3.8h-6.7
		L104.1,291.3z M106.6,286.7h4.2v3.3h-6.7v-0.8C104.1,287.9,105.2,286.8,106.6,286.7C106.5,286.8,106.5,286.8,106.6,286.7
		L106.6,286.7z M106.6,299.6c-1.4,0-2.5-1.1-2.4-2.5v-0.8h6.7v3.2L106.6,299.6z M128.1,311.3c0,1-0.8,1.8-1.8,1.8
		c-1.7,0-3.1,1.4-3.1,3.1v4.2c0,1-0.8,1.8-1.8,1.8h-2.6c-1,0-1.8-0.8-1.8-1.8v-15.4h11.1V311.3z M115.7,303.7h-1.1
		c-1.4,0-2.4-1.1-2.4-2.5l0,0v-16.4c0-1.4,1.1-2.5,2.4-2.5h0h17.6v21.3L115.7,303.7L115.7,303.7z M162.3,314c0,0.5-0.2,1-0.6,1.3
		c-1,0.4-2.1,0.3-3-0.2l-21.8-11v-21.9l21.8-11c0.9-0.6,2-0.7,3-0.2c0.4,0.3,0.6,0.8,0.6,1.3L162.3,314z"/>
	<path class="st2" d="M181.6,306.7l-10-4.6c-0.3-0.2-0.7,0-0.9,0.3c0,0,0,0,0,0c-0.2,0.3,0,0.7,0.3,0.9l10,4.6
		c0.1,0,0.2,0.1,0.3,0.1c0.4,0,0.7-0.3,0.7-0.6C182,307.1,181.8,306.8,181.6,306.7L181.6,306.7z"/>
	<path class="st2" d="M171.3,284.2c0.1,0,0.2,0,0.3-0.1l10-4.6c0.3-0.1,0.5-0.5,0.4-0.9c-0.1-0.3-0.5-0.5-0.9-0.4c0,0-0.1,0-0.1,0.1
		l-10,4.6c-0.3,0.2-0.5,0.5-0.3,0.9c0,0,0,0,0,0C170.8,284,171,284.2,171.3,284.2z"/>
	<path class="st2" d="M188.6,292.5l-12.3-0.1c-0.4,0-0.7,0.3-0.7,0.7c0,0.4,0.3,0.7,0.6,0.7c0,0,0,0,0,0l12.3,0.1l0,0
		c0.4,0,0.7-0.3,0.7-0.7C189.2,292.8,188.9,292.5,188.6,292.5L188.6,292.5z"/>
	<path class="st2" d="M239.4,124c0.1,0.1,0.3,0.2,0.5,0.2c0.2,0,0.4-0.1,0.6-0.2c0.3-0.3,0.3-0.8,0-1.1c0,0,0,0,0,0l-8.1-7.5
		l8.1-7.1c0.3-0.3,0.3-0.8,0.1-1.1c-0.3-0.3-0.8-0.3-1.1-0.1l-8.7,7.6c-0.2,0.1-0.3,0.3-0.2,0.6c0,0.2,0.1,0.4,0.2,0.6L239.4,124z"
		/>
	<path class="st2" d="M265.1,124c0.1,0.2,0.3,0.2,0.5,0.2c0.2,0,0.4-0.1,0.5-0.2l8.7-8c0.2-0.1,0.2-0.3,0.2-0.6
		c0-0.2-0.1-0.4-0.3-0.6l-8.7-7.6c-0.3-0.3-0.8-0.2-1.1,0.1c-0.3,0.3-0.2,0.8,0.1,1.1c0,0,0,0,0,0l8.1,7.1l-8.1,7.5
		C264.8,123.3,264.8,123.7,265.1,124z"/>
	<path class="st2" d="M248.9,129.3c0.1,0,0.1,0,0.2,0c0.3,0,0.6-0.2,0.7-0.5l7.4-25.8c0.1-0.4-0.1-0.8-0.5-0.9l0,0
		c-0.4-0.1-0.8,0.1-0.9,0.5l-7.4,25.8C248.2,128.7,248.4,129.1,248.9,129.3C248.8,129.2,248.8,129.2,248.9,129.3z"/>
	<path class="st2" d="M224.3,88.1c-0.6,0-1,0.4-1,1s0.4,1,1,1s1-0.4,1-1S224.8,88.1,224.3,88.1z"/>
	<circle class="st2" cx="228.4" cy="89.1" r="1"/>
	<circle class="st2" cx="232.4" cy="89.1" r="1"/>
	<path class="st2" d="M282.1,83.4h-58.7c-3.3,0-6,2.7-6,6V134c0,3.3,2.7,6,6,6h58.7c3.3,0,6-2.7,6-6V89.4
		C288.1,86,285.4,83.4,282.1,83.4z M286.6,134c0,2.5-2,4.5-4.5,4.5h-58.7c-2.5,0-4.5-2-4.5-4.5l0,0V94.5h67.6V134z M286.6,93h-67.6
		v-3.7c0-2.5,2-4.5,4.5-4.5l0,0h58.7c2.5,0,4.5,2,4.5,4.5V93z"/>
	<path class="st2" d="M248.7,187.8h-2.9v-15.3h2.9V187.8z"/>
	<path class="st2" d="M257.5,175.2v12.6h-2.9v-12.6h-4.1v-2.7h11.1v2.7H257.5z"/>
	<path class="st2" d="M104.8,371.9H102v-11.2l-3.1,11.2h-3.1l-3.1-11.2v11.2h-2.9v-15.3h4.3l3.2,11.5l3.2-11.5h4.3V371.9z"/>
	<path class="st2" d="M115,370.8c-0.9,0.9-2.2,1.4-3.5,1.3c-2.4,0-4.6-1.2-4.6-3.7s2.1-3.2,4.6-3.4c1.9-0.2,3.2-0.4,3.2-1.3
		c0-0.6-0.8-1.1-2.1-1.1c-1.1-0.1-2.1,0.5-2.5,1.4h-2.9c0.3-2.2,2.3-3.8,5.3-3.8c4.6,0,5,3,5,3.9v5.9c0,0.6,0.1,1.3,0.3,1.9h-2.7
		C115.2,371.5,115.1,371.2,115,370.8z M114.9,366.4c-0.9,0.4-1.8,0.7-2.8,0.7c-1.4,0.2-2.3,0.5-2.3,1.3c0,0.6,0.8,1.1,1.9,1.1
		c1.7,0,3.2-0.6,3.2-2V366.4z"/>
	<path class="st2" d="M126.8,363.2c-1-0.2-2,0-2.8,0.7c-0.6,0.7-0.8,1.6-0.7,2.5v5.6h-2.9v-11.3h2.8v1.1c0.9-1.1,2.3-1.6,3.7-1.3
		L126.8,363.2z"/>
	<path class="st2" d="M131.4,368.6v3.2h-2.9v-16.4h2.9v9.2l3.7-4.1h4l-4.2,4.4l4.5,6.9h-3.7l-2.8-4.8L131.4,368.6z"/>
	<path class="st2" d="M142.4,367.4c0.3,1.3,1.5,2.3,2.8,2.2c1,0,1.9-0.5,2.4-1.3h3.1c-0.7,2.4-3,4-5.5,3.9c-3.3,0-5.9-2.7-5.9-5.9
		s2.7-5.9,5.9-5.9c3.4,0,6.1,2.6,5.7,7.1L142.4,367.4z M148.1,365c-0.3-1.3-1.5-2.2-2.8-2.1c-1.3,0-2.5,0.9-2.8,2.1H148.1z"/>
	<path class="st2" d="M158.4,371.9c-3.3,0.4-5.1-1.6-5.1-4.8v-4h-1.4v-2.6h1.4v-2.9h2.9v2.9h2v2.6h-2v4c0,1.6,0.7,2.2,2.2,2.1V371.9
		z"/>
	<path class="st2" d="M163,359.3h-2.9v-2.7h2.9V359.3z M163,371.9h-2.9v-11.3h2.9V371.9z"/>
	<path class="st2" d="M175.8,371.9h-2.9v-6.6c0.1-1.1-0.6-2.1-1.7-2.2c-0.1,0-0.2,0-0.4,0c-1.2,0-2.2,0.9-2.2,2.1c0,0.1,0,0.1,0,0.2
		v6.6h-2.9v-11.3h2.8v1.1c0.7-0.9,1.8-1.4,2.9-1.4c2.7,0,4.4,2,4.4,5L175.8,371.9z"/>
	<path class="st2" d="M189.4,371.3c0,3.8-2.2,6.1-5.9,6.1c-2.7,0-5.1-1.6-5.5-4h3.2c0.5,0.8,1.4,1.3,2.3,1.2c2.1,0,3-1.3,3-3.4v-0.5
		c-0.9,0.9-2.1,1.3-3.3,1.3c-3.3-0.3-5.7-3.1-5.4-6.4c0.2-2.9,2.5-5.2,5.4-5.4c1.3,0,2.6,0.5,3.5,1.5v-1.2h2.8L189.4,371.3z
		 M183.6,363c-1.7,0.1-3,1.5-2.9,3.2c0,0,0,0,0,0c-0.2,1.6,1,3,2.6,3.2c1.6,0.2,3-1,3.2-2.6c0-0.2,0-0.4,0-0.6
		C186.6,364.6,185.3,363.1,183.6,363L183.6,363z"/>
	<g>
		<path class="st2" d="M348.5,361.2h-2.9c0-1.3-1.1-2.3-3-2.3c-1.5,0-3,0.6-3,1.8s1,1.4,3.4,1.9c3.6,0.7,5.9,1.6,5.9,4.8
			c0,3-2.5,4.8-6.3,4.8c-3,0-6.2-1.6-6.2-5.3h2.9c0,1.8,1.8,2.7,3.4,2.7c1.5,0,3.4-0.6,3.4-2c0-1-0.8-1.6-3.6-2.1
			c-2.8-0.5-5.7-1.4-5.7-4.7c0-2.6,2.3-4.4,5.9-4.4C346.8,356.2,348.5,358.8,348.5,361.2z"/>
		<path class="st2" d="M357.2,372.1c-1.2,0-2.4-0.5-3.3-1.4v6.1H351v-16.4h2.8v1.2c0.9-0.9,2.2-1.5,3.5-1.5c3.1,0.1,5.5,2.7,5.4,5.8
			c0,0,0,0,0,0.1C362.6,369.6,360.2,372.1,357.2,372.1z M356.8,363c-1.8-0.2-3.4,1.1-3.5,2.9c-0.2,1.8,1.1,3.4,2.9,3.5
			s3.4-1.1,3.5-2.9c0-0.1,0-0.2,0-0.4C359.8,364.5,358.5,363.1,356.8,363C356.9,363,356.8,363,356.8,363L356.8,363z"/>
		<path class="st2" d="M375.3,366.2c-0.2,3.2-2.8,5.6-6,5.4c-3.2-0.2-5.6-2.8-5.4-6c0.1-3,2.7-5.4,5.7-5.4c3.2,0,5.7,2.6,5.7,5.8
			C375.4,366.1,375.4,366.2,375.3,366.2z M372.4,366.2c0-2-1.2-3.3-2.8-3.3c-1.5,0-2.8,1.4-2.8,3.3c-0.2,1.5,0.8,3,2.4,3.2
			s3-0.8,3.2-2.4C372.5,366.8,372.5,366.5,372.4,366.2z"/>
		<path class="st2" d="M383.8,363.2c-1-0.2-2,0-2.8,0.7c-0.6,0.7-0.8,1.6-0.7,2.5v5.6h-2.9v-11.3h2.8v1.1c0.9-1.1,2.3-1.6,3.6-1.3
			L383.8,363.2z"/>
		<path class="st2" d="M391.2,371.9c-3.3,0.4-5.1-1.6-5.1-4.8v-4h-1.3v-2.6h1.4v-2.9h2.9v2.9h2v2.6h-2v4c0,1.6,0.7,2.2,2.2,2.1
			L391.2,371.9z"/>
	</g>
</g>
</svg>
