<svg id="Ebene_1" data-name="Ebene 1" xmlns="http://www.w3.org/2000/svg" viewBox="0 0 640 360"><defs><style>.cls-1{fill:#002dff;}</style></defs><rect width="640" height="360"/><path class="cls-1" d="M309.75,150.73V143H293.5v58.39h17V177.94c0-5.29.65-10.71,4.26-14.44,3.87-4.13,9.54-4.91,16.38-4.13V142.86c-8-1.29-16,1.16-21.41,7.87"/><path class="cls-1" d="M353.89,150.73V143H337.65v58.39h17V177.94c0-5.29.64-10.71,4.25-14.44,3.87-4.13,9.55-4.91,16.38-4.13V142.86c-8-1.29-16,1.16-21.41,7.87"/><path class="cls-1" d="M214.48,105.73a14.16,14.16,0,1,0,14.16,14.15,14.16,14.16,0,0,0-14.16-14.15"/><path class="cls-1" d="M440.77,192.3l-.17-49H423.26l.26,30c0,7.35-5.29,13-12.9,13-11.09,0-12.38-9.28-12.38-13l-.25-30H381l.25,30c0,17.41,10.45,29.14,26.18,29.14a21.7,21.7,0,0,0,16.35-7l.08,16.61c0,6.06-3.74,12.12-12.25,12.12s-12.12-6.06-12.12-12.12v-1.16h-17v.64c0,16.63,11.34,29.27,29.14,29.27s29.27-12.64,29.27-29.27Z"/><path class="cls-1" d="M270,165.14H244.71c.15-.33.31-.64.47-.95,2.06-5.34,6.57-8.67,12.14-8.67a12.66,12.66,0,0,1,12.45,8.88c.12.25.25.49.36.74H270M257.42,141c-16.45,0-29.84,13.72-29.84,30.59s13.39,30.59,29.84,30.59a30,30,0,0,0,28.39-21.19H268.3c-2.21,4.12-6.54,6-11,6a13,13,0,0,1-12.49-8.78l-.13-.24h0c-.14-.41-.28-.82-.39-1.24h42.48a31.67,31.67,0,0,0,.43-5.18c0-16.87-13.38-30.59-29.84-30.59"/><path class="cls-1" d="M205.79,211.72c0,6-3.71,12.05-12.13,12.11h-3.92v16.64H194c17.54-.21,28.83-12.76,28.83-29.26V143h-17Z"/></svg>