<svg id="Ebene_1" data-name="Ebene 1" xmlns="http://www.w3.org/2000/svg" viewBox="0 0 129.4 42.55"><defs><style>.cls-1{fill:#e6e6e6;}</style></defs><path class="cls-1" d="M129.28,39.24h-3v3h3Zm-.66-1.05.78-8.06V26.4h-3.3v3.73l.79,8.06Zm-5.86,4.1V30.78h-3.05v4.85a11.9,11.9,0,0,1-.23,3.11,2.15,2.15,0,0,1-.84,1.06,2.37,2.37,0,0,1-1.4.43,1.93,1.93,0,0,1-1.13-.32,1.62,1.62,0,0,1-.61-.87,14.65,14.65,0,0,1-.17-3V30.78h-3v7.28a6.28,6.28,0,0,0,.41,2.55A3,3,0,0,0,114,42a4.22,4.22,0,0,0,2.08.51,4.73,4.73,0,0,0,2.17-.53,4.45,4.45,0,0,0,1.65-1.45v1.72ZM106.3,37.37a5.93,5.93,0,0,1-.12,1.48,1.84,1.84,0,0,1-.72,1,2.66,2.66,0,0,1-1.57.54,1.67,1.67,0,0,1-1.22-.46,1.49,1.49,0,0,1-.48-1.11,1.27,1.27,0,0,1,.6-1.07,5.64,5.64,0,0,1,1.66-.53,18.89,18.89,0,0,0,1.85-.47ZM103,33.17a2.23,2.23,0,0,1,1.27-.32,2.6,2.6,0,0,1,1.64.37,1.58,1.58,0,0,1,.43,1.25v.31a16.77,16.77,0,0,1-3,.75,10.19,10.19,0,0,0-2.42.71,3.1,3.1,0,0,0-1.31,1.17,3.28,3.28,0,0,0-.46,1.74,3.23,3.23,0,0,0,1,2.44,4,4,0,0,0,2.81,1,4.8,4.8,0,0,0,1.89-.38A5.4,5.4,0,0,0,106.54,41c0,.06.06.18.11.36.12.4.21.7.29.9h3a6.53,6.53,0,0,1-.55-1.54,12.08,12.08,0,0,1-.15-2.24l0-3.56a6.28,6.28,0,0,0-.4-2.72,3,3,0,0,0-1.4-1.23,7.36,7.36,0,0,0-3-.48,5.9,5.9,0,0,0-3.38.8,4.33,4.33,0,0,0-1.61,2.47l2.77.5a2.25,2.25,0,0,1,.73-1.12M96.65,26.4h-3V42.29h3ZM80,26.4V42.29H83V36.52a6.76,6.76,0,0,1,.27-2.19,2.11,2.11,0,0,1,.88-1.11,2.44,2.44,0,0,1,1.35-.37,1.9,1.9,0,0,1,1.1.29,1.49,1.49,0,0,1,.61.77,8.71,8.71,0,0,1,.18,2.3v6.08h3V35.54a12.55,12.55,0,0,0-.15-2.29,3.59,3.59,0,0,0-.59-1.34,3,3,0,0,0-1.27-1A4.57,4.57,0,0,0,83,32.24V26.4Zm-4.23,5a5.59,5.59,0,0,0-3.35-.9,5.33,5.33,0,0,0-4.07,1.59,6.16,6.16,0,0,0-1.51,4.44A6.2,6.2,0,0,0,68.3,41a5.27,5.27,0,0,0,4,1.59,5.53,5.53,0,0,0,3.54-1,5.32,5.32,0,0,0,1.79-3.11l-3-.51a3,3,0,0,1-.78,1.7,2.09,2.09,0,0,1-1.42.49,2.26,2.26,0,0,1-1.85-.85,4.64,4.64,0,0,1-.69-2.89,4,4,0,0,1,.68-2.63,2.3,2.3,0,0,1,1.82-.79,2.1,2.1,0,0,1,1.39.46,2.14,2.14,0,0,1,.69,1.35l3-.54a5.09,5.09,0,0,0-1.78-2.76M55.91,41.6a6.49,6.49,0,0,0,3.72.95,5.86,5.86,0,0,0,3.92-1.14,3.47,3.47,0,0,0,1.32-2.72,2.82,2.82,0,0,0-1-2.26,8.48,8.48,0,0,0-3.4-1.36,11.27,11.27,0,0,1-2.85-.86.66.66,0,0,1-.3-.55.71.71,0,0,1,.35-.62,3.33,3.33,0,0,1,1.72-.33,2.55,2.55,0,0,1,1.47.36,1.79,1.79,0,0,1,.7,1l2.87-.54a4,4,0,0,0-1.58-2.27,6.45,6.45,0,0,0-3.52-.77,5.51,5.51,0,0,0-3.66,1,3.17,3.17,0,0,0-1.18,2.51,3,3,0,0,0,1.36,2.59,16.33,16.33,0,0,0,4.68,1.49,2.42,2.42,0,0,1,1,.4.8.8,0,0,1,.21.57,1,1,0,0,1-.4.82,3,3,0,0,1-1.78.43A2.62,2.62,0,0,1,58,39.89a2.25,2.25,0,0,1-.8-1.35L54.12,39a4.41,4.41,0,0,0,1.79,2.59M35,26.4V42.29h3V36.52a6.71,6.71,0,0,1,.28-2.19,2,2,0,0,1,.87-1.11,2.5,2.5,0,0,1,1.36-.37,1.92,1.92,0,0,1,1.1.29,1.54,1.54,0,0,1,.61.77,9.38,9.38,0,0,1,.17,2.3v6.08h3.05V35.54a11.52,11.52,0,0,0-.16-2.29,3.57,3.57,0,0,0-.58-1.34,3.07,3.07,0,0,0-1.28-1,4.44,4.44,0,0,0-1.89-.39,4.49,4.49,0,0,0-3.53,1.72V26.4Zm-4.24,5a5.58,5.58,0,0,0-3.34-.9,5.37,5.37,0,0,0-4.08,1.59,6.2,6.2,0,0,0-1.5,4.44A6.2,6.2,0,0,0,23.35,41a5.26,5.26,0,0,0,4,1.59,5.56,5.56,0,0,0,3.55-1,5.32,5.32,0,0,0,1.79-3.11l-3-.51a3,3,0,0,1-.79,1.7,2.07,2.07,0,0,1-1.42.49,2.24,2.24,0,0,1-1.84-.85A4.64,4.64,0,0,1,25,36.33a4,4,0,0,1,.68-2.63,2.28,2.28,0,0,1,1.81-.79,2.08,2.08,0,0,1,1.39.46,2.14,2.14,0,0,1,.69,1.35l3-.54a5.1,5.1,0,0,0-1.79-2.76m-11.52-.64h-3V42.29h3Zm0-4.38h-3v2.82h3ZM4.65,29.09a14.58,14.58,0,0,1,2.63.15A3.06,3.06,0,0,1,8.77,30a3.67,3.67,0,0,1,.91,1.54A9.33,9.33,0,0,1,10,34.36a10.3,10.3,0,0,1-.33,2.91,3.41,3.41,0,0,1-.84,1.53,3,3,0,0,1-1.29.66,8.94,8.94,0,0,1-1.95.15H3.21V29.09ZM0,42.29H6A9.52,9.52,0,0,0,8.88,42a5.59,5.59,0,0,0,2.25-1.26,7,7,0,0,0,1.7-2.81,10.35,10.35,0,0,0,.49-3.38,11.68,11.68,0,0,0-.52-3.76,6.94,6.94,0,0,0-1.52-2.57A5.35,5.35,0,0,0,8.89,26.7a11.62,11.62,0,0,0-3-.3H0Z"/><path class="cls-1" d="M92.1,7.3a2.23,2.23,0,0,1,1.8-.85,2.34,2.34,0,0,1,1.87.87A4,4,0,0,1,96.51,10a3.83,3.83,0,0,1-.77,2.59,2.45,2.45,0,0,1-1.89.87,2.19,2.19,0,0,1-1.75-.85,4.17,4.17,0,0,1-.71-2.68,4,4,0,0,1,.71-2.6M88.66,17a3.17,3.17,0,0,0,1.22,2.54,6.63,6.63,0,0,0,4.15,1,8.81,8.81,0,0,0,2.57-.32,4.34,4.34,0,0,0,1.62-.9,3.8,3.8,0,0,0,.94-1.59,10.34,10.34,0,0,0,.34-3V4.38H96.65V6a4.22,4.22,0,0,0-3.53-1.87,4.49,4.49,0,0,0-3.46,1.53,6.33,6.33,0,0,0-1.39,4.42,6.65,6.65,0,0,0,1.06,3.86,4.23,4.23,0,0,0,3.67,2A4.13,4.13,0,0,0,96.45,14v1.68a4.68,4.68,0,0,1-.14,1.39,1.42,1.42,0,0,1-.61.77,3.5,3.5,0,0,1-1.79.36,2.33,2.33,0,0,1-1.36-.32,1.21,1.21,0,0,1-.4-.84l-3.48-.42c0,.14,0,.27,0,.37M78.72,9.15a2.8,2.8,0,0,1,.64-2A2.11,2.11,0,0,1,81,6.45a2.08,2.08,0,0,1,1.58.69,2.9,2.9,0,0,1,.68,2Zm3.64,4.33a1.84,1.84,0,0,1-1.2.39,2.32,2.32,0,0,1-1.76-.75A3.06,3.06,0,0,1,78.67,11H86.3q.06-3.49-1.42-5.2a5.11,5.11,0,0,0-4.06-1.69A4.93,4.93,0,0,0,77,5.74a6.33,6.33,0,0,0-1.49,4.48,6.66,6.66,0,0,0,1.13,4,5.17,5.17,0,0,0,4.45,2,5.45,5.45,0,0,0,3.16-.87,5,5,0,0,0,1.85-2.54l-3-.51a2.41,2.41,0,0,1-.74,1.25M64.2,15.89l2-7.4,2,7.4h2.93L74.76,4.38h-3l-2.2,7.54L67.64,4.38H64.7l-2,7.54L60.56,4.38h-3l3.64,11.51ZM49.09,9.15a2.8,2.8,0,0,1,.63-2,2.2,2.2,0,0,1,3.24,0,2.94,2.94,0,0,1,.68,2Zm3.64,4.33a1.89,1.89,0,0,1-1.21.39,2.3,2.3,0,0,1-1.75-.75A3.06,3.06,0,0,1,49,11h7.63a7.5,7.5,0,0,0-1.42-5.2,5.1,5.1,0,0,0-4.05-1.69,4.9,4.9,0,0,0-3.78,1.62,6.34,6.34,0,0,0-1.5,4.48,6.59,6.59,0,0,0,1.14,4,5.14,5.14,0,0,0,4.44,2,5.43,5.43,0,0,0,3.16-.87,5,5,0,0,0,1.85-2.54l-3-.51a2.41,2.41,0,0,1-.73,1.25M36.41,9a10.91,10.91,0,0,1,2.84.23,2,2,0,0,1,1,.73,2,2,0,0,1,.35,1.21,1.93,1.93,0,0,1-.45,1.35,2,2,0,0,1-1.16.64,15.77,15.77,0,0,1-2.2.09h-3V9Zm-.75-6.32c1.51,0,2.42,0,2.74.06a1.8,1.8,0,0,1,1.21.56A1.72,1.72,0,0,1,40,4.45a1.68,1.68,0,0,1-.48,1.25,2.08,2.08,0,0,1-1.29.56c-.3,0-1.08.06-2.33.06h-2.1V2.64Zm-5,13.25H36c2,0,3.33-.05,3.87-.11A4.48,4.48,0,0,0,42,15a4.24,4.24,0,0,0,1.37-1.64,4.65,4.65,0,0,0,.51-2.11,3.83,3.83,0,0,0-.78-2.39,4.19,4.19,0,0,0-2.23-1.44,3.76,3.76,0,0,0,1.63-1.4,3.72,3.72,0,0,0,.6-2,3.54,3.54,0,0,0-.49-1.86A4,4,0,0,0,41.43.81,4.1,4.1,0,0,0,39.77.16,17.58,17.58,0,0,0,37,0H30.61Z"/></svg>