<svg id="Ebene_1" data-name="Ebene 1" xmlns="http://www.w3.org/2000/svg" viewBox="0 0 118.44 63.69"><defs><style>.cls-1{fill:#002dff;}</style></defs><path class="cls-1" d="M56.61,21.23V17.6H48.94V45.14h8V34.06c0-2.49.31-5.05,2-6.81,1.82-1.95,4.5-2.31,7.72-1.95V17.52a10.45,10.45,0,0,0-10.09,3.71"/><path class="cls-1" d="M77.43,21.23V17.6H69.76V45.14h8V34.06c0-2.49.31-5.05,2-6.81,1.82-1.95,4.5-2.31,7.73-1.95V17.52a10.46,10.46,0,0,0-10.1,3.71"/><path class="cls-1" d="M11.67,0a6.68,6.68,0,1,0,6.68,6.68A6.68,6.68,0,0,0,11.67,0"/><path class="cls-1" d="M118.4,40.83l-.08-23.1h-8.17l.12,14.13A5.93,5.93,0,0,1,104.19,38c-5.24,0-5.84-4.38-5.84-6.14l-.12-14.13h-8l.12,14.13c0,8.21,4.92,13.74,12.35,13.74a10.27,10.27,0,0,0,7.71-3.31l0,7.83a5.75,5.75,0,0,1-11.5,0v-.54h-8v.3c0,7.85,5.35,13.81,13.75,13.81s13.8-6,13.8-13.81Z"/><path class="cls-1" d="M37.86,28H25.93c.07-.15.14-.3.22-.45a6.06,6.06,0,0,1,5.73-4.09,6,6,0,0,1,5.87,4.2,3.59,3.59,0,0,1,.17.34h-.06M31.92,16.61A14.27,14.27,0,0,0,17.85,31a14,14,0,0,0,27.47,4.44H37.06a5.71,5.71,0,0,1-5.18,2.85A6.16,6.16,0,0,1,26,34.19l-.06-.12h0a5.76,5.76,0,0,1-.18-.59h20A14,14,0,0,0,46,31,14.27,14.27,0,0,0,31.92,16.61"/><path class="cls-1" d="M7.57,50a5.43,5.43,0,0,1-5.72,5.72H0v7.85H2c8.27-.1,13.6-6,13.6-13.8V17.6h-8Z"/></svg>