<svg id="Ebene_1" data-name="Ebene 1" xmlns="http://www.w3.org/2000/svg" viewBox="0 0 115.29 56.66"><defs><style>.cls-1{opacity:0.9;}.cls-2{fill:#e6e6e6;}</style></defs><g class="cls-1"><path class="cls-2" d="M103.82,26.06h11.47V37.54H103.82Zm-34.42,0H80.87V37.54H69.4ZM35,37.54V26.06H46.46V37.54ZM0,26.06H11.47V37.54H0Z"/><path class="cls-2" d="M45.89,0H.57L0,20l3,.52Q3.85,11.67,7.65,7.4c2.66-3,6.33-4.54,11-4.68V44.54c0,3.66-.51,6-1.58,7.12a7.36,7.36,0,0,1-4.6,1.72c-.64,0-1.73.08-3.28.08v3.2h28v-3.2c-1.54,0-2.63,0-3.27-.08-2.16-.22-3.7-.79-4.6-1.72-1.07-1.09-1.59-3.46-1.59-7.12V2.72c4.72.14,8.4,1.69,11.06,4.68s4.08,7.22,4.64,13.11l3-.52Z"/></g></svg>