<svg id="Ebene_1" data-name="Ebene 1" xmlns="http://www.w3.org/2000/svg" viewBox="0 0 85 85"><defs><style>.cls-1{opacity:0.9;}.cls-2{fill:#e6e6e6;}</style></defs><g class="cls-1"><path class="cls-2" d="M55.86,78.68l1.37,3.71a42.53,42.53,0,0,0,16.49-11l-2.9-2.68a38.58,38.58,0,0,1-15,10"/><path class="cls-2" d="M42.5,81A38.85,38.85,0,0,1,32,79.61L31,83.42a42.84,42.84,0,0,0,23.09,0L53,79.6A38.55,38.55,0,0,1,42.5,81"/><path class="cls-2" d="M14.2,68.67l-2.91,2.68a42.48,42.48,0,0,0,16.5,11l1.37-3.7a38.67,38.67,0,0,1-15-10"/><path class="cls-2" d="M42.5,0A42.5,42.5,0,0,0,9.13,68.82l3.1-2.45a38.55,38.55,0,1,1,60.56,0l3.1,2.45A42.5,42.5,0,0,0,42.5,0"/><polygon class="cls-2" points="34.07 32.83 26.41 28.4 26.43 56.72 34.07 52.28 34.07 32.83"/><path class="cls-2" d="M21.43,20l12.64,7.3V12.7l15.36,8.86v5.79l-10.36-6v8.82l10.36,6v5.52l-10.36-6V49.4L63.6,35.45l-10-5.69V24L73.39,35.45,60.82,42.66,73.38,50,43.31,67.37V61.59L63.6,50,56,45.43,39.07,55.17V69.82l-5,2.89V58.07L21.4,65.37Zm21.07,57A34.55,34.55,0,1,0,8,42.51,34.55,34.55,0,0,0,42.5,77.05"/></g></svg>