<svg id="Ebene_1" data-name="Ebene 1" xmlns="http://www.w3.org/2000/svg" viewBox="0 0 640 360"><defs><style>.cls-1{fill:#002dff;}</style></defs><rect width="640" height="360"/><rect class="cls-1" x="268.39" y="226.33" width="3.91" height="13.96"/><path class="cls-1" d="M251.07,237a4.08,4.08,0,0,1-3.92-4.29,3.93,3.93,0,1,1,3.92,4.29M255,226.47a6.46,6.46,0,0,0-4.51-1.78c-4,0-7.26,3.44-7.26,8s3.29,7.94,7.26,7.94a6.4,6.4,0,0,0,4.69-2v1.64h3.73V218.23H255Z"/><rect class="cls-1" x="357.96" y="218.23" width="3.91" height="22.06"/><path class="cls-1" d="M344.82,234.36c0,1.95-1.89,2.75-4.24,2.75-1.57,0-2.57-.59-2.57-1.45,0-1.13,1.18-1.54,3.11-1.75a8.92,8.92,0,0,0,3.7-1Zm3.65-4.51c0-1.21-.48-5.22-6.67-5.22-4,0-6.79,2.17-7.18,5.07h3.92c.36-1.3,2-1.92,3.35-1.92,1.75,0,2.79.65,2.79,1.45,0,1.24-1.81,1.54-4.36,1.78-3.38.29-6.26,1.18-6.26,4.62s3,5,6.2,5a6.16,6.16,0,0,0,4.68-1.72,5.56,5.56,0,0,0,.39,1.43h3.58a9.66,9.66,0,0,1-.44-2.49Z"/><rect class="cls-1" x="305.92" y="226.33" width="3.91" height="13.96"/><path class="cls-1" d="M288.75,237a4.09,4.09,0,0,1-3.92-4.3,3.93,3.93,0,1,1,3.92,4.3m4.09-10.35a6.4,6.4,0,0,0-4.69-2c-4,0-7.26,3.44-7.26,8s3.29,7.94,7.26,7.94a6.42,6.42,0,0,0,4.51-1.78v.74c0,2.73-1.25,4.54-4,4.54a3.38,3.38,0,0,1-3.12-1.69h-4.29c.59,3.23,3.76,5.34,7.41,5.34,4.89,0,7.91-3.18,7.91-8.25V225h-3.73Z"/><path class="cls-1" d="M323.69,233.88v-5.39h2.76V225h-2.76v-3.88h-3.91V225h-1.84v3.47h1.84v5.36c0,4.18,2.37,6.88,6.85,6.4V236.7c-2,.12-2.94-.68-2.94-2.82"/><path class="cls-1" d="M270.3,218.05a3,3,0,0,0,0,6.06,3,3,0,0,0,2-.75h0v0a3,3,0,0,0,1-2.26,3,3,0,0,0-3-3"/><path class="cls-1" d="M307.88,218.05a3,3,0,1,0,3,3,3,3,0,0,0-3-3"/><path class="cls-1" d="M309.75,150.73V143H293.5v58.39h17V177.94c0-5.29.65-10.71,4.26-14.44,3.87-4.13,9.54-4.91,16.38-4.13V142.86c-8-1.29-16,1.16-21.41,7.87"/><path class="cls-1" d="M353.89,150.73V143H337.65v58.39h17V177.94c0-5.29.64-10.71,4.25-14.44,3.87-4.13,9.55-4.91,16.38-4.13V142.86c-8-1.29-16,1.16-21.41,7.87"/><path class="cls-1" d="M214.48,105.73a14.16,14.16,0,1,0,14.16,14.15,14.16,14.16,0,0,0-14.16-14.15"/><path class="cls-1" d="M440.77,192.3l-.17-49H423.26l.26,30c0,7.35-5.29,13-12.9,13-11.09,0-12.38-9.28-12.38-13l-.25-30H381l.25,30c0,17.41,10.45,29.14,26.18,29.14a21.7,21.7,0,0,0,16.35-7l.08,16.61c0,6.06-3.74,12.12-12.25,12.12s-12.12-6.06-12.12-12.12v-1.16h-17v.64c0,16.63,11.34,29.27,29.14,29.27s29.27-12.64,29.27-29.27Z"/><path class="cls-1" d="M270,165.14H244.71c.15-.33.31-.64.47-.95,2.06-5.34,6.57-8.67,12.14-8.67a12.66,12.66,0,0,1,12.45,8.88c.12.25.25.49.36.74H270M257.42,141c-16.45,0-29.84,13.72-29.84,30.59s13.39,30.59,29.84,30.59a30,30,0,0,0,28.39-21.19H268.3c-2.21,4.12-6.54,6-11,6a13,13,0,0,1-12.49-8.78l-.13-.24h0c-.14-.41-.28-.82-.39-1.24h42.48a31.67,31.67,0,0,0,.43-5.18c0-16.87-13.38-30.59-29.84-30.59"/><path class="cls-1" d="M205.79,211.72c0,6-3.71,12.05-12.13,12.11h-3.92v16.64H194c17.54-.21,28.83-12.76,28.83-29.26V143h-17Z"/></svg>