<svg id="Ebene_1" data-name="Ebene 1" xmlns="http://www.w3.org/2000/svg" viewBox="0 0 159.98 38.13"><defs><style>.cls-1{opacity:0.9;}.cls-2{fill:#e6e6e6;}</style></defs><g class="cls-1"><path class="cls-2" d="M16.36,1.47A8.35,8.35,0,0,0,11.3,0H8.25C3.26,0,0,3.14,0,7.86V21.49c0,4.72,3.24,7.85,8.25,7.85h2.41c5,0,8.24-3.15,8.24-7.85V12.66c0-.31-.13-.44-.44-.44H9.31c-.31,0-.44.13-.44.44V17c0,.31.13.44.44.44h3a.4.4,0,0,1,.45.45v3.26a3.12,3.12,0,0,1-3.15,3.19H9.17A3.17,3.17,0,0,1,6,21.13V8.23A3.18,3.18,0,0,1,9.17,5H11.1c1.29,0,2.13.9,2.88,2.27.26.49.36.76.62.76A.45.45,0,0,0,14.83,8L18.72,6.1A.4.4,0,0,0,19,5.75a7.44,7.44,0,0,0-2.63-4.28"/><path class="cls-2" d="M86.92.69h-15c-.31,0-.45.14-.45.44V28.21c0,.31.14.44.45.44H87.09c.32,0,.46-.13.46-.44V23.94a.41.41,0,0,0-.46-.44H77.86c-.32,0-.45-.13-.45-.44V17.32c0-.31.13-.45.45-.45H85c.31,0,.44-.13.44-.45V12.16c0-.3-.13-.44-.44-.44H77.86c-.32,0-.45-.13-.45-.44v-5c0-.32.13-.45.45-.45h9.06c.32,0,.45-.13.45-.44V1.13a.4.4,0,0,0-.45-.44"/><path class="cls-2" d="M152.51,1.31c.18-.36.06-.62-.39-.62h-5.2a.65.65,0,0,0-.65.45L142.86,8.5a.42.42,0,0,1-.81,0L138.5,1.14a.65.65,0,0,0-.67-.45h-5.44c-.43,0-.59.3-.4.67l6.63,13L131.86,28c-.2.4,0,.67.4.67h5.14a.67.67,0,0,0,.7-.45l3.66-8a.42.42,0,0,1,.81,0l3.41,8a.71.71,0,0,0,.7.45h5.55c.45,0,.57-.28.4-.62l-6.7-13.6Z"/><path class="cls-2" d="M115.13.69c-.31,0-.44.14-.44.44V28.21c0,.31.13.44.44.44h13.31a.7.7,0,0,0,.7-.4l2.15-4.32a.28.28,0,0,0-.27-.43h-9.91c-.31,0-.45-.13-.45-.44V17.32c0-.31.14-.44.45-.44h7.18a.4.4,0,0,0,.43-.42V12.14a.42.42,0,0,0-.43-.42h-7.18c-.31,0-.45-.14-.45-.44v-5c0-.3.13-.44.45-.44h10c.27,0,.39-.2.28-.42l-2.2-4.32a.62.62,0,0,0-.66-.41Z"/><path class="cls-2" d="M90.79,11.72c-.29,0-.41.12-.41.4v4.34c0,.28.12.41.41.41h4.59c.28,0,.4-.13.4-.41V12.12c0-.28-.12-.4-.4-.4Z"/><path class="cls-2" d="M95.46.69c-.31,0-.44.14-.44.44V5.52c0,.32.13.45.44.45h4.67c.3,0,.44.13.44.44v21.8c0,.31.13.44.45.44h5.1c.31,0,.55-.13.55-.44V6.41c0-.31.13-.44.45-.44h4.67c.31,0,.44-.13.44-.45V1.13a.4.4,0,0,0-.44-.44Z"/><path class="cls-2" d="M31.74,0c-5,0-8.25,3.15-8.25,7.86V21.5c0,4.69,3.24,7.84,8.25,7.84h2.69c5,0,8.24-3.15,8.24-7.84V7.86C42.67,3.15,39.4,0,34.43,0Zm5,21a3.12,3.12,0,0,1-3.15,3.2h-.9A3.18,3.18,0,0,1,29.46,21V8.35a3.18,3.18,0,0,1,3.19-3.2h.9a3.12,3.12,0,0,1,3.15,3.2Z"/><path class="cls-2" d="M62.57,16.91a8,8,0,0,0,4.28-7v-1c0-5.06-3.38-8.2-8.44-8.2H48.16c-.3,0-.43.14-.43.44V28.2c0,.32.13.45.43.45h5.1c.32,0,.44-.13.44-.45V18.34c0-.31.14-.45.45-.45h2.13a.53.53,0,0,1,.57.39l4,10a.55.55,0,0,0,.52.4h5.86a.39.39,0,0,0,.39-.58ZM60.81,9.83A3.32,3.32,0,0,1,57.49,13H54.15c-.31,0-.45-.13-.45-.44V6.07c0-.32.14-.45.45-.45h3.34a3.36,3.36,0,0,1,3.32,3.2Z"/><path class="cls-2" d="M156.78,1.12a2.65,2.65,0,1,0,2.62,2.65,2.64,2.64,0,0,0-2.62-2.65m0-.52a3.17,3.17,0,1,1-3.2,3.17A3.18,3.18,0,0,1,156.78.6"/><path class="cls-2" d="M158.15,5.45h-.58a.07.07,0,0,1-.08,0L157,4.19a.08.08,0,0,0-.08-.06h-.55a.05.05,0,0,0-.06.06V5.4s0,0,0,0h-.51s0,0,0,0V2.11s0,0,0,0h1.39a.92.92,0,0,1,1,1v.18a1,1,0,0,1-.54.82l.62,1.33s0,.07,0,.07M157.5,3a.39.39,0,0,0-.38-.39h-.77a.05.05,0,0,0-.06.06v.83a.05.05,0,0,0,.06.06h.77a.38.38,0,0,0,.38-.39Z"/><path class="cls-2" d="M145.45,37.19a1.87,1.87,0,0,1-.39.54,1.42,1.42,0,0,1-1.07.38h-.25a1.42,1.42,0,0,1-1.55-1.47V34.12a1.43,1.43,0,0,1,1.55-1.47H144a1.61,1.61,0,0,1,.87.22,1.69,1.69,0,0,1,.58.69c0,.08,0,.12,0,.14l-.64.32s-.1,0-.13,0a.71.71,0,0,0-.64-.45h-.25a.59.59,0,0,0-.6.59v2.52a.6.6,0,0,0,.6.6H144a.71.71,0,0,0,.64-.46.1.1,0,0,1,.15-.05l.63.32a.11.11,0,0,1,0,.14"/><path class="cls-2" d="M150.09,34c0,.37.38.55,1,.81.89.4,1.33.89,1.33,1.72a1.57,1.57,0,0,1-1.66,1.54h-.15a1.75,1.75,0,0,1-1.18-.39,1.25,1.25,0,0,1-.37-.55.09.09,0,0,1,0-.12l.66-.33a.1.1,0,0,1,.13.05.88.88,0,0,0,.71.47h.15a.69.69,0,0,0,.67-.62c0-.42-.33-.64-.87-.9-.92-.44-1.39-.81-1.39-1.64a1.4,1.4,0,0,1,1.56-1.43h.12a1.51,1.51,0,0,1,.95.28,1.47,1.47,0,0,1,.52.64c0,.06,0,.11,0,.13l-.63.32c-.08,0-.11,0-.15-.05a.73.73,0,0,0-.65-.44h-.12c-.33,0-.6.17-.6.51"/><path class="cls-2" d="M139.12,38.11a1.43,1.43,0,0,1-1.56-1.48v-3.8s0-.08.09-.08h.78a.07.07,0,0,1,.08.08v3.8a.61.61,0,0,0,.61.61h.41a.59.59,0,0,0,.59-.61v-3.8s0-.08.08-.08H141c.06,0,.09,0,.09.08v3.8a1.43,1.43,0,0,1-1.55,1.48Z"/><path class="cls-2" d="M147.9,33.63c-.06,0-.09,0-.09.08v4.22c0,.06,0,.08-.08.08h-.82c-.06,0-.08,0-.08-.08V33.71c0-.06,0-.08-.08-.08h-.9c-.06,0-.09,0-.09-.08v-.72c0-.06,0-.08.09-.08h2.94c.05,0,.08,0,.08.08v.72c0,.05,0,.08-.08.08Z"/><path class="cls-2" d="M122,34.23a.6.6,0,0,0-.6-.6h-.82s-.08,0-.08.08v1.44c0,.06,0,.09.08.09h.82a.6.6,0,0,0,.6-.61Zm1,.4a1.45,1.45,0,0,1-1.55,1.48h-.82s-.08,0-.08.09v1.73c0,.06,0,.08-.08.08h-.79c-.06,0-.09,0-.09-.08v-5.1s0-.08.09-.08h1.77A1.46,1.46,0,0,1,123,34.3Z"/><path class="cls-2" d="M129.79,38.13a1.43,1.43,0,0,1-1.56-1.48V34.12a1.43,1.43,0,0,1,1.56-1.48h.45a1.43,1.43,0,0,1,1.56,1.48v2.53a1.44,1.44,0,0,1-1.56,1.48Zm1.05-4a.59.59,0,0,0-.6-.6h-.45a.6.6,0,0,0-.61.6v2.53a.6.6,0,0,0,.61.6h.45a.59.59,0,0,0,.6-.6Z"/><path class="cls-2" d="M135.49,34.23a.6.6,0,0,0-.6-.6H134c-.06,0-.08,0-.08.08v3.34c0,.06,0,.09.08.09h.92a.6.6,0,0,0,.6-.6ZM133,38c-.06,0-.08,0-.08-.08v-5.1s0-.08.08-.08h1.88a1.45,1.45,0,0,1,1.56,1.55v2.16A1.45,1.45,0,0,1,134.89,38Z"/><path class="cls-2" d="M127.34,38h-.9c-.06,0-.1,0-.12-.07l-.79-1.89a.13.13,0,0,0-.13-.08h-.5c-.06,0-.09,0-.09.08v1.88c0,.06,0,.08-.08.08h-.8c-.05,0-.08,0-.08-.08v-5.1a.07.07,0,0,1,.08-.08h1.8a1.44,1.44,0,0,1,1.56,1.54v.29a1.46,1.46,0,0,1-.84,1.26l1,2.06c0,.07,0,.11-.08.11m-1-3.78a.61.61,0,0,0-.61-.6h-.83c-.06,0-.09,0-.09.08V35c0,.06,0,.08.09.08h.83a.6.6,0,0,0,.61-.6Z"/></g></svg>