<svg id="Ebene_1" data-name="Ebene 1" xmlns="http://www.w3.org/2000/svg" viewBox="0 0 85 84.98"><defs><style>.cls-1{fill:#e6e6e6;}</style></defs><path class="cls-1" d="M37.67,38.4c.23.27,2.8,2.22,3.9,3.05h0c.21.15.2-.12.2-.12l.34-37.22a4.6,4.6,0,0,0-.47.4,3.11,3.11,0,0,0-.41.4c0,.41-3.73,31.5-3.77,32.48a1.38,1.38,0,0,0,.21,1M42.58,2.28A40.17,40.17,0,1,0,71,14.06,40.06,40.06,0,0,0,42.58,2.28M82,42.42v.14c0,1.2-.07,2.4-.17,3.58A39.27,39.27,0,0,1,65.71,74.41a38.87,38.87,0,0,1-23,7.54h-.07A39.46,39.46,0,0,1,3,42.61v-1.1a39.77,39.77,0,0,1,7.32-21.95c.66-.9,1.36-1.78,2.1-2.62a39.78,39.78,0,0,1,8.89-7.78A39.22,39.22,0,0,1,42.58,3h.13A39.54,39.54,0,0,1,82,42.41M44.1,5.1h0a4.88,4.88,0,0,0-1.57-1.22h0l-.07,0h0L42.2,41.39h0v.18a.26.26,0,0,1-.08.21.33.33,0,0,1-.24,0l-3.11-1.61a12,12,0,0,0-1.64-.83L9.34,60.14a3.58,3.58,0,0,0-.21,1.12l31.63-18.7.18-.1s.27-.14.1-.3c-1.1-.77-3.94-2.77-3.89-2.82l.22.13c.42.3,1.29.82,1.29.82l2.78,1.78h0l.14.09a.25.25,0,0,1,.13.18.23.23,0,0,1-.14.2l-.11.07-.06,0h0l-32.3,19v.13a3.7,3.7,0,0,0,1.8.85c.13.2.87,1.35,1.87,2.64a41,41,0,0,0,3.26,3.71A37.18,37.18,0,0,0,41.24,79.88c-.65,0-1.29,0-1.93-.06A38.77,38.77,0,0,1,6.93,58.6c0-.08-.13-.21-.21-.2A40.19,40.19,0,0,0,14.9,70.25l0,0a39.22,39.22,0,0,0,12.54,8.35,38.72,38.72,0,0,0,15.24,3h0A39.32,39.32,0,0,0,70.22,70.11l0,0a38.54,38.54,0,0,0,11.29-24v-.15a5.87,5.87,0,0,1,0-.59c0-.13,0-.3,0-.45a1.16,1.16,0,0,0-.2-.6,12.24,12.24,0,0,1-.81-1.62,12.63,12.63,0,0,1-.8-3A37.41,37.41,0,0,0,44.1,5.1M73.72,62.71a38.84,38.84,0,0,1-4.94,6.05,37.15,37.15,0,0,1-52.56,0A40.3,40.3,0,0,1,13,65.08c-.69-.9-1.26-1.73-1.58-2.22a.17.17,0,0,1,0-.24l0,0L42.29,50.21a.49.49,0,0,1,.41,0L73.63,62.46a.18.18,0,0,1,.1.23v0m.52-.28h0L42.5,49.87,11,62.52h0a3.86,3.86,0,0,1-1.46-.92L41.84,43.16c.09,0,.22-.1.3-.06a.22.22,0,0,1,.09.16c0,1.06.12,3.84.2,5.27a6.59,6.59,0,0,0,.07,1h0a6.63,6.63,0,0,0,.08-1c.07-1.41.16-4.16.2-5.24a.23.23,0,0,1,.08-.19c.06,0,.23,0,.33.08L75.8,61.81a3.36,3.36,0,0,1-1.55.6m1.65-.79-32.36-19-.09-.06h0l-.07,0,0,0h0l0,0h0a.06.06,0,0,1,0-.06.22.22,0,0,1,.08-.13l3.1-1.91,0,0c.81-.5,1.47-.9,1.48-.88s-4,2.78-4,2.78a.1.1,0,0,0,0,.14h0a.16.16,0,0,0,.07.07L75.64,61.14a2.15,2.15,0,0,0,0-1L48,39.33a15.34,15.34,0,0,0-1.73.83l-3,1.5h0l0,0-.1.05-.14,0a.11.11,0,0,1-.11,0l0,0h0a.29.29,0,0,1,0-.13L42.61,5.26v-1a3.55,3.55,0,0,1,1.5.9L48.8,38.52a.34.34,0,0,0,.1.27l26.79,21a3.43,3.43,0,0,1,.21,1.79m-.23-2.35a.17.17,0,0,1-.23,0L49.07,38.6a.38.38,0,0,1,0-.1L44.39,5.58v0a.17.17,0,0,1,.18-.15,37.2,37.2,0,0,1,31.1,53.9M42.5,0A42.49,42.49,0,1,0,72.55,12.44,42.48,42.48,0,0,0,42.5,0M72.36,72.35a42.23,42.23,0,0,1-72-26.9c0-.67,0-1.06,0-1.06a9.74,9.74,0,0,1,1.2-3.75,3.5,3.5,0,0,1,.2-.33h0a2.69,2.69,0,0,0,.32-1s0-.25,0-.36c.06-.57.1-.9.18-1.59A40.57,40.57,0,0,1,5.64,25.56,41.23,41.23,0,0,1,13.36,14.3a40.18,40.18,0,0,1,6.57-5.5,41.1,41.1,0,0,1,8.26-4.25A40.63,40.63,0,0,1,82.12,34c.07,0,0-.28,0-.45C79.66,20.56,71.92,10,60.9,4.43A42.26,42.26,0,0,1,72.38,72.35M35.93,38.89h0a.44.44,0,0,0,.18-.31L40.92,5.1A37.45,37.45,0,0,0,9.32,59.81Zm-30.6,3.6A37.17,37.17,0,0,1,40.43,5.38a.16.16,0,0,1,.17.14v.05l-4.73,33a.19.19,0,0,1-.09.15L9.57,59.3a.17.17,0,0,1-.24,0h0a36.93,36.93,0,0,1-4-16.79"/></svg>