<svg id="Ebene_1" data-name="Ebene 1" xmlns="http://www.w3.org/2000/svg" viewBox="0 0 106.1 52.91"><defs><style>.cls-1{opacity:0.9;}.cls-2{fill:#e6e6e6;}</style></defs><g class="cls-1"><rect class="cls-2" x="0.02" y="47.25" width="106.08" height="5.66"/><path class="cls-2" d="M69.77,0,67.93,5.66H78.39L80.25,0ZM95.86,8.59H83.42l-10.21,31H84.05l1.1-4.89h9l1.11,4.89h10.85Zm-6.22,6.33,2.63,11.63H87ZM28.79,8.59H39.31l5.62,18.82L50.56,8.59H61.08l-10.21,31H39Zm38.2,0-10.2,31H67.31l10.2-31Zm-44.34,0H10.21L0,39.63H10.84l1.1-4.89h9L22,39.63H32.87Zm-6.22,6.33,2.63,11.63H13.8Z"/></g></svg>