<svg id="Ebene_1" data-name="Ebene 1" xmlns="http://www.w3.org/2000/svg" viewBox="0 0 86 86"><defs><style>.cls-1{opacity:0.9;}.cls-2{fill:#e6e6e6;}</style></defs><g class="cls-1"><path class="cls-2" d="M83.2,43A40.2,40.2,0,1,1,43,2.8,40.2,40.2,0,0,1,83.2,43M43,0A43,43,0,1,0,86,43,43,43,0,0,0,43,0"/><path class="cls-2" d="M43,67.08A24.1,24.1,0,0,1,18.92,43h-1.4A25.48,25.48,0,0,0,43,68.48m0-51v1.4A24.1,24.1,0,0,1,67.08,43h1.4A25.48,25.48,0,0,0,43,17.52"/><path class="cls-2" d="M63.59,24.85c.58.63,1.42,1.63,1.9,2.24l8.69-5.48c-.43-.57-1.12-1.43-1.64-2L67,23.2l-.37.32.27-.41,2.44-4.82-1.72-1.71L62.79,19l-.41.28.33-.38,3.64-5.47c-.64-.54-1.26-1-2-1.64l-5.52,8.63c.7.54,1.62,1.32,2.21,1.86l5.19-2.68.34-.24-.25.33Z"/><path class="cls-2" d="M43.85,13.92l2.38-5.29.15-.47-.05.49.25,7.06c.84.08,1.7.2,2.55.34L48.74,5.58c-1.19-.13-2.37-.22-3.55-.27l-2.34,5.77-.08.43-.09-.43L40.34,5.31c-1.18.05-2.36.14-3.55.27l-.38,10.47c.84-.14,1.7-.26,2.54-.34l.25-7.06,0-.49.15.47,2.37,5.29Z"/><path class="cls-2" d="M17.84,23.28l3.75-3.91a3.67,3.67,0,0,1,.85-.73,1,1,0,0,1,1,0,.87.87,0,0,1,.38.93,2.69,2.69,0,0,1-.73,1.13l-3.74,4Zm-2.9-2.73a44.55,44.55,0,0,1,3.8-4.12,2,2,0,0,1,.78-.49.91.91,0,0,1,1.1.7A1.64,1.64,0,0,1,20.07,18c-.79.88-3.69,3.9-3.69,3.9Zm9.68,1.71c1.38-1.44,2.16-3.1.78-4.69a2.68,2.68,0,0,0-3-.62l-.11,0,0-.09a2.5,2.5,0,0,0-.87-2.62,2.59,2.59,0,0,0-1.92-.53c-1.29.13-2.28,1-5,4-.81.9-2,2.33-2.71,3.25l7.42,7c2.46-2.71,3.46-3.71,5.4-5.74"/><path class="cls-2" d="M43,17.52V43H17.52A25.47,25.47,0,0,1,43,17.52"/><path class="cls-2" d="M68.48,43A25.47,25.47,0,0,1,43,68.48V43Z"/></g></svg>