<svg id="Ebene_1" data-name="Ebene 1" xmlns="http://www.w3.org/2000/svg" viewBox="0 0 164.18 53.6"><defs><style>.cls-1{opacity:0.9;}.cls-2{fill:#e6e6e6;}</style></defs><g class="cls-1"><path class="cls-2" d="M97.41.54,89.69.17S79.52-.11,75.08.05c-8.78.31-12,.59-12,.59A230.08,230.08,0,0,0,0,15a.45.45,0,0,0,.15.41A287.83,287.83,0,0,1,57.47,5s8.9-.78,16.4-.87c13.06-.16,16.37.14,16.37.14L103.18,5a259.93,259.93,0,0,1,38.37,5.63c6.11,1.4,12.63,3.16,22.26,5.94.23.06.19-.18.37-.26A218.62,218.62,0,0,0,97.41.54"/><path class="cls-2" d="M67.54,26.17H47.12c-.12.79-.21,1.51-.38,2.24A60.44,60.44,0,0,1,55.35,28V53.29a22.61,22.61,0,0,1,3.65,0V27.88a38.69,38.69,0,0,1,8,.45c.12-.8.39-1.43.56-2.16"/><path class="cls-2" d="M33.41,31.7c0-3.36,2.79-4.27,5.23-4.27a8.68,8.68,0,0,1,6.18,2.29c.24-.79.43-1.62.7-2.6A14.75,14.75,0,0,0,39,25.5c-3.86,0-8.68,1.53-8.68,7,0,8.52,15,5.71,15,13.73,0,3.84-3.18,5.41-6.24,5.41a9.48,9.48,0,0,1-7.72-4.77c-.45,1.35-.82,2.63-1.27,4a14.48,14.48,0,0,0,8.3,2.73c4.22,0,10.42-2.29,10.42-8.5,0-8.66-15.33-7.07-15.33-13.4"/><path class="cls-2" d="M70,40.79l4.67-10.51,4.48,10.51Zm4.8-15.09L61.83,53.29c1.07,0,2.39-.06,3.39,0a97.71,97.71,0,0,1,4-10.64H79.91a93.54,93.54,0,0,1,4.24,10.54,24.82,24.82,0,0,1,4.48,0L75.88,25.7Z"/><path class="cls-2" d="M98.37,51.76s-3.79-.15-4.15,0V27.44h5.83c7.8,0,9.93,7,9.93,12.39,0,8-3.44,11.93-11.61,11.93m5.17-25.6H90.72V53.21H102c6.66,0,11.66-6.44,11.88-12.2.35-9-4.18-14.87-10.32-14.85"/><path class="cls-2" d="M121.38,41l4.67-10.43L130.62,41Zm4.67-15.22L113.26,53.25a29.64,29.64,0,0,1,3.4,0c1.34-3.93,2.5-7.08,3.89-10.45h10.83a100.36,100.36,0,0,1,4.14,10.45,39.44,39.44,0,0,1,4.37,0L127.26,25.76Z"/></g></svg>