<svg id="Ebene_1" data-name="Ebene 1" xmlns="http://www.w3.org/2000/svg" viewBox="0 0 103.96 71.75"><defs><style>.cls-1,.cls-2{fill:#aaa;}.cls-2{isolation:isolate;}</style></defs><path class="cls-1" d="M0,.15H1.5L3.23,5.42h0L5,.15h1.5V6.77H5.34v-5h0A9.74,9.74,0,0,1,5,3.16L3.68,6.77h-1L1.43,3.16a8.28,8.28,0,0,1-.38-1.43h0v5H0Z"/><path class="cls-1" d="M7.89.15H9V6.77H7.89Z"/><path class="cls-1" d="M12,1.13H10v-1h5.18V1.21h-2V6.77H12Z"/><path class="cls-1" d="M15.41,3.39c0-2.11,1.2-3.39,2.85-3.39a2.47,2.47,0,0,1,2.56,2.11l-1.06.3c-.3-1-.75-1.35-1.5-1.35s-1.73.45-1.73,2.33.91,2.48,1.81,2.48a1.45,1.45,0,0,0,1.5-1.43V4.36H18.56v-.9H21V6.77h-.9v-1h0a1.83,1.83,0,0,1-1.81,1C16.38,6.84,15.41,5.42,15.41,3.39Z"/><path class="cls-1" d="M22.32.15h1.13V5.72h3v1H22.32Z"/><path class="cls-1" d="M27.43.15h1.13V6.77H27.43Z"/><path class="cls-1" d="M30,.15h4.28V1.21H31.11V2.86h2.33v.9H31.11v2h3.31v1H30Z"/><path class="cls-1" d="M35.4.15h1.87c2,0,3.39,1,3.39,3.31S39.3,6.77,37.27,6.77H35.4Zm2,5.57c1.5,0,2.18-.68,2.18-2.33s-.68-2.26-2.26-2.26h-.82V5.72Z"/><path class="cls-1" d="M44,.15h1.13V6.77H44Z"/><path class="cls-1" d="M46.59.15H48.1l1.73,5.27h0L51.55.15h1.51V6.77H52v-5h0a8.48,8.48,0,0,1-.37,1.35L50.28,6.77h-1L48,3.16a8.48,8.48,0,0,1-.37-1.35h0v5H46.59Z"/><path class="cls-2" d="M0,60.88V10.53H33V18l.15-.23A9.87,9.87,0,0,1,35,15.18a10.88,10.88,0,0,1,2.32-1.87A17,17,0,0,1,39.83,12a18.63,18.63,0,0,1,3.53-1c.83-.15,1.66-.3,2.48-.38a11.94,11.94,0,0,1,1.58-.07.27.27,0,0,0,.23-.08H87l.91.08a17.73,17.73,0,0,1,2,.22c.82.15,1.72.3,2.55.53a14.35,14.35,0,0,1,3.76,1.5,15.58,15.58,0,0,1,2.48,1.8,10.42,10.42,0,0,1,1.2,1.36,9.54,9.54,0,0,1,1.58,2.85,12.47,12.47,0,0,1,.75,2.71c.08.6.15,1.2.23,1.73a20,20,0,0,1-.08,3,11.73,11.73,0,0,1-.53,2.41,8.74,8.74,0,0,1-2.78,4.13,10,10,0,0,1-4,2c-.07,0-.15.07-.22.15s.15.15.22.15a15.83,15.83,0,0,1,2.56.9,10.39,10.39,0,0,1,5.41,6,12.07,12.07,0,0,1,.6,2.33l.22,1.81a15.21,15.21,0,0,1-.15,3.23,13,13,0,0,1-.52,2.33,11.3,11.3,0,0,1-1.66,3.46,12.78,12.78,0,0,1-5,4c-.75.3-1.57.6-2.33.9a15.14,15.14,0,0,1-3.68.68c-.67.07-1.43.15-2.1.15H66.43V51.26c-.37.75-.75,1.58-1.12,2.33a10.21,10.21,0,0,1-1.66,2.33L62.3,57.27a10.29,10.29,0,0,1-1,.83c-.6.37-1.27.75-1.88,1s-1.42.6-2.18.9a9.49,9.49,0,0,1-2.55.6,11.45,11.45,0,0,1-2.25.23H0Zm32.47-31h0a19.38,19.38,0,0,1-.68-2.93c-.08-.68-.15-1.43-.23-2.11V23.08a4,4,0,0,1,.15-1c.08-.3.08-.6.15-.9H12.55v8.64H32.47V34.2a8.4,8.4,0,0,1-.38,2.7,5.08,5.08,0,0,1-1.65,2.33A7.54,7.54,0,0,1,28,40.36a10.84,10.84,0,0,1-2.18.23H12.55v9.62H51.48a1.54,1.54,0,0,0,.83-.23,3.93,3.93,0,0,0,1.5-1.8,3.82,3.82,0,0,0,.15-2,3.45,3.45,0,0,0-1-2,7.2,7.2,0,0,0-2.48-1.51c-1.13-.45-2.18-.82-3.31-1.2-.75-.3-1.5-.52-2.25-.75a31.72,31.72,0,0,1-3.38-1.35c-.9-.45-1.81-1-2.71-1.5a18.77,18.77,0,0,1-2.63-2c-.45-.45-.9-.91-1.35-1.43a10.82,10.82,0,0,1-1.65-2.48c-.23-.68-.45-1.35-.75-2ZM66.36,40.51V35.85a7.12,7.12,0,0,1,.52-2.78A5.11,5.11,0,0,1,69,30.82a8.47,8.47,0,0,1,3.83-.91h12.1a8.73,8.73,0,0,0,1.35-.07,3.57,3.57,0,0,0,3.08-3.53,6.43,6.43,0,0,0-.22-2.41,3.75,3.75,0,0,0-2-2.25,5.36,5.36,0,0,0-2.18-.38H46.29a2.82,2.82,0,0,0-1.35,1.58,3.58,3.58,0,0,0-.15,1.8,4.37,4.37,0,0,0,.53,1.66,5.29,5.29,0,0,0,2.1,1.8A21,21,0,0,0,51,29.54l3.61,1.13a17.2,17.2,0,0,1,3.23,1.27c.75.38,1.5.76,2.26,1.21a11.59,11.59,0,0,1,2.63,2c.52.53,1,1,1.5,1.58a13.42,13.42,0,0,1,1.43,2.1A10.79,10.79,0,0,0,66.36,40.51Zm12.47,9.7h7.29a6.81,6.81,0,0,0,2.18-.31A3.28,3.28,0,0,0,90,48.7a4.76,4.76,0,0,0,.9-2.85,5.8,5.8,0,0,0-.23-2.26,3.61,3.61,0,0,0-1.43-2.1,5,5,0,0,0-2.93-.9H78.76ZM0,65.09H1.58c.15,0,.22,0,.22.22.38,1.35.76,2.71,1.06,4.06a3.87,3.87,0,0,1,.22.52c.08-.3.15-.52.23-.75.15-.6.3-1.12.45-1.65.22-.75.37-1.5.6-2.25a.15.15,0,0,1,.15-.15H6.16v6.53H4.88L5,66.36H5L3.61,71.62h-1c-.07,0-.07-.07-.15-.15-.3-1.27-.68-2.48-1-3.75-.15-.46-.22-.91-.37-1.36l.15,5.26H0Zm82.29,6.53L81.39,67l-1,4.51H79L77.63,65h1.13c.07,0,.07.08.15.08.07.45.15.9.22,1.27s.15.9.23,1.28c.15.68.22,1.35.38,2.1,0,0,0,.08.07.08.08-.3.15-.6.23-.83.07-.45.15-.82.22-1.27.15-.83.3-1.66.53-2.48.07-.23.15-.31.37-.31H82L83,69.82h.08l.9-4.89H85.3l-.23,1.21c-.22,1.12-.53,2.25-.75,3.38-.15.6-.23,1.13-.38,1.73-.07.3-.07.3-.45.3ZM51.7,66.81l-1.12.45a4.72,4.72,0,0,0-.53-.75,1.57,1.57,0,0,0-1.58-.45,1.66,1.66,0,0,0-1.2,1.13,3.53,3.53,0,0,0,0,2.18,1.79,1.79,0,0,0,2,1.2,1.52,1.52,0,0,0,1.28-1.35v-.15H48.92V68h2.71v3.53H50.58V71.1a3.15,3.15,0,0,1-.83.45A2.83,2.83,0,0,1,46.82,71a3.33,3.33,0,0,1-1.13-2.48,4,4,0,0,1,.53-2.25,2.87,2.87,0,0,1,2.33-1.43,3,3,0,0,1,2.25.68A4.32,4.32,0,0,1,51.7,66.81Zm8.42-1.72v6.53h-1c-.08,0-.08-.07-.15-.15l-1.73-2.78-1-1.58v4.51H55.09V65.09h1c.07,0,.07.07.15.07l1.8,2.93,1,1.5h.07L59,65.09ZM44.56,71.62h-1c-.08,0-.15-.07-.23-.15-.37-.6-.67-1.12-1-1.73l-1.58-2.55c0-.08-.07-.08-.07-.15v4.51H39.53V65h1c.07,0,.15.15.22.23L43.14,69c.15.23.22.38.37.6L43.36,65h1.2ZM95.37,69l1.42,2.63H95.44c-.07,0-.07-.07-.15-.15l-1.2-2.25H93v2.4h-1.2V65.09h2.63a2.09,2.09,0,0,1,1.88.9,2,2,0,0,1-.15,2.48,2.87,2.87,0,0,1-.75.52ZM93,68.17a9.49,9.49,0,0,0,1.5-.08.83.83,0,0,0,.83-.83.94.94,0,0,0-.68-1.05h0A13.09,13.09,0,0,0,93,66.14Zm-74.4,3.45H17.36c-.08,0-.15-.07-.23-.15-.37-.67-.67-1.27-1.05-2-.15-.23-.22-.38-.52-.3H14.8v2.4H13.6V65.09h2.63a2.16,2.16,0,0,1,1.73.75,2.1,2.1,0,0,1-.22,2.85c-.08.08-.23.15-.3.23l-.23.07Zm-3.76-3.45H16c.15,0,.3,0,.37-.08a.76.76,0,0,0,.6-.37,1,1,0,0,0-.15-1.36c-.07-.07-.15-.07-.3-.15a15.6,15.6,0,0,0-1.8-.15Zm10.9,3.45V65.09h4.58v1H27v1.58h3.16v1H27V70.5h3.68v1.12ZM66,67.72v1H62.83V70.5h3.68v1.12H61.62V65.09h4.66v1.12H62.83v1.58Zm24.88,3.9H86V65.09h4.66v1.12H87.18v1.58h3.15v1H87.18v1.73h3.68Zm8.19-6.53v3l1-1.2,1.42-1.65a.47.47,0,0,1,.45-.23h1.21l-2.18,2.48,2.25,4.06h-1.35c-.08,0-.08-.08-.15-.15l-1.58-2.86-.07-.07-.68.82h0c-.38.23-.3.6-.3,1v1.2h-1.2V65ZM20.74,71.62h-1.2V65.09h1.2v3l.45-.52,1.88-2.11c.08-.07.15-.22.3-.3a.3.3,0,0,1,.23-.07h1.27l-.52.6-1.43,1.65a.3.3,0,0,0-.07.38c.45.75.9,1.57,1.35,2.4l.9,1.5H23.75c-.08,0-.08-.07-.15-.07L22,68.77l-.15-.23c-.3.38-.68.75-1,1.13a.28.28,0,0,0-.07.22A12.6,12.6,0,0,0,20.74,71.62ZM73.8,70.5h3.38v1h-5v-1c0-.15.23-.3.38-.45l2-2.55c.38-.46.75-1,1.2-1.43H72.52V65h4.81v1c0,.22-.23.37-.38.52l-2.33,3Zm-62.75-.15H8.72a.15.15,0,0,0-.15.15h0c-.08.37-.23.75-.3,1.12H6.91l.38-1.2,1.2-3.53c.23-.6.38-1.13.6-1.73,0-.07.08-.07.15-.15h1.28l2.26,6.54H11.57c-.07,0-.07-.08-.15-.15-.15-.3-.22-.68-.37-1.05ZM9.84,66.29l-.9,3h1.81ZM34,71.62H32.77V66.21H31V65.09h4.81v1.12H34v5.41Zm34.65,0V66.21H66.88V65.09h4.81v1.12h-1.8v5.41ZM38,71.62H36.82V65.09H38Z"/></svg>