<svg id="Ebene_1" data-name="Ebene 1" xmlns="http://www.w3.org/2000/svg" viewBox="0 0 118.44 66.99"><defs><style>.cls-1{fill:#002dff;}</style></defs><rect class="cls-1" x="37.1" y="56.88" width="1.85" height="6.58"/><path class="cls-1" d="M28.93,61.92a2.06,2.06,0,0,1,0-4.1,2.06,2.06,0,0,1,0,4.1m1.84-5a3,3,0,0,0-2.12-.84,3.77,3.77,0,0,0,0,7.51,3.06,3.06,0,0,0,2.21-.92v.77h1.76V53.06H30.77Z"/><rect class="cls-1" x="79.34" y="53.06" width="1.85" height="10.4"/><path class="cls-1" d="M73.15,60.67c0,.92-.89,1.3-2,1.3-.74,0-1.22-.28-1.22-.68s.56-.73,1.47-.83A4.2,4.2,0,0,0,73.15,60Zm1.72-2.12c0-.58-.23-2.47-3.15-2.47-1.88,0-3.2,1-3.38,2.4h1.85a1.55,1.55,0,0,1,1.58-.91c.82,0,1.31.31,1.31.68,0,.59-.85.73-2.06.84-1.59.14-3,.56-3,2.18s1.4,2.34,2.93,2.34a2.94,2.94,0,0,0,2.21-.81,2.33,2.33,0,0,0,.18.67h1.69a4.34,4.34,0,0,1-.21-1.18Z"/><rect class="cls-1" x="54.8" y="56.88" width="1.85" height="6.58"/><path class="cls-1" d="M46.7,61.92a2.06,2.06,0,0,1,0-4.1,2.06,2.06,0,0,1,0,4.1M48.63,57a3,3,0,0,0-2.21-.93,3.77,3.77,0,0,0,0,7.51,3,3,0,0,0,2.13-.84v.35c0,1.29-.59,2.14-1.89,2.14a1.58,1.58,0,0,1-1.47-.8h-2A3.36,3.36,0,0,0,46.66,67a3.54,3.54,0,0,0,3.73-3.89V56.27H48.63Z"/><path class="cls-1" d="M63.18,60.45V57.9h1.3V56.27h-1.3V54.44H61.34v1.83h-.87V57.9h.87v2.53c0,2,1.12,3.25,3.23,3V61.78c-.92,0-1.39-.33-1.39-1.33"/><path class="cls-1" d="M38,53a1.43,1.43,0,1,0,0,2.86,1.4,1.4,0,0,0,.93-.36h0A1.42,1.42,0,0,0,38,53"/><path class="cls-1" d="M55.72,53a1.43,1.43,0,1,0,1.43,1.43A1.43,1.43,0,0,0,55.72,53"/><path class="cls-1" d="M56.61,21.23V17.6H48.94V45.14h8V34.06c0-2.49.31-5.05,2-6.81,1.82-1.95,4.5-2.31,7.72-1.95V17.52a10.45,10.45,0,0,0-10.09,3.71"/><path class="cls-1" d="M77.43,21.23V17.6H69.76V45.14h8V34.06c0-2.49.31-5.05,2-6.81,1.82-1.95,4.5-2.31,7.73-1.95V17.52a10.46,10.46,0,0,0-10.1,3.71"/><path class="cls-1" d="M11.67,0a6.68,6.68,0,1,0,6.68,6.68A6.68,6.68,0,0,0,11.67,0"/><path class="cls-1" d="M118.4,40.83l-.08-23.1h-8.17l.12,14.13A5.93,5.93,0,0,1,104.19,38c-5.24,0-5.84-4.38-5.84-6.14l-.12-14.13h-8l.12,14.13c0,8.21,4.92,13.74,12.35,13.74a10.27,10.27,0,0,0,7.71-3.31l0,7.83a5.75,5.75,0,0,1-11.5,0v-.54h-8v.3c0,7.85,5.35,13.81,13.75,13.81s13.8-6,13.8-13.81Z"/><path class="cls-1" d="M37.86,28H25.93c.07-.15.14-.3.22-.45a6.06,6.06,0,0,1,5.73-4.09,6,6,0,0,1,5.87,4.2,3.59,3.59,0,0,1,.17.34h-.06M31.92,16.61A14.27,14.27,0,0,0,17.85,31a14,14,0,0,0,27.47,4.44H37.06a5.71,5.71,0,0,1-5.18,2.85A6.16,6.16,0,0,1,26,34.19l-.06-.12h0a5.76,5.76,0,0,1-.18-.59h20A14,14,0,0,0,46,31,14.27,14.27,0,0,0,31.92,16.61"/><path class="cls-1" d="M7.57,50a5.43,5.43,0,0,1-5.72,5.72H0v7.85H2c8.27-.1,13.6-6,13.6-13.8V17.6h-8Z"/></svg>