<svg id="Ebene_1" data-name="Ebene 1" xmlns="http://www.w3.org/2000/svg" viewBox="0 0 85 85.06"><defs><style>.cls-1{opacity:0.9;}.cls-2{fill:#e6e6e6;}</style></defs><g class="cls-1"><path class="cls-2" d="M0,42.44C.73,16.06,18.93,5.31,30.9,1.52,36.39-.19,41.16-.31,41.16.43c0,.48-4.16.12-9.9,2.19C21.13,6.29,6.84,15.32,6,38.53a38.66,38.66,0,0,0,77.31,0,32.77,32.77,0,0,0-1.83-11.24c-1.83-5.49-4.15-8.06-3.18-8.06.74,0,2.81,4.28,4.28,8.31a40.35,40.35,0,0,1,2.44,15,42.5,42.5,0,1,1-85-.12"/><path class="cls-2" d="M38.23,29.13c0-7.58,12.45-6.84,12.45-6.84V49.15c0,1.84,1.22,3.06,3.3,3.06a2.86,2.86,0,0,0,3.18-3.06V21.43c0-6.72,12.33-6.72,12.33-6.72V52.82a14.25,14.25,0,0,1-13.8,12,13.65,13.65,0,0,1-11.11-5.74,13.92,13.92,0,0,1-25-6.23l-.12-2.2V21.55c0-6.71,12.33-6.71,12.33-6.71V49.4a2.92,2.92,0,0,0,3.18,3.05,3.12,3.12,0,0,0,3.42-3.05c-.12-.25-.12-13.92-.12-20.27"/></g></svg>